<svg xmlns="http://www.w3.org/2000/svg" viewBox="0 0 138.13 41.41"><defs><style>.cls-1{fill:#e72e2e;}</style></defs><title>priceBg</title><g id="Layer_2" data-name="Layer 2"><g id="Layer_1-2" data-name="Layer 1"><path class="cls-1" d="M121,10.68c1.23-.65,2.56-.88,3.78-1.53s.76-1.89-.35-2.24C100.52-.61,73.64-1.33,49,2.37A150.69,150.69,0,0,0,21.55,9.09c-6.7,2.34-17.09,5.49-20.47,12.5C-6.26,36.81,25.89,39.7,34.21,40.47c29,2.68,58-.21,85.13-11,5.53-2.19,19.22-6.78,18.78-14.77-.18-3.38-3.26-5.81-5.85-7.5-6-3.91-12.87-5.67-19.79-7.18-1.73-.38-2.71,2-.8,2.37,5.11,1.11,26.51,5.44,23,14.3-1.15,2.94-4.91,5-7.48,6.37a99.15,99.15,0,0,1-13.47,5.82C90.06,37.6,65,40.2,39.85,38.47c-6.5-.45-47.58-4-34.35-18.29,5.22-5.62,15-8.24,22-10.41a152.92,152.92,0,0,1,22.27-5c24.14-3.63,50.46-2.81,73.85,4.54L123.27,7c-1.22.65-2.56.88-3.78,1.53-1.72.91,0,2.9,1.51,2.12Z"/></g></g></svg>