<?xml version="1.0" encoding="utf-8"?>
<!-- Generator: Adobe Illustrator 25.3.1, SVG Export Plug-In . SVG Version: 6.00 Build 0)  -->
<svg version="1.1" id="Layer_1" xmlns="http://www.w3.org/2000/svg" xmlns:xlink="http://www.w3.org/1999/xlink" x="0px" y="0px"
	 viewBox="0 0 225.26 432" style="enable-background:new 0 0 225.26 432;" xml:space="preserve">
<style type="text/css">
	.st0{clip-path:url(#SVGID_2_);fill:#00B5DE;}
	.st1{clip-path:url(#SVGID_2_);fill:#002157;}
	.st2{clip-path:url(#SVGID_2_);fill:none;stroke:#00B5DE;stroke-width:2;}
</style>
<g>
	<defs>
		<rect id="SVGID_1_" width="225.26" height="432"/>
	</defs>
	<clipPath id="SVGID_2_">
		<use xlink:href="#SVGID_1_"  style="overflow:visible;"/>
	</clipPath>
	<path class="st0" d="M18.29,271.68c24.82,0,44.93-20.35,44.93-45.44c0-25.1-20.12-45.44-44.93-45.44s-44.93,20.35-44.93,45.44
		C-26.64,251.34-6.52,271.68,18.29,271.68"/>
	<path class="st1" d="M95.84,477.11c69.23,0,125.36-56.43,125.36-126.04c0-69.61-56.13-126.04-125.36-126.04
		S-29.52,281.46-29.52,351.07C-29.52,420.68,26.61,477.11,95.84,477.11"/>
	<ellipse class="st2" cx="95.84" cy="351.07" rx="125.36" ry="126.04"/>
	<path class="st0" d="M48.43,124.84c40.91,0,74.07-33.37,74.07-74.54S89.34-24.24,48.43-24.24S-25.64,9.13-25.64,50.3
		S7.52,124.84,48.43,124.84"/>
	<path class="st1" d="M13.04,185.12c22.95,0,41.56-18.81,41.56-42.02s-18.6-42.02-41.56-42.02s-41.56,18.81-41.56,42.02
		S-9.91,185.12,13.04,185.12"/>
	<ellipse class="st2" cx="13.04" cy="143.1" rx="41.56" ry="42.02"/>
</g>
</svg>
