<?xml version="1.0" encoding="utf-8"?>
<!-- Generator: Adobe Illustrator 25.3.1, SVG Export Plug-In . SVG Version: 6.00 Build 0)  -->
<svg version="1.1" id="Layer_1" xmlns="http://www.w3.org/2000/svg" xmlns:xlink="http://www.w3.org/1999/xlink" x="0px" y="0px"
	 viewBox="0 0 648 447" style="enable-background:new 0 0 648 447;" xml:space="preserve">
<style type="text/css">
	.st0{clip-path:url(#SVGID_2_);fill:url(#SVGID_3_);}
	.st1{fill:#002157;}
	.st2{fill:#FFFFFF;}
	.st3{font-family:'OpenSans-Bold';}
	.st4{font-size:10px;}
	.st5{clip-path:url(#SVGID_5_);fill:#FEFFFF;}
	.st6{clip-path:url(#SVGID_5_);fill:none;stroke:#FFFFFF;stroke-width:16;}
	.st7{clip-path:url(#SVGID_7_);fill:#F8E800;}
	.st8{clip-path:url(#SVGID_9_);fill:none;stroke:#00B5DE;stroke-width:2;}
</style>
<g>
	<defs>
		<polygon id="SVGID_1_" points="0,223.96 0,447.28 262.28,447.28 344,223.96 		"/>
	</defs>
	<clipPath id="SVGID_2_">
		<use xlink:href="#SVGID_1_"  style="overflow:visible;"/>
	</clipPath>
	
		<linearGradient id="SVGID_3_" gradientUnits="userSpaceOnUse" x1="-0.0581" y1="432.2755" x2="1.0154" y2="432.2755" gradientTransform="matrix(-405.3549 0 0 405.3549 320.4586 -174889.3438)">
		<stop  offset="0" style="stop-color:#002157"/>
		<stop  offset="0.1275" style="stop-color:#00285D"/>
		<stop  offset="0.3114" style="stop-color:#003B6F"/>
		<stop  offset="0.5296" style="stop-color:#005A8B"/>
		<stop  offset="0.7719" style="stop-color:#0086B3"/>
		<stop  offset="1" style="stop-color:#00B5DE"/>
	</linearGradient>
	<rect y="223.96" class="st0" width="344" height="223.32"/>
</g>
<polygon class="st1" points="321.11,0 242,448.67 652,448.67 652,0 "/>
<text transform="matrix(1 0 0 1 394.9648 69)" class="st2 st3 st4">.</text>
<text transform="matrix(1 0 0 1 423.4277 144)" class="st2 st3 st4">                           </text>
<g>
	<defs>
		<rect id="SVGID_4_" width="648" height="432"/>
	</defs>
	<clipPath id="SVGID_5_">
		<use xlink:href="#SVGID_4_"  style="overflow:visible;"/>
	</clipPath>
	<path class="st5" d="M343.08,171.36c-2.49,0-4.5,2.02-4.5,4.5v235.25c0,2.49,2.01,4.5,4.5,4.5h280.86c2.48,0,4.5-2.01,4.5-4.5
		V175.86c0-2.48-2.02-4.5-4.5-4.5H343.08z"/>
	<line class="st6" x1="283.97" y1="215.96" x2="-9" y2="215.96"/>
</g>
<g>
	<defs>
		<rect id="SVGID_6_" width="648" height="432"/>
	</defs>
	<clipPath id="SVGID_7_">
		<use xlink:href="#SVGID_6_"  style="overflow:visible;"/>
	</clipPath>
	<path class="st7" d="M616.57,393.39l-3.66-4.65l2.21-5.49c0.1-0.25,0.02-0.54-0.2-0.7l-4.83-3.43l0.56-5.89
		c0.02-0.27-0.14-0.52-0.39-0.61l-5.6-1.93l-1.12-5.81c-0.05-0.27-0.28-0.46-0.55-0.47l-5.92-0.29l-2.71-5.26
		c-0.12-0.24-0.39-0.36-0.66-0.3l-5.76,1.39l-4.09-4.28c-0.19-0.2-0.48-0.24-0.72-0.1l-5.13,2.96l-5.13-2.96
		c-0.23-0.13-0.53-0.09-0.72,0.1l-4.09,4.28l-5.76-1.39c-0.26-0.06-0.53,0.06-0.66,0.3l-2.71,5.26l-5.92,0.29
		c-0.27,0.01-0.5,0.21-0.55,0.47l-1.12,5.81l-5.6,1.93c-0.26,0.09-0.42,0.34-0.39,0.61l0.56,5.89l-4.83,3.43
		c-0.22,0.16-0.3,0.44-0.2,0.69l2.21,5.49l-3.66,4.65c-0.17,0.21-0.17,0.51,0,0.72l3.66,4.65l-2.21,5.49
		c-0.1,0.25-0.02,0.54,0.2,0.69l4.83,3.43l-0.56,5.89c-0.03,0.27,0.14,0.52,0.39,0.61l5.6,1.93l1.12,5.81
		c0.05,0.26,0.28,0.46,0.55,0.47l5.92,0.29l2.71,5.26c0.12,0.24,0.4,0.36,0.66,0.3l5.76-1.39l4.09,4.27c0.19,0.2,0.48,0.24,0.72,0.1
		l5.13-2.96l5.13,2.96c0.09,0.05,0.19,0.08,0.29,0.08c0.16,0,0.31-0.06,0.42-0.18l4.09-4.27l5.76,1.39c0.26,0.06,0.53-0.06,0.66-0.3
		l2.71-5.26l5.92-0.29c0.27-0.01,0.5-0.21,0.55-0.47l1.12-5.81l5.6-1.93c0.26-0.09,0.42-0.34,0.39-0.61l-0.56-5.89l4.83-3.43
		c0.22-0.16,0.3-0.44,0.2-0.69l-2.2-5.49l3.66-4.65C616.74,393.9,616.74,393.6,616.57,393.39"/>
</g>
<polygon class="st2" points="318.95,0 239.84,448.67 251.69,448.67 330.8,0 "/>
<g>
	<defs>
		<polygon id="SVGID_8_" points="318.95,0 239.84,448.67 251.69,448.67 330.8,0 		"/>
	</defs>
	<clipPath id="SVGID_9_">
		<use xlink:href="#SVGID_8_"  style="overflow:visible;"/>
	</clipPath>
	<line class="st8" x1="333.39" y1="-18.62" x2="251.2" y2="447.54"/>
</g>
</svg>
