<?xml version="1.0" encoding="utf-8"?>
<!-- Generator: Adobe Illustrator 25.3.1, SVG Export Plug-In . SVG Version: 6.00 Build 0)  -->
<svg version="1.1" id="Layer_1" xmlns="http://www.w3.org/2000/svg" xmlns:xlink="http://www.w3.org/1999/xlink" x="0px" y="0px"
	 viewBox="0 0 648 245.87" style="enable-background:new 0 0 648 245.87;" xml:space="preserve">
<style type="text/css">
	.st0{clip-path:url(#SVGID_2_);fill:#00B5DE;}
	.st1{clip-path:url(#SVGID_2_);fill:#002157;}
	.st2{clip-path:url(#SVGID_2_);fill:none;stroke:#00B5DE;stroke-width:2;}
	.st3{clip-path:url(#SVGID_2_);fill:none;stroke:#00B5DE;stroke-width:1.607;}
</style>
<g>
	<defs>
		<rect id="SVGID_1_" width="648" height="245.87"/>
	</defs>
	<clipPath id="SVGID_2_">
		<use xlink:href="#SVGID_1_"  style="overflow:visible;"/>
	</clipPath>
	<path class="st0" d="M349.8,44.64c15.58,0,28.2-12.81,28.2-28.62S365.38-12.6,349.8-12.6c-15.58,0-28.21,12.81-28.21,28.62
		S334.22,44.64,349.8,44.64"/>
	<rect x="324" y="32.9" class="st1" width="324" height="84.68"/>
	<rect y="167.05" class="st0" width="295.43" height="69.11"/>
	<path class="st1" d="M302.57,81.42c26.29,0,47.61-21.19,47.61-47.33s-21.31-47.33-47.61-47.33c-26.29,0-47.61,21.19-47.61,47.33
		S276.28,81.42,302.57,81.42"/>
	<path class="st2" d="M302.57,81.42c26.29,0,47.61-21.19,47.61-47.33s-21.31-47.33-47.61-47.33c-26.29,0-47.61,21.19-47.61,47.33
		S276.28,81.42,302.57,81.42z"/>
	<path class="st0" d="M301.88,159.79c26.46,0,47.92-21.77,47.92-48.62c0-26.85-21.45-48.62-47.92-48.62
		c-26.46,0-47.92,21.77-47.92,48.62C253.96,138.02,275.42,159.79,301.88,159.79"/>
	<path class="st1" d="M294.05,243.79c30.34,0,54.94-24.76,54.94-55.3s-24.6-55.3-54.94-55.3c-30.34,0-54.94,24.76-54.94,55.3
		S263.71,243.79,294.05,243.79"/>
	<ellipse class="st3" cx="294.05" cy="188.49" rx="54.94" ry="55.3"/>
</g>
</svg>
