<?xml version="1.0" encoding="utf-8"?>
<!-- Generator: Adobe Illustrator 25.3.1, SVG Export Plug-In . SVG Version: 6.00 Build 0)  -->
<svg version="1.1" id="Layer_1" xmlns="http://www.w3.org/2000/svg" xmlns:xlink="http://www.w3.org/1999/xlink" x="0px" y="0px"
	 viewBox="0 0 104.54 103.34" style="enable-background:new 0 0 104.54 103.34;" xml:space="preserve">
<style type="text/css">
	.st0{fill:#F8E800;}
</style>
<path class="st0" d="M103.9,51.43l-4.86-6.2l2.93-7.31c0.13-0.33,0.02-0.72-0.27-0.93l-6.42-4.57l0.74-7.84
	c0.03-0.36-0.18-0.69-0.52-0.81l-7.45-2.57l-1.49-7.74c-0.07-0.35-0.37-0.61-0.73-0.63l-7.87-0.38l-3.61-7.01
	c-0.16-0.32-0.52-0.48-0.88-0.4l-7.66,1.86l-5.44-5.7c-0.25-0.26-0.64-0.32-0.95-0.14L52.6,5l-6.82-3.94
	c-0.31-0.18-0.71-0.12-0.95,0.14l-5.44,5.7l-7.66-1.86c-0.35-0.08-0.71,0.08-0.88,0.4l-3.61,7l-7.87,0.38
	c-0.36,0.02-0.66,0.28-0.73,0.63l-1.49,7.74l-7.45,2.57c-0.34,0.12-0.55,0.45-0.52,0.81l0.74,7.84l-6.42,4.57
	c-0.29,0.21-0.41,0.59-0.27,0.93l2.93,7.31l-4.86,6.2c-0.22,0.28-0.22,0.68,0,0.96l4.86,6.2L3.24,65.9
	c-0.13,0.33-0.02,0.72,0.27,0.93l6.42,4.57l-0.74,7.84c-0.03,0.36,0.18,0.69,0.52,0.81l7.45,2.57l1.49,7.74
	c0.07,0.35,0.37,0.61,0.73,0.63l7.87,0.38l3.61,7.01c0.17,0.32,0.53,0.49,0.88,0.4l7.66-1.85l5.45,5.69
	c0.25,0.26,0.64,0.32,0.95,0.14l6.82-3.94l6.82,3.94c0.12,0.07,0.26,0.1,0.39,0.1c0.21,0,0.41-0.08,0.56-0.24l5.44-5.69l7.66,1.86
	c0.35,0.08,0.71-0.08,0.88-0.4l3.61-7.01l7.87-0.38c0.36-0.02,0.66-0.28,0.73-0.63l1.49-7.74l7.45-2.57
	c0.34-0.12,0.55-0.45,0.52-0.81l-0.74-7.84l6.42-4.57c0.29-0.21,0.4-0.59,0.27-0.93l-2.93-7.31l4.86-6.2
	C104.12,52.11,104.12,51.71,103.9,51.43"/>
</svg>
