<svg id="Layer_1" data-name="Layer 1" xmlns="http://www.w3.org/2000/svg" xmlns:xlink="http://www.w3.org/1999/xlink" viewBox="0 0 648 432"><defs><style>.cls-1,.cls-19{fill:none;}.cls-2{clip-path:url(#clip-path);}.cls-3{clip-path:url(#clip-path-2);}.cls-4{opacity:0.1;}.cls-5{clip-path:url(#clip-path-4);}.cls-6{fill:#5d5d5d;}.cls-7{clip-path:url(#clip-path-5);}.cls-8{clip-path:url(#clip-path-6);}.cls-9{fill:#ede811;}.cls-10{fill:#3067a7;}.cls-11{fill:#002157;}.cls-12{clip-path:url(#clip-path-8);}.cls-13{opacity:0.5;}.cls-14{clip-path:url(#clip-path-9);}.cls-15{font-size:6px;fill:#231f20;font-family:Arial-ItalicMT, Arial;font-style:italic;}.cls-16{letter-spacing:-0.02em;}.cls-17{letter-spacing:-0.05em;}.cls-18{fill:#fff;}.cls-19{stroke:#d2232a;stroke-miterlimit:10;stroke-width:1.12px;}</style><clipPath id="clip-path"><rect class="cls-1" x="-0.17" y="-0.14" width="648.17" height="432.14"/></clipPath><clipPath id="clip-path-2"><rect class="cls-1" x="-3.17" y="-116.63" width="501.23" height="517.91"/></clipPath><clipPath id="clip-path-4"><rect class="cls-1" x="14.23" y="36.54" width="279.11" height="365.74"/></clipPath><clipPath id="clip-path-5"><rect class="cls-1" x="148.83" y="4.62" width="279.11" height="365.74"/></clipPath><clipPath id="clip-path-6"><rect class="cls-1" x="227.94" y="-123.63" width="279.11" height="365.74"/></clipPath><clipPath id="clip-path-8"><rect class="cls-1" x="-9.17" y="-7.14" width="254.59" height="361.79"/></clipPath><clipPath id="clip-path-9"><rect class="cls-1" x="14.23" y="367.96" width="316.72" height="31.46"/></clipPath></defs><title>postcardBack</title><g class="cls-2"><g class="cls-3"><g class="cls-3"><g class="cls-4"><g class="cls-5"><polygon class="cls-6" points="24.32 43.54 284.34 222.41 23.23 401.28 24.32 43.54"/></g></g><g class="cls-4"><g class="cls-7"><polygon class="cls-6" points="158.93 11.62 418.95 190.49 157.84 369.36 158.93 11.62"/></g></g><g class="cls-4"><g class="cls-8"><polygon class="cls-9" points="238.03 -116.63 498.05 62.24 236.94 241.11 238.03 -116.63"/></g></g></g><polygon class="cls-10" points="334.98 68.53 97.39 230.53 335.98 392.53 334.98 68.53"/><polygon class="cls-11" points="-0.17 -0.14 -3.17 353.65 236.42 190.93 236.42 -0.14 -0.17 -0.14"/><g class="cls-3"><g class="cls-4"><g class="cls-12"><polygon class="cls-6" points="236.42 -0.14 236.42 353.65 -0.17 190.93 -0.17 -0.14 236.42 -0.14"/></g></g><g class="cls-13"><g class="cls-14"><text class="cls-15" transform="translate(23.23 379.33)">This is merely a proposal and not a policy of insurance or offer to insure. The company reserves the right </text><text class="cls-15" transform="translate(23.23 386.53)">to accept, reject or modify this proposal after investigation, review of the application and review of all other </text><text class="cls-15" transform="translate(23.23 393.73)">underwriting information.<tspan class="cls-16" x="65.7" y="0"> </tspan><tspan class="cls-17" x="67.27" y="0">Y</tspan><tspan x="70.94" y="0">our rate could vary based on differences in your home, your age and other factors.</tspan></text></g></g></g><polygon class="cls-18" points="239.67 190.49 219.22 204.18 239.67 217.87 239.67 190.49"/><polygon class="cls-18" points="239.67 217.87 219.22 231.56 239.67 245.26 239.67 217.87"/><polygon class="cls-18" points="239.67 245.26 219.22 258.95 239.67 272.64 239.67 245.26"/><polygon class="cls-18" points="239.67 272.64 219.22 286.33 239.67 300.02 239.67 272.64"/><polygon class="cls-18" points="239.67 300.02 219.22 313.72 239.67 327.41 239.67 300.02"/><polygon class="cls-18" points="219.22 204.18 198.77 217.87 219.22 231.56 219.22 204.18"/><polygon class="cls-18" points="219.22 258.95 198.77 272.64 219.22 286.33 219.22 258.95"/><polygon class="cls-18" points="219.22 286.33 198.77 300.02 219.22 313.72 219.22 286.33"/><polygon class="cls-18" points="198.77 217.87 178.32 231.56 198.77 245.26 198.77 217.87"/><polygon class="cls-18" points="198.77 245.26 178.32 258.95 198.77 272.64 198.77 245.26"/><polygon class="cls-18" points="198.77 272.64 178.32 286.33 198.77 300.02 198.77 272.64"/><polygon class="cls-18" points="178.32 231.56 157.88 245.26 178.32 258.95 178.32 231.56"/><polygon class="cls-18" points="178.32 258.95 157.88 272.64 178.32 286.33 178.32 258.95"/><polygon class="cls-18" points="157.88 245.26 137.43 258.95 157.88 272.64 157.88 245.26"/><polygon class="cls-9" points="236.94 353.65 498.05 174.78 236.42 -4.09 236.94 353.65"/><path class="cls-11" d="M249.56,124.4l.88-6.79-.76-.13.07-.57h3.15l-.05.57-.89.13-.87,6.79.9.16-.05.52H248.7l.06-.52Z"/><path class="cls-11" d="M253.37,119.6l.09-.48,1.7-.28.27.13-.09,1.11a3.24,3.24,0,0,1,1-.9,2.08,2.08,0,0,1,1.14-.34,1.24,1.24,0,0,1,1,.38,1.8,1.8,0,0,1,.35,1.24,6.91,6.91,0,0,1-.07.75c-.05.31-.12.7-.2,1.16,0,.17-.05.31-.07.39s0,.18-.06.37-.06.37-.07.53a3,3,0,0,0,0,.39c0,.22.06.32.17.32a.49.49,0,0,0,.18-.05,1.92,1.92,0,0,0,.29-.2l.16.35a1.38,1.38,0,0,1-.27.24,2.56,2.56,0,0,1-.5.26,1.76,1.76,0,0,1-.66.12,1,1,0,0,1-.7-.2.75.75,0,0,1-.21-.56,3.26,3.26,0,0,1,0-.48l.09-.58c0-.19.06-.31.07-.37l.05-.25c.08-.45.14-.83.19-1.15a5.78,5.78,0,0,0,.07-.89,1.74,1.74,0,0,0-.05-.51.41.41,0,0,0-.16-.23.6.6,0,0,0-.29-.06,1.29,1.29,0,0,0-.78.36,3.8,3.8,0,0,0-.75.91l-.55,4h-1.43l.7-5.17Z"/><path class="cls-11" d="M260.5,124.15a2.26,2.26,0,0,0,.82.16,1.41,1.41,0,0,0,.67-.16.61.61,0,0,0,.28-.56.82.82,0,0,0-.12-.43,1.9,1.9,0,0,0-.32-.38c-.14-.11-.31-.25-.53-.4a2.14,2.14,0,0,1-1.07-1.78,1.51,1.51,0,0,1,.3-.92,2,2,0,0,1,.82-.62,3,3,0,0,1,1.2-.22,5.62,5.62,0,0,1,.81.06,2.55,2.55,0,0,1,.57.14l-.22,1a.89.89,0,0,0-.22-.21,1.74,1.74,0,0,0-.41-.21,1.27,1.27,0,0,0-.52-.1,1.11,1.11,0,0,0-.65.18.59.59,0,0,0-.27.54.87.87,0,0,0,.23.58,4.08,4.08,0,0,0,.69.61,5.65,5.65,0,0,1,.6.5,2,2,0,0,1,.38.55,1.72,1.72,0,0,1,.16.74,1.52,1.52,0,0,1-.33,1,2,2,0,0,1-.87.62,3.22,3.22,0,0,1-1.18.21,5.45,5.45,0,0,1-.68,0,4.25,4.25,0,0,1-.61-.14,1.1,1.1,0,0,1-.37-.16l.23-.94A2.59,2.59,0,0,0,260.5,124.15Z"/><path class="cls-11" d="M265.47,119.89l-.6-.37.08-.5,1.79-.22.27.16-.37,2.9c0,.21-.05.38-.07.5,0,.28-.07.5-.09.67a3.54,3.54,0,0,0,0,.45,1,1,0,0,0,.15.61.58.58,0,0,0,.47.18,1.23,1.23,0,0,0,.64-.2,2.34,2.34,0,0,0,.56-.48l.65-4.75h1.44l-.69,5a1.38,1.38,0,0,1,0,.14c0,.18.06.27.19.27a.38.38,0,0,0,.19-.06,1.83,1.83,0,0,0,.33-.24l.16.35a1.53,1.53,0,0,1-.27.3,2.49,2.49,0,0,1-.51.33,1.58,1.58,0,0,1-.65.14,1,1,0,0,1-.61-.17.6.6,0,0,1-.21-.48.87.87,0,0,1,0-.2l0,0a3,3,0,0,1-.78.64,2,2,0,0,1-1,.25,1.65,1.65,0,0,1-1.05-.33,1.31,1.31,0,0,1-.44-1.07,5.9,5.9,0,0,1,0-.66c0-.26.07-.57.13-.93l0-.28Z"/><path class="cls-11" d="M271.62,119.6l.09-.48,1.57-.28.28.16-.1,1.33a2.87,2.87,0,0,1,.39-.7,2.19,2.19,0,0,1,.64-.57,1.55,1.55,0,0,1,.82-.22.64.64,0,0,1,.2,0,.26.26,0,0,1,.15.06l-.31,1.57a.71.71,0,0,0-.23-.1,1.28,1.28,0,0,0-.36,0,1.7,1.7,0,0,0-.74.16,1.32,1.32,0,0,0-.56.54l-.53,4H271.5l.68-5.16Z"/><path class="cls-11" d="M280,118.9a4.61,4.61,0,0,1,.59.15l.73-.21-.69,5a.34.34,0,0,0,0,.11.36.36,0,0,0,.06.22.17.17,0,0,0,.13.07.9.9,0,0,0,.49-.24l.16.34a1.51,1.51,0,0,1-.26.28,1.89,1.89,0,0,1-.48.31,1.48,1.48,0,0,1-.63.13.93.93,0,0,1-.6-.18.64.64,0,0,1-.21-.54l0-.07a2.76,2.76,0,0,1-.74.57,1.85,1.85,0,0,1-.9.22,1.54,1.54,0,0,1-1.35-.62,2.78,2.78,0,0,1-.44-1.63,4.35,4.35,0,0,1,.43-1.89,3.68,3.68,0,0,1,1.24-1.52,3.19,3.19,0,0,1,1.92-.59A3.38,3.38,0,0,1,280,118.9Zm-.22.72a1.64,1.64,0,0,0-.52-.07,1.4,1.4,0,0,0-1.1.49,3.23,3.23,0,0,0-.63,1.24,5.81,5.81,0,0,0-.2,1.49,2.53,2.53,0,0,0,.2,1.11.64.64,0,0,0,.58.39,1.06,1.06,0,0,0,.59-.19,3,3,0,0,0,.54-.48Z"/><path class="cls-11" d="M282.61,119.6l.09-.48,1.7-.28.26.13-.09,1.11a3.15,3.15,0,0,1,1-.9,2.07,2.07,0,0,1,1.13-.34,1.24,1.24,0,0,1,1,.38,1.75,1.75,0,0,1,.35,1.24,5,5,0,0,1-.07.75c-.05.31-.11.7-.19,1.16,0,.17-.06.31-.07.39s0,.18-.06.37-.06.37-.08.53a3,3,0,0,0,0,.39c0,.22.06.32.17.32a.54.54,0,0,0,.19-.05,2.62,2.62,0,0,0,.29-.2l.15.35a1.38,1.38,0,0,1-.27.24,2.46,2.46,0,0,1-.49.26,1.81,1.81,0,0,1-.67.12,1,1,0,0,1-.7-.2.78.78,0,0,1-.2-.56,3.08,3.08,0,0,1,0-.48c0-.2.06-.39.1-.58l.06-.37,0-.25c.08-.45.15-.83.2-1.15a7.38,7.38,0,0,0,.07-.89,1.69,1.69,0,0,0-.06-.51.37.37,0,0,0-.16-.23.57.57,0,0,0-.29-.06,1.24,1.24,0,0,0-.77.36,3.61,3.61,0,0,0-.76.91l-.54,4h-1.44l.7-5.17Z"/><path class="cls-11" d="M289.53,120.84a3.66,3.66,0,0,1,1.14-1.44,3,3,0,0,1,1.81-.56,4.2,4.2,0,0,1,.69.06,2.58,2.58,0,0,1,.6.16l-.38,1.45a.35.35,0,0,0-.16,0l-.11,0c-.21-.24-.39-.44-.54-.59a.66.66,0,0,0-.42-.22,1,1,0,0,0-.74.34,2.47,2.47,0,0,0-.55,1,5.07,5.07,0,0,0-.2,1.47,2.65,2.65,0,0,0,.25,1.33.82.82,0,0,0,.76.41,1.64,1.64,0,0,0,.73-.15,2.6,2.6,0,0,0,.66-.48l.29.49a2.6,2.6,0,0,1-.47.47,2.73,2.73,0,0,1-.74.4,2.64,2.64,0,0,1-1,.17,2,2,0,0,1-1.08-.28,1.89,1.89,0,0,1-.69-.85,3.34,3.34,0,0,1-.24-1.34A4.45,4.45,0,0,1,289.53,120.84Z"/><path class="cls-11" d="M298.42,119a1.24,1.24,0,0,1,.55.48,1.31,1.31,0,0,1,.18.69,1.68,1.68,0,0,1-.57,1.28,3.63,3.63,0,0,1-1.37.78,5,5,0,0,1-1.49.26,3,3,0,0,0,.09.87,1.23,1.23,0,0,0,.36.62.84.84,0,0,0,.62.24,2.33,2.33,0,0,0,1.7-.83l.3.49a2.53,2.53,0,0,1-.51.54,3.21,3.21,0,0,1-.82.47,2.81,2.81,0,0,1-1.06.19,2.28,2.28,0,0,1-1.27-.33,2,2,0,0,1-.75-.87,2.77,2.77,0,0,1-.24-1.16,4.39,4.39,0,0,1,.44-2,3.74,3.74,0,0,1,1.21-1.42,2.94,2.94,0,0,1,1.7-.52A2.31,2.31,0,0,1,298.42,119Zm-.86.72a.47.47,0,0,0-.4-.19.92.92,0,0,0-.75.37,2.75,2.75,0,0,0-.47.9,5.1,5.1,0,0,0-.21,1.06,2.27,2.27,0,0,0,.86-.2,2.21,2.21,0,0,0,.79-.55,1.21,1.21,0,0,0,.32-.82A1,1,0,0,0,297.56,119.73Z"/><path class="cls-11" d="M302.79,119.6l.09-.48,1.57-.28.27.16-.09,1.33a2.58,2.58,0,0,1,.39-.7,2.07,2.07,0,0,1,.64-.57,1.55,1.55,0,0,1,.82-.22.64.64,0,0,1,.2,0,.26.26,0,0,1,.15.06l-.31,1.57a.71.71,0,0,0-.23-.1,1.28,1.28,0,0,0-.36,0,1.7,1.7,0,0,0-.74.16,1.27,1.27,0,0,0-.56.54l-.53,4h-1.43l.68-5.16Z"/><path class="cls-11" d="M311.2,118.9a4.61,4.61,0,0,1,.59.15l.73-.21-.69,5a.34.34,0,0,0,0,.11.45.45,0,0,0,.05.22.21.21,0,0,0,.14.07.93.93,0,0,0,.49-.24l.16.34a2,2,0,0,1-.26.28,1.89,1.89,0,0,1-.48.31,1.48,1.48,0,0,1-.63.13.91.91,0,0,1-.6-.18.64.64,0,0,1-.21-.54l0-.07a2.93,2.93,0,0,1-.74.57,1.87,1.87,0,0,1-.9.22,1.54,1.54,0,0,1-1.35-.62,2.71,2.71,0,0,1-.44-1.63,4.48,4.48,0,0,1,.42-1.89,3.79,3.79,0,0,1,1.25-1.52,3.19,3.19,0,0,1,1.92-.59A3.38,3.38,0,0,1,311.2,118.9Zm-.22.72a1.64,1.64,0,0,0-.52-.07,1.4,1.4,0,0,0-1.1.49,3,3,0,0,0-.63,1.24,5.81,5.81,0,0,0-.2,1.49,2.53,2.53,0,0,0,.2,1.11.63.63,0,0,0,.58.39,1,1,0,0,0,.58-.19,2.75,2.75,0,0,0,.55-.48Z"/><path class="cls-11" d="M314.29,119.65h-.64l.12-.55.65-.26a2.2,2.2,0,0,0,.41-.59c.14-.26.27-.56.4-.87H316l-.17,1.46h1.24l-.11.81h-1.23l-.45,3.26a6.55,6.55,0,0,0-.09.83.56.56,0,0,0,.09.36.48.48,0,0,0,.33.1,1.41,1.41,0,0,0,.49-.11,1.6,1.6,0,0,0,.47-.25l.12.42a2,2,0,0,1-.45.38,3.14,3.14,0,0,1-.69.32,2.51,2.51,0,0,1-.82.13,1.13,1.13,0,0,1-.73-.22.87.87,0,0,1-.29-.73c0-.13,0-.47.11-1Z"/><path class="cls-11" d="M321.64,119a1.24,1.24,0,0,1,.55.48,1.31,1.31,0,0,1,.18.69,1.68,1.68,0,0,1-.57,1.28,3.6,3.6,0,0,1-1.38.78,4.86,4.86,0,0,1-1.48.26,3,3,0,0,0,.09.87,1.23,1.23,0,0,0,.36.62.83.83,0,0,0,.62.24,2.34,2.34,0,0,0,1.7-.83l.3.49a2.53,2.53,0,0,1-.51.54,3.21,3.21,0,0,1-.82.47,2.81,2.81,0,0,1-1.06.19,2.28,2.28,0,0,1-1.27-.33,2,2,0,0,1-.75-.87,2.77,2.77,0,0,1-.24-1.16,4.39,4.39,0,0,1,.44-2,3.74,3.74,0,0,1,1.21-1.42,2.94,2.94,0,0,1,1.7-.52A2.31,2.31,0,0,1,321.64,119Zm-.86.72a.47.47,0,0,0-.4-.19.92.92,0,0,0-.75.37,2.75,2.75,0,0,0-.47.9,5.1,5.1,0,0,0-.21,1.06,2.27,2.27,0,0,0,.86-.2,2.21,2.21,0,0,0,.79-.55,1.21,1.21,0,0,0,.32-.82A1,1,0,0,0,320.78,119.73Z"/><path class="cls-11" d="M323.66,124.15a2.25,2.25,0,0,0,.81.16,1.41,1.41,0,0,0,.67-.16.59.59,0,0,0,.28-.56.82.82,0,0,0-.12-.43,1.62,1.62,0,0,0-.32-.38,6.52,6.52,0,0,0-.53-.4,2.16,2.16,0,0,1-1.07-1.78,1.51,1.51,0,0,1,.3-.92,2,2,0,0,1,.83-.62,3,3,0,0,1,1.19-.22,5.76,5.76,0,0,1,.82.06,2.58,2.58,0,0,1,.56.14l-.22,1a.74.74,0,0,0-.22-.21,1.66,1.66,0,0,0-.4-.21,1.35,1.35,0,0,0-.53-.1,1.13,1.13,0,0,0-.65.18.59.59,0,0,0-.26.54.86.86,0,0,0,.22.58,4.08,4.08,0,0,0,.69.61,5.65,5.65,0,0,1,.6.5,2.26,2.26,0,0,1,.39.55,1.72,1.72,0,0,1,.15.74,1.52,1.52,0,0,1-.33,1,1.9,1.9,0,0,1-.86.62,3.31,3.31,0,0,1-1.19.21,5.16,5.16,0,0,1-.67,0,4.1,4.1,0,0,1-.62-.14,1.21,1.21,0,0,1-.37-.16l.23-.94A2.68,2.68,0,0,0,323.66,124.15Z"/><path class="cls-11" d="M330.75,120.84a3.49,3.49,0,0,1,1.14-1.44,3,3,0,0,1,1.81-.56,4.18,4.18,0,0,1,.68.06,2.83,2.83,0,0,1,.61.16l-.39,1.45a.35.35,0,0,0-.16,0l-.11,0a6.78,6.78,0,0,0-.54-.59.66.66,0,0,0-.42-.22,1,1,0,0,0-.74.34,2.47,2.47,0,0,0-.55,1,5.07,5.07,0,0,0-.2,1.47,2.65,2.65,0,0,0,.25,1.33.82.82,0,0,0,.76.41,1.68,1.68,0,0,0,.74-.15,3,3,0,0,0,.66-.48l.28.49a2.61,2.61,0,0,1-1.21.87,2.62,2.62,0,0,1-1,.17,2,2,0,0,1-1.08-.28,1.91,1.91,0,0,1-.7-.85,3.34,3.34,0,0,1-.24-1.34A4.3,4.3,0,0,1,330.75,120.84Z"/><path class="cls-11" d="M339.42,121.54a6.38,6.38,0,0,0,.07-.93,1.69,1.69,0,0,0-.06-.51.38.38,0,0,0-.17-.23.54.54,0,0,0-.27-.06,1.27,1.27,0,0,0-.8.38,3.9,3.9,0,0,0-.77,1l-.5,3.94h-1.46l1-8-.66-.23.09-.44,1.86-.23.28.15-.48,3.8a3.41,3.41,0,0,1,1-1,2.06,2.06,0,0,1,1.16-.36,1.26,1.26,0,0,1,1,.38,1.8,1.8,0,0,1,.35,1.24,12.92,12.92,0,0,1-.27,1.91l-.05.3c-.06.36-.11.64-.14.83a4.91,4.91,0,0,0,0,.53.59.59,0,0,0,0,.26.16.16,0,0,0,.13.08.48.48,0,0,0,.21-.06,1.39,1.39,0,0,0,.31-.21l.17.34a1.9,1.9,0,0,1-.28.25,2,2,0,0,1-.52.28,1.92,1.92,0,0,1-.69.12,1,1,0,0,1-.7-.2.77.77,0,0,1-.2-.57,4.28,4.28,0,0,1,0-.55l.15-.85.05-.27C339.3,122.25,339.37,121.88,339.42,121.54Z"/><path class="cls-11" d="M346.36,118.9a4.22,4.22,0,0,1,.59.15l.74-.21-.7,5s0,.06,0,.11a.36.36,0,0,0,.06.22.17.17,0,0,0,.14.07.93.93,0,0,0,.49-.24l.16.34a1.65,1.65,0,0,1-.27.28,1.89,1.89,0,0,1-.48.31,1.44,1.44,0,0,1-.62.13.94.94,0,0,1-.61-.18.63.63,0,0,1-.2-.54l0-.07a2.88,2.88,0,0,1-.73.57,1.87,1.87,0,0,1-.9.22,1.57,1.57,0,0,1-1.36-.62,2.78,2.78,0,0,1-.44-1.63,4.35,4.35,0,0,1,.43-1.89,3.76,3.76,0,0,1,1.24-1.52,3.32,3.32,0,0,1,2.52-.53Zm-.22.72a1.64,1.64,0,0,0-.52-.07,1.38,1.38,0,0,0-1.09.49,3,3,0,0,0-.63,1.24,5.4,5.4,0,0,0-.2,1.49,2.39,2.39,0,0,0,.2,1.11.62.62,0,0,0,.58.39,1,1,0,0,0,.58-.19,2.7,2.7,0,0,0,.54-.48Z"/><path class="cls-11" d="M348.94,119.6l.09-.48,1.7-.28.27.13-.1,1.11a3.4,3.4,0,0,1,1-.9,2.07,2.07,0,0,1,1.13-.34,1.26,1.26,0,0,1,1,.38,1.8,1.8,0,0,1,.35,1.24,5.33,5.33,0,0,1-.08.75c0,.31-.11.7-.19,1.16,0,.17-.05.31-.07.39s0,.18-.06.37-.06.37-.08.53,0,.28,0,.39.05.32.16.32a.49.49,0,0,0,.19-.05,1.92,1.92,0,0,0,.29-.2l.16.35a2,2,0,0,1-.28.24,2.46,2.46,0,0,1-.49.26,1.78,1.78,0,0,1-.67.12,1,1,0,0,1-.7-.2.78.78,0,0,1-.2-.56,3.08,3.08,0,0,1,0-.48c0-.2.06-.39.1-.58l.06-.37.05-.25c.08-.45.15-.83.2-1.15a5.78,5.78,0,0,0,.07-.89,1.69,1.69,0,0,0-.06-.51.37.37,0,0,0-.16-.23.55.55,0,0,0-.28-.06,1.27,1.27,0,0,0-.78.36,3.58,3.58,0,0,0-.75.91l-.55,4h-1.44l.7-5.17Z"/><path class="cls-11" d="M359.73,118.91a4.65,4.65,0,0,1,.62.16l.77-.23-1,6.67a2.43,2.43,0,0,1-.6,1.38,3,3,0,0,1-1.15.75,4.29,4.29,0,0,1-1.38.22,4.11,4.11,0,0,1-.75-.07,2,2,0,0,1-.57-.15l.27-1.11a3.46,3.46,0,0,0,.66.31,2.27,2.27,0,0,0,.82.17,1.7,1.7,0,0,0,.66-.1.66.66,0,0,0,.36-.34,2.48,2.48,0,0,0,.2-.75l.17-1.35a2.19,2.19,0,0,1-.67.45,2.14,2.14,0,0,1-.84.17,1.76,1.76,0,0,1-1-.29,1.74,1.74,0,0,1-.61-.8,3,3,0,0,1-.2-1.16,4.48,4.48,0,0,1,.42-1.89,3.79,3.79,0,0,1,1.25-1.52,3.19,3.19,0,0,1,1.92-.59A2.91,2.91,0,0,1,359.73,118.91Zm-.17.75a1.42,1.42,0,0,0-.61-.11,1.39,1.39,0,0,0-1.1.49,3.1,3.1,0,0,0-.63,1.24,5.85,5.85,0,0,0-.2,1.48,2.23,2.23,0,0,0,.22,1.08.68.68,0,0,0,.6.39,1.16,1.16,0,0,0,.61-.18,2.26,2.26,0,0,0,.53-.45Z"/><path class="cls-11" d="M366.17,119a1.19,1.19,0,0,1,.55.48,1.31,1.31,0,0,1,.18.69,1.68,1.68,0,0,1-.57,1.28,3.63,3.63,0,0,1-1.37.78,5,5,0,0,1-1.49.26,3,3,0,0,0,.09.87,1.31,1.31,0,0,0,.36.62.84.84,0,0,0,.62.24,2.33,2.33,0,0,0,1.7-.83l.3.49a2.53,2.53,0,0,1-.51.54,3,3,0,0,1-.82.47,2.76,2.76,0,0,1-1,.19,2.3,2.3,0,0,1-1.28-.33,2,2,0,0,1-.75-.87,2.77,2.77,0,0,1-.24-1.16,4.39,4.39,0,0,1,.44-2,3.74,3.74,0,0,1,1.21-1.42,3,3,0,0,1,1.7-.52A2.31,2.31,0,0,1,366.17,119Zm-.86.72a.47.47,0,0,0-.4-.19.93.93,0,0,0-.75.37,2.75,2.75,0,0,0-.47.9,5.1,5.1,0,0,0-.21,1.06,2.27,2.27,0,0,0,.86-.2,2.21,2.21,0,0,0,.79-.55,1.21,1.21,0,0,0,.32-.82A1,1,0,0,0,365.31,119.73Z"/><path class="cls-11" d="M370.63,120.94a3.71,3.71,0,0,1,1.23-1.51,3.12,3.12,0,0,1,1.93-.59,3,3,0,0,1,.63.07l.27-1.79-.76-.23.1-.44,1.93-.23.29.15-1.1,7.48a1.06,1.06,0,0,0,0,.15c0,.18.06.27.17.27a.59.59,0,0,0,.19,0,2.72,2.72,0,0,0,.29-.19l.16.33a2.38,2.38,0,0,1-.54.48,1.36,1.36,0,0,1-.83.25.83.83,0,0,1-.62-.21,1,1,0,0,1-.2-.67,2.32,2.32,0,0,1-.72.63,2,2,0,0,1-1,.25,1.61,1.61,0,0,1-1.63-1.09,3.21,3.21,0,0,1-.19-1.16A4.67,4.67,0,0,1,370.63,120.94Zm3.68-1.26a1.43,1.43,0,0,0-.67-.13,1.36,1.36,0,0,0-1.09.5,3.3,3.3,0,0,0-.63,1.24,5.93,5.93,0,0,0-.19,1.5,2.32,2.32,0,0,0,.21,1.09.66.66,0,0,0,.6.39,1.17,1.17,0,0,0,.65-.21,2.18,2.18,0,0,0,.53-.52Z"/><path class="cls-11" d="M381,118.9a4.22,4.22,0,0,1,.59.15l.74-.21-.7,5V124a.36.36,0,0,0,0,.22.19.19,0,0,0,.14.07.93.93,0,0,0,.49-.24l.16.34a1.65,1.65,0,0,1-.27.28,1.59,1.59,0,0,1-.48.31,1.44,1.44,0,0,1-.62.13.94.94,0,0,1-.61-.18.66.66,0,0,1-.2-.54l0-.07a3.12,3.12,0,0,1-.74.57,1.87,1.87,0,0,1-.9.22,1.57,1.57,0,0,1-1.36-.62,2.78,2.78,0,0,1-.44-1.63,4.5,4.5,0,0,1,.43-1.89,3.85,3.85,0,0,1,1.24-1.52,3.25,3.25,0,0,1,1.93-.59A3.19,3.19,0,0,1,381,118.9Zm-.22.72a1.6,1.6,0,0,0-.52-.07,1.38,1.38,0,0,0-1.09.49,3,3,0,0,0-.63,1.24,5.81,5.81,0,0,0-.2,1.49,2.53,2.53,0,0,0,.2,1.11.62.62,0,0,0,.58.39,1,1,0,0,0,.58-.19,2.75,2.75,0,0,0,.55-.48Z"/><path class="cls-11" d="M383.49,119.47l.09-.45,1.91-.28.29.13-.72,5c0,.07,0,.12,0,.15s.06.26.17.26a.4.4,0,0,0,.21-.07,1.83,1.83,0,0,0,.32-.23l.16.35a2.53,2.53,0,0,1-.29.3,2.17,2.17,0,0,1-.5.33,1.69,1.69,0,0,1-.68.14,1.11,1.11,0,0,1-.66-.17.56.56,0,0,1-.24-.49s0-.08,0-.1c.05-.41.15-1.15.31-2.22l.32-2.33Zm1-2.93a.95.95,0,0,1,.81-.47.84.84,0,0,1,.42.1.81.81,0,0,1,.28.27.65.65,0,0,1,.1.36,1,1,0,0,1-.12.49.84.84,0,0,1-.34.36,1,1,0,0,1-.52.13.7.7,0,0,1-.37-.11.75.75,0,0,1-.28-.28.72.72,0,0,1-.11-.37A.91.91,0,0,1,384.52,116.54Z"/><path class="cls-11" d="M388,117l-.68-.23.1-.44,1.85-.23.27.15-1,7.59s0,.09,0,.15.06.26.17.26a.41.41,0,0,0,.2-.06,1.83,1.83,0,0,0,.33-.24l.16.35a2.31,2.31,0,0,1-.28.3,2.08,2.08,0,0,1-.49.32,1.41,1.41,0,0,1-.65.15,1.2,1.2,0,0,1-.66-.17.62.62,0,0,1-.25-.55,3.73,3.73,0,0,1,0-.42Z"/><path class="cls-11" d="M390.42,119.79a.16.16,0,0,0-.14-.07l-.15,0a.65.65,0,0,0-.19.14l-.16-.4a1.25,1.25,0,0,1,.26-.25,2.54,2.54,0,0,1,.47-.28,1.39,1.39,0,0,1,.57-.12,1,1,0,0,1,.63.18.91.91,0,0,1,.25.56c0,.21.09.57.16,1.09s.13.89.16,1.13c.12.92.21,1.55.26,1.88l.14,1.24.55-1.14.06-.14q.3-.66.48-1.11a6.57,6.57,0,0,0,.28-.92,3.87,3.87,0,0,0,.12-1,1.42,1.42,0,0,0,0-.31c0-.08-.06-.18-.1-.29l-.08-.29a1,1,0,0,1,0-.27.63.63,0,0,1,.18-.48.73.73,0,0,1,.52-.18.72.72,0,0,1,.63.3,1.27,1.27,0,0,1,.22.77,4.46,4.46,0,0,1-.12,1,7.8,7.8,0,0,1-.32.93c-.13.29-.3.65-.52,1.09l-.08.17c-.31.64-.65,1.29-1,1.92s-.7,1.16-1,1.55a2.42,2.42,0,0,1-2.16,1.26,3.26,3.26,0,0,1-.58-.06,2.14,2.14,0,0,1-.46-.14l.35-1a1.44,1.44,0,0,0,.39.18,1.79,1.79,0,0,0,.57.08,1.59,1.59,0,0,0,.94-.35,3.63,3.63,0,0,0,.91-1.15h-.83L390.51,120A.77.77,0,0,0,390.42,119.79Z"/><path class="cls-11" d="M397.44,123.57a.73.73,0,0,1,.19.52,1,1,0,0,1-.15.54.93.93,0,0,1-.37.34,1.07,1.07,0,0,1-.49.12.64.64,0,0,1-.48-.2.75.75,0,0,1-.19-.53.95.95,0,0,1,.49-.87.87.87,0,0,1,.46-.13A.69.69,0,0,1,397.44,123.57Z"/><path class="cls-11" d="M250,142l.09,1.06a1.82,1.82,0,0,0,.5.26,2,2,0,0,0,.61.09,2.31,2.31,0,0,0,.82-.14,1.27,1.27,0,0,0,.54-.42,1.09,1.09,0,0,0,.2-.65,1.17,1.17,0,0,0-.16-.62,1.94,1.94,0,0,0-.44-.53,6.45,6.45,0,0,0-.76-.53,6.45,6.45,0,0,1-.92-.67,2.73,2.73,0,0,1-.63-.77,2,2,0,0,1-.24-1A1.92,1.92,0,0,1,250,137a2.37,2.37,0,0,1,1-.78,3.71,3.71,0,0,1,1.45-.27,5.6,5.6,0,0,1,1.26.12,2.72,2.72,0,0,1,.79.3l-.27,1.49h-.82l-.16-1a1.61,1.61,0,0,0-.92-.26,1.76,1.76,0,0,0-.66.12,1.06,1.06,0,0,0-.47.35.87.87,0,0,0-.18.56,1.44,1.44,0,0,0,.17.69,2.07,2.07,0,0,0,.47.57,6.72,6.72,0,0,0,.82.56,7.12,7.12,0,0,1,.89.64,2.56,2.56,0,0,1,.6.72,1.81,1.81,0,0,1,.23.93,2.23,2.23,0,0,1-.35,1.22,2.48,2.48,0,0,1-1,.86,3.94,3.94,0,0,1-1.6.31,6.49,6.49,0,0,1-1.9-.28,1.83,1.83,0,0,1-.5-.23l.28-1.57Z"/><path class="cls-11" d="M255.94,138.65h-.64l.12-.55.66-.26a2.2,2.2,0,0,0,.4-.59c.14-.27.27-.56.4-.88h.79l-.18,1.47h1.25l-.12.81h-1.23l-.45,3.26a8.26,8.26,0,0,0-.08.83.51.51,0,0,0,.09.35.42.42,0,0,0,.33.1,1.42,1.42,0,0,0,.49-.1,2.06,2.06,0,0,0,.47-.25l.12.42a2.62,2.62,0,0,1-.45.38,3.5,3.5,0,0,1-.7.32,2.76,2.76,0,0,1-.82.13,1.14,1.14,0,0,1-.73-.23.85.85,0,0,1-.28-.72,9.19,9.19,0,0,1,.11-1Z"/><path class="cls-11" d="M264,138.49a2.67,2.67,0,0,1,.6,1.88,4.15,4.15,0,0,1-.42,1.85,3.41,3.41,0,0,1-1.16,1.36,2.94,2.94,0,0,1-1.7.51,2.17,2.17,0,0,1-1.72-.66,2.76,2.76,0,0,1-.59-1.89,4.25,4.25,0,0,1,.41-1.85,3.38,3.38,0,0,1,1.16-1.35,2.93,2.93,0,0,1,1.7-.5A2.17,2.17,0,0,1,264,138.49Zm-1.22.5a.74.74,0,0,0-.69-.44,1,1,0,0,0-.84.44,3,3,0,0,0-.5,1.12,6,6,0,0,0-.17,1.4v.16a3,3,0,0,0,.26,1.31.73.73,0,0,0,.7.43,1,1,0,0,0,.83-.45,3.14,3.14,0,0,0,.49-1.14,6.71,6.71,0,0,0,.15-1.42A3.31,3.31,0,0,0,262.75,139Z"/><path class="cls-11" d="M266.42,146.86H265l1.08-8-.58-.34.09-.46,1.75-.27.27.12-.06.56a2.19,2.19,0,0,1,.67-.49,1.9,1.9,0,0,1,.86-.19,1.67,1.67,0,0,1,1.39.6,2.73,2.73,0,0,1,.47,1.68,4.38,4.38,0,0,1-.44,1.91,3.77,3.77,0,0,1-1.24,1.49,3.15,3.15,0,0,1-1.86.57,2.85,2.85,0,0,1-.61-.07Zm.49-3.59a1.57,1.57,0,0,0,.66.11,1.36,1.36,0,0,0,1.05-.47,3.12,3.12,0,0,0,.62-1.22,5.92,5.92,0,0,0,.19-1.52,2.34,2.34,0,0,0-.21-1.07.68.68,0,0,0-.62-.4,1.09,1.09,0,0,0-.62.2,2.19,2.19,0,0,0-.51.5Z"/><path class="cls-11" d="M279.3,138.49a2.72,2.72,0,0,1,.59,1.88,4.28,4.28,0,0,1-.41,1.85,3.58,3.58,0,0,1-1.16,1.36,3,3,0,0,1-1.71.51,2.19,2.19,0,0,1-1.72-.66,2.76,2.76,0,0,1-.59-1.89,4.25,4.25,0,0,1,.41-1.85,3.46,3.46,0,0,1,1.16-1.35,3,3,0,0,1,1.7-.5A2.2,2.2,0,0,1,279.3,138.49Zm-1.22.5a.76.76,0,0,0-.7-.44,1,1,0,0,0-.83.44,3,3,0,0,0-.51,1.12,6,6,0,0,0-.16,1.4v.16a3,3,0,0,0,.25,1.31.74.74,0,0,0,.7.43,1,1,0,0,0,.83-.45,3.14,3.14,0,0,0,.49-1.14,6.71,6.71,0,0,0,.15-1.42A3.33,3.33,0,0,0,278.08,139Z"/><path class="cls-11" d="M281,139a.6.6,0,0,0-.08-.22.17.17,0,0,0-.14-.07.33.33,0,0,0-.15,0l-.15.09-.15-.39a1.35,1.35,0,0,1,.24-.23A2.33,2.33,0,0,1,281,138a1.3,1.3,0,0,1,.56-.11,1,1,0,0,1,.63.18.81.81,0,0,1,.25.54l.44,3.27.12,1.07.43-.63a8.06,8.06,0,0,0,.73-1.37,4.92,4.92,0,0,0,.32-1.36,1.22,1.22,0,0,0,0-.27c0-.09,0-.19-.07-.31a1.58,1.58,0,0,1-.08-.46.67.67,0,0,1,.18-.49.77.77,0,0,1,.52-.17.71.71,0,0,1,.64.31,1.42,1.42,0,0,1,.21.82,4,4,0,0,1-.57,1.8,12.85,12.85,0,0,1-1.46,2.1l-1,1.21H282l-.38-2Z"/><path class="cls-11" d="M290.68,138a1.23,1.23,0,0,1,.55.47,1.37,1.37,0,0,1,.17.7,1.68,1.68,0,0,1-.57,1.28,3.92,3.92,0,0,1-1.37.78,4.89,4.89,0,0,1-1.49.25,2.77,2.77,0,0,0,.1.88,1.3,1.3,0,0,0,.35.62.84.84,0,0,0,.62.23,2.29,2.29,0,0,0,1.7-.83l.3.5a2.49,2.49,0,0,1-.51.54,3.14,3.14,0,0,1-.81.47,3.07,3.07,0,0,1-1.06.19,2.32,2.32,0,0,1-1.28-.33,2,2,0,0,1-.74-.87,2.77,2.77,0,0,1-.24-1.16,4.36,4.36,0,0,1,.44-1.95,3.58,3.58,0,0,1,1.21-1.42,2.94,2.94,0,0,1,1.7-.52A2.15,2.15,0,0,1,290.68,138Zm-.87.72a.47.47,0,0,0-.4-.2.92.92,0,0,0-.74.38,2.34,2.34,0,0,0-.47.9,6,6,0,0,0-.22,1.05,2.25,2.25,0,0,0,.87-.19,2.11,2.11,0,0,0,.78-.56,1.15,1.15,0,0,0,.32-.82A.87.87,0,0,0,289.81,138.73Z"/><path class="cls-11" d="M292.44,138.59l.09-.48,1.57-.27.28.16-.1,1.32a2.73,2.73,0,0,1,.39-.7,2.17,2.17,0,0,1,.64-.56,1.55,1.55,0,0,1,.82-.22.65.65,0,0,1,.2,0,.35.35,0,0,1,.15.07l-.31,1.57a.71.71,0,0,0-.23-.1,1.28,1.28,0,0,0-.36,0,1.7,1.7,0,0,0-.74.16,1.24,1.24,0,0,0-.56.53l-.53,4h-1.43l.68-5.16Z"/><path class="cls-11" d="M297.77,146.86h-1.4l1.08-8-.58-.34.09-.46,1.75-.27.27.12-.06.56a2.19,2.19,0,0,1,.67-.49,1.92,1.92,0,0,1,.87-.19,1.66,1.66,0,0,1,1.38.6,2.73,2.73,0,0,1,.47,1.68,4.38,4.38,0,0,1-.44,1.91,3.77,3.77,0,0,1-1.24,1.49,3.15,3.15,0,0,1-1.86.57,2.85,2.85,0,0,1-.61-.07Zm.49-3.59a1.57,1.57,0,0,0,.66.11,1.36,1.36,0,0,0,1.05-.47,3,3,0,0,0,.62-1.22,5.92,5.92,0,0,0,.19-1.52,2.34,2.34,0,0,0-.21-1.07.67.67,0,0,0-.61-.4,1.12,1.12,0,0,0-.63.2,2.19,2.19,0,0,0-.51.5Z"/><path class="cls-11" d="M307.27,137.9l.59.14.73-.2-.7,5v.1a.42.42,0,0,0,.05.22.17.17,0,0,0,.14.08.93.93,0,0,0,.49-.24l.16.33a1.55,1.55,0,0,1-.26.29,2.19,2.19,0,0,1-.48.3,1.52,1.52,0,0,1-.63.14.85.85,0,0,1-.6-.19.61.61,0,0,1-.21-.54l0-.07a2.53,2.53,0,0,1-.74.57,1.88,1.88,0,0,1-.9.23,1.54,1.54,0,0,1-1.35-.62,2.73,2.73,0,0,1-.44-1.63,4.56,4.56,0,0,1,.42-1.9,3.82,3.82,0,0,1,1.25-1.51,3.13,3.13,0,0,1,1.92-.59A3.38,3.38,0,0,1,307.27,137.9Zm-.22.72a1.64,1.64,0,0,0-.53-.08,1.39,1.39,0,0,0-1.09.5,3,3,0,0,0-.63,1.23,5.89,5.89,0,0,0-.2,1.5,2.51,2.51,0,0,0,.2,1.1.64.64,0,0,0,.58.4,1,1,0,0,0,.58-.2,2.23,2.23,0,0,0,.55-.48Z"/><path class="cls-11" d="M309.84,138.78a.19.19,0,0,0-.14-.07.42.42,0,0,0-.15,0,.61.61,0,0,0-.2.13l-.15-.39a1,1,0,0,1,.26-.25,1.77,1.77,0,0,1,.47-.28,1.39,1.39,0,0,1,.57-.12.9.9,0,0,1,.62.18.92.92,0,0,1,.26.55c0,.21.09.58.16,1.1s.12.89.16,1.12c.12.92.21,1.55.26,1.89l.13,1.24.56-1.15.06-.13c.2-.45.36-.82.47-1.11a5.48,5.48,0,0,0,.29-.92,3.93,3.93,0,0,0,.12-1,1.42,1.42,0,0,0,0-.31l-.1-.3a2.55,2.55,0,0,1-.08-.28,1.12,1.12,0,0,1,0-.27.66.66,0,0,1,.18-.49.76.76,0,0,1,.52-.17.72.72,0,0,1,.63.3,1.25,1.25,0,0,1,.22.77,3.86,3.86,0,0,1-.13,1,5.19,5.19,0,0,1-.32.94c-.12.29-.29.65-.51,1.09l-.08.16c-.31.65-.65,1.29-1,1.93s-.7,1.15-1,1.55a2.43,2.43,0,0,1-2.16,1.26,2.6,2.6,0,0,1-.58-.07,1.64,1.64,0,0,1-.46-.13l.35-1a1.17,1.17,0,0,0,.39.19,2.12,2.12,0,0,0,.57.08,1.54,1.54,0,0,0,.94-.36,3.52,3.52,0,0,0,.91-1.15H311L309.92,139A.74.74,0,0,0,309.84,138.78Z"/><path class="cls-11" d="M315.63,138.47l.09-.46,1.92-.28.28.13-.71,5a1,1,0,0,0,0,.15c0,.17.05.26.16.26a.55.55,0,0,0,.22-.07,2.59,2.59,0,0,0,.32-.24l.15.35a1.94,1.94,0,0,1-.29.31,1.87,1.87,0,0,1-.5.32,1.54,1.54,0,0,1-.68.15,1.11,1.11,0,0,1-.66-.17.56.56,0,0,1-.23-.49v-.11c.05-.4.16-1.14.31-2.21l.33-2.33Zm1-2.93a.88.88,0,0,1,.34-.35,1,1,0,0,1,.47-.13.82.82,0,0,1,.42.11.61.61,0,0,1,.28.27.65.65,0,0,1,.1.36,1.14,1.14,0,0,1-.11.49.9.9,0,0,1-.34.36,1.12,1.12,0,0,1-.53.13.72.72,0,0,1-.37-.11.83.83,0,0,1-.28-.28.75.75,0,0,1-.1-.38A.94.94,0,0,1,316.66,135.54Z"/><path class="cls-11" d="M319.23,138.59l.09-.48,1.7-.27.26.12-.09,1.12a3.32,3.32,0,0,1,1-.91,2.14,2.14,0,0,1,1.13-.33,1.25,1.25,0,0,1,1,.37,1.8,1.8,0,0,1,.35,1.25,4.82,4.82,0,0,1-.07.74c-.05.32-.11.71-.19,1.17,0,.17-.06.3-.07.39s0,.17-.06.37-.06.37-.08.52a3.28,3.28,0,0,0,0,.4c0,.21.06.32.17.32a.41.41,0,0,0,.19-.06,2.24,2.24,0,0,0,.29-.19l.16.34a1.9,1.9,0,0,1-.28.25,2.46,2.46,0,0,1-.49.26,1.81,1.81,0,0,1-.67.12,1,1,0,0,1-.7-.21.76.76,0,0,1-.2-.55,3.08,3.08,0,0,1,0-.48c0-.2.06-.39.1-.58l.06-.38.05-.24c.08-.45.15-.83.2-1.15a5.78,5.78,0,0,0,.07-.89,1.69,1.69,0,0,0-.06-.51.37.37,0,0,0-.16-.24.57.57,0,0,0-.29-.06,1.21,1.21,0,0,0-.77.37,3.61,3.61,0,0,0-.76.91l-.54,4h-1.44l.7-5.17Z"/><path class="cls-11" d="M330,137.91a4.65,4.65,0,0,1,.62.16l.77-.23-1,6.67a2.5,2.5,0,0,1-.6,1.37,2.8,2.8,0,0,1-1.15.75,4.34,4.34,0,0,1-1.38.23,4,4,0,0,1-.75-.07,2.74,2.74,0,0,1-.57-.15l.27-1.11a4.2,4.2,0,0,0,.66.31,2.21,2.21,0,0,0,.82.16,1.94,1.94,0,0,0,.66-.09.68.68,0,0,0,.36-.35,2.11,2.11,0,0,0,.19-.74l.18-1.35a2.19,2.19,0,0,1-.67.45,2.14,2.14,0,0,1-.84.17,1.7,1.7,0,0,1-1-.3,1.72,1.72,0,0,1-.62-.8,3.15,3.15,0,0,1-.19-1.15,4.56,4.56,0,0,1,.42-1.9,3.82,3.82,0,0,1,1.25-1.51,3.13,3.13,0,0,1,1.92-.59A2.91,2.91,0,0,1,330,137.91Zm-.17.74a1.64,1.64,0,0,0-.62-.11,1.39,1.39,0,0,0-1.09.5,3,3,0,0,0-.63,1.24,5.79,5.79,0,0,0-.2,1.48,2.17,2.17,0,0,0,.22,1.08.68.68,0,0,0,.6.39,1.16,1.16,0,0,0,.61-.18,2.26,2.26,0,0,0,.53-.45Z"/><path class="cls-11" d="M334,142.56a.74.74,0,0,1,.19.52,1,1,0,0,1-.15.55.93.93,0,0,1-.37.34,1.07,1.07,0,0,1-.49.12.62.62,0,0,1-.47-.2.74.74,0,0,1-.2-.53,1,1,0,0,1,.14-.52,1,1,0,0,1,.35-.35.87.87,0,0,1,.46-.13A.73.73,0,0,1,334,142.56Zm1.45-8.14-1.35,6.82h-.94l.71-6.82Z"/><path class="cls-19" d="M397.13,208.29l-5.2,5.21m2.16-5.21-5.2,5.21m2.17-5.21-5.21,5.21m2.17-5.21-5.21,5.21m2.17-5.21-5.21,5.21m2.17-5.21-5.21,5.21m2.17-5.21-5.21,5.21m2.17-5.21-5.21,5.21m2.17-5.21-5.21,5.21m2.17-5.21-5.21,5.21m2.17-5.21-5.21,5.21m2.17-5.21-5.2,5.21m2.16-5.21-5.2,5.21m2.16-5.21-5.2,5.21m2.16-5.21-5.2,5.21m2.16-5.21-5.2,5.21m2.17-5.21-5.21,5.21m2.17-5.21-5.21,5.21m2.17-5.21-5.21,5.21m2.17-5.21-5.21,5.21m2.17-5.21-5.21,5.21m2.17-5.21-5.21,5.21m2.17-5.21-5.21,5.21m2.17-5.21L322,213.5m2.17-5.21L319,213.5m2.17-5.21-5.21,5.21m2.17-5.21-5.2,5.21m2.16-5.21-5.2,5.21m2.16-5.21-5.2,5.21m2.16-5.21-5.2,5.21m2.16-5.21-5.2,5.21m2.17-5.21-5.21,5.21m2.17-5.21-5.21,5.21m2.17-5.21-5.21,5.21m2.17-5.21-5.21,5.21m2.17-5.21-5.21,5.21m2.17-5.21-5.21,5.21m2.17-5.21-5.21,5.21m2.17-5.21-5.21,5.21m2.17-5.21-5.21,5.21m2.17-5.21-5.2,5.21m2.16-5.21-5.2,5.21m2.16-5.21-5.2,5.21m2.16-5.21-5.2,5.21m2.16-5.21-5.2,5.21m2.17-5.21-5.21,5.21m2.17-5.21-5.21,5.21m2.17-5.21-5.21,5.21"/><path class="cls-11" d="M249.08,166.65a5,5,0,0,1,.2-1.41,4.77,4.77,0,0,1,.55-1.21,4.64,4.64,0,0,1,.84-1,5.06,5.06,0,0,1,1.05-.73,5.18,5.18,0,0,1,1.21-.45,5.79,5.79,0,0,1,1.31-.15,6.75,6.75,0,0,1,.81,0l.68.1.54.12.45.11-.12,2.28h-1.23l-.42-1.2a.66.66,0,0,0-.37-.27,1.64,1.64,0,0,0-.36-.07,4,4,0,0,0-.54,0,1.87,1.87,0,0,0-.9.22,2.09,2.09,0,0,0-.72.64,3.24,3.24,0,0,0-.49,1,5.07,5.07,0,0,0-.17,1.42,6.59,6.59,0,0,0,.07,1,5.47,5.47,0,0,0,.2.93,6,6,0,0,0,.34.81,2.83,2.83,0,0,0,.48.63,2.07,2.07,0,0,0,.6.43,1.73,1.73,0,0,0,.73.15,3.72,3.72,0,0,0,.62,0,1.89,1.89,0,0,0,.41-.1.66.66,0,0,0,.25-.15.68.68,0,0,0,.13-.18l.48-1.18h1v2.09a2.29,2.29,0,0,0-.48.1,6.21,6.21,0,0,1-.6.19,8.06,8.06,0,0,1-.83.19,7.58,7.58,0,0,1-1.15.08,5.27,5.27,0,0,1-2-.34,4,4,0,0,1-1.44-.94,4,4,0,0,1-.87-1.4A4.91,4.91,0,0,1,249.08,166.65Z"/><path class="cls-11" d="M257.81,168.59a1.44,1.44,0,0,1,.32-.61,2.15,2.15,0,0,1,.56-.47,4.79,4.79,0,0,1,.72-.34,7.76,7.76,0,0,1,.79-.22c.27-.06.53-.1.77-.13s.47,0,.67,0a3.16,3.16,0,0,0-.08-.76,1.12,1.12,0,0,0-.25-.46.81.81,0,0,0-.39-.23,2.09,2.09,0,0,0-.53-.06,4,4,0,0,0-.71.06,4.07,4.07,0,0,0-.58.15,3.13,3.13,0,0,0-.42.16,1.21,1.21,0,0,0-.23.14l-.4-.91a3.07,3.07,0,0,1,.34-.2,4.31,4.31,0,0,1,.61-.24c.26-.07.55-.14.89-.2a7.69,7.69,0,0,1,1.13-.08,5.2,5.2,0,0,1,1.08.11,2.17,2.17,0,0,1,.86.38,1.82,1.82,0,0,1,.55.74,2.88,2.88,0,0,1,.2,1.18v3.54h.77v.63a1.8,1.8,0,0,1-.34.17l-.4.1-.41.05H263l-.28,0a1.4,1.4,0,0,1-.35-.1,1,1,0,0,1-.29-.2.57.57,0,0,1-.13-.35,3,3,0,0,1-.72.48,2.32,2.32,0,0,1-1,.19,3.39,3.39,0,0,1-1.28-.21,2,2,0,0,1-.8-.55,1.64,1.64,0,0,1-.36-.79A2.21,2.21,0,0,1,257.81,168.59Zm2,.34a1,1,0,0,0,.32.82,1.2,1.2,0,0,0,.94.17,1.1,1.1,0,0,0,.29-.09,1.38,1.38,0,0,0,.24-.14c0-.34,0-.67,0-1v-1l-.39,0a2.57,2.57,0,0,0-.4.07,2.15,2.15,0,0,0-.38.15,1.5,1.5,0,0,0-.33.23,1.12,1.12,0,0,0-.22.33A1.25,1.25,0,0,0,259.84,168.93Z"/><path class="cls-11" d="M264.92,170.1l.69-.15v-7.16l-.79-.34v-.82l2.53-.28.34.1v8.47l1,.18v.8h-3.79Z"/><path class="cls-11" d="M269.23,170.1l.69-.15v-7.16l-.79-.34v-.82l2.52-.28.34.1v8.47l1,.18v.8h-3.79Z"/><path class="cls-11" d="M277.46,165.39h-.89v-.66a3.27,3.27,0,0,0,.6-.16,1.42,1.42,0,0,0,.48-.27,1.86,1.86,0,0,0,.37-.53,5.74,5.74,0,0,0,.38-1h1v1.56h2v1h-1.91v2.14c0,.52,0,.94,0,1.24a3.1,3.1,0,0,0,.11.7.52.52,0,0,0,.22.31.73.73,0,0,0,.35.07h.26l.29,0,.27-.07a.76.76,0,0,0,.2-.08l.3.66a1.43,1.43,0,0,1-.37.28,3.14,3.14,0,0,1-.55.23,4.51,4.51,0,0,1-.68.16,4.77,4.77,0,0,1-.76.06,2.47,2.47,0,0,1-.84-.13,1.21,1.21,0,0,1-.52-.39,1.62,1.62,0,0,1-.26-.67,5.5,5.5,0,0,1-.08-1Z"/><path class="cls-11" d="M282.26,167.61a3.82,3.82,0,0,1,.32-1.55,3.12,3.12,0,0,1,.79-1.08,3.32,3.32,0,0,1,1.14-.62,4.63,4.63,0,0,1,1.34-.21,4.18,4.18,0,0,1,1.41.2A2.61,2.61,0,0,1,289,166a4.59,4.59,0,0,1-.06,3,3.13,3.13,0,0,1-.78,1.12,3.06,3.06,0,0,1-1.13.66,4,4,0,0,1-1.33.22,4.21,4.21,0,0,1-1.6-.27A2.85,2.85,0,0,1,283,170a2.81,2.81,0,0,1-.59-1.09A4.45,4.45,0,0,1,282.26,167.61Zm3.49,2.57a.92.92,0,0,0,.66-.24,1.67,1.67,0,0,0,.38-.62,3.55,3.55,0,0,0,.18-.85,7.5,7.5,0,0,0,0-.94,5.62,5.62,0,0,0,0-.57,5.23,5.23,0,0,0-.06-.57,4.26,4.26,0,0,0-.14-.54,1.81,1.81,0,0,0-.22-.44,1.18,1.18,0,0,0-.33-.3.94.94,0,0,0-.45-.11,1.21,1.21,0,0,0-.48.1,1.35,1.35,0,0,0-.35.28,1.87,1.87,0,0,0-.25.41,3.8,3.8,0,0,0-.15.51,4.89,4.89,0,0,0-.08.57,5.52,5.52,0,0,0,0,.58,5.43,5.43,0,0,0,0,.55c0,.2,0,.4.08.6a3.9,3.9,0,0,0,.14.59,2,2,0,0,0,.24.51,1.42,1.42,0,0,0,.34.35A.78.78,0,0,0,285.75,170.18Z"/><path class="cls-11" d="M290.07,167.73a3.37,3.37,0,0,1,.3-1.44,3.46,3.46,0,0,1,.82-1.14,3.8,3.8,0,0,1,1.21-.73,4.09,4.09,0,0,1,1.48-.27h.31a3.18,3.18,0,0,1,.4,0v-1.41l-1.3-.34v-.82l3-.28.38.15v8.6h.83v.63a2.69,2.69,0,0,1-.64.22,5,5,0,0,1-1.14.11,1.56,1.56,0,0,1-.62-.11.71.71,0,0,1-.35-.31,2,2,0,0,1-.68.29,5.06,5.06,0,0,1-.53.1c-.2,0-.42,0-.67,0a2.72,2.72,0,0,1-.63-.08,2.69,2.69,0,0,1-.64-.26,2.66,2.66,0,0,1-.59-.44,2.38,2.38,0,0,1-.48-.63,3.42,3.42,0,0,1-.33-.85A4.38,4.38,0,0,1,290.07,167.73Zm3.3,2.31a1.14,1.14,0,0,0,.41.07,3.28,3.28,0,0,0,.47,0,2.14,2.14,0,0,0,.34-.08v-4.85a1.3,1.3,0,0,0-.45-.17l-.44,0-.23,0a1.1,1.1,0,0,0-.31.12,1.65,1.65,0,0,0-.32.25,1.74,1.74,0,0,0-.3.42,3.83,3.83,0,0,0-.22.63,4.42,4.42,0,0,0-.09.88,5.71,5.71,0,0,0,.07,1.06,2.87,2.87,0,0,0,.24.81,2,2,0,0,0,.37.57A1.37,1.37,0,0,0,293.37,170Z"/><path class="cls-11" d="M298.23,168.59a1.33,1.33,0,0,1,.32-.61,2.15,2.15,0,0,1,.56-.47,4.79,4.79,0,0,1,.72-.34,7.1,7.1,0,0,1,.79-.22,7.74,7.74,0,0,1,.77-.13c.25,0,.47,0,.67,0A2.68,2.68,0,0,0,302,166a1,1,0,0,0-.24-.46.86.86,0,0,0-.39-.23,2.15,2.15,0,0,0-.53-.06,3.92,3.92,0,0,0-.71.06,4.07,4.07,0,0,0-.58.15,3.13,3.13,0,0,0-.42.16,1.21,1.21,0,0,0-.23.14l-.4-.91a2.7,2.7,0,0,1,.33-.2,4.5,4.5,0,0,1,.62-.24c.25-.07.55-.14.89-.2a7.69,7.69,0,0,1,1.13-.08,5.2,5.2,0,0,1,1.08.11,2.07,2.07,0,0,1,.85.38,1.76,1.76,0,0,1,.56.74,3.05,3.05,0,0,1,.2,1.18v3.54h.77v.63a1.8,1.8,0,0,1-.34.17l-.4.1-.41.05h-.37l-.29,0a1.46,1.46,0,0,1-.34-.1,1,1,0,0,1-.29-.2.52.52,0,0,1-.13-.35,2.89,2.89,0,0,1-.73.48,2.24,2.24,0,0,1-1,.19,3.36,3.36,0,0,1-1.28-.21,1.93,1.93,0,0,1-.8-.55,1.47,1.47,0,0,1-.36-.79A2.21,2.21,0,0,1,298.23,168.59Zm2,.34a1,1,0,0,0,.32.82,1.19,1.19,0,0,0,.94.17,1.23,1.23,0,0,0,.29-.09,1.38,1.38,0,0,0,.24-.14v-1c0-.34,0-.67,0-1l-.39,0a2.57,2.57,0,0,0-.4.07,2.62,2.62,0,0,0-.39.15,1.44,1.44,0,0,0-.32.23,1,1,0,0,0-.22.33A1.06,1.06,0,0,0,300.26,168.93Z"/><path class="cls-11" d="M305.79,172.43l.36.06a2,2,0,0,0,.51,0,1.16,1.16,0,0,0,.33-.06,1,1,0,0,0,.4-.21,1.86,1.86,0,0,0,.39-.49,2.82,2.82,0,0,0,.32-.86h-.33l-2.3-5.36-.51-.15v-1h3.42v1l-.66.15,1.15,3.12.09.61.17-.61,1-3.14-.8-.13v-1h3v1l-.58.12-.76,1.92-.57,1.42-.41,1-.27.67c-.07.18-.13.32-.18.43s-.08.2-.1.28c-.18.45-.35.86-.53,1.21a4,4,0,0,1-.57.89,2.17,2.17,0,0,1-.7.56,2,2,0,0,1-.87.18h-.53l-.25,0a.5.5,0,0,1-.16-.05Z"/><path class="cls-11" d="M316.49,165.39h-.89v-.66a3.27,3.27,0,0,0,.6-.16,1.42,1.42,0,0,0,.48-.27,1.86,1.86,0,0,0,.37-.53,5.74,5.74,0,0,0,.38-1h1v1.56h2v1h-1.91v2.14c0,.52,0,.94,0,1.24a3.65,3.65,0,0,0,.12.7.52.52,0,0,0,.22.31.73.73,0,0,0,.35.07h.26l.29,0,.26-.07a.84.84,0,0,0,.21-.08l.3.66a1.63,1.63,0,0,1-.37.28,3.5,3.5,0,0,1-.55.23,4.51,4.51,0,0,1-.68.16,4.77,4.77,0,0,1-.76.06,2.47,2.47,0,0,1-.84-.13,1.21,1.21,0,0,1-.52-.39,1.62,1.62,0,0,1-.26-.67,5.5,5.5,0,0,1-.08-1Z"/><path class="cls-11" d="M321.29,167.61a3.66,3.66,0,0,1,.32-1.55,3.12,3.12,0,0,1,.79-1.08,3.32,3.32,0,0,1,1.14-.62,4.63,4.63,0,0,1,1.34-.21,4.18,4.18,0,0,1,1.41.2A2.61,2.61,0,0,1,328,166a4.16,4.16,0,0,1,.23,1.43A4,4,0,0,1,328,169a3.4,3.4,0,0,1-.78,1.12,3.06,3.06,0,0,1-1.13.66,4,4,0,0,1-1.34.22,4.2,4.2,0,0,1-1.59-.27,2.85,2.85,0,0,1-1.06-.74,3,3,0,0,1-.6-1.09A4.45,4.45,0,0,1,321.29,167.61Zm3.49,2.57a.92.92,0,0,0,.66-.24,1.67,1.67,0,0,0,.38-.62,3.55,3.55,0,0,0,.18-.85c0-.32.05-.63.05-.94s0-.37,0-.57a3.55,3.55,0,0,0-.07-.57,3,3,0,0,0-.13-.54,1.81,1.81,0,0,0-.22-.44,1.18,1.18,0,0,0-.33-.3.94.94,0,0,0-.45-.11,1,1,0,0,0-.83.38,1.55,1.55,0,0,0-.25.41,2.74,2.74,0,0,0-.15.51,3.4,3.4,0,0,0-.08.57,5.52,5.52,0,0,0,0,.58,5.43,5.43,0,0,0,0,.55c0,.2,0,.4.07.6a5.66,5.66,0,0,0,.15.59,2,2,0,0,0,.24.51,1.26,1.26,0,0,0,.34.35A.78.78,0,0,0,324.78,170.18Z"/><path class="cls-11" d="M332.36,170.1l.69-.15v-7.16l-.79-.34v-.82l2.53-.28.34.1v8.47l1,.18v.8h-3.79Z"/><path class="cls-11" d="M336.7,167.61a3.66,3.66,0,0,1,.32-1.55,3.12,3.12,0,0,1,.79-1.08,3.32,3.32,0,0,1,1.14-.62,4.63,4.63,0,0,1,1.34-.21,4.18,4.18,0,0,1,1.41.2,2.61,2.61,0,0,1,1.73,1.65,4.16,4.16,0,0,1,.23,1.43,4,4,0,0,1-.29,1.61,3.4,3.4,0,0,1-.78,1.12,3.06,3.06,0,0,1-1.13.66,4,4,0,0,1-1.34.22,4.2,4.2,0,0,1-1.59-.27,2.85,2.85,0,0,1-1.06-.74,2.81,2.81,0,0,1-.59-1.09A4.15,4.15,0,0,1,336.7,167.61Zm3.49,2.57a.92.92,0,0,0,.66-.24,1.67,1.67,0,0,0,.38-.62,3.55,3.55,0,0,0,.18-.85c0-.32,0-.63,0-.94s0-.37,0-.57a5.23,5.23,0,0,0-.06-.57,4.26,4.26,0,0,0-.14-.54,1.81,1.81,0,0,0-.22-.44,1.18,1.18,0,0,0-.33-.3.94.94,0,0,0-.45-.11,1,1,0,0,0-.83.38,1.55,1.55,0,0,0-.25.41,2.74,2.74,0,0,0-.15.51,3.4,3.4,0,0,0-.08.57,5.52,5.52,0,0,0,0,.58,5.43,5.43,0,0,0,0,.55c0,.2,0,.4.07.6a5.66,5.66,0,0,0,.15.59,2,2,0,0,0,.24.51,1.26,1.26,0,0,0,.34.35A.78.78,0,0,0,340.19,170.18Z"/><path class="cls-11" d="M344.52,167.82a3.68,3.68,0,0,1,.28-1.52,3.42,3.42,0,0,1,.77-1.14,3.54,3.54,0,0,1,1.16-.72,4.44,4.44,0,0,1,1.43-.29h.62l.63.06.53.1a1.61,1.61,0,0,1,.38.14v1.85h-1.07l-.47-1.1a1.07,1.07,0,0,0-.37-.12,2.75,2.75,0,0,0-.4,0,1.09,1.09,0,0,0-.54.14,1.21,1.21,0,0,0-.41.43,2,2,0,0,0-.27.68,4.19,4.19,0,0,0-.12.92,4.1,4.1,0,0,0,.12,1.22,2.4,2.4,0,0,0,.42.83,1.73,1.73,0,0,0,.62.47,1.93,1.93,0,0,0,.75.15,2.85,2.85,0,0,0,.51,0,3,3,0,0,0,.47-.09l.39-.13a1.21,1.21,0,0,0,.28-.16l.31.73a3.23,3.23,0,0,1-1.18.62,5.18,5.18,0,0,1-1.59.22,3.71,3.71,0,0,1-1.39-.24,2.73,2.73,0,0,1-1-.68,2.8,2.8,0,0,1-.62-1A3.66,3.66,0,0,1,344.52,167.82Z"/><path class="cls-11" d="M351.13,170.1l.78-.18V163l-.94-.42v-.83l2.66-.39.36.16v5.23l-.08.83,1.91-2.05-1.07-.12v-1h3.74v1l-1.19.11-1.41,1.35,2,3.12.61.12v.81H355v-.81l.49-.16-1-1.85-.6.69.05.49V170l.69.15v.8h-3.54Z"/><path class="cls-11" d="M362.42,170.1l.8-.16v-3.65l-.75-.84v-.55l2.32-.75.49.15V170l.85.15v.8h-3.71Zm1.65-7a1.33,1.33,0,0,1-.45-.07,1.24,1.24,0,0,1-.39-.22,1.06,1.06,0,0,1-.27-.35,1,1,0,0,1-.1-.46,1,1,0,0,1,.13-.52,1.34,1.34,0,0,1,.33-.42,1.92,1.92,0,0,1,.46-.27,1.32,1.32,0,0,1,.51-.1,1.51,1.51,0,0,1,.55.09,1.08,1.08,0,0,1,.37.24.84.84,0,0,1,.21.35,1.18,1.18,0,0,1,.08.43,1.19,1.19,0,0,1-.12.54,1.45,1.45,0,0,1-.33.41,1.48,1.48,0,0,1-.46.26A1.54,1.54,0,0,1,364.07,163.13Z"/><path class="cls-11" d="M366.91,170.1l.74-.15V166.1l-.8-.56v-.74l2.17-.65.44.11v.87a3,3,0,0,1,.52-.4,3.41,3.41,0,0,1,.6-.31,5.53,5.53,0,0,1,.66-.2,3.92,3.92,0,0,1,.68-.07,2.14,2.14,0,0,1,.93.18,1.48,1.48,0,0,1,.59.52,2.39,2.39,0,0,1,.31.83,6.27,6.27,0,0,1,.09,1.12V170l.83.15v.8h-3.74v-.8l.83-.16v-2.88a5.5,5.5,0,0,0,0-.77,1,1,0,0,0-.17-.48.66.66,0,0,0-.34-.24,2.47,2.47,0,0,0-.6-.06.66.66,0,0,0-.17,0l-.26.05a2,2,0,0,0-.26.09.62.62,0,0,0-.2.11v4.16l.72.16v.8h-3.53Z"/><path class="cls-11" d="M378.7,168.59A1.44,1.44,0,0,1,379,168a2.15,2.15,0,0,1,.56-.47,4.79,4.79,0,0,1,.72-.34,7.76,7.76,0,0,1,.79-.22c.27-.06.53-.1.77-.13s.47,0,.67,0a3.16,3.16,0,0,0-.08-.76,1.12,1.12,0,0,0-.25-.46.81.81,0,0,0-.39-.23,2.09,2.09,0,0,0-.53-.06,4,4,0,0,0-.71.06,4.07,4.07,0,0,0-.58.15,3.13,3.13,0,0,0-.42.16,1.21,1.21,0,0,0-.23.14l-.4-.91a3.07,3.07,0,0,1,.34-.2,4.31,4.31,0,0,1,.61-.24c.26-.07.55-.14.89-.2a7.69,7.69,0,0,1,1.13-.08,5.2,5.2,0,0,1,1.08.11,2.17,2.17,0,0,1,.86.38,1.82,1.82,0,0,1,.55.74,2.88,2.88,0,0,1,.2,1.18v3.54h.77v.63a1.8,1.8,0,0,1-.34.17l-.4.1-.41.05h-.37l-.28,0a1.4,1.4,0,0,1-.35-.1,1,1,0,0,1-.29-.2.57.57,0,0,1-.13-.35,3,3,0,0,1-.72.48,2.32,2.32,0,0,1-1,.19,3.39,3.39,0,0,1-1.28-.21,2,2,0,0,1-.8-.55,1.64,1.64,0,0,1-.36-.79A2.21,2.21,0,0,1,378.7,168.59Zm2,.34a1,1,0,0,0,.32.82,1.22,1.22,0,0,0,.95.17,1.15,1.15,0,0,0,.28-.09,1.38,1.38,0,0,0,.24-.14c0-.34,0-.67,0-1v-1l-.39,0a2.57,2.57,0,0,0-.4.07,2.15,2.15,0,0,0-.38.15,1.5,1.5,0,0,0-.33.23,1.12,1.12,0,0,0-.22.33A1.25,1.25,0,0,0,380.73,168.93Z"/><path class="cls-11" d="M389.55,162.79l-.73-.34v-.82l2.47-.28.34.1v3.07a3.23,3.23,0,0,1,.67-.26,3.34,3.34,0,0,1,.87-.11,3.51,3.51,0,0,1,1.06.17,2.58,2.58,0,0,1,.91.55,2.94,2.94,0,0,1,.65,1,4.12,4.12,0,0,1,.24,1.49,3.89,3.89,0,0,1-.26,1.39,3.55,3.55,0,0,1-.75,1.18,3.57,3.57,0,0,1-2.69,1.14c-.31,0-.62,0-.93-.05s-.6-.08-.86-.13-.48-.11-.66-.16a1.32,1.32,0,0,1-.33-.15Zm2.08,6.93a1.16,1.16,0,0,0,.11.16.57.57,0,0,0,.18.16.89.89,0,0,0,.26.12,1.25,1.25,0,0,0,.36.05,1.21,1.21,0,0,0,.49-.11,1.19,1.19,0,0,0,.43-.41,2.58,2.58,0,0,0,.32-.81,6.23,6.23,0,0,0,.16-1.31,3.47,3.47,0,0,0-.12-1.07,2.62,2.62,0,0,0-.37-.75,1.59,1.59,0,0,0-.52-.43,1.32,1.32,0,0,0-.56-.14,2.81,2.81,0,0,0-.43,0,2,2,0,0,0-.31.08Z"/><path class="cls-11" d="M396.88,167.79a4.16,4.16,0,0,1,.25-1.42,3.32,3.32,0,0,1,.71-1.15,3.26,3.26,0,0,1,1.13-.78,3.84,3.84,0,0,1,1.51-.29,3.69,3.69,0,0,1,1.22.18,2.33,2.33,0,0,1,.84.51,2.11,2.11,0,0,1,.49.78,3.1,3.1,0,0,1,.18,1,4.56,4.56,0,0,1,0,.66c0,.19,0,.37-.06.53h-4.08a2.71,2.71,0,0,0,.53,1.57,1.65,1.65,0,0,0,1.32.52,4.92,4.92,0,0,0,.91-.09,4.11,4.11,0,0,0,1-.3l.31.73a2.8,2.8,0,0,1-.54.35,5.51,5.51,0,0,1-.69.27,6.27,6.27,0,0,1-.8.17,4.74,4.74,0,0,1-.84.05,4.35,4.35,0,0,1-1.42-.24,2.81,2.81,0,0,1-1-.64,2.7,2.7,0,0,1-.65-1A4.14,4.14,0,0,1,396.88,167.79Zm4.32-.94c0-.15,0-.3,0-.47a3.84,3.84,0,0,0,0-.48,2.11,2.11,0,0,0-.1-.45.74.74,0,0,0-.26-.32.65.65,0,0,0-.25-.12,1.49,1.49,0,0,0-.33,0,.93.93,0,0,0-.56.17,1.31,1.31,0,0,0-.38.43,2.65,2.65,0,0,0-.21.6c0,.23-.07.45-.09.68Z"/><path class="cls-11" d="M404.78,165.39h-.89v-.66a3.39,3.39,0,0,0,.59-.16,1.25,1.25,0,0,0,.48-.27,1.86,1.86,0,0,0,.37-.53,5.74,5.74,0,0,0,.38-1h1v1.56h2v1h-1.91v2.14c0,.52,0,.94,0,1.24a3.1,3.1,0,0,0,.11.7.52.52,0,0,0,.22.31.75.75,0,0,0,.35.07h.27l.28,0,.27-.07a.76.76,0,0,0,.2-.08l.31.66a1.7,1.7,0,0,1-.38.28,3.14,3.14,0,0,1-.55.23,4.51,4.51,0,0,1-.68.16,4.77,4.77,0,0,1-.76.06,2.47,2.47,0,0,1-.84-.13,1.21,1.21,0,0,1-.52-.39,1.77,1.77,0,0,1-.26-.67,5.58,5.58,0,0,1-.07-1Z"/><path class="cls-11" d="M410.19,165.39h-.89v-.66a3.77,3.77,0,0,0,.6-.16,1.29,1.29,0,0,0,.47-.27,1.86,1.86,0,0,0,.38-.53,6.71,6.71,0,0,0,.38-1h1v1.56h2v1h-1.91v2.14c0,.52,0,.94,0,1.24a2.55,2.55,0,0,0,.12.7.48.48,0,0,0,.22.31.73.73,0,0,0,.35.07h.26l.29,0,.26-.07a1,1,0,0,0,.21-.08l.3.66a1.5,1.5,0,0,1-.38.28,3.14,3.14,0,0,1-.55.23,4.24,4.24,0,0,1-.68.16,4.59,4.59,0,0,1-.76.06,2.37,2.37,0,0,1-.83-.13,1.16,1.16,0,0,1-.52-.39,1.63,1.63,0,0,1-.27-.67,5.58,5.58,0,0,1-.07-1Z"/><path class="cls-11" d="M415,167.79a3.93,3.93,0,0,1,.25-1.42,3.32,3.32,0,0,1,.71-1.15,3.26,3.26,0,0,1,1.13-.78,3.8,3.8,0,0,1,1.51-.29,3.69,3.69,0,0,1,1.22.18,2.33,2.33,0,0,1,.84.51,2.25,2.25,0,0,1,.49.78,3.1,3.1,0,0,1,.18,1,4.56,4.56,0,0,1,0,.66c0,.19,0,.37-.06.53h-4.09a2.78,2.78,0,0,0,.54,1.57,1.64,1.64,0,0,0,1.32.52,4.92,4.92,0,0,0,.91-.09,4.43,4.43,0,0,0,1-.3l.31.73a2.8,2.8,0,0,1-.54.35,5.68,5.68,0,0,1-.7.27,6.11,6.11,0,0,1-.79.17,4.79,4.79,0,0,1-.85.05,4.33,4.33,0,0,1-1.41-.24,2.81,2.81,0,0,1-1-.64,2.7,2.7,0,0,1-.65-1A3.9,3.9,0,0,1,415,167.79Zm4.31-.94c0-.15,0-.3,0-.47a3.84,3.84,0,0,0,0-.48,1.65,1.65,0,0,0-.11-.45.75.75,0,0,0-.5-.44,1.49,1.49,0,0,0-.33,0,1,1,0,0,0-.57.17,1.41,1.41,0,0,0-.37.43,2.65,2.65,0,0,0-.21.6c0,.23-.07.45-.09.68Z"/><path class="cls-11" d="M422.38,170.1l.72-.15V166.1l-.8-.56v-.74l2.18-.65.42.11v1.15a1.24,1.24,0,0,1,.28-.53,2.17,2.17,0,0,1,.46-.4,2,2,0,0,1,.51-.24,1.32,1.32,0,0,1,.43-.09l.39,0a1,1,0,0,1,.25.05v1.85L427,166l-.27-.09-.29-.05-.24,0a2.85,2.85,0,0,0-.44,0,1.8,1.8,0,0,0-.31.07l-.2.07-.1.06v3.88l1.37.2v.8h-4.16Z"/><path class="cls-11" d="M431.32,170.1,432,170V166.1l-.8-.56v-.74l2.18-.65.42.11v1.15a1.24,1.24,0,0,1,.28-.53,2.17,2.17,0,0,1,.46-.4,2.35,2.35,0,0,1,.51-.24,1.37,1.37,0,0,1,.44-.09l.38,0a1,1,0,0,1,.25.05v1.85a.87.87,0,0,0-.2-.12l-.27-.09-.29-.05-.24,0a2.85,2.85,0,0,0-.44,0,1.8,1.8,0,0,0-.31.07l-.2.07-.1.06v3.88l1.37.2v.8h-4.16Z"/><path class="cls-11" d="M436.89,168.59a1.44,1.44,0,0,1,.32-.61,2.15,2.15,0,0,1,.56-.47,4.79,4.79,0,0,1,.72-.34,7.67,7.67,0,0,1,1.56-.35c.25,0,.47,0,.67,0a3.16,3.16,0,0,0-.08-.76,1.12,1.12,0,0,0-.25-.46.81.81,0,0,0-.39-.23,2.09,2.09,0,0,0-.53-.06,4,4,0,0,0-.71.06,4.07,4.07,0,0,0-.58.15,3.13,3.13,0,0,0-.42.16,1.21,1.21,0,0,0-.23.14l-.4-.91a3.07,3.07,0,0,1,.34-.2,4.31,4.31,0,0,1,.61-.24c.26-.07.55-.14.89-.2a7.69,7.69,0,0,1,1.13-.08,5.2,5.2,0,0,1,1.08.11,2.17,2.17,0,0,1,.86.38,1.82,1.82,0,0,1,.55.74,2.88,2.88,0,0,1,.2,1.18v3.54h.77v.63a1.8,1.8,0,0,1-.34.17l-.4.1-.41.05H442l-.29,0a1.46,1.46,0,0,1-.34-.1,1,1,0,0,1-.29-.2.57.57,0,0,1-.13-.35,3,3,0,0,1-.72.48,2.32,2.32,0,0,1-1,.19,3.39,3.39,0,0,1-1.28-.21,2,2,0,0,1-.8-.55,1.64,1.64,0,0,1-.36-.79A2.21,2.21,0,0,1,436.89,168.59Zm2,.34a1,1,0,0,0,.32.82,1.2,1.2,0,0,0,.94.17,1.1,1.1,0,0,0,.29-.09,1.38,1.38,0,0,0,.24-.14v-1c0-.34,0-.67,0-1l-.39,0a2.57,2.57,0,0,0-.4.07,2.15,2.15,0,0,0-.38.15,1.3,1.3,0,0,0-.33.23,1.12,1.12,0,0,0-.22.33A1.25,1.25,0,0,0,438.92,168.93Z"/><path class="cls-11" d="M444.65,165.39h-.89v-.66a3.77,3.77,0,0,0,.6-.16,1.29,1.29,0,0,0,.47-.27,1.86,1.86,0,0,0,.38-.53,6.71,6.71,0,0,0,.38-1h1v1.56h2v1h-1.91v2.14c0,.52,0,.94,0,1.24a2.55,2.55,0,0,0,.12.7.48.48,0,0,0,.22.31.73.73,0,0,0,.35.07h.26l.29,0,.26-.07a1,1,0,0,0,.21-.08l.3.66a1.5,1.5,0,0,1-.38.28,3.14,3.14,0,0,1-.55.23,4.24,4.24,0,0,1-.68.16,4.68,4.68,0,0,1-.76.06,2.47,2.47,0,0,1-.84-.13,1.18,1.18,0,0,1-.51-.39,1.63,1.63,0,0,1-.27-.67,5.58,5.58,0,0,1-.07-1Z"/><path class="cls-11" d="M449.43,167.79a3.93,3.93,0,0,1,.25-1.42,3.32,3.32,0,0,1,.71-1.15,3.17,3.17,0,0,1,1.13-.78,3.8,3.8,0,0,1,1.51-.29,3.69,3.69,0,0,1,1.22.18,2.21,2.21,0,0,1,.83.51,2.13,2.13,0,0,1,.5.78,3.1,3.1,0,0,1,.18,1,4.56,4.56,0,0,1,0,.66c0,.19,0,.37-.06.53h-4.09a2.78,2.78,0,0,0,.54,1.57,1.64,1.64,0,0,0,1.32.52,4.92,4.92,0,0,0,.91-.09,4.43,4.43,0,0,0,1-.3l.31.73a2.8,2.8,0,0,1-.54.35,5.68,5.68,0,0,1-.7.27,6.11,6.11,0,0,1-.79.17,4.79,4.79,0,0,1-.85.05,4.33,4.33,0,0,1-1.41-.24,2.94,2.94,0,0,1-1-.64,2.81,2.81,0,0,1-.64-1A3.9,3.9,0,0,1,449.43,167.79Zm4.31-.94c0-.15,0-.3,0-.47a3.84,3.84,0,0,0,0-.48,1.65,1.65,0,0,0-.11-.45.72.72,0,0,0-.25-.32.82.82,0,0,0-.25-.12,1.49,1.49,0,0,0-.33,0,.94.94,0,0,0-.57.17,1.41,1.41,0,0,0-.37.43,1.94,1.94,0,0,0-.21.6,4,4,0,0,0-.09.68Z"/><path class="cls-11" d="M457.24,160.47h2.81l-.9,7.1h-1.07Zm.07,9.52a1.06,1.06,0,0,1,.13-.52,1.7,1.7,0,0,1,.33-.42,1.78,1.78,0,0,1,.45-.28,1.24,1.24,0,0,1,.49-.11,1.33,1.33,0,0,1,.54.1,1.08,1.08,0,0,1,.37.24,1,1,0,0,1,.23.36,1.62,1.62,0,0,1,.07.44,1.19,1.19,0,0,1-.12.54,1.29,1.29,0,0,1-.33.4,1.48,1.48,0,0,1-.46.26,1.51,1.51,0,0,1-.51.08,1.35,1.35,0,0,1-.44-.07,1.28,1.28,0,0,1-.38-.21,1,1,0,0,1-.27-.34A1.12,1.12,0,0,1,457.31,170Z"/></g></g></svg>