<?xml version="1.0" encoding="utf-8"?>
<!-- Generator: Adobe Illustrator 24.1.3, SVG Export Plug-In . SVG Version: 6.00 Build 0)  -->
<svg version="1.1" id="Layer_1" xmlns="http://www.w3.org/2000/svg" xmlns:xlink="http://www.w3.org/1999/xlink" x="0px" y="0px"
	 viewBox="0 0 150 41" style="enable-background:new 0 0 150 41;" xml:space="preserve">
<style type="text/css">
	.st0{fill:#FFFFFF;}
	.st1{fill-rule:evenodd;clip-rule:evenodd;fill:#F9FAFB;}
</style>
<g>
	<g>
		<polygon class="st0" points="36.6,9.9 36.6,3.6 31.7,3.6 31.7,6 24.3,0.4 7.2,13.6 9.6,16.7 24.3,5.3 39.1,16.7 41.5,13.6 		"/>
	</g>
</g>
<path class="st0" d="M14.7,15.2c-1.6,0-2.9,1.3-2.9,2.9v9.3h12.2V15.2H14.7z M19.4,22.4h-1.1v1.1c0,0.4-0.4,0.8-0.8,0.8
	s-0.8-0.4-0.8-0.8v-1.1h-1.1c-0.4,0-0.8-0.4-0.8-0.8s0.4-0.8,0.8-0.8h1.1v-1.1c0-0.4,0.4-0.8,0.8-0.8s0.8,0.4,0.8,0.8v1.1h1.1
	c0.4,0,0.8,0.4,0.8,0.8S19.9,22.4,19.4,22.4z"/>
<path class="st0" d="M11.8,28.5v9.3c0,1.6,1.3,2.9,2.9,2.9h9.3V28.5H11.8z M19.7,35.3c0.3,0.3,0.3,0.8,0,1.1
	c-0.2,0.2-0.4,0.2-0.6,0.2c-0.2,0-0.4-0.1-0.6-0.2l-0.8-0.8l-0.8,0.8c-0.2,0.2-0.4,0.2-0.6,0.2s-0.4-0.1-0.6-0.2
	c-0.3-0.3-0.3-0.8,0-1.1l0.8-0.8L16,33.8c-0.3-0.3-0.3-0.8,0-1.1c0.3-0.3,0.8-0.3,1.1,0l0.8,0.8l0.8-0.8c0.3-0.3,0.8-0.3,1.1,0
	c0.3,0.3,0.3,0.8,0,1.1L19,34.6L19.7,35.3z"/>
<path class="st0" d="M34.3,15.2H25v12.2h12.2v-9.3C37.2,16.5,35.9,15.2,34.3,15.2z M33.7,22.1H29c-0.4,0-0.8-0.4-0.8-0.8
	s0.4-0.8,0.8-0.8h4.8c0.4,0,0.8,0.4,0.8,0.8S34.2,22.1,33.7,22.1z"/>
<path class="st0" d="M25,28.5v12.2h9.3c1.6,0,2.9-1.3,2.9-2.9v-9.3H25z M33.5,36.9h-4.8c-0.4,0-0.8-0.4-0.8-0.8s0.4-0.8,0.8-0.8h4.8
	c0.4,0,0.8,0.4,0.8,0.8S33.9,36.9,33.5,36.9z M33.5,33.8h-4.8c-0.4,0-0.8-0.4-0.8-0.8s0.4-0.8,0.8-0.8h4.8c0.4,0,0.8,0.4,0.8,0.8
	S33.9,33.8,33.5,33.8z"/>
<path class="st1" d="M57.6,25.7c7.4,0,13-5.2,13-12.7c0-7.5-5.6-12.7-13-12.7c-7.4,0-13,5.2-13,12.7S50.1,25.7,57.6,25.7L57.6,25.7z
	 M57.6,20.1c-4,0-6.6-3.1-6.6-7.1c0-4,2.6-7.1,6.6-7.1c4,0,6.6,3.1,6.6,7.1C64.2,17,61.6,20.1,57.6,20.1L57.6,20.1z M96.4,25.3V0.7
	h-6.3v13.5L80.2,0.7h-6.5v24.6H80V11l10.3,14.2H96.4L96.4,25.3z M116.7,25.3v-5.5h-9.8V0.7h-6.3v24.6H116.7L116.7,25.3z M132.9,25.3
	v-9.9l9.2-14.7h-7.1l-5.2,9.1l-5.3-9.1h-7.1l9.2,14.7v9.9L132.9,25.3L132.9,25.3z"/>
<g>
	<path class="st0" d="M50.9,35.1l-2.1,5.3h-0.7L46,35.1v5.3h-1.6V33h2.2l1.8,4.6l1.8-4.6h2.2v7.4h-1.6V35.1z"/>
	<path class="st0" d="M57.4,32.9c2.3,0,3.9,1.6,3.9,3.8c0,2.2-1.6,3.8-3.9,3.8c-2.2,0-3.9-1.6-3.9-3.8
		C53.6,34.5,55.2,32.9,57.4,32.9z M57.4,34.3c-1.4,0-2.3,1-2.3,2.4c0,1.4,0.9,2.4,2.3,2.4c1.4,0,2.3-1.1,2.3-2.4
		C59.7,35.4,58.8,34.3,57.4,34.3z"/>
	<path class="st0" d="M65.2,37.8H64v2.7h-1.6V33h3.5c1.5,0,2.5,1,2.5,2.4c0,1.3-0.8,2-1.6,2.2l1.7,2.8h-1.8L65.2,37.8z M65.7,34.4
		H64v2.1h1.7c0.6,0,1.1-0.4,1.1-1C66.8,34.8,66.3,34.4,65.7,34.4z"/>
	<path class="st0" d="M71.2,34.4h-2.2V33H75v1.4h-2.2v6h-1.6V34.4z"/>
	<path class="st0" d="M79.3,32.9c1.5,0,2.5,0.7,3.1,1.6l-1.3,0.7c-0.3-0.5-1-0.9-1.8-0.9c-1.3,0-2.3,1-2.3,2.4c0,1.4,1,2.4,2.3,2.4
		c0.7,0,1.3-0.3,1.6-0.6v-0.9h-2v-1.4h3.5v2.8c-0.8,0.8-1.8,1.4-3.2,1.4c-2.2,0-4-1.5-4-3.9C75.4,34.4,77.2,32.9,79.3,32.9z"/>
	<path class="st0" d="M88.4,39.2h-3.3l-0.5,1.3h-1.7l2.9-7.4h2l2.9,7.4h-1.7L88.4,39.2z M85.5,37.8H88l-1.2-3.4L85.5,37.8z"/>
	<path class="st0" d="M94.5,32.9c1.5,0,2.5,0.7,3.1,1.6l-1.3,0.7c-0.3-0.5-1-0.9-1.8-0.9c-1.3,0-2.3,1-2.3,2.4c0,1.4,1,2.4,2.3,2.4
		c0.7,0,1.3-0.3,1.6-0.6v-0.9h-2v-1.4h3.5v2.8c-0.8,0.8-1.8,1.4-3.2,1.4c-2.2,0-4-1.5-4-3.9C90.6,34.4,92.3,32.9,94.5,32.9z"/>
	<path class="st0" d="M98.9,33h5.3v1.4h-3.7V36h3.6v1.4h-3.6v1.7h3.7v1.4h-5.3V33z"/>
	<path class="st0" d="M108.3,33h1.6v6h3.1v1.4h-4.7V33z"/>
	<path class="st0" d="M114.1,33h5.3v1.4h-3.7V36h3.6v1.4h-3.6v1.7h3.7v1.4h-5.3V33z"/>
	<path class="st0" d="M125.4,39.2H122l-0.5,1.3h-1.7l2.9-7.4h2l2.9,7.4h-1.7L125.4,39.2z M122.5,37.8h2.5l-1.2-3.4L122.5,37.8z"/>
	<path class="st0" d="M128.2,33h2.9c2.3,0,3.9,1.5,3.9,3.7c0,2.2-1.6,3.7-3.9,3.7h-2.9V33z M131.2,39.1c1.5,0,2.3-1.1,2.3-2.3
		c0-1.3-0.8-2.3-2.3-2.3h-1.3v4.6H131.2z"/>
	<path class="st0" d="M136.6,38.2c0.5,0.5,1.3,1,2.4,1c0.9,0,1.3-0.4,1.3-0.8c0-0.6-0.6-0.7-1.5-0.9c-1.2-0.3-2.8-0.6-2.8-2.3
		c0-1.2,1.1-2.2,2.8-2.2c1.2,0,2.2,0.4,2.9,1l-0.9,1.2c-0.6-0.6-1.4-0.8-2.1-0.8c-0.7,0-1.1,0.3-1.1,0.8c0,0.5,0.6,0.7,1.5,0.9
		c1.2,0.3,2.8,0.6,2.8,2.3c0,1.4-1,2.4-3,2.4c-1.4,0-2.5-0.5-3.2-1.2L136.6,38.2z"/>
</g>
</svg>
