<?xml version="1.0" encoding="utf-8"?>
<!-- Generator: Adobe Illustrator 23.0.0, SVG Export Plug-In . SVG Version: 6.00 Build 0)  -->
<svg version="1.1" id="Layer_1" xmlns="http://www.w3.org/2000/svg" xmlns:xlink="http://www.w3.org/1999/xlink" x="0px" y="0px"
	 viewBox="0 0 146.1 5.21" style="enable-background:new 0 0 146.1 5.21;" xml:space="preserve">
<style type="text/css">
	.st0{fill:none;stroke:#D2232A;stroke-width:1.122;stroke-miterlimit:10;}
</style>
<path class="st0" d="M146.1,0l-5.21,5.21 M143.08,0l-5.21,5.21 M140.07,0l-5.21,5.21 M137.06,0l-5.21,5.21 M134.05,0l-5.21,5.21
	 M131.04,0l-5.21,5.21 M128.02,0l-5.21,5.21 M125.01,0l-5.21,5.21 M122,0l-5.21,5.21 M118.99,0l-5.21,5.21 M115.98,0l-5.21,5.21
	 M112.96,0l-5.21,5.21 M109.95,0l-5.21,5.21 M106.94,0l-5.21,5.21 M103.93,0l-5.21,5.21 M100.92,0l-5.21,5.21 M97.9,0L92.7,5.21
	 M94.89,0l-5.21,5.21 M91.88,0l-5.21,5.21 M88.87,0l-5.21,5.21 M85.86,0l-5.21,5.21 M82.85,0l-5.21,5.21 M79.83,0l-5.21,5.21
	 M76.82,0l-5.21,5.21 M73.81,0L68.6,5.21 M70.8,0l-5.21,5.21 M67.79,0l-5.21,5.21 M64.77,0l-5.21,5.21 M61.76,0l-5.21,5.21 M58.75,0
	l-5.21,5.21 M55.74,0l-5.21,5.21 M52.73,0l-5.21,5.21 M49.71,0l-5.21,5.21 M46.7,0L41.5,5.21 M43.69,0l-5.21,5.21 M40.68,0
	l-5.21,5.21 M37.67,0l-5.21,5.21 M34.65,0l-5.21,5.21 M31.64,0l-5.21,5.21 M28.63,0l-5.21,5.21 M25.62,0l-5.21,5.21 M22.61,0
	L17.4,5.21 M19.6,0l-5.21,5.21 M16.58,0l-5.21,5.21 M13.57,0L8.37,5.21 M10.56,0L5.35,5.21 M7.55,0L2.34,5.21 M4.54,0l-5.21,5.21"/>
</svg>
