<svg xmlns="http://www.w3.org/2000/svg" width="200" height="200" viewBox="0 0 200 200">
  <path fill-opacity=".87" fill-rule="evenodd" d="M39.8383812,29.3505859 L48.2299827,29.3505859 C49.8888452,29.3505859 51.2260714,29.8181919 52.2417015,30.753418 C53.2573316,31.688644 53.765139,33.0025957 53.765139,34.6953125 C53.765139,36.1510489 53.312344,37.4184516 52.4067405,38.4975586 C51.5011371,39.5766656 50.1088984,40.1162109 48.2299827,40.1162109 L42.3647484,40.1162109 L42.3647484,48 L39.8383812,48 L39.8383812,29.3505859 Z M51.2133812,34.7080078 C51.2133812,33.3369072 50.7055737,32.4059269 49.6899437,31.9150391 C49.1313471,31.652668 48.3654043,31.5214844 47.3920921,31.5214844 L42.3647484,31.5214844 L42.3647484,37.9833984 L47.3920921,37.9833984 C48.5262124,37.9833984 49.4466133,37.7421899 50.1533226,37.2597656 C50.8600318,36.7773413 51.2133812,35.9267639 51.2133812,34.7080078 Z M56.3082849,34.4033203 L58.4791833,34.4033203 L58.4791833,36.7519531 C58.6569186,36.2949196 59.0927866,35.7384473 59.7868005,35.0825195 C60.4808144,34.4265918 61.2806111,34.0986328 62.1862146,34.0986328 C62.2285325,34.0986328 62.3004719,34.1028645 62.4020349,34.1113281 C62.5035979,34.1197917 62.6770988,34.1367186 62.9225427,34.1621094 L62.9225427,36.5742188 C62.7871253,36.548828 62.6622894,36.5319011 62.548031,36.5234375 C62.4337726,36.5149739 62.3089366,36.5107422 62.1735193,36.5107422 C61.0224718,36.5107422 60.1380406,36.8810184 59.5201989,37.621582 C58.9023573,38.3621456 58.5934411,39.2148389 58.5934411,40.1796875 L58.5934411,48 L56.3082849,48 L56.3082849,34.4033203 Z M70.1756495,34.0986328 C71.1404981,34.0986328 72.0757101,34.3250303 72.9813136,34.777832 C73.8869171,35.2306338 74.5766888,35.8167282 75.0506495,36.5361328 C75.5076831,37.2216831 75.8123675,38.0214798 75.964712,38.9355469 C76.1001294,39.5618521 76.167837,40.56054 76.167837,41.9316406 L66.2020167,41.9316406 C66.2443346,43.3112048 66.5701777,44.4178018 67.1795558,45.2514648 C67.7889338,46.0851279 68.7326093,46.5019531 70.0106105,46.5019531 C71.2039758,46.5019531 72.1561147,46.1084024 72.8670558,45.3212891 C73.2733078,44.8642555 73.5610653,44.3352895 73.730337,43.734375 L75.9774073,43.734375 C75.9181622,44.2337265 75.7213869,44.7901988 75.3870753,45.4038086 C75.0527637,46.0174184 74.6782558,46.5188783 74.2635401,46.9082031 C73.5695263,47.5852898 72.7104854,48.0423165 71.6863917,48.2792969 C71.1362588,48.4147142 70.5141947,48.4824219 69.8201808,48.4824219 C68.127464,48.4824219 66.692908,47.8667054 65.5164698,46.6352539 C64.3400317,45.4038024 63.7518214,43.6793731 63.7518214,41.4619141 C63.7518214,39.2783094 64.3442634,37.5052151 65.5291651,36.1425781 C66.7140669,34.7799411 68.2628795,34.0986328 70.1756495,34.0986328 Z M73.8192042,40.1162109 C73.7261048,39.1259716 73.5102866,38.3346384 73.1717433,37.7421875 C72.5454381,36.6419216 71.5002011,36.0917969 70.0360011,36.0917969 C68.9865167,36.0917969 68.1063171,36.4705366 67.3953761,37.2280273 C66.684435,37.9855181 66.3078112,38.9482363 66.2654933,40.1162109 L73.8192042,40.1162109 Z M79.9424282,43.734375 C80.0101369,44.4960976 80.2005647,45.0800761 80.5137173,45.4863281 C81.089241,46.2226599 82.0879289,46.5908203 83.509811,46.5908203 C84.3561694,46.5908203 85.1009537,46.4067401 85.744186,46.0385742 C86.3874184,45.6704083 86.7090298,45.1012408 86.7090298,44.3310547 C86.7090298,43.7470674 86.4508944,43.3027359 85.9346157,42.9980469 C85.604536,42.811848 84.9528498,42.5960299 83.9795376,42.3505859 L82.1641079,41.8935547 C81.0045969,41.6057928 80.1497878,41.2841815 79.5996548,40.9287109 C78.6178791,40.3108693 78.1269985,39.4560601 78.1269985,38.3642578 C78.1269985,37.077793 78.5903728,36.0367878 79.5171353,35.2412109 C80.4438977,34.445634 81.6901418,34.0478516 83.2559048,34.0478516 C85.3040921,34.0478516 86.7809654,34.648757 87.6865689,35.8505859 C88.253629,36.6123085 88.5286913,37.4332638 88.5117642,38.3134766 L86.353561,38.3134766 C86.3112431,37.7971979 86.1292788,37.3274761 85.8076626,36.9042969 C85.2829204,36.3033824 84.3730988,36.0029297 83.0781704,36.0029297 C82.2148849,36.0029297 81.5610828,36.1679671 81.1167446,36.4980469 C80.6724065,36.8281267 80.4502407,37.2639947 80.4502407,37.8056641 C80.4502407,38.3981149 80.74223,38.8720685 81.3262173,39.2275391 C81.6647607,39.4391287 82.1641046,39.6253247 82.8242642,39.7861328 L84.3350064,40.1542969 C85.9769416,40.5520853 87.0771911,40.9371726 87.6357876,41.3095703 C88.5244639,41.8935576 88.9687954,42.8118427 88.9687954,44.0644531 C88.9687954,45.2747456 88.5096529,46.3199826 87.591354,47.2001953 C86.6730552,48.080408 85.2744689,48.5205078 83.3955532,48.5205078 C81.3727567,48.5205078 79.9403166,48.0613653 79.0981899,47.1430664 C78.2560633,46.2247675 77.8053843,45.0885484 77.7461392,43.734375 L79.9424282,43.734375 Z M96.5900663,46.5273438 C98.1050478,46.5273438 99.1439372,45.9539445 99.7067655,44.8071289 C100.269594,43.6603133 100.551004,42.3844471 100.551004,40.9794922 C100.551004,39.7099546 100.347881,38.6774128 99.9416288,37.8818359 C99.2983964,36.6292255 98.1896836,36.0029297 96.6154569,36.0029297 C95.2189656,36.0029297 94.2033507,36.5361275 93.5685819,37.6025391 C92.9338131,38.6689506 92.6164335,39.9553961 92.6164335,41.4619141 C92.6164335,42.9091869 92.9338131,44.1152296 93.5685819,45.0800781 C94.2033507,46.0449267 95.2105021,46.5273438 96.5900663,46.5273438 Z M96.6789335,34.0097656 C98.4308954,34.0097656 99.9120004,34.5937442 101.122293,35.7617188 C102.332585,36.9296933 102.937723,38.6477751 102.937723,40.9160156 C102.937723,43.1080839 102.404525,44.9192637 101.338113,46.3496094 C100.271702,47.7799551 98.6170958,48.4951172 96.374246,48.4951172 C94.5037939,48.4951172 93.0184572,47.8624738 91.9181913,46.597168 C90.8179254,45.3318622 90.2678007,43.6328232 90.2678007,41.5 C90.2678007,39.2148323 90.8475475,37.3951891 92.0070585,36.0410156 C93.1665695,34.6868422 94.7238456,34.0097656 96.6789335,34.0097656 Z M105.328525,34.4033203 L107.499423,34.4033203 L107.499423,36.7519531 C107.677158,36.2949196 108.113026,35.7384473 108.80704,35.0825195 C109.501054,34.4265918 110.300851,34.0986328 111.206454,34.0986328 C111.248772,34.0986328 111.320712,34.1028645 111.422275,34.1113281 C111.523838,34.1197917 111.697339,34.1367186 111.942783,34.1621094 L111.942783,36.5742188 C111.807365,36.548828 111.682529,36.5319011 111.568271,36.5234375 C111.454012,36.5149739 111.329176,36.5107422 111.193759,36.5107422 C110.042712,36.5107422 109.15828,36.8810184 108.540439,37.621582 C107.922597,38.3621456 107.613681,39.2148389 107.613681,40.1796875 L107.613681,48 L105.328525,48 L105.328525,34.4033203 Z M113.990811,30.6074219 L116.301358,30.6074219 L116.301358,34.4033203 L118.472257,34.4033203 L118.472257,36.2695312 L116.301358,36.2695312 L116.301358,45.1435547 C116.301358,45.6175154 116.462164,45.934895 116.78378,46.0957031 C116.961515,46.1888025 117.257736,46.2353516 117.672452,46.2353516 C117.782478,46.2353516 117.900967,46.2332357 118.027921,46.2290039 C118.154874,46.2247721 118.302985,46.2141928 118.472257,46.1972656 L118.472257,48 C118.209885,48.0761723 117.936939,48.1311847 117.653409,48.1650391 C117.369879,48.1988934 117.063079,48.2158203 116.732999,48.2158203 C115.666587,48.2158203 114.942962,47.9428738 114.5621,47.3969727 C114.181239,46.8510715 113.990811,46.142257 113.990811,45.2705078 L113.990811,36.2695312 L112.149991,36.2695312 L112.149991,34.4033203 L113.990811,34.4033203 L113.990811,30.6074219 Z M129.157181,41.9824219 C129.216426,43.0403699 129.466098,43.8994108 129.906205,44.5595703 C130.744099,45.7952536 132.220973,46.4130859 134.336869,46.4130859 C135.28479,46.4130859 136.148063,46.2776706 136.926712,46.0068359 C138.43323,45.4820937 139.186478,44.54265 139.186478,43.1884766 C139.186478,42.1728465 138.869098,41.4492209 138.23433,41.0175781 C137.591097,40.5943989 136.583946,40.2262385 135.212845,39.9130859 L132.686478,39.3417969 C131.036079,38.9693992 129.868122,38.5589215 129.182572,38.1103516 C127.99767,37.3317018 127.405228,36.1679765 127.405228,34.6191406 C127.405228,32.943351 127.984975,31.5680392 129.144486,30.4931641 C130.303997,29.4182889 131.945908,28.8808594 134.070267,28.8808594 C136.025355,28.8808594 137.686308,29.3526971 139.053177,30.2963867 C140.420046,31.2400763 141.10347,32.7486875 141.10347,34.8222656 L138.729447,34.8222656 C138.602493,33.8235627 138.331662,33.0576199 137.916947,32.5244141 C137.146761,31.5511019 135.839157,31.0644531 133.994095,31.0644531 C132.504504,31.0644531 131.433877,31.377601 130.782181,32.0039062 C130.130485,32.6302115 129.804642,33.3580688 129.804642,34.1875 C129.804642,35.1015671 130.185498,35.7701802 130.94722,36.1933594 C131.446572,36.4641941 132.576443,36.8027323 134.336869,37.2089844 L136.952103,37.8056641 C138.213177,38.0934259 139.186475,38.4869767 139.872025,38.9863281 C141.056927,39.8580773 141.649369,41.1233641 141.649369,42.7822266 C141.649369,44.8473411 140.898237,46.3242143 139.395951,47.2128906 C137.893665,48.1015669 136.148077,48.5458984 134.159134,48.5458984 C131.840112,48.5458984 130.024701,47.9534564 128.712845,46.7685547 C127.40099,45.5921165 126.757767,43.9967549 126.783158,41.9824219 L129.157181,41.9824219 Z M144.61146,30.6074219 L146.922007,30.6074219 L146.922007,34.4033203 L149.092905,34.4033203 L149.092905,36.2695312 L146.922007,36.2695312 L146.922007,45.1435547 C146.922007,45.6175154 147.082812,45.934895 147.404429,46.0957031 C147.582164,46.1888025 147.878385,46.2353516 148.2931,46.2353516 C148.403127,46.2353516 148.521615,46.2332357 148.648569,46.2290039 C148.775523,46.2247721 148.923633,46.2141928 149.092905,46.1972656 L149.092905,48 C148.830534,48.0761723 148.557588,48.1311847 148.274058,48.1650391 C147.990527,48.1988934 147.683727,48.2158203 147.353647,48.2158203 C146.287236,48.2158203 145.56361,47.9428738 145.182749,47.3969727 C144.801888,46.8510715 144.61146,46.142257 144.61146,45.2705078 L144.61146,36.2695312 L142.77064,36.2695312 L142.77064,34.4033203 L144.61146,34.4033203 L144.61146,30.6074219 Z M152.435856,41.3603516 C152.435856,42.816088 152.744772,44.0348258 153.362614,45.0166016 C153.980455,45.9983773 154.97068,46.4892578 156.333317,46.4892578 C157.391265,46.4892578 158.260885,46.034347 158.942203,45.1245117 C159.623522,44.2146764 159.964176,42.9091882 159.964176,41.2080078 C159.964176,39.4899003 159.612943,38.2182658 158.910465,37.3930664 C158.207988,36.567867 157.340483,36.1552734 156.307926,36.1552734 C155.156879,36.1552734 154.223782,36.5953732 153.50861,37.4755859 C152.793437,38.3557987 152.435856,39.6507076 152.435856,41.3603516 Z M155.876285,34.1621094 C156.917306,34.1621094 157.789042,34.3821593 158.49152,34.8222656 C158.897772,35.0761731 159.35903,35.5205046 159.875309,36.1552734 L159.875309,29.2871094 L162.071598,29.2871094 L162.071598,48 L160.014957,48 L160.014957,46.1083984 C159.481752,46.9462933 158.851224,47.5514304 158.123356,47.9238281 C157.395488,48.2962258 156.561837,48.4824219 155.622379,48.4824219 C154.107398,48.4824219 152.795562,47.8455467 151.686832,46.5717773 C150.578103,45.298008 150.023746,43.6032007 150.023746,41.4873047 C150.023746,39.506826 150.529438,37.7908601 151.540836,36.3393555 C152.552235,34.8878508 153.99737,34.1621094 155.876285,34.1621094 Z M37.7964776,60.3505859 L37.7964776,71.8779297 C37.7964776,73.2321031 38.0503813,74.3577429 38.5581963,75.2548828 C39.3114553,76.6090563 40.5809738,77.2861328 42.3667901,77.2861328 C44.5080768,77.2861328 45.9637914,76.5540438 46.7339776,75.0898438 C47.1486932,74.2942669 47.3560479,73.2236395 47.3560479,71.8779297 L47.3560479,60.3505859 L49.920501,60.3505859 L49.920501,70.8242188 C49.920501,73.11785 49.6115848,74.8824808 48.9937432,76.1181641 C47.8596229,78.3694774 45.7183683,79.4951172 42.5699151,79.4951172 C39.4214618,79.4951172 37.2844389,78.3694774 36.1587822,76.1181641 C35.5409406,74.8824808 35.2320244,73.11785 35.2320244,70.8242188 L35.2320244,60.3505859 L37.7964776,60.3505859 Z M55.0915766,72.9824219 C55.1508217,74.0403699 55.4004936,74.8994108 55.8406,75.5595703 C56.6784948,76.7952536 58.1553681,77.4130859 60.2712641,77.4130859 C61.2191855,77.4130859 62.0824581,77.2776706 62.8611078,77.0068359 C64.3676258,76.4820937 65.1208735,75.54265 65.1208735,74.1884766 C65.1208735,73.1728465 64.8034938,72.4492209 64.168725,72.0175781 C63.5254926,71.5943989 62.5183412,71.2262385 61.1472406,70.9130859 L58.6208735,70.3417969 C56.9704746,69.9693992 55.8025175,69.5589215 55.1169672,69.1103516 C53.9320654,68.3317018 53.3396235,67.1679765 53.3396235,65.6191406 C53.3396235,63.943351 53.9193703,62.5680392 55.0788813,61.4931641 C56.2383923,60.4182889 57.8803029,59.8808594 60.0046625,59.8808594 C61.9597504,59.8808594 63.6207039,60.3526971 64.9875727,61.2963867 C66.3544415,62.2400763 67.0378656,63.7486875 67.0378656,65.8222656 L64.6638422,65.8222656 C64.5368884,64.8235627 64.2660578,64.0576199 63.8513422,63.5244141 C63.0811561,62.5511019 61.7735519,62.0644531 59.9284906,62.0644531 C58.4388999,62.0644531 57.3682725,62.377601 56.7165766,63.0039062 C56.0648806,63.6302115 55.7390375,64.3580688 55.7390375,65.1875 C55.7390375,66.1015671 56.1198931,66.7701802 56.8816156,67.1933594 C57.3809671,67.4641941 58.5108386,67.8027323 60.2712641,68.2089844 L62.8864985,68.8056641 C64.1475725,69.0934259 65.12087,69.4869767 65.8064203,69.9863281 C66.9913221,70.8580773 67.5837641,72.1233641 67.5837641,73.7822266 C67.5837641,75.8473411 66.8326323,77.3242143 65.3303461,78.2128906 C63.82806,79.1015669 62.0824719,79.5458984 60.0935297,79.5458984 C57.7745077,79.5458984 55.9590962,78.9534564 54.6472406,77.7685547 C53.3353851,76.5921165 52.6921624,74.9967549 52.7175531,72.9824219 L55.0915766,72.9824219 Z M77.468884,60.3505859 L85.8604856,60.3505859 C87.519348,60.3505859 88.8565742,60.8181919 89.8722043,61.753418 C90.8878344,62.688644 91.3956418,64.0025957 91.3956418,65.6953125 C91.3956418,67.1510489 90.9428469,68.4184516 90.0372434,69.4975586 C89.1316399,70.5766656 87.7394012,71.1162109 85.8604856,71.1162109 L79.9952512,71.1162109 L79.9952512,79 L77.468884,79 L77.468884,60.3505859 Z M88.843884,65.7080078 C88.843884,64.3369072 88.3360766,63.4059269 87.3204465,62.9150391 C86.7618499,62.652668 85.9959071,62.5214844 85.0225949,62.5214844 L79.9952512,62.5214844 L79.9952512,68.9833984 L85.0225949,68.9833984 C86.1567152,68.9833984 87.0771161,68.7421899 87.7838254,68.2597656 C88.4905347,67.7773413 88.843884,66.9267639 88.843884,65.7080078 Z M99.2708189,77.5273438 C100.7858,77.5273438 101.82469,76.9539445 102.387518,75.8071289 C102.950347,74.6603133 103.231756,73.3844471 103.231756,71.9794922 C103.231756,70.7099546 103.028633,69.6774128 102.622381,68.8818359 C101.979149,67.6292255 100.870436,67.0029297 99.2962096,67.0029297 C97.8997182,67.0029297 96.8841034,67.5361275 96.2493346,68.6025391 C95.6145658,69.6689506 95.2971861,70.9553961 95.2971861,72.4619141 C95.2971861,73.9091869 95.6145658,75.1152296 96.2493346,76.0800781 C96.8841034,77.0449267 97.8912548,77.5273438 99.2708189,77.5273438 Z M99.3596861,65.0097656 C101.111648,65.0097656 102.592753,65.5937442 103.803046,66.7617188 C105.013338,67.9296933 105.618475,69.6477751 105.618475,71.9160156 C105.618475,74.1080839 105.085277,75.9192637 104.018866,77.3496094 C102.952454,78.7799551 101.297848,79.4951172 99.0549986,79.4951172 C97.1845466,79.4951172 95.6992099,78.8624738 94.5989439,77.597168 C93.498678,76.3318622 92.9485533,74.6328232 92.9485533,72.5 C92.9485533,70.2148323 93.5283001,68.3951891 94.6878111,67.0410156 C95.8473221,65.6868422 97.4045982,65.0097656 99.3596861,65.0097656 Z M109.304199,74.734375 C109.371908,75.4960976 109.562336,76.0800761 109.875488,76.4863281 C110.451012,77.2226599 111.4497,77.5908203 112.871582,77.5908203 C113.71794,77.5908203 114.462725,77.4067401 115.105957,77.0385742 C115.749189,76.6704083 116.070801,76.1012408 116.070801,75.3310547 C116.070801,74.7470674 115.812665,74.3027359 115.296387,73.9980469 C114.966307,73.811848 114.314621,73.5960299 113.341309,73.3505859 L111.525879,72.8935547 C110.366368,72.6057928 109.511559,72.2841815 108.961426,71.9287109 C107.97965,71.3108693 107.48877,70.4560601 107.48877,69.3642578 C107.48877,68.077793 107.952144,67.0367878 108.878906,66.2412109 C109.805669,65.445634 111.051913,65.0478516 112.617676,65.0478516 C114.665863,65.0478516 116.142736,65.648757 117.04834,66.8505859 C117.6154,67.6123085 117.890462,68.4332638 117.873535,69.3134766 L115.715332,69.3134766 C115.673014,68.7971979 115.49105,68.3274761 115.169434,67.9042969 C114.644691,67.3033824 113.73487,67.0029297 112.439941,67.0029297 C111.576656,67.0029297 110.922854,67.1679671 110.478516,67.4980469 C110.034177,67.8281267 109.812012,68.2639947 109.812012,68.8056641 C109.812012,69.3981149 110.104001,69.8720685 110.687988,70.2275391 C111.026532,70.4391287 111.525876,70.6253247 112.186035,70.7861328 L113.696777,71.1542969 C115.338713,71.5520853 116.438962,71.9371726 116.997559,72.3095703 C117.886235,72.8935576 118.330566,73.8118427 118.330566,75.0644531 C118.330566,76.2747456 117.871424,77.3199826 116.953125,78.2001953 C116.034826,79.080408 114.63624,79.5205078 112.757324,79.5205078 C110.734528,79.5205078 109.302088,79.0613653 108.459961,78.1430664 C107.617834,77.2247675 107.167155,76.0885484 107.10791,74.734375 L109.304199,74.734375 Z M121.013361,61.6074219 L123.323908,61.6074219 L123.323908,65.4033203 L125.494806,65.4033203 L125.494806,67.2695312 L123.323908,67.2695312 L123.323908,76.1435547 C123.323908,76.6175154 123.484713,76.934895 123.806329,77.0957031 C123.984065,77.1888025 124.280286,77.2353516 124.695001,77.2353516 C124.805028,77.2353516 124.923516,77.2332357 125.05047,77.2290039 C125.177424,77.2247721 125.325534,77.2141928 125.494806,77.1972656 L125.494806,79 C125.232435,79.0761723 124.959488,79.1311847 124.675958,79.1650391 C124.392428,79.1988934 124.085628,79.2158203 123.755548,79.2158203 C122.689137,79.2158203 121.965511,78.9428738 121.58465,78.3969727 C121.203789,77.8510715 121.013361,77.142257 121.013361,76.2705078 L121.013361,67.2695312 L119.17254,67.2695312 L119.17254,65.4033203 L121.013361,65.4033203 L121.013361,61.6074219 Z M129.142444,75.3818359 C129.142444,76.0419955 129.383653,76.5624981 129.866077,76.9433594 C130.348501,77.3242207 130.919785,77.5146484 131.579944,77.5146484 C132.383985,77.5146484 133.162623,77.3284524 133.915882,76.9560547 C135.185419,76.3382131 135.820179,75.3268299 135.820179,73.921875 L135.820179,72.0810547 C135.54088,72.25879 135.181183,72.4069004 134.741077,72.5253906 C134.300971,72.6438808 133.869334,72.7285154 133.446155,72.7792969 L132.062366,72.9570312 C131.232935,73.0670578 130.610871,73.2405587 130.196155,73.4775391 C129.493678,73.8753275 129.142444,74.5100868 129.142444,75.3818359 Z M134.6776,70.7607422 C135.202343,70.6930335 135.553576,70.4729836 135.731311,70.1005859 C135.832874,69.8974599 135.883655,69.6054707 135.883655,69.2246094 C135.883655,68.4459596 135.606477,67.8810239 135.052112,67.5297852 C134.497747,67.1785464 133.704298,67.0029297 132.671741,67.0029297 C131.478376,67.0029297 130.63203,67.3245411 130.132679,67.9677734 C129.85338,68.323244 129.671416,68.85221 129.58678,69.5546875 L127.453968,69.5546875 C127.496285,67.8788979 128.040063,66.7130567 129.085315,66.0571289 C130.130568,65.4012011 131.342958,65.0732422 132.722522,65.0732422 C134.32214,65.0732422 135.62128,65.3779266 136.619983,65.9873047 C137.610223,66.5966827 138.105335,67.5445899 138.105335,68.8310547 L138.105335,76.6640625 C138.105335,76.9010429 138.154,77.0914706 138.251331,77.2353516 C138.348662,77.3792325 138.553901,77.4511719 138.867054,77.4511719 C138.968617,77.4511719 139.082873,77.4448243 139.209827,77.4321289 C139.336781,77.4194335 139.472196,77.4003908 139.616077,77.375 L139.616077,79.0634766 C139.260606,79.1650396 138.989776,79.2285155 138.803577,79.2539062 C138.617378,79.279297 138.363474,79.2919922 138.041858,79.2919922 C137.254745,79.2919922 136.683462,79.0126981 136.327991,78.4541016 C136.141792,78.1578761 136.010609,77.738935 135.934436,77.1972656 C135.468939,77.8066437 134.800326,78.3356097 133.928577,78.7841797 C133.056828,79.2327496 132.096225,79.4570312 131.046741,79.4570312 C129.785667,79.4570312 128.755241,79.0740598 127.955432,78.3081055 C127.155624,77.5421511 126.755725,76.5836646 126.755725,75.4326172 C126.755725,74.1715432 127.149276,73.1940139 127.936389,72.5 C128.723503,71.8059861 129.756045,71.3785815 131.034046,71.2177734 L134.6776,70.7607422 Z M146.259809,65.1621094 C147.32622,65.1621094 148.257201,65.4244765 149.052778,65.9492188 C149.48442,66.2454442 149.92452,66.6770805 150.37309,67.2441406 L150.37309,65.5302734 L152.480512,65.5302734 L152.480512,77.8955078 C152.480512,79.6220789 152.226608,80.9846955 151.718793,81.9833984 C150.770872,83.8284597 148.980851,84.7509766 146.348676,84.7509766 C144.884476,84.7509766 143.653043,84.4230176 142.65434,83.7670898 C141.655637,83.1111621 141.097049,82.0849679 140.978559,80.6884766 L143.301801,80.6884766 C143.411828,81.2978546 143.631877,81.7675765 143.961957,82.0976562 C144.478236,82.6054713 145.290728,82.859375 146.399457,82.859375 C148.151419,82.859375 149.298218,82.2415426 149.839887,81.0058594 C150.161503,80.2779912 150.309614,78.9788505 150.284223,77.1083984 C149.827189,77.8024123 149.277065,78.3186832 148.633832,78.6572266 C147.9906,78.9957699 147.140022,79.1650391 146.082074,79.1650391 C144.609411,79.1650391 143.320849,78.6424206 142.216352,77.597168 C141.111854,76.5519153 140.559613,74.8232542 140.559613,72.4111328 C140.559613,70.1344287 141.116086,68.3571027 142.229047,67.0791016 C143.342008,65.8011004 144.685582,65.1621094 146.259809,65.1621094 Z M150.37309,72.1445312 C150.37309,70.460278 150.026088,69.2119181 149.332074,68.3994141 C148.638061,67.58691 147.753629,67.1806641 146.678754,67.1806641 C145.070673,67.1806641 143.970424,67.9339117 143.377973,69.4404297 C143.06482,70.2444702 142.908246,71.2981706 142.908246,72.6015625 C142.908246,74.1334712 143.219278,75.2993124 143.841352,76.0991211 C144.463425,76.8989298 145.299192,77.2988281 146.348676,77.2988281 C147.990611,77.2988281 149.145873,76.5582756 149.814496,75.0771484 C150.186894,74.2392536 150.37309,73.2617243 150.37309,72.1445312 Z M161.19358,65.0986328 C162.158428,65.0986328 163.09364,65.3250303 163.999244,65.777832 C164.904847,66.2306338 165.594619,66.8167282 166.06858,67.5361328 C166.525613,68.2216831 166.830298,69.0214798 166.982642,69.9355469 C167.11806,70.5618521 167.185767,71.56054 167.185767,72.9316406 L157.219947,72.9316406 C157.262265,74.3112048 157.588108,75.4178018 158.197486,76.2514648 C158.806864,77.0851279 159.750539,77.5019531 161.028541,77.5019531 C162.221906,77.5019531 163.174045,77.1084024 163.884986,76.3212891 C164.291238,75.8642555 164.578995,75.3352895 164.748267,74.734375 L166.995337,74.734375 C166.936092,75.2337265 166.739317,75.7901988 166.405005,76.4038086 C166.070694,77.0174184 165.696186,77.5188783 165.28147,77.9082031 C164.587456,78.5852898 163.728416,79.0423165 162.704322,79.2792969 C162.154189,79.4147142 161.532125,79.4824219 160.838111,79.4824219 C159.145394,79.4824219 157.710838,78.8667054 156.5344,77.6352539 C155.357962,76.4038024 154.769752,74.6793731 154.769752,72.4619141 C154.769752,70.2783094 155.362194,68.5052151 156.547095,67.1425781 C157.731997,65.7799411 159.28081,65.0986328 161.19358,65.0986328 Z M164.837134,71.1162109 C164.744035,70.1259716 164.528217,69.3346384 164.189673,68.7421875 C163.563368,67.6419216 162.518131,67.0917969 161.053931,67.0917969 C160.004447,67.0917969 159.124247,67.4705366 158.413306,68.2280273 C157.702365,68.9855181 157.325741,69.9482363 157.283423,71.1162109 L164.837134,71.1162109 Z M83.6959348,97.2412109 C83.6959348,96.2678988 83.4399152,95.5738953 82.9278684,95.1591797 C82.4158215,94.7444641 81.6985436,94.5371094 80.7760129,94.5371094 L77.1324582,94.5371094 L77.1324582,100.046875 L80.7760129,100.046875 C81.6985436,100.046875 82.4158215,99.8225934 82.9278684,99.3740234 C83.4399152,98.9254535 83.6959348,98.2145231 83.6959348,97.2412109 Z M87.5680051,97.2158203 C87.5680051,99.4248157 87.0094169,100.986324 85.8922238,101.900391 C84.7750307,102.814458 83.1796691,103.271484 81.106091,103.271484 L77.1324582,103.271484 L77.1324582,110 L73.2476926,110 L73.2476926,91.2871094 L81.3980832,91.2871094 C83.2769989,91.2871094 84.7750307,91.7695264 85.8922238,92.734375 C87.0094169,93.6992236 87.5680051,95.1930237 87.5680051,97.2158203 Z M93.3103697,102.928711 L98.0584166,102.928711 L95.7224791,95.5654297 L93.3103697,102.928711 Z M93.5515807,91.2871094 L97.9695494,91.2871094 L104.596503,110 L100.356268,110 L99.1502135,106.15332 L92.2566588,106.15332 L90.9617369,110 L86.8738463,110 L93.5515807,91.2871094 Z M110.161133,110 L106.276367,110 L106.276367,91.2871094 L110.161133,91.2871094 L110.161133,110 Z M117.211115,94.5371094 L117.211115,106.75 L120.816583,106.75 C122.661645,106.75 123.94809,105.840178 124.675958,104.020508 C125.073747,103.021805 125.272638,101.832689 125.272638,100.453125 C125.272638,98.5488186 124.974301,97.0867564 124.377619,96.0668945 C123.780936,95.0470327 122.593936,94.5371094 120.816583,94.5371094 L117.211115,94.5371094 Z M121.47674,91.2871094 C122.636251,91.3040365 123.601085,91.4394519 124.371271,91.6933594 C125.683126,92.1250022 126.74529,92.9163354 127.557794,94.0673828 C128.20949,94.9983771 128.653822,96.0055284 128.890802,97.0888672 C129.127782,98.1722059 129.246271,99.2047477 129.246271,100.186523 C129.246271,102.674817 128.746927,104.782218 127.748224,106.508789 C126.394051,108.836275 124.303577,110 121.47674,110 L113.415216,110 L113.415216,91.2871094 L121.47674,91.2871094 Z M41.8081963,122.350586 L50.1997979,122.350586 C51.8586603,122.350586 53.1958865,122.818192 54.2115166,123.753418 C55.2271467,124.688644 55.7349541,126.002596 55.7349541,127.695312 C55.7349541,129.151049 55.2821592,130.418452 54.3765557,131.497559 C53.4709522,132.576666 52.0787135,133.116211 50.1997979,133.116211 L44.3345635,133.116211 L44.3345635,141 L41.8081963,141 L41.8081963,122.350586 Z M53.1831963,127.708008 C53.1831963,126.336907 52.6753889,125.405927 51.6597588,124.915039 C51.1011623,124.652668 50.3352194,124.521484 49.3619072,124.521484 L44.3345635,124.521484 L44.3345635,130.983398 L49.3619072,130.983398 C50.4960275,130.983398 51.4164284,130.74219 52.1231377,130.259766 C52.829847,129.777341 53.1831963,128.926764 53.1831963,127.708008 Z M63.8767328,127.098633 C64.8415814,127.098633 65.7767934,127.32503 66.6823969,127.777832 C67.5880004,128.230634 68.2777721,128.816728 68.7517328,129.536133 C69.2087664,130.221683 69.5134508,131.02148 69.6657953,131.935547 C69.8012127,132.561852 69.8689203,133.56054 69.8689203,134.931641 L59.9031,134.931641 C59.9454179,136.311205 60.271261,137.417802 60.8806391,138.251465 C61.4900171,139.085128 62.4336926,139.501953 63.7116938,139.501953 C64.9050591,139.501953 65.857198,139.108402 66.5681391,138.321289 C66.9743911,137.864256 67.2621486,137.335289 67.4314203,136.734375 L69.6784906,136.734375 C69.6192456,137.233726 69.4224702,137.790199 69.0881586,138.403809 C68.753847,139.017418 68.3793391,139.518878 67.9646235,139.908203 C67.2706096,140.58529 66.4115687,141.042317 65.387475,141.279297 C64.8373421,141.414714 64.215278,141.482422 63.5212641,141.482422 C61.8285473,141.482422 60.3939913,140.866705 59.2175531,139.635254 C58.041115,138.403802 57.4529047,136.679373 57.4529047,134.461914 C57.4529047,132.278309 58.0453467,130.505215 59.2302485,129.142578 C60.4151502,127.779941 61.9639628,127.098633 63.8767328,127.098633 Z M67.5202875,133.116211 C67.4271881,132.125972 67.2113699,131.334638 66.8728266,130.742188 C66.2465214,129.641922 65.2012844,129.091797 63.7370844,129.091797 C62.6876,129.091797 61.8074004,129.470537 61.0964594,130.228027 C60.3855183,130.985518 60.0088945,131.948236 59.9665766,133.116211 L67.5202875,133.116211 Z M72.3485897,127.40332 L74.5194881,127.40332 L74.5194881,129.751953 C74.6972234,129.29492 75.1330914,128.738447 75.8271053,128.08252 C76.5211192,127.426592 77.3209159,127.098633 78.2265193,127.098633 C78.2688373,127.098633 78.3407767,127.102865 78.4423397,127.111328 C78.5439027,127.119792 78.7174035,127.136719 78.9628475,127.162109 L78.9628475,129.574219 C78.8274301,129.548828 78.7025941,129.531901 78.5883358,129.523438 C78.4740774,129.514974 78.3492414,129.510742 78.213824,129.510742 C77.0627766,129.510742 76.1783454,129.881018 75.5605037,130.621582 C74.9426621,131.362146 74.6337459,132.214839 74.6337459,133.179688 L74.6337459,141 L72.3485897,141 L72.3485897,127.40332 Z M80.5538449,127.40332 L82.8136106,127.40332 L82.8136106,129.333008 C83.3552799,128.664385 83.8461604,128.177736 84.2862668,127.873047 C85.0395258,127.356768 85.8943349,127.098633 86.8507199,127.098633 C87.9340587,127.098633 88.8057948,127.365232 89.4659543,127.898438 C89.838352,128.203127 90.1768903,128.65169 90.4815793,129.244141 C90.9893943,128.516272 91.5860681,127.976727 92.2716184,127.625488 C92.9571687,127.27425 93.7273433,127.098633 94.5821652,127.098633 C96.4102994,127.098633 97.6544276,127.758782 98.3145871,129.079102 C98.6700576,129.790043 98.8477902,130.746413 98.8477902,131.948242 L98.8477902,141 L96.4737668,141 L96.4737668,131.554688 C96.4737668,130.649084 96.2473693,130.02702 95.7945676,129.688477 C95.3417658,129.349933 94.7895253,129.180664 94.1378293,129.180664 C93.2406894,129.180664 92.4683989,129.481117 91.8209348,130.082031 C91.1734706,130.682946 90.8497434,131.685865 90.8497434,133.09082 L90.8497434,141 L88.5265012,141 L88.5265012,132.125977 C88.5265012,131.203446 88.4164762,130.530601 88.1964231,130.107422 C87.8494161,129.472653 87.2019616,129.155273 86.2540402,129.155273 C85.3907547,129.155273 84.605769,129.48958 83.8990598,130.158203 C83.1923505,130.826826 82.8390012,132.037101 82.8390012,133.789062 L82.8390012,141 L80.5538449,141 L80.5538449,127.40332 Z M101.822577,127.466797 L104.145819,127.466797 L104.145819,141 L101.822577,141 L101.822577,127.466797 Z M101.822577,122.350586 L104.145819,122.350586 L104.145819,124.94043 L101.822577,124.94043 L101.822577,122.350586 Z M107.666504,123.607422 L109.977051,123.607422 L109.977051,127.40332 L112.147949,127.40332 L112.147949,129.269531 L109.977051,129.269531 L109.977051,138.143555 C109.977051,138.617515 110.137856,138.934895 110.459473,139.095703 C110.637208,139.188803 110.933429,139.235352 111.348145,139.235352 C111.458171,139.235352 111.57666,139.233236 111.703613,139.229004 C111.830567,139.224772 111.978678,139.214193 112.147949,139.197266 L112.147949,141 C111.885578,141.076172 111.612632,141.131185 111.329102,141.165039 C111.045571,141.198893 110.738771,141.21582 110.408691,141.21582 C109.34228,141.21582 108.618654,140.942874 108.237793,140.396973 C107.856932,139.851071 107.666504,139.142257 107.666504,138.270508 L107.666504,129.269531 L105.825684,129.269531 L105.825684,127.40332 L107.666504,127.40332 L107.666504,123.607422 Z M120.014514,141 C120.09915,139.434237 120.422878,138.07162 120.985706,136.912109 C121.548534,135.752598 122.646668,134.698898 124.280139,133.750977 L126.717639,132.341797 C127.809442,131.707028 128.575385,131.165367 129.015491,130.716797 C129.709505,130.014319 130.056507,129.210291 130.056507,128.304688 C130.056507,127.24674 129.739127,126.406741 129.104358,125.784668 C128.469589,125.162595 127.623244,124.851562 126.565296,124.851562 C124.999533,124.851562 123.91621,125.444004 123.315296,126.628906 C122.99368,127.263675 122.815947,128.143875 122.782093,129.269531 L120.45885,129.269531 C120.484241,127.686841 120.77623,126.396164 121.334827,125.397461 C122.325066,123.637035 124.07277,122.756836 126.577991,122.756836 C128.660033,122.756836 130.181339,123.319656 131.141956,124.445312 C132.102573,125.570969 132.582874,126.823561 132.582874,128.203125 C132.582874,129.658861 132.070835,130.90299 131.046741,131.935547 C130.45429,132.536461 129.392126,133.264319 127.860218,134.119141 L126.12096,135.083984 C125.291529,135.541018 124.639842,135.976886 124.165882,136.391602 C123.319523,137.127933 122.786325,137.944657 122.566272,138.841797 L132.494007,138.841797 L132.494007,141 L120.014514,141 Z M140.305707,122.820312 C142.658584,122.820312 144.359738,123.789378 145.409223,125.727539 C146.221727,127.225593 146.627973,129.277982 146.627973,131.884766 C146.627973,134.356132 146.259812,136.400057 145.523481,138.016602 C144.457069,140.335624 142.713597,141.495117 140.293012,141.495117 C138.109407,141.495117 136.484423,140.54721 135.418012,138.651367 C134.529336,137.068677 134.085004,134.944349 134.085004,132.27832 C134.085004,130.213206 134.351603,128.440112 134.884809,126.958984 C135.883512,124.199856 137.69046,122.820312 140.305707,122.820312 Z M140.280317,139.413086 C141.465218,139.413086 142.408894,138.888352 143.111371,137.838867 C143.813849,136.789383 144.165082,134.834324 144.165082,131.973633 C144.165082,129.908518 143.911179,128.209479 143.403363,126.876465 C142.895548,125.54345 141.909556,124.876953 140.445356,124.876953 C139.099646,124.876953 138.115769,125.509597 137.493695,126.774902 C136.871622,128.040208 136.56059,129.904285 136.56059,132.367188 C136.56059,134.220712 136.759481,135.710281 137.15727,136.835938 C137.766648,138.554045 138.807653,139.413086 140.280317,139.413086 Z M149.831275,128.126953 L149.831275,126.375 C151.481674,126.214192 152.632704,125.945477 153.2844,125.568848 C153.936096,125.192218 154.422745,124.301439 154.744361,122.896484 L156.547095,122.896484 L156.547095,141 L154.109595,141 L154.109595,128.126953 L149.831275,128.126953 Z M38.1773369,153.350586 L46.5689385,153.350586 C48.227801,153.350586 49.5650272,153.818192 50.5806572,154.753418 C51.5962873,155.688644 52.1040947,157.002596 52.1040947,158.695312 C52.1040947,160.151049 51.6512998,161.418452 50.7456963,162.497559 C49.8400928,163.576666 48.4478541,164.116211 46.5689385,164.116211 L40.7037041,164.116211 L40.7037041,172 L38.1773369,172 L38.1773369,153.350586 Z M49.5523369,158.708008 C49.5523369,157.336907 49.0445295,156.405927 48.0288994,155.915039 C47.4703029,155.652668 46.70436,155.521484 45.7310479,155.521484 L40.7037041,155.521484 L40.7037041,161.983398 L45.7310479,161.983398 C46.8651681,161.983398 47.7855691,161.74219 48.4922783,161.259766 C49.1989876,160.777341 49.5523369,159.926764 49.5523369,158.708008 Z M54.5837641,153.287109 L56.8689203,153.287109 L56.8689203,160.244141 C57.4105897,159.55859 57.8972385,159.076173 58.3288813,158.796875 C59.0652131,158.314451 59.9834982,158.073242 61.0837641,158.073242 C63.0557791,158.073242 64.3930054,158.763014 65.0954828,160.142578 C65.4763441,160.895837 65.6667719,161.941074 65.6667719,163.27832 L65.6667719,172 L63.3181391,172 L63.3181391,163.430664 C63.3181391,162.431961 63.1911872,161.699872 62.9372797,161.234375 C62.5225641,160.48958 61.743926,160.117188 60.6013422,160.117188 C59.6534208,160.117188 58.7943799,160.443031 58.0241938,161.094727 C57.2540076,161.746423 56.8689203,162.977856 56.8689203,164.789062 L56.8689203,172 L54.5837641,172 L54.5837641,153.287109 Z M74.0497615,170.527344 C75.5647431,170.527344 76.6036324,169.953945 77.1664608,168.807129 C77.7292891,167.660313 78.010699,166.384447 78.010699,164.979492 C78.010699,163.709955 77.8075761,162.677413 77.401324,161.881836 C76.7580917,160.629226 75.6493788,160.00293 74.0751522,160.00293 C72.6786608,160.00293 71.663046,160.536127 71.0282772,161.602539 C70.3935084,162.668951 70.0761287,163.955396 70.0761287,165.461914 C70.0761287,166.909187 70.3935084,168.11523 71.0282772,169.080078 C71.663046,170.044927 72.6701973,170.527344 74.0497615,170.527344 Z M74.1386287,158.009766 C75.8905906,158.009766 77.3716956,158.593744 78.5819881,159.761719 C79.7922806,160.929693 80.3974178,162.647775 80.3974178,164.916016 C80.3974178,167.108084 79.86422,168.919264 78.7978084,170.349609 C77.7313968,171.779955 76.076791,172.495117 73.8339412,172.495117 C71.9634892,172.495117 70.4781525,171.862474 69.3778865,170.597168 C68.2776206,169.331862 67.7274959,167.632823 67.7274959,165.5 C67.7274959,163.214832 68.3072427,161.395189 69.4667537,160.041016 C70.6262647,158.686842 72.1835408,158.009766 74.1386287,158.009766 Z M88.3868527,158.098633 C89.3517013,158.098633 90.2869133,158.32503 91.1925168,158.777832 C92.0981203,159.230634 92.787892,159.816728 93.2618527,160.536133 C93.7188863,161.221683 94.0235707,162.02148 94.1759152,162.935547 C94.3113326,163.561852 94.3790402,164.56054 94.3790402,165.931641 L84.4132199,165.931641 C84.4555378,167.311205 84.7813809,168.417802 85.390759,169.251465 C86.000137,170.085128 86.9438125,170.501953 88.2218137,170.501953 C89.415179,170.501953 90.3673179,170.108402 91.078259,169.321289 C91.484511,168.864256 91.7722686,168.335289 91.9415402,167.734375 L94.1886106,167.734375 C94.1293655,168.233726 93.9325901,168.790199 93.5982785,169.403809 C93.263967,170.017418 92.889459,170.518878 92.4747434,170.908203 C91.7807295,171.58529 90.9216886,172.042317 89.8975949,172.279297 C89.347462,172.414714 88.7253979,172.482422 88.031384,172.482422 C86.3386672,172.482422 84.9041112,171.866705 83.7276731,170.635254 C82.5512349,169.403802 81.9630246,167.679373 81.9630246,165.461914 C81.9630246,163.278309 82.5554666,161.505215 83.7403684,160.142578 C84.9252701,158.779941 86.4740828,158.098633 88.3868527,158.098633 Z M92.0304074,164.116211 C91.937308,163.125972 91.7214899,162.334638 91.3829465,161.742188 C90.7566413,160.641922 89.7114043,160.091797 88.2472043,160.091797 C87.1977199,160.091797 86.3175204,160.470537 85.6065793,161.228027 C84.8956382,161.985518 84.5190144,162.948236 84.4766965,164.116211 L92.0304074,164.116211 Z M96.795233,158.40332 L98.9661314,158.40332 L98.9661314,160.333008 C99.6093638,159.537431 100.290672,158.966148 101.010077,158.619141 C101.729481,158.272134 102.529278,158.098633 103.409491,158.098633 C105.339188,158.098633 106.64256,158.771478 107.319647,160.117188 C107.692045,160.853519 107.878241,161.90722 107.878241,163.27832 L107.878241,172 L105.554999,172 L105.554999,163.430664 C105.554999,162.601233 105.432279,161.93262 105.186835,161.424805 C104.780583,160.578446 104.044262,160.155273 102.97785,160.155273 C102.436181,160.155273 101.991849,160.210286 101.644842,160.320312 C101.018537,160.506511 100.468412,160.878903 99.9944518,161.4375 C99.6135905,161.88607 99.3660344,162.349444 99.251776,162.827637 C99.1375176,163.305829 99.0803893,163.989253 99.0803893,164.87793 L99.0803893,172 L96.795233,172 L96.795233,158.40332 Z M110.865723,158.466797 L113.188965,158.466797 L113.188965,172 L110.865723,172 L110.865723,158.466797 Z M110.865723,153.350586 L113.188965,153.350586 L113.188965,155.94043 L110.865723,155.94043 L110.865723,153.350586 Z M114.957697,158.40332 L117.915704,158.40332 L121.038751,163.189453 L124.199884,158.40332 L126.980158,158.466797 L122.39715,165.030273 L127.183283,172 L124.263361,172 L120.886408,166.896484 L117.611017,172 L114.716486,172 L119.502619,165.030273 L114.957697,158.40332 Z M144.152387,164.357422 L141.321332,156.118164 L138.312543,164.357422 L144.152387,164.357422 Z M140.00102,153.350586 L142.857465,153.350586 L149.624067,172 L146.856488,172 L144.964887,166.414062 L137.58891,166.414062 L135.570356,172 L132.980512,172 L140.00102,153.350586 Z M150.148658,169.905273 L161.587134,155.572266 L150.986548,155.572266 L150.986548,153.350586 L164.837134,153.350586 L164.837134,155.521484 L153.335181,169.77832 L164.837134,169.77832 L164.837134,172 L150.148658,172 L150.148658,169.905273 Z"/>
</svg>
