<?xml version="1.0" encoding="utf-8"?>
<!-- Generator: Adobe Illustrator 25.3.1, SVG Export Plug-In . SVG Version: 6.00 Build 0)  -->
<svg version="1.1" id="Layer_1" xmlns="http://www.w3.org/2000/svg" xmlns:xlink="http://www.w3.org/1999/xlink" x="0px" y="0px"
	 viewBox="0 0 200 200" style="enable-background:new 0 0 200 200;" xml:space="preserve">
<style type="text/css">
	.st0{opacity:0.9;}
	.st1{fill-rule:evenodd;clip-rule:evenodd;fill-opacity:0.87;}
</style>
<g class="st0">
	<g>
		<path d="M127.96,140.99v-4.43h-7.95v-2.23l8.3-11.52h1.92v11.76h2.67v1.99h-2.67v4.43H127.96z M127.92,134.58v-8.23l-5.81,8.23
			H127.92z"/>
		<path d="M135.84,139.72c-0.97-1.18-1.45-2.61-1.45-4.3h2.38c0.1,1.17,0.32,2.02,0.66,2.56c0.59,0.95,1.66,1.43,3.2,1.43
			c1.2,0,2.16-0.32,2.88-0.96c0.73-0.64,1.09-1.47,1.09-2.48c0-1.25-0.38-2.12-1.14-2.62c-0.76-0.5-1.82-0.75-3.18-0.75
			c-0.15,0-0.31,0-0.46,0.01c-0.16,0-0.31,0.01-0.47,0.02v-2.01c0.24,0.02,0.43,0.04,0.59,0.05c0.16,0.01,0.33,0.01,0.52,0.01
			c0.85,0,1.55-0.14,2.1-0.4c0.96-0.47,1.44-1.32,1.44-2.53c0-0.9-0.32-1.6-0.96-2.09c-0.64-0.49-1.39-0.73-2.24-0.73
			c-1.52,0-2.57,0.51-3.15,1.52c-0.32,0.56-0.5,1.35-0.54,2.38h-2.25c0-1.35,0.27-2.5,0.81-3.44c0.93-1.69,2.56-2.53,4.9-2.53
			c1.85,0,3.28,0.41,4.29,1.23c1.01,0.82,1.52,2.01,1.52,3.57c0,1.11-0.3,2.02-0.9,2.71c-0.37,0.43-0.85,0.77-1.44,1.01
			c0.95,0.26,1.7,0.77,2.23,1.51c0.54,0.75,0.8,1.66,0.8,2.74c0,1.73-0.57,3.14-1.71,4.23c-1.14,1.09-2.75,1.63-4.85,1.63
			C138.36,141.48,136.8,140.9,135.84,139.72z"/>
	</g>
</g>
<path class="st1" d="M39.84,29.35h8.39c1.66,0,3,0.47,4.01,1.4c1.02,0.94,1.52,2.25,1.52,3.94c0,1.46-0.45,2.72-1.36,3.8
	c-0.91,1.08-2.3,1.62-4.18,1.62h-5.87V48h-2.53V29.35z M51.21,34.71c0-1.37-0.51-2.3-1.52-2.79c-0.56-0.26-1.32-0.39-2.3-0.39h-5.03
	v6.46h5.03c1.13,0,2.05-0.24,2.76-0.72C50.86,36.78,51.21,35.93,51.21,34.71z M56.31,34.4h2.17v2.35c0.18-0.46,0.61-1.01,1.31-1.67
	s1.49-0.98,2.4-0.98c0.04,0,0.11,0,0.22,0.01s0.28,0.03,0.52,0.05v2.41c-0.14-0.03-0.26-0.04-0.37-0.05s-0.24-0.01-0.37-0.01
	c-1.15,0-2.04,0.37-2.65,1.11c-0.62,0.74-0.93,1.59-0.93,2.56V48h-2.29V34.4z M70.18,34.1c0.96,0,1.9,0.23,2.81,0.68
	c0.91,0.45,1.6,1.04,2.07,1.76c0.46,0.69,0.76,1.49,0.91,2.4c0.14,0.63,0.2,1.62,0.2,3H66.2c0.04,1.38,0.37,2.49,0.98,3.32
	c0.61,0.83,1.55,1.25,2.83,1.25c1.19,0,2.15-0.39,2.86-1.18c0.41-0.46,0.69-0.99,0.86-1.59h2.25c-0.06,0.5-0.26,1.06-0.59,1.67
	s-0.71,1.12-1.12,1.5c-0.69,0.68-1.55,1.13-2.58,1.37c-0.55,0.14-1.17,0.2-1.87,0.2c-1.69,0-3.13-0.62-4.3-1.85
	s-1.76-2.96-1.76-5.17c0-2.18,0.59-3.96,1.78-5.32C66.71,34.78,68.26,34.1,70.18,34.1z M73.82,40.12c-0.09-0.99-0.31-1.78-0.65-2.37
	c-0.63-1.1-1.67-1.65-3.14-1.65c-1.05,0-1.93,0.38-2.64,1.14c-0.71,0.76-1.09,1.72-1.13,2.89H73.82z M79.94,43.73
	c0.07,0.76,0.26,1.35,0.57,1.75c0.58,0.74,1.57,1.1,3,1.1c0.85,0,1.59-0.18,2.23-0.55s0.96-0.94,0.96-1.71
	c0-0.58-0.26-1.03-0.77-1.33c-0.33-0.19-0.98-0.4-1.96-0.65l-1.82-0.46c-1.16-0.29-2.01-0.61-2.56-0.96
	c-0.98-0.62-1.47-1.47-1.47-2.56c0-1.29,0.46-2.33,1.39-3.12s2.17-1.19,3.74-1.19c2.05,0,3.53,0.6,4.43,1.8
	c0.57,0.76,0.84,1.58,0.83,2.46h-2.16c-0.04-0.52-0.22-0.99-0.55-1.41c-0.52-0.6-1.43-0.9-2.73-0.9c-0.86,0-1.52,0.17-1.96,0.5
	s-0.67,0.77-0.67,1.31c0,0.59,0.29,1.07,0.88,1.42c0.34,0.21,0.84,0.4,1.5,0.56l1.51,0.37c1.64,0.4,2.74,0.78,3.3,1.16
	c0.89,0.58,1.33,1.5,1.33,2.75c0,1.21-0.46,2.26-1.38,3.14s-2.32,1.32-4.2,1.32c-2.02,0-3.46-0.46-4.3-1.38s-1.29-2.05-1.35-3.41
	H79.94z M96.59,46.53c1.51,0,2.55-0.57,3.12-1.72s0.84-2.42,0.84-3.83c0-1.27-0.2-2.3-0.61-3.1C99.3,36.63,98.19,36,96.62,36
	c-1.4,0-2.41,0.53-3.05,1.6c-0.63,1.07-0.95,2.35-0.95,3.86c0,1.45,0.32,2.65,0.95,3.62C94.2,46.04,95.21,46.53,96.59,46.53z
	 M96.68,34.01c1.75,0,3.23,0.58,4.44,1.75c1.21,1.17,1.82,2.89,1.82,5.15c0,2.19-0.53,4-1.6,5.43c-1.07,1.43-2.72,2.15-4.96,2.15
	c-1.87,0-3.36-0.63-4.46-1.9s-1.65-2.96-1.65-5.1c0-2.29,0.58-4.1,1.74-5.46C93.17,34.69,94.72,34.01,96.68,34.01z M105.33,34.4
	h2.17v2.35c0.18-0.46,0.61-1.01,1.31-1.67c0.69-0.66,1.49-0.98,2.4-0.98c0.04,0,0.11,0,0.22,0.01s0.28,0.03,0.52,0.05v2.41
	c-0.14-0.03-0.26-0.04-0.37-0.05s-0.24-0.01-0.37-0.01c-1.15,0-2.04,0.37-2.65,1.11c-0.62,0.74-0.93,1.59-0.93,2.56V48h-2.29V34.4z
	 M113.99,30.61h2.31v3.8h2.17v1.87h-2.17v8.87c0,0.47,0.16,0.79,0.48,0.95c0.18,0.09,0.47,0.14,0.89,0.14c0.11,0,0.23,0,0.36-0.01
	s0.28-0.01,0.44-0.03V48c-0.26,0.08-0.54,0.13-0.82,0.17c-0.28,0.03-0.59,0.05-0.92,0.05c-1.07,0-1.79-0.27-2.17-0.82
	c-0.38-0.55-0.57-1.25-0.57-2.13v-9h-1.84V34.4h1.84V30.61z M129.16,41.98c0.06,1.06,0.31,1.92,0.75,2.58
	c0.84,1.24,2.31,1.85,4.43,1.85c0.95,0,1.81-0.14,2.59-0.41c1.51-0.52,2.26-1.46,2.26-2.82c0-1.02-0.32-1.74-0.95-2.17
	c-0.64-0.42-1.65-0.79-3.02-1.1l-2.53-0.57c-1.65-0.37-2.82-0.78-3.5-1.23c-1.18-0.78-1.78-1.94-1.78-3.49
	c0-1.68,0.58-3.05,1.74-4.13c1.16-1.07,2.8-1.61,4.93-1.61c1.96,0,3.62,0.47,4.98,1.42s2.05,2.45,2.05,4.53h-2.37
	c-0.13-1-0.4-1.76-0.81-2.3c-0.77-0.97-2.08-1.46-3.92-1.46c-1.49,0-2.56,0.31-3.21,0.94s-0.98,1.35-0.98,2.18
	c0,0.91,0.38,1.58,1.14,2.01c0.5,0.27,1.63,0.61,3.39,1.02l2.62,0.6c1.26,0.29,2.23,0.68,2.92,1.18c1.18,0.87,1.78,2.14,1.78,3.8
	c0,2.07-0.75,3.54-2.25,4.43s-3.25,1.33-5.24,1.33c-2.32,0-4.13-0.59-5.45-1.78c-1.31-1.18-1.96-2.77-1.93-4.79H129.16z
	 M144.61,30.61h2.31v3.8h2.17v1.87h-2.17v8.87c0,0.47,0.16,0.79,0.48,0.95c0.18,0.09,0.47,0.14,0.89,0.14c0.11,0,0.23,0,0.36-0.01
	s0.28-0.01,0.44-0.03V48c-0.26,0.08-0.54,0.13-0.82,0.17c-0.28,0.03-0.59,0.05-0.92,0.05c-1.07,0-1.79-0.27-2.17-0.82
	s-0.57-1.25-0.57-2.13v-9h-1.84V34.4h1.84V30.61z M152.44,41.36c0,1.46,0.31,2.67,0.93,3.66s1.61,1.47,2.97,1.47
	c1.06,0,1.93-0.45,2.61-1.36s1.02-2.22,1.02-3.92c0-1.72-0.35-2.99-1.05-3.81c-0.7-0.83-1.57-1.24-2.6-1.24
	c-1.15,0-2.08,0.44-2.8,1.32C152.79,38.36,152.44,39.65,152.44,41.36z M155.88,34.16c1.04,0,1.91,0.22,2.62,0.66
	c0.41,0.25,0.87,0.7,1.38,1.33v-6.87h2.2V48h-2.06v-1.89c-0.53,0.84-1.16,1.44-1.89,1.82c-0.73,0.37-1.56,0.56-2.5,0.56
	c-1.51,0-2.83-0.64-3.94-1.91c-1.11-1.27-1.66-2.97-1.66-5.08c0-1.98,0.51-3.7,1.52-5.15S154,34.16,155.88,34.16z M37.8,60.35v11.53
	c0,1.35,0.25,2.48,0.76,3.38c0.75,1.35,2.02,2.03,3.81,2.03c2.14,0,3.6-0.73,4.37-2.2c0.41-0.8,0.62-1.87,0.62-3.21V60.35h2.56
	v10.47c0,2.29-0.31,4.06-0.93,5.29c-1.13,2.25-3.28,3.38-6.42,3.38s-5.29-1.13-6.41-3.38c-0.62-1.24-0.93-3-0.93-5.29V60.35H37.8z
	 M55.09,72.98c0.06,1.06,0.31,1.92,0.75,2.58c0.84,1.24,2.31,1.85,4.43,1.85c0.95,0,1.81-0.14,2.59-0.41
	c1.51-0.52,2.26-1.46,2.26-2.82c0-1.02-0.32-1.74-0.95-2.17c-0.64-0.42-1.65-0.79-3.02-1.1l-2.53-0.57
	c-1.65-0.37-2.82-0.78-3.5-1.23c-1.18-0.78-1.78-1.94-1.78-3.49c0-1.68,0.58-3.05,1.74-4.13s2.8-1.61,4.93-1.61
	c1.96,0,3.62,0.47,4.98,1.42s2.05,2.45,2.05,4.53h-2.37c-0.13-1-0.4-1.76-0.81-2.3c-0.77-0.97-2.08-1.46-3.92-1.46
	c-1.49,0-2.56,0.31-3.21,0.94s-0.98,1.35-0.98,2.18c0,0.91,0.38,1.58,1.14,2.01c0.5,0.27,1.63,0.61,3.39,1.02l2.62,0.6
	c1.26,0.29,2.23,0.68,2.92,1.18c1.18,0.87,1.78,2.14,1.78,3.8c0,2.07-0.75,3.54-2.25,4.43c-1.5,0.89-3.25,1.33-5.24,1.33
	c-2.32,0-4.13-0.59-5.45-1.78c-1.31-1.18-1.96-2.77-1.93-4.79H55.09z M77.47,60.35h8.39c1.66,0,3,0.47,4.01,1.4
	c1.02,0.94,1.52,2.25,1.52,3.94c0,1.46-0.45,2.72-1.36,3.8c-0.91,1.08-2.3,1.62-4.18,1.62H80V79h-2.53V60.35z M88.84,65.71
	c0-1.37-0.51-2.3-1.52-2.79c-0.56-0.26-1.32-0.39-2.3-0.39H80v6.46h5.03c1.13,0,2.05-0.24,2.76-0.72
	C88.49,67.78,88.84,66.93,88.84,65.71z M99.27,77.53c1.51,0,2.55-0.57,3.12-1.72s0.84-2.42,0.84-3.83c0-1.27-0.2-2.3-0.61-3.1
	c-0.64-1.25-1.75-1.88-3.33-1.88c-1.4,0-2.41,0.53-3.05,1.6c-0.63,1.07-0.95,2.35-0.95,3.86c0,1.45,0.32,2.65,0.95,3.62
	C96.88,77.04,97.89,77.53,99.27,77.53z M99.36,65.01c1.75,0,3.23,0.58,4.44,1.75c1.21,1.17,1.82,2.89,1.82,5.15
	c0,2.19-0.53,4-1.6,5.43c-1.07,1.43-2.72,2.15-4.96,2.15c-1.87,0-3.36-0.63-4.46-1.9s-1.65-2.96-1.65-5.1c0-2.29,0.58-4.1,1.74-5.46
	C95.85,65.69,97.4,65.01,99.36,65.01z M109.3,74.73c0.07,0.76,0.26,1.35,0.57,1.75c0.58,0.74,1.57,1.1,3,1.1
	c0.85,0,1.59-0.18,2.23-0.55s0.96-0.94,0.96-1.71c0-0.58-0.26-1.03-0.77-1.33c-0.33-0.19-0.98-0.4-1.96-0.65l-1.82-0.46
	c-1.16-0.29-2.01-0.61-2.56-0.96c-0.98-0.62-1.47-1.47-1.47-2.56c0-1.29,0.46-2.33,1.39-3.12s2.17-1.19,3.74-1.19
	c2.05,0,3.53,0.6,4.43,1.8c0.57,0.76,0.84,1.58,0.83,2.46h-2.16c-0.04-0.52-0.22-0.99-0.55-1.41c-0.52-0.6-1.43-0.9-2.73-0.9
	c-0.86,0-1.52,0.17-1.96,0.5s-0.67,0.77-0.67,1.31c0,0.59,0.29,1.07,0.88,1.42c0.34,0.21,0.84,0.4,1.5,0.56l1.51,0.37
	c1.64,0.4,2.74,0.78,3.3,1.16c0.89,0.58,1.33,1.5,1.33,2.75c0,1.21-0.46,2.26-1.38,3.14s-2.32,1.32-4.2,1.32
	c-2.02,0-3.46-0.46-4.3-1.38s-1.29-2.05-1.35-3.41H109.3z M121.01,61.61h2.31v3.8h2.17v1.87h-2.17v8.87c0,0.47,0.16,0.79,0.48,0.95
	c0.18,0.09,0.47,0.14,0.89,0.14c0.11,0,0.23,0,0.36-0.01s0.28-0.01,0.44-0.03V79c-0.26,0.08-0.54,0.13-0.82,0.17
	s-0.59,0.05-0.92,0.05c-1.07,0-1.79-0.27-2.17-0.82s-0.57-1.25-0.57-2.13v-9h-1.84V65.4h1.84V61.61z M129.14,75.38
	c0,0.66,0.24,1.18,0.72,1.56s1.05,0.57,1.71,0.57c0.8,0,1.58-0.19,2.34-0.56c1.27-0.62,1.9-1.63,1.9-3.03v-1.84
	c-0.28,0.18-0.64,0.33-1.08,0.44s-0.87,0.2-1.29,0.25l-1.38,0.18c-0.83,0.11-1.45,0.28-1.87,0.52
	C129.49,73.88,129.14,74.51,129.14,75.38z M134.68,70.76c0.52-0.07,0.88-0.29,1.05-0.66c0.1-0.2,0.15-0.5,0.15-0.88
	c0-0.78-0.28-1.34-0.83-1.69S133.7,67,132.67,67c-1.19,0-2.04,0.32-2.54,0.96c-0.28,0.36-0.46,0.88-0.55,1.59h-2.13
	c0.04-1.68,0.59-2.84,1.63-3.5c1.05-0.66,2.26-0.98,3.64-0.98c1.6,0,2.9,0.3,3.9,0.91c0.99,0.61,1.49,1.56,1.49,2.84v7.83
	c0,0.24,0.05,0.43,0.15,0.57c0.1,0.14,0.3,0.22,0.62,0.22c0.1,0,0.22-0.01,0.34-0.02s0.26-0.03,0.41-0.06v1.69
	c-0.36,0.1-0.63,0.17-0.81,0.19s-0.44,0.04-0.76,0.04c-0.79,0-1.36-0.28-1.71-0.84c-0.19-0.3-0.32-0.72-0.39-1.26
	c-0.47,0.61-1.13,1.14-2.01,1.59s-1.83,0.67-2.88,0.67c-1.26,0-2.29-0.38-3.09-1.15s-1.2-1.72-1.2-2.88c0-1.26,0.39-2.24,1.18-2.93
	s1.82-1.12,3.1-1.28L134.68,70.76z M146.26,65.16c1.07,0,2,0.26,2.79,0.79c0.43,0.3,0.87,0.73,1.32,1.29v-1.71h2.11V77.9
	c0,1.73-0.25,3.09-0.76,4.09c-0.95,1.85-2.74,2.77-5.37,2.77c-1.46,0-2.7-0.33-3.69-0.98s-1.56-1.68-1.68-3.08h2.32
	c0.11,0.61,0.33,1.08,0.66,1.41c0.52,0.51,1.33,0.76,2.44,0.76c1.75,0,2.9-0.62,3.44-1.85c0.32-0.73,0.47-2.03,0.44-3.9
	c-0.46,0.69-1.01,1.21-1.65,1.55s-1.49,0.51-2.55,0.51c-1.47,0-2.76-0.52-3.87-1.57c-1.1-1.05-1.66-2.77-1.66-5.19
	c0-2.28,0.56-4.05,1.67-5.33S144.69,65.16,146.26,65.16z M150.37,72.14c0-1.68-0.35-2.93-1.04-3.75s-1.58-1.22-2.65-1.22
	c-1.61,0-2.71,0.75-3.3,2.26c-0.31,0.8-0.47,1.86-0.47,3.16c0,1.53,0.31,2.7,0.93,3.5s1.46,1.2,2.51,1.2c1.64,0,2.8-0.74,3.47-2.22
	C150.19,74.24,150.37,73.26,150.37,72.14z M161.19,65.1c0.96,0,1.9,0.23,2.81,0.68c0.91,0.45,1.6,1.04,2.07,1.76
	c0.46,0.69,0.76,1.49,0.91,2.4c0.14,0.63,0.2,1.62,0.2,3h-9.97c0.04,1.38,0.37,2.49,0.98,3.32c0.61,0.83,1.55,1.25,2.83,1.25
	c1.19,0,2.15-0.39,2.86-1.18c0.41-0.46,0.69-0.99,0.86-1.59H167c-0.06,0.5-0.26,1.06-0.59,1.67c-0.33,0.61-0.71,1.12-1.12,1.5
	c-0.69,0.68-1.55,1.13-2.58,1.37c-0.55,0.14-1.17,0.2-1.87,0.2c-1.69,0-3.13-0.62-4.3-1.85s-1.76-2.96-1.76-5.17
	c0-2.18,0.59-3.96,1.78-5.32C157.73,65.78,159.28,65.1,161.19,65.1z M164.84,71.12c-0.09-0.99-0.31-1.78-0.65-2.37
	c-0.63-1.1-1.67-1.65-3.14-1.65c-1.05,0-1.93,0.38-2.64,1.14c-0.71,0.76-1.09,1.72-1.13,2.89H164.84z M83.7,97.24
	c0-0.97-0.26-1.67-0.77-2.08s-1.23-0.62-2.15-0.62h-3.64v5.51h3.64c0.92,0,1.64-0.22,2.15-0.67S83.7,98.21,83.7,97.24z M87.57,97.22
	c0,2.21-0.56,3.77-1.68,4.68c-1.12,0.91-2.71,1.37-4.79,1.37h-3.97V110h-3.88V91.29h8.15c1.88,0,3.38,0.48,4.49,1.45
	C87.01,93.7,87.57,95.19,87.57,97.22z M93.31,102.93h4.75l-2.34-7.36L93.31,102.93z M93.55,91.29h4.42L104.6,110h-4.24l-1.21-3.85
	h-6.89L90.96,110h-4.09L93.55,91.29z M110.16,110h-3.88V91.29h3.88V110z M117.21,94.54v12.21h3.61c1.85,0,3.13-0.91,3.86-2.73
	c0.4-1,0.6-2.19,0.6-3.57c0-1.9-0.3-3.37-0.9-4.39c-0.6-1.02-1.78-1.53-3.56-1.53H117.21z M121.48,91.29
	c1.16,0.02,2.12,0.15,2.89,0.41c1.31,0.43,2.37,1.22,3.19,2.37c0.65,0.93,1.1,1.94,1.33,3.02c0.24,1.08,0.36,2.12,0.36,3.1
	c0,2.49-0.5,4.6-1.5,6.32c-1.35,2.33-3.44,3.49-6.27,3.49h-8.06V91.29H121.48z M41.81,122.35h8.39c1.66,0,3,0.47,4.01,1.4
	c1.02,0.94,1.52,2.25,1.52,3.94c0,1.46-0.45,2.72-1.36,3.8c-0.91,1.08-2.3,1.62-4.18,1.62h-5.87V141h-2.53V122.35z M53.18,127.71
	c0-1.37-0.51-2.3-1.52-2.79c-0.56-0.26-1.32-0.39-2.3-0.39h-5.03v6.46h5.03c1.13,0,2.05-0.24,2.76-0.72
	C52.83,129.78,53.18,128.93,53.18,127.71z M63.88,127.1c0.96,0,1.9,0.23,2.81,0.68s1.6,1.04,2.07,1.76c0.46,0.69,0.76,1.49,0.91,2.4
	c0.14,0.63,0.2,1.62,0.2,3H59.9c0.04,1.38,0.37,2.49,0.98,3.32s1.55,1.25,2.83,1.25c1.19,0,2.15-0.39,2.86-1.18
	c0.41-0.46,0.69-0.99,0.86-1.59h2.25c-0.06,0.5-0.26,1.06-0.59,1.67s-0.71,1.12-1.12,1.5c-0.69,0.68-1.55,1.13-2.58,1.37
	c-0.55,0.14-1.17,0.2-1.87,0.2c-1.69,0-3.13-0.62-4.3-1.85s-1.76-2.96-1.76-5.17c0-2.18,0.59-3.96,1.78-5.32
	S61.96,127.1,63.88,127.1z M67.52,133.12c-0.09-0.99-0.31-1.78-0.65-2.37c-0.63-1.1-1.67-1.65-3.14-1.65
	c-1.05,0-1.93,0.38-2.64,1.14s-1.09,1.72-1.13,2.89H67.52z M72.35,127.4h2.17v2.35c0.18-0.46,0.61-1.01,1.31-1.67
	c0.69-0.66,1.49-0.98,2.4-0.98c0.04,0,0.11,0,0.22,0.01s0.28,0.03,0.52,0.05v2.41c-0.14-0.03-0.26-0.04-0.37-0.05
	s-0.24-0.01-0.37-0.01c-1.15,0-2.04,0.37-2.65,1.11c-0.62,0.74-0.93,1.59-0.93,2.56V141h-2.29V127.4z M80.55,127.4h2.26v1.93
	c0.54-0.67,1.03-1.16,1.47-1.46c0.75-0.52,1.61-0.77,2.56-0.77c1.08,0,1.96,0.27,2.62,0.8c0.37,0.3,0.71,0.75,1.02,1.35
	c0.51-0.73,1.1-1.27,1.79-1.62c0.69-0.35,1.46-0.53,2.31-0.53c1.83,0,3.07,0.66,3.73,1.98c0.36,0.71,0.53,1.67,0.53,2.87V141h-2.37
	v-9.45c0-0.91-0.23-1.53-0.68-1.87c-0.45-0.34-1.01-0.51-1.66-0.51c-0.9,0-1.67,0.3-2.32,0.9c-0.65,0.6-0.97,1.6-0.97,3.01V141
	h-2.32v-8.87c0-0.92-0.11-1.6-0.33-2.02c-0.35-0.63-0.99-0.95-1.94-0.95c-0.86,0-1.65,0.33-2.35,1c-0.71,0.67-1.06,1.88-1.06,3.63
	V141h-2.29V127.4z M101.82,127.47h2.32V141h-2.32V127.47z M101.82,122.35h2.32v2.59h-2.32V122.35z M107.67,123.61h2.31v3.8h2.17
	v1.87h-2.17v8.87c0,0.47,0.16,0.79,0.48,0.95c0.18,0.09,0.47,0.14,0.89,0.14c0.11,0,0.23,0,0.36-0.01s0.28-0.01,0.44-0.03v1.8
	c-0.26,0.08-0.54,0.13-0.82,0.17s-0.59,0.05-0.92,0.05c-1.07,0-1.79-0.27-2.17-0.82s-0.57-1.25-0.57-2.13v-9h-1.84v-1.87h1.84
	V123.61z M38.18,153.35h8.39c1.66,0,3,0.47,4.01,1.4c1.02,0.94,1.52,2.25,1.52,3.94c0,1.46-0.45,2.72-1.36,3.8
	c-0.91,1.08-2.3,1.62-4.18,1.62H40.7V172h-2.53V153.35z M49.55,158.71c0-1.37-0.51-2.3-1.52-2.79c-0.56-0.26-1.32-0.39-2.3-0.39
	H40.7v6.46h5.03c1.13,0,2.05-0.24,2.76-0.72C49.2,160.78,49.55,159.93,49.55,158.71z M54.58,153.29h2.29v6.96
	c0.54-0.69,1.03-1.17,1.46-1.45c0.74-0.48,1.65-0.72,2.75-0.72c1.97,0,3.31,0.69,4.01,2.07c0.38,0.75,0.57,1.8,0.57,3.14V172h-2.35
	v-8.57c0-1-0.13-1.73-0.38-2.2c-0.41-0.74-1.19-1.12-2.34-1.12c-0.95,0-1.81,0.33-2.58,0.98c-0.77,0.65-1.16,1.88-1.16,3.69V172
	h-2.29V153.29z M74.05,170.53c1.51,0,2.55-0.57,3.12-1.72s0.84-2.42,0.84-3.83c0-1.27-0.2-2.3-0.61-3.1
	c-0.64-1.25-1.75-1.88-3.33-1.88c-1.4,0-2.41,0.53-3.05,1.6c-0.63,1.07-0.95,2.35-0.95,3.86c0,1.45,0.32,2.65,0.95,3.62
	C71.66,170.04,72.67,170.53,74.05,170.53z M74.14,158.01c1.75,0,3.23,0.58,4.44,1.75c1.21,1.17,1.82,2.89,1.82,5.15
	c0,2.19-0.53,4-1.6,5.43c-1.07,1.43-2.72,2.15-4.96,2.15c-1.87,0-3.36-0.63-4.46-1.9s-1.65-2.96-1.65-5.1c0-2.29,0.58-4.1,1.74-5.46
	C70.63,158.69,72.18,158.01,74.14,158.01z M88.39,158.1c0.96,0,1.9,0.23,2.81,0.68c0.91,0.45,1.6,1.04,2.07,1.76
	c0.46,0.69,0.76,1.49,0.91,2.4c0.14,0.63,0.2,1.62,0.2,3h-9.97c0.04,1.38,0.37,2.49,0.98,3.32c0.61,0.83,1.55,1.25,2.83,1.25
	c1.19,0,2.15-0.39,2.86-1.18c0.41-0.46,0.69-0.99,0.86-1.59h2.25c-0.06,0.5-0.26,1.06-0.59,1.67c-0.33,0.61-0.71,1.12-1.12,1.5
	c-0.69,0.68-1.55,1.13-2.58,1.37c-0.55,0.14-1.17,0.2-1.87,0.2c-1.69,0-3.13-0.62-4.3-1.85c-1.18-1.23-1.76-2.96-1.76-5.17
	c0-2.18,0.59-3.96,1.78-5.32C84.93,158.78,86.47,158.1,88.39,158.1z M92.03,164.12c-0.09-0.99-0.31-1.78-0.65-2.37
	c-0.63-1.1-1.67-1.65-3.14-1.65c-1.05,0-1.93,0.38-2.64,1.14c-0.71,0.76-1.09,1.72-1.13,2.89H92.03z M96.8,158.4h2.17v1.93
	c0.64-0.8,1.32-1.37,2.04-1.71s1.52-0.52,2.4-0.52c1.93,0,3.23,0.67,3.91,2.02c0.37,0.74,0.56,1.79,0.56,3.16V172h-2.32v-8.57
	c0-0.83-0.12-1.5-0.37-2.01c-0.41-0.85-1.14-1.27-2.21-1.27c-0.54,0-0.99,0.06-1.33,0.17c-0.63,0.19-1.18,0.56-1.65,1.12
	c-0.38,0.45-0.63,0.91-0.74,1.39s-0.17,1.16-0.17,2.05V172H96.8V158.4z M110.87,158.47h2.32V172h-2.32V158.47z M110.87,153.35h2.32
	v2.59h-2.32V153.35z M114.96,158.4h2.96l3.12,4.79l3.16-4.79l2.78,0.06l-4.58,6.56l4.79,6.97h-2.92l-3.38-5.1l-3.28,5.1h-2.89
	l4.79-6.97L114.96,158.4z M144.15,164.36l-2.83-8.24l-3.01,8.24H144.15z M140,153.35h2.86l6.77,18.65h-2.77l-1.89-5.59h-7.38
	l-2.02,5.59h-2.59L140,153.35z M150.15,169.91l11.44-14.33h-10.6v-2.22h13.85v2.17l-11.5,14.26h11.5V172h-14.69V169.91z"/>
</svg>
