<svg xmlns="http://www.w3.org/2000/svg" width="522" height="22" viewBox="0 0 522 22">
  <path fill="#A20000" fill-opacity=".87" fill-rule="evenodd" d="M31.8251953,76.2226562 L33.9833984,75.6894531 L33.9833984,60.6582031 L31.7490234,60.3662109 L31.7490234,58.2841797 L40.7246094,58.2841797 L40.7246094,60.3662109 L38.5283203,60.6455078 L38.5283203,66.8027344 L46.0820312,66.8027344 L46.0820312,60.6074219 L43.9365234,60.3662109 L43.9365234,58.2841797 L52.8359375,58.2841797 L52.8359375,60.3662109 L50.6142578,60.6328125 L50.6142578,75.7021484 L52.9628906,76.2480469 L52.9628906,78 L43.7587891,78 L43.7587891,76.2480469 L46.0820312,75.7148438 L46.0820312,69.2275391 L38.5283203,69.2275391 L38.5283203,75.6894531 L40.8642578,76.2226562 L40.8642578,78 L31.8251953,78 L31.8251953,76.2226562 Z M54.1730287,70.8779297 C54.1899559,69.5745378 54.4163534,68.4531297 54.8522279,67.5136719 C55.2881025,66.5742141 55.8636176,65.7998077 56.5787904,65.1904297 C57.2939633,64.5810516 58.1170345,64.1303726 59.0480287,63.8383789 C59.9790229,63.5463853 60.943857,63.3919272 61.94256,63.375 C63.0766802,63.3665364 64.0944109,63.5104152 64.9957826,63.8066406 C65.8971543,64.1028661 66.6630972,64.5493134 67.2936342,65.1459961 C67.9241712,65.7426788 68.4087041,66.4895788 68.7472475,67.3867188 C69.0857908,68.2838587 69.25506,69.3206321 69.25506,70.4970703 C69.25506,71.8343166 69.0434735,72.9916943 68.6202943,73.9692383 C68.1971151,74.9467822 67.6321794,75.7571582 66.9254701,76.4003906 C66.2187609,77.043623 65.4041531,77.5218083 64.4816225,77.8349609 C63.5590918,78.1481135 62.5942577,78.3046875 61.5870912,78.3046875 C60.2329178,78.3046875 59.0840035,78.110028 58.1403139,77.7207031 C57.1966242,77.3313783 56.4285655,76.8002963 55.8361146,76.1274414 C55.2436638,75.4545865 54.8141433,74.6653691 54.5475404,73.7597656 C54.2809375,72.8541621 54.1561015,71.8935598 54.1730287,70.8779297 Z M61.7267396,76.4511719 C62.3191905,76.4511719 62.79526,76.277671 63.1549623,75.9306641 C63.5146646,75.5836571 63.7918428,75.1350939 63.9865053,74.5849609 C64.1811677,74.034828 64.3123513,73.4191115 64.38006,72.737793 C64.4477686,72.0564745 64.4816225,71.3815138 64.4816225,70.7128906 C64.4816225,70.3151022 64.4689273,69.9025086 64.4435365,69.4750977 C64.4181458,69.0476867 64.3694809,68.6308614 64.2975404,68.2246094 C64.2256,67.8183573 64.1282702,67.43327 64.0055482,67.0693359 C63.8828263,66.7054018 63.7241365,66.3880222 63.529474,66.1171875 C63.3348116,65.8463528 63.0978348,65.6305347 62.8185365,65.4697266 C62.5392382,65.3089185 62.2091634,65.2285156 61.8283021,65.2285156 C61.4389773,65.2285156 61.0962073,65.3025709 60.7999818,65.4506836 C60.5037564,65.5987963 60.2477368,65.7998034 60.0319154,66.0537109 C59.816094,66.3076185 59.6383614,66.6038395 59.4987123,66.9423828 C59.3590632,67.2809262 59.2490382,67.6469707 59.1686342,68.0405273 C59.0882301,68.434084 59.0311018,68.8424458 58.9972475,69.265625 C58.9633931,69.6888042 58.9464662,70.1077453 58.9464662,70.5224609 C58.9464662,70.886395 58.9633931,71.2841775 58.9972475,71.7158203 C59.0311018,72.1474631 59.0861143,72.5833311 59.1622865,73.0234375 C59.2384588,73.4635439 59.344252,73.8888326 59.4796693,74.2993164 C59.6150867,74.7098002 59.7864717,75.0758447 59.9938295,75.3974609 C60.2011873,75.7190771 60.4466276,75.9750967 60.7301576,76.1655273 C61.0136877,76.355958 61.3458784,76.4511719 61.7267396,76.4511719 Z M71.0110965,76.2734375 L72.5853152,75.9560547 L72.5853152,67.6025391 L70.8587527,66.3837891 L70.8587527,64.7841797 L75.581409,63.3876953 L76.5208621,63.6289062 L76.5208621,65.5078125 C76.7832332,65.2285142 77.0900335,64.9640312 77.4412723,64.7143555 C77.792511,64.4646797 78.1691348,64.242514 78.5711551,64.0478516 C78.9731753,63.8531891 79.3942323,63.6944993 79.8343387,63.5717773 C80.274445,63.4490554 80.7145448,63.3750001 81.1546512,63.3496094 C81.6116847,63.3242186 82.0602479,63.3369138 82.5003543,63.3876953 C82.9404607,63.4384768 83.3488225,63.5400383 83.7254519,63.6923828 C84.1020814,63.8447273 84.4406197,64.0584296 84.7410769,64.3334961 C85.0415342,64.6085626 85.2848586,64.9534484 85.4710574,65.3681641 C85.7334285,65.1227201 86.0254178,64.8815116 86.347034,64.6445312 C86.6686502,64.4075509 87.0219995,64.1959645 87.4070926,64.0097656 C87.7921856,63.8235668 88.2132426,63.6733404 88.6702762,63.559082 C89.1273097,63.4448236 89.6266537,63.3876953 90.168323,63.3876953 C91.0062179,63.3876953 91.7256117,63.5231106 92.3265262,63.7939453 C92.9274406,64.06478 93.420437,64.4583308 93.8055301,64.9746094 C94.1906231,65.490888 94.474149,66.1235314 94.656116,66.8725586 C94.8380831,67.6215858 94.9290652,68.4785108 94.9290652,69.4433594 L94.9290652,75.9306641 L96.706409,76.2734375 L96.706409,78 L88.949573,78 L88.949573,76.2734375 L90.4349246,75.9179688 L90.4349246,70.0146484 C90.4349246,69.2021444 90.3862597,68.5504582 90.2889285,68.0595703 C90.1915973,67.5686824 90.0371392,67.1899427 89.8255496,66.9233398 C89.61396,66.6567369 89.3410135,66.4811202 89.0067019,66.3964844 C88.6723904,66.3118485 88.272492,66.2695312 87.8069949,66.2695312 C87.5107695,66.2695312 87.1933898,66.335123 86.8548465,66.4663086 C86.5163031,66.5974941 86.2200821,66.7477205 85.9661746,66.9169922 C86.0084925,67.1285818 86.0402305,67.3930648 86.0613894,67.7104492 C86.0825484,68.0278336 86.0931277,68.4785127 86.0931277,69.0625 L86.0931277,75.9306641 L87.8958621,76.2734375 L87.8958621,78 L79.7962527,78 L79.7962527,76.2734375 L81.5989871,75.9052734 L81.5989871,69.9257812 C81.5989871,69.1132772 81.5355112,68.4594751 81.4085574,67.9643555 C81.2816037,67.4692358 81.0975235,67.0904961 80.8563113,66.828125 C80.6150992,66.5657539 80.3146465,66.4028323 79.9549441,66.3393555 C79.5952418,66.2758786 79.1826483,66.2610675 78.7171512,66.2949219 C78.6155882,66.3033855 78.4844046,66.32666 78.3235965,66.3647461 C78.1627884,66.4028322 78.0019827,66.4514971 77.8411746,66.5107422 C77.6803665,66.5699873 77.5301401,66.6355791 77.390491,66.7075195 C77.2508419,66.77946 77.1471645,66.8535152 77.0794559,66.9296875 L77.0794559,75.9179688 L78.7425418,76.2734375 L78.7425418,78 L71.0110965,78 L71.0110965,76.2734375 Z M97.8276799,71.2587891 C97.8276799,70.1754503 98.0054125,69.1556037 98.360883,68.1992188 C98.7163535,67.2428338 99.2283927,66.4091832 99.8970158,65.6982422 C100.565639,64.9873011 101.382363,64.4244812 102.347211,64.0097656 C103.31206,63.59505 104.403846,63.3876953 105.622602,63.3876953 C106.646695,63.3876953 107.526895,63.5188789 108.263227,63.78125 C108.999559,64.0436211 109.604696,64.4096656 110.078656,64.8793945 C110.552617,65.3491234 110.908082,65.9098275 111.145063,66.5615234 C111.382043,67.2132194 111.513227,67.9241498 111.538617,68.6943359 C111.555545,69.2275417 111.542849,69.7014953 111.500531,70.1162109 C111.458214,70.5309266 111.411665,70.9160138 111.360883,71.2714844 L102.51225,71.2714844 C102.63074,72.7695387 103.017944,73.8994103 103.673871,74.6611328 C104.329799,75.4228554 105.284054,75.8037109 106.536664,75.8037109 C107.154506,75.8037109 107.81254,75.7381191 108.510785,75.6069336 C109.209031,75.475748 109.900919,75.257814 110.586469,74.953125 L111.25932,76.5400391 C110.937704,76.8108737 110.546269,77.0605457 110.085004,77.2890625 C109.623739,77.5175793 109.122279,77.7122388 108.58061,77.8730469 C108.03894,78.033855 107.465541,78.158691 106.860395,78.2475586 C106.255248,78.3364262 105.643764,78.3723959 105.025922,78.3554688 C103.874875,78.330078 102.852912,78.1565771 101.960004,77.8349609 C101.067096,77.5133447 100.313848,77.0499705 99.7002385,76.4448242 C99.0866286,75.839678 98.6211385,75.1033572 98.3037541,74.2358398 C97.9863697,73.3683225 97.8276799,72.3759821 97.8276799,71.2587891 Z M107.17143,69.2275391 C107.196821,68.9143865 107.222211,68.577964 107.247602,68.2182617 C107.272992,67.8585594 107.270877,67.5073259 107.241254,67.1645508 C107.211632,66.8217756 107.137576,66.5022801 107.019086,66.2060547 C106.900596,65.9098292 106.7144,65.6728525 106.460492,65.4951172 C106.308148,65.3850906 106.130415,65.3025719 105.927289,65.2475586 C105.724163,65.1925453 105.487186,65.1650391 105.216352,65.1650391 C104.725464,65.1650391 104.314986,65.2856433 103.984906,65.5268555 C103.654827,65.7680676 103.386112,66.0812155 103.178754,66.4663086 C102.971396,66.8514017 102.819054,67.2851538 102.721723,67.7675781 C102.624392,68.2500024 102.5588,68.7366512 102.524945,69.2275391 L107.17143,69.2275391 Z M113.205787,70.8779297 C113.222714,69.5745378 113.449111,68.4531297 113.884986,67.5136719 C114.32086,66.5742141 114.896376,65.7998077 115.611548,65.1904297 C116.326721,64.5810516 117.149792,64.1303726 118.080787,63.8383789 C119.011781,63.5463853 119.976615,63.3919272 120.975318,63.375 C122.109438,63.3665364 123.127169,63.5104152 124.028541,63.8066406 C124.929912,64.1028661 125.695855,64.5493134 126.326392,65.1459961 C126.956929,65.7426788 127.441462,66.4895788 127.780005,67.3867188 C128.118549,68.2838587 128.287818,69.3206321 128.287818,70.4970703 C128.287818,71.8343166 128.076232,72.9916943 127.653052,73.9692383 C127.229873,74.9467822 126.664937,75.7571582 125.958228,76.4003906 C125.251519,77.043623 124.436911,77.5218083 123.51438,77.8349609 C122.59185,78.1481135 121.627016,78.3046875 120.619849,78.3046875 C119.265676,78.3046875 118.116761,78.110028 117.173072,77.7207031 C116.229382,77.3313783 115.461324,76.8002963 114.868873,76.1274414 C114.276422,75.4545865 113.846901,74.6653691 113.580298,73.7597656 C113.313696,72.8541621 113.18886,71.8935598 113.205787,70.8779297 Z M120.759498,76.4511719 C121.351949,76.4511719 121.828018,76.277671 122.18772,75.9306641 C122.547423,75.5836571 122.824601,75.1350939 123.019263,74.5849609 C123.213926,74.034828 123.345109,73.4191115 123.412818,72.737793 C123.480527,72.0564745 123.51438,71.3815138 123.51438,70.7128906 C123.51438,70.3151022 123.501685,69.9025086 123.476295,69.4750977 C123.450904,69.0476867 123.402239,68.6308614 123.330298,68.2246094 C123.258358,67.8183573 123.161028,67.43327 123.038306,67.0693359 C122.915584,66.7054018 122.756894,66.3880222 122.562232,66.1171875 C122.36757,65.8463528 122.130593,65.6305347 121.851295,65.4697266 C121.571996,65.3089185 121.241921,65.2285156 120.86106,65.2285156 C120.471735,65.2285156 120.128965,65.3025709 119.83274,65.4506836 C119.536514,65.5987963 119.280495,65.7998034 119.064673,66.0537109 C118.848852,66.3076185 118.671119,66.6038395 118.53147,66.9423828 C118.391821,67.2809262 118.281796,67.6469707 118.201392,68.0405273 C118.120988,68.434084 118.06386,68.8424458 118.030005,69.265625 C117.996151,69.6888042 117.979224,70.1077453 117.979224,70.5224609 C117.979224,70.886395 117.996151,71.2841775 118.030005,71.7158203 C118.06386,72.1474631 118.118872,72.5833311 118.195045,73.0234375 C118.271217,73.4635439 118.37701,73.8888326 118.512427,74.2993164 C118.647845,74.7098002 118.81923,75.0758447 119.026587,75.3974609 C119.233945,75.7190771 119.479386,75.9750967 119.762916,76.1655273 C120.046446,76.355958 120.378636,76.4511719 120.759498,76.4511719 Z M130.310456,66.4091797 L128.8378,66.0664062 L128.8378,63.7939453 L136.048737,63.7939453 L136.048737,66.0664062 L134.804597,66.4091797 L136.251862,72.2998047 L136.683503,74.3056641 L136.975495,72.6806641 L139.387604,63.7939453 L143.08194,63.7939453 L145.354401,72.6806641 L145.747956,74.4707031 L146.11612,72.6806641 L147.499909,66.4472656 L145.811433,66.0664062 L145.811433,63.7939453 L152.146394,63.7939453 L152.146394,66.0537109 L150.36905,66.4853516 L147.106354,78.0634766 L142.86612,78.0634766 L140.911042,71.5634766 L140.225495,68.8339844 L139.743073,71.5634766 L137.99112,78.0634766 L133.915925,78.0634766 L130.310456,66.4091797 Z M153.026453,76.2734375 L154.613368,75.9560547 L154.613368,67.6025391 L152.886805,66.3837891 L152.886805,64.7841797 L157.596766,63.3876953 L158.548914,63.6289062 L158.548914,65.5078125 C158.878994,65.1861963 159.251386,64.894207 159.666102,64.6318359 C160.080818,64.3694648 160.518801,64.1472991 160.980067,63.965332 C161.441332,63.783365 161.917402,63.6416021 162.408289,63.5400391 C162.899177,63.4384761 163.385826,63.3876953 163.86825,63.3876953 C164.680754,63.3876953 165.353599,63.516763 165.886805,63.7749023 C166.420011,64.0330417 166.8453,64.4075496 167.162684,64.8984375 C167.480068,65.3893254 167.70435,65.988115 167.835536,66.6948242 C167.966721,67.4015335 168.032313,68.2076778 168.032313,69.1132812 L168.032313,75.9433594 L169.822352,76.2734375 L169.822352,78 L161.722743,78 L161.722743,76.2734375 L163.538172,75.9179688 L163.538172,69.6845703 C163.538172,69.0074836 163.506434,68.4510113 163.442957,68.0151367 C163.379481,67.5792621 163.258876,67.2364921 163.081141,66.9868164 C162.903406,66.7371407 162.651618,66.5636398 162.32577,66.4663086 C161.999922,66.3689774 161.570401,66.3203125 161.037196,66.3203125 C160.961023,66.3203125 160.836187,66.3351235 160.662684,66.3647461 C160.48918,66.3943686 160.3051,66.4345701 160.110438,66.4853516 C159.915775,66.5361331 159.725348,66.5974931 159.539149,66.6694336 C159.35295,66.7413741 159.209071,66.819661 159.107508,66.9042969 L159.107508,75.9306641 L160.669032,76.2734375 L160.669032,78 L153.026453,78 L153.026453,76.2734375 Z M170.943623,71.2587891 C170.943623,70.1754503 171.121355,69.1556037 171.476826,68.1992188 C171.832296,67.2428338 172.344336,66.4091832 173.012959,65.6982422 C173.681582,64.9873011 174.498306,64.4244812 175.463154,64.0097656 C176.428003,63.59505 177.519789,63.3876953 178.738545,63.3876953 C179.762638,63.3876953 180.642838,63.5188789 181.37917,63.78125 C182.115502,64.0436211 182.720639,64.4096656 183.194599,64.8793945 C183.66856,65.3491234 184.024025,65.9098275 184.261006,66.5615234 C184.497986,67.2132194 184.62917,67.9241498 184.65456,68.6943359 C184.671487,69.2275417 184.658792,69.7014953 184.616474,70.1162109 C184.574156,70.5309266 184.527607,70.9160138 184.476826,71.2714844 L175.628193,71.2714844 C175.746683,72.7695387 176.133886,73.8994103 176.789814,74.6611328 C177.445742,75.4228554 178.399997,75.8037109 179.652607,75.8037109 C180.270449,75.8037109 180.928483,75.7381191 181.626728,75.6069336 C182.324974,75.475748 183.016862,75.257814 183.702412,74.953125 L184.375263,76.5400391 C184.053647,76.8108737 183.662212,77.0605457 183.200947,77.2890625 C182.739682,77.5175793 182.238222,77.7122388 181.696553,77.8730469 C181.154883,78.033855 180.581484,78.158691 179.976338,78.2475586 C179.371191,78.3364262 178.759707,78.3723959 178.141865,78.3554688 C176.990818,78.330078 175.968855,78.1565771 175.075947,77.8349609 C174.183039,77.5133447 173.429791,77.0499705 172.816181,76.4448242 C172.202572,75.839678 171.737081,75.1033572 171.419697,74.2358398 C171.102313,73.3683225 170.943623,72.3759821 170.943623,71.2587891 Z M180.287373,69.2275391 C180.312764,68.9143865 180.338154,68.577964 180.363545,68.2182617 C180.388935,67.8585594 180.38682,67.5073259 180.357197,67.1645508 C180.327575,66.8217756 180.253519,66.5022801 180.135029,66.2060547 C180.016539,65.9098292 179.830343,65.6728525 179.576435,65.4951172 C179.424091,65.3850906 179.246358,65.3025719 179.043232,65.2475586 C178.840106,65.1925453 178.603129,65.1650391 178.332295,65.1650391 C177.841407,65.1650391 177.430929,65.2856433 177.100849,65.5268555 C176.77077,65.7680676 176.502055,66.0812155 176.294697,66.4663086 C176.087339,66.8514017 175.934997,67.2851538 175.837666,67.7675781 C175.740335,68.2500024 175.674743,68.7366512 175.640888,69.2275391 L180.287373,69.2275391 Z M186.601027,76.2734375 L188.16255,75.9560547 L188.16255,67.6025391 L186.435987,66.3837891 L186.435987,64.7841797 L191.145948,63.3876953 L192.060011,63.6162109 L192.060011,66.1044922 C192.170038,65.681313 192.37316,65.3004574 192.669386,64.9619141 C192.965611,64.6233707 193.295686,64.337729 193.65962,64.1049805 C194.023554,63.8722319 194.391715,63.6944993 194.764112,63.5717773 C195.13651,63.4490554 195.45389,63.3876953 195.716261,63.3876953 C196.012486,63.3876953 196.287549,63.4003905 196.541456,63.4257812 C196.795364,63.451172 196.977328,63.4892576 197.087355,63.5400391 L197.087355,67.5517578 C196.985792,67.4501948 196.841913,67.3613285 196.655714,67.2851562 C196.469515,67.208984 196.27274,67.1455081 196.065382,67.0947266 C195.858024,67.0439451 195.650669,67.0058595 195.443312,66.9804688 C195.235954,66.955078 195.060337,66.9423828 194.916456,66.9423828 C194.560986,66.9423828 194.247838,66.9635415 193.977003,67.0058594 C193.706168,67.0481773 193.479771,67.0968422 193.297804,67.1518555 C193.115837,67.2068688 192.971958,67.2597654 192.866163,67.3105469 C192.760368,67.3613284 192.690545,67.3994139 192.656691,67.4248047 L192.656691,75.8417969 L195.614698,76.2734375 L195.614698,78 L186.601027,78 L186.601027,76.2734375 Z M198.500618,73.8232422 L200.595344,73.8232422 L201.395149,75.2070312 C201.496712,75.3170578 201.619432,75.4482414 201.763313,75.6005859 C201.907194,75.7529304 202.076463,75.8989251 202.271126,76.0385742 C202.465788,76.1782234 202.687954,76.3009435 202.937629,76.4067383 C203.187305,76.5125331 203.468715,76.5738931 203.781868,76.5908203 C204.54359,76.6331382 205.121221,76.5061864 205.514778,76.2099609 C205.908335,75.9137355 206.100878,75.5117213 206.092415,75.0039062 C206.083951,74.7753895 205.988737,74.5574555 205.80677,74.3500977 C205.624803,74.1427398 205.381479,73.9396169 205.07679,73.7407227 C204.772101,73.5418284 204.422983,73.3471689 204.029426,73.1567383 C203.63587,72.9663076 203.223276,72.773764 202.791633,72.5791016 C202.190719,72.2998033 201.615204,72.0014664 201.065071,71.684082 C200.514938,71.3666976 200.032521,71.0048848 199.617805,70.5986328 C199.20309,70.1923808 198.873015,69.7332382 198.627571,69.2211914 C198.382127,68.7091446 198.263639,68.1230502 198.272102,67.4628906 C198.280566,66.9550756 198.380011,66.5043965 198.570442,66.1108398 C198.760873,65.7172832 199.014776,65.3723973 199.332161,65.0761719 C199.649545,64.7799464 200.013474,64.5260427 200.423958,64.3144531 C200.834441,64.1028635 201.263962,63.9314785 201.712532,63.800293 C202.161102,63.6691074 202.611781,63.5696618 203.064583,63.5019531 C203.517384,63.4342445 203.946905,63.3961589 204.353157,63.3876953 C204.835581,63.3792317 205.32223,63.3940428 205.813118,63.4321289 C206.304006,63.470215 206.771612,63.5252275 207.21595,63.597168 C207.660288,63.6691084 208.070766,63.7495113 208.447395,63.8383789 C208.824025,63.9272465 209.14352,64.0224604 209.405891,64.1240234 L209.405891,67.5898438 L207.171516,67.5898438 L206.460579,66.015625 C206.240525,65.7532539 205.967579,65.5205088 205.641731,65.3173828 C205.315883,65.1142568 204.962534,65.0126953 204.581672,65.0126953 C204.344692,65.0126953 204.114063,65.033854 203.889778,65.0761719 C203.665493,65.1184898 203.466602,65.1883133 203.293098,65.2856445 C203.119595,65.3829757 202.979948,65.5056959 202.874153,65.6538086 C202.768358,65.8019213 202.715461,65.977538 202.715461,66.1806641 C202.715461,66.4599623 202.77259,66.7180978 202.886848,66.9550781 C203.001107,67.1920585 203.159796,67.4142242 203.362922,67.621582 C203.566048,67.8289398 203.809373,68.0214835 204.092903,68.1992188 C204.376433,68.376954 204.687465,68.5419914 205.026008,68.6943359 C205.43226,68.8805348 205.844854,69.0667308 206.263801,69.2529297 C206.682749,69.4391285 207.091111,69.6380198 207.488899,69.8496094 C207.886687,70.061199 208.261195,70.2897123 208.612434,70.5351562 C208.963673,70.7806002 209.270473,71.0598943 209.532844,71.3730469 C209.795215,71.6861995 210.00257,72.0353171 210.154915,72.4204102 C210.307259,72.8055032 210.38343,73.2434871 210.38343,73.734375 C210.38343,74.5722698 210.201466,75.2810843 209.837532,75.8608398 C209.473598,76.4405953 208.982717,76.9124331 208.364876,77.2763672 C207.747034,77.6403013 207.02764,77.9026685 206.206672,78.0634766 C205.385705,78.2242847 204.5182,78.3046875 203.604133,78.3046875 C203.197881,78.3046875 202.768361,78.2835289 202.315559,78.2412109 C201.862757,78.198893 201.409962,78.1311854 200.957161,78.0380859 C200.504359,77.9449865 200.066375,77.8264981 199.643196,77.6826172 C199.220017,77.5387363 198.839161,77.3652354 198.500618,77.1621094 L198.500618,73.8232422 Z M218.161128,76.2226562 L220.547847,75.7021484 L220.547847,60.6708984 L218.161128,60.3662109 L218.161128,58.2841797 L227.39062,58.2841797 L227.39062,60.3662109 L225.130855,60.6835938 L225.130855,75.6767578 L227.530269,76.2226562 L227.530269,78 L218.161128,78 L218.161128,76.2226562 Z M229.070485,76.2734375 L230.657399,75.9560547 L230.657399,67.6025391 L228.930837,66.3837891 L228.930837,64.7841797 L233.640798,63.3876953 L234.592946,63.6289062 L234.592946,65.5078125 C234.923026,65.1861963 235.295418,64.894207 235.710134,64.6318359 C236.124849,64.3694648 236.562833,64.1472991 237.024098,63.965332 C237.485364,63.783365 237.961433,63.6416021 238.452321,63.5400391 C238.943209,63.4384761 239.429858,63.3876953 239.912282,63.3876953 C240.724786,63.3876953 241.397631,63.516763 241.930837,63.7749023 C242.464042,64.0330417 242.889331,64.4075496 243.206716,64.8984375 C243.5241,65.3893254 243.748382,65.988115 243.879567,66.6948242 C244.010753,67.4015335 244.076344,68.2076778 244.076344,69.1132812 L244.076344,75.9433594 L245.866384,76.2734375 L245.866384,78 L237.766774,78 L237.766774,76.2734375 L239.582204,75.9179688 L239.582204,69.6845703 C239.582204,69.0074836 239.550466,68.4510113 239.486989,68.0151367 C239.423512,67.5792621 239.302908,67.2364921 239.125173,66.9868164 C238.947437,66.7371407 238.69565,66.5636398 238.369802,66.4663086 C238.043954,66.3689774 237.614433,66.3203125 237.081227,66.3203125 C237.005055,66.3203125 236.880219,66.3351235 236.706716,66.3647461 C236.533212,66.3943686 236.349132,66.4345701 236.154469,66.4853516 C235.959807,66.5361331 235.769379,66.5974931 235.58318,66.6694336 C235.396982,66.7413741 235.253103,66.819661 235.15154,66.9042969 L235.15154,75.9306641 L236.713063,76.2734375 L236.713063,78 L229.070485,78 L229.070485,76.2734375 Z M247.330428,73.8232422 L249.425154,73.8232422 L250.224959,75.2070312 C250.326522,75.3170578 250.449242,75.4482414 250.593123,75.6005859 C250.737004,75.7529304 250.906273,75.8989251 251.100936,76.0385742 C251.295598,76.1782234 251.517764,76.3009435 251.76744,76.4067383 C252.017115,76.5125331 252.298525,76.5738931 252.611678,76.5908203 C253.3734,76.6331382 253.951031,76.5061864 254.344588,76.2099609 C254.738145,75.9137355 254.930688,75.5117213 254.922225,75.0039062 C254.913761,74.7753895 254.818547,74.5574555 254.63658,74.3500977 C254.454613,74.1427398 254.211289,73.9396169 253.9066,73.7407227 C253.601911,73.5418284 253.252793,73.3471689 252.859236,73.1567383 C252.46568,72.9663076 252.053086,72.773764 251.621444,72.5791016 C251.020529,72.2998033 250.445014,72.0014664 249.894881,71.684082 C249.344748,71.3666976 248.862331,71.0048848 248.447615,70.5986328 C248.0329,70.1923808 247.702825,69.7332382 247.457381,69.2211914 C247.211937,68.7091446 247.093449,68.1230502 247.101912,67.4628906 C247.110376,66.9550756 247.209821,66.5043965 247.400252,66.1108398 C247.590683,65.7172832 247.844586,65.3723973 248.161971,65.0761719 C248.479355,64.7799464 248.843284,64.5260427 249.253768,64.3144531 C249.664252,64.1028635 250.093772,63.9314785 250.542342,63.800293 C250.990912,63.6691074 251.441591,63.5696618 251.894393,63.5019531 C252.347194,63.4342445 252.776715,63.3961589 253.182967,63.3876953 C253.665391,63.3792317 254.15204,63.3940428 254.642928,63.4321289 C255.133816,63.470215 255.601422,63.5252275 256.04576,63.597168 C256.490098,63.6691084 256.900576,63.7495113 257.277205,63.8383789 C257.653835,63.9272465 257.97333,64.0224604 258.235701,64.1240234 L258.235701,67.5898438 L256.001326,67.5898438 L255.290389,66.015625 C255.070336,65.7532539 254.797389,65.5205088 254.471541,65.3173828 C254.145693,65.1142568 253.792344,65.0126953 253.411483,65.0126953 C253.174502,65.0126953 252.943873,65.033854 252.719588,65.0761719 C252.495303,65.1184898 252.296412,65.1883133 252.122908,65.2856445 C251.949405,65.3829757 251.809758,65.5056959 251.703963,65.6538086 C251.598168,65.8019213 251.545272,65.977538 251.545272,66.1806641 C251.545272,66.4599623 251.6024,66.7180978 251.716658,66.9550781 C251.830917,67.1920585 251.989607,67.4142242 252.192733,67.621582 C252.395859,67.8289398 252.639183,68.0214835 252.922713,68.1992188 C253.206243,68.376954 253.517275,68.5419914 253.855819,68.6943359 C254.262071,68.8805348 254.674664,69.0667308 255.093611,69.2529297 C255.512559,69.4391285 255.920921,69.6380198 256.318709,69.8496094 C256.716498,70.061199 257.091006,70.2897123 257.442244,70.5351562 C257.793483,70.7806002 258.100283,71.0598943 258.362654,71.3730469 C258.625026,71.6861995 258.83238,72.0353171 258.984725,72.4204102 C259.137069,72.8055032 259.21324,73.2434871 259.21324,73.734375 C259.21324,74.5722698 259.031276,75.2810843 258.667342,75.8608398 C258.303408,76.4405953 257.812527,76.9124331 257.194686,77.2763672 C256.576844,77.6403013 255.85745,77.9026685 255.036483,78.0634766 C254.215515,78.2242847 253.348011,78.3046875 252.433944,78.3046875 C252.027691,78.3046875 251.598171,78.2835289 251.145369,78.2412109 C250.692568,78.198893 250.239773,78.1311854 249.786971,78.0380859 C249.334169,77.9449865 248.896185,77.8264981 248.473006,77.6826172 C248.049827,77.5387363 247.668971,77.3652354 247.330428,77.1621094 L247.330428,73.8232422 Z M261.439003,66.9804688 L260.245644,66.0917969 L260.245644,64.5429688 L265.095253,63.3876953 L265.768105,63.6035156 L265.768105,72.4394531 C265.768105,73.0149768 265.795611,73.5164367 265.850625,73.9438477 C265.905638,74.3712586 266.005083,74.7288397 266.148964,75.0166016 C266.292845,75.3043634 266.489621,75.5201816 266.739296,75.6640625 C266.988972,75.8079434 267.312699,75.8798828 267.710488,75.8798828 C267.922077,75.8798828 268.140011,75.8629559 268.364296,75.8291016 C268.588581,75.7952472 268.802284,75.7508141 269.00541,75.6958008 C269.208536,75.6407875 269.394732,75.570964 269.564003,75.4863281 C269.733275,75.4016923 269.86869,75.3085943 269.970253,75.2070312 L269.970253,67.1962891 L268.357949,66.2949219 L268.357949,64.5429688 L273.664589,63.3876953 L274.375527,63.6035156 L274.375527,76.2734375 L275.822793,76.2734375 L275.822793,77.6318359 C275.678912,77.7333989 275.477904,77.8286128 275.219765,77.9174805 C274.961626,78.0063481 274.667521,78.0825192 274.337441,78.1459961 C274.007361,78.209473 273.660359,78.2602537 273.296425,78.2983398 C272.932491,78.336426 272.577026,78.3554688 272.230019,78.3554688 C271.976112,78.3554688 271.739135,78.3300784 271.519082,78.2792969 C271.299028,78.2285154 271.106485,78.1481125 270.941445,78.0380859 C270.776405,77.9280593 270.647337,77.7841806 270.554238,77.6064453 C270.461138,77.42871 270.414589,77.2128919 270.414589,76.9589844 L270.414589,76.4765625 C270.169145,76.7727879 269.870809,77.0351551 269.51957,77.2636719 C269.168331,77.4921886 268.798055,77.688964 268.40873,77.8540039 C268.019405,78.0190438 267.634318,78.1438798 267.253457,78.2285156 C266.872595,78.3131515 266.529825,78.3554688 266.225136,78.3554688 C265.33646,78.3554688 264.587444,78.2517914 263.978066,78.0444336 C263.368688,77.8370758 262.875692,77.5175803 262.499062,77.0859375 C262.122433,76.6542947 261.851602,76.10417 261.686562,75.4355469 C261.521522,74.7669237 261.439003,73.9671271 261.439003,73.0361328 L261.439003,66.9804688 Z M277.172579,76.2734375 L278.734102,75.9560547 L278.734102,67.6025391 L277.00754,66.3837891 L277.00754,64.7841797 L281.717501,63.3876953 L282.631563,63.6162109 L282.631563,66.1044922 C282.74159,65.681313 282.944713,65.3004574 283.240938,64.9619141 C283.537164,64.6233707 283.867239,64.337729 284.231173,64.1049805 C284.595107,63.8722319 284.963267,63.6944993 285.335665,63.5717773 C285.708063,63.4490554 286.025442,63.3876953 286.287813,63.3876953 C286.584039,63.3876953 286.859101,63.4003905 287.113009,63.4257812 C287.366916,63.451172 287.548881,63.4892576 287.658907,63.5400391 L287.658907,67.5517578 C287.557344,67.4501948 287.413465,67.3613285 287.227267,67.2851562 C287.041068,67.208984 286.844292,67.1455081 286.636935,67.0947266 C286.429577,67.0439451 286.222222,67.0058595 286.014864,66.9804688 C285.807506,66.955078 285.63189,66.9423828 285.488009,66.9423828 C285.132538,66.9423828 284.81939,66.9635415 284.548556,67.0058594 C284.277721,67.0481773 284.051323,67.0968422 283.869356,67.1518555 C283.687389,67.2068688 283.543511,67.2597654 283.437716,67.3105469 C283.331921,67.3613284 283.262097,67.3994139 283.228243,67.4248047 L283.228243,75.8417969 L286.186251,76.2734375 L286.186251,78 L277.172579,78 L277.172579,76.2734375 Z M288.85635,72.9980469 C288.97484,72.507159 289.203353,72.0670592 289.541897,71.6777344 C289.88044,71.2884095 290.286686,70.9498712 290.760647,70.6621094 C291.234608,70.3743475 291.75511,70.1310231 292.32217,69.9321289 C292.88923,69.7332347 293.460514,69.5703131 294.036037,69.4433594 C294.611561,69.3164056 295.168033,69.2254235 295.705471,69.1704102 C296.242909,69.1153969 296.72321,69.0878906 297.146389,69.0878906 C297.146389,68.4108039 297.087145,67.8606792 296.968655,67.4375 C296.850164,67.0143208 296.674548,66.6821301 296.441799,66.440918 C296.209051,66.1997058 295.925525,66.0346684 295.591213,65.9458008 C295.256902,65.8569331 294.87393,65.8125 294.442287,65.8125 C293.892154,65.8125 293.382231,65.8569331 292.912502,65.9458008 C292.442773,66.0346684 292.023832,66.1383458 291.655666,66.2568359 C291.2875,66.3753261 290.982816,66.4959304 290.741604,66.6186523 C290.500392,66.7413743 290.333238,66.8365882 290.240139,66.9042969 L289.376858,64.9492188 C289.512275,64.8391922 289.753484,64.6953134 290.100491,64.5175781 C290.447498,64.3398429 290.893945,64.166342 291.439846,63.9970703 C291.985747,63.8277986 292.624738,63.6839199 293.356838,63.5654297 C294.088938,63.4469395 294.903546,63.3876953 295.800686,63.3876953 C296.655508,63.3876953 297.440494,63.4659823 298.155666,63.6225586 C298.870839,63.7791349 299.486556,64.0541973 300.002834,64.4477539 C300.519113,64.8413106 300.921127,65.3745084 301.208889,66.0473633 C301.496651,66.7202182 301.64053,67.5729115 301.64053,68.6054688 L301.64053,76.2734375 L303.303616,76.2734375 L303.303616,77.6318359 C303.083562,77.7841804 302.836006,77.9069006 302.56094,78 C302.285873,78.0930994 302.000232,78.1650388 301.704006,78.2158203 C301.407781,78.2666018 301.113676,78.3025715 300.821682,78.3237305 C300.529688,78.3448894 300.260974,78.3554688 300.01553,78.3554688 C299.854722,78.3554688 299.647367,78.3385418 299.393459,78.3046875 C299.139552,78.2708332 298.891996,78.2010096 298.650784,78.0952148 C298.409571,77.98942 298.200101,77.8413095 298.022366,77.6508789 C297.84463,77.4604483 297.747301,77.2128921 297.730373,76.9082031 C297.290267,77.3229187 296.769764,77.6678046 296.16885,77.9428711 C295.567935,78.2179376 294.861237,78.3554688 294.048733,78.3554688 C292.940003,78.3554688 292.015371,78.2052424 291.274807,77.9047852 C290.534243,77.6043279 289.956612,77.2065454 289.541897,76.7114258 C289.127181,76.2163061 288.86693,75.6450228 288.761135,74.9975586 C288.65534,74.3500944 288.687078,73.6835972 288.85635,72.9980469 Z M293.248928,73.7470703 C293.248928,74.568038 293.481673,75.16048 293.94717,75.5244141 C294.412667,75.8883482 295.093976,76.0068366 295.991116,75.8798828 C296.219632,75.8460285 296.426987,75.7846684 296.613186,75.6958008 C296.799385,75.6069331 296.972886,75.5032558 297.133694,75.3847656 C297.133694,74.6568974 297.13581,73.931156 297.140041,73.2075195 C297.144273,72.4838831 297.146389,71.7581417 297.146389,71.0302734 C296.884018,71.0302734 296.604724,71.0450845 296.308498,71.074707 C296.012273,71.1043296 295.720284,71.1572262 295.432522,71.2333984 C295.14476,71.3095707 294.869698,71.4153639 294.607327,71.5507812 C294.344955,71.6861986 294.11221,71.8533519 293.909084,72.0522461 C293.705958,72.2511403 293.545153,72.490233 293.426662,72.7695312 C293.308172,73.0488295 293.248928,73.3746726 293.248928,73.7470703 Z M304.209066,76.2734375 L305.79598,75.9560547 L305.79598,67.6025391 L304.069418,66.3837891 L304.069418,64.7841797 L308.779379,63.3876953 L309.731527,63.6289062 L309.731527,65.5078125 C310.061607,65.1861963 310.433999,64.894207 310.848715,64.6318359 C311.26343,64.3694648 311.701414,64.1472991 312.162679,63.965332 C312.623945,63.783365 313.100014,63.6416021 313.590902,63.5400391 C314.08179,63.4384761 314.568439,63.3876953 315.050863,63.3876953 C315.863367,63.3876953 316.536212,63.516763 317.069418,63.7749023 C317.602624,64.0330417 318.027912,64.4075496 318.345297,64.8984375 C318.662681,65.3893254 318.886963,65.988115 319.018148,66.6948242 C319.149334,67.4015335 319.214926,68.2076778 319.214926,69.1132812 L319.214926,75.9433594 L321.004965,76.2734375 L321.004965,78 L312.905355,78 L312.905355,76.2734375 L314.720785,75.9179688 L314.720785,69.6845703 C314.720785,69.0074836 314.689047,68.4510113 314.62557,68.0151367 C314.562093,67.5792621 314.441489,67.2364921 314.263754,66.9868164 C314.086018,66.7371407 313.834231,66.5636398 313.508383,66.4663086 C313.182535,66.3689774 312.753014,66.3203125 312.219808,66.3203125 C312.143636,66.3203125 312.0188,66.3351235 311.845297,66.3647461 C311.671793,66.3943686 311.487713,66.4345701 311.293051,66.4853516 C311.098388,66.5361331 310.90796,66.5974931 310.721761,66.6694336 C310.535563,66.7413741 310.391684,66.819661 310.290121,66.9042969 L310.290121,75.9306641 L311.851644,76.2734375 L311.851644,78 L304.209066,78 L304.209066,76.2734375 Z M322.151626,71.3349609 C322.143163,70.1077413 322.34417,69.0096077 322.754653,68.0405273 C323.165137,67.071447 323.725841,66.2483758 324.436782,65.5712891 C325.147723,64.8942023 325.98349,64.3715839 326.944107,64.003418 C327.904723,63.6352521 328.935149,63.4300132 330.035415,63.3876953 C330.467058,63.3792317 330.919853,63.3876952 331.393814,63.4130859 C331.867774,63.4384767 332.318453,63.480794 332.745864,63.5400391 C333.173275,63.5992842 333.560479,63.6712235 333.907485,63.7558594 C334.254492,63.8404952 334.525323,63.937825 334.719985,64.0478516 L334.719985,68.0722656 L332.396743,68.0722656 L331.393814,65.6855469 C331.156833,65.5416659 330.886003,65.4527996 330.581314,65.4189453 C330.276625,65.385091 329.988867,65.3681641 329.718032,65.3681641 C329.28639,65.3681641 328.897071,65.4739573 328.550064,65.6855469 C328.203057,65.8971365 327.90472,66.2039368 327.655044,66.605957 C327.405368,67.0079773 327.208593,67.5009736 327.064712,68.0849609 C326.920831,68.6689482 326.836197,69.3333296 326.810806,70.078125 C326.776951,71.1022187 326.867934,71.9803023 327.083755,72.7124023 C327.299576,73.4445024 327.600029,74.0432919 327.985122,74.5087891 C328.370215,74.9742862 328.818778,75.3149403 329.330825,75.5307617 C329.842872,75.7465831 330.382418,75.8544922 330.949478,75.8544922 C331.330339,75.8544922 331.702731,75.8291018 332.066665,75.7783203 C332.430599,75.7275388 332.767022,75.661947 333.075943,75.581543 C333.384863,75.5011389 333.664157,75.405925 333.913833,75.2958984 C334.163509,75.1858718 334.364516,75.0716152 334.51686,74.953125 L335.189712,76.5400391 C334.512625,77.1240264 333.66628,77.5725896 332.65065,77.8857422 C331.635019,78.1988948 330.483989,78.3554688 329.197525,78.3554688 C328.054941,78.3554688 327.047789,78.179852 326.17604,77.8286133 C325.304291,77.4773745 324.570086,76.9886099 323.973403,76.3623047 C323.376721,75.7359995 322.926042,74.995447 322.621353,74.140625 C322.316664,73.285803 322.16009,72.350591 322.151626,71.3349609 Z M336.133249,71.2587891 C336.133249,70.1754503 336.310981,69.1556037 336.666452,68.1992188 C337.021922,67.2428338 337.533961,66.4091832 338.202585,65.6982422 C338.871208,64.9873011 339.687931,64.4244812 340.65278,64.0097656 C341.617628,63.59505 342.709414,63.3876953 343.92817,63.3876953 C344.952264,63.3876953 345.832464,63.5188789 346.568795,63.78125 C347.305127,64.0436211 347.910264,64.4096656 348.384225,64.8793945 C348.858186,65.3491234 349.213651,65.9098275 349.450631,66.5615234 C349.687612,67.2132194 349.818795,67.9241498 349.844186,68.6943359 C349.861113,69.2275417 349.848418,69.7014953 349.8061,70.1162109 C349.763782,70.5309266 349.717233,70.9160138 349.666452,71.2714844 L340.817819,71.2714844 C340.936309,72.7695387 341.323512,73.8994103 341.97944,74.6611328 C342.635368,75.4228554 343.589623,75.8037109 344.842233,75.8037109 C345.460075,75.8037109 346.118108,75.7381191 346.816354,75.6069336 C347.5146,75.475748 348.206487,75.257814 348.892038,74.953125 L349.564889,76.5400391 C349.243273,76.8108737 348.851838,77.0605457 348.390573,77.2890625 C347.929307,77.5175793 347.427848,77.7122388 346.886178,77.8730469 C346.344509,78.033855 345.77111,78.158691 345.165963,78.2475586 C344.560817,78.3364262 343.949332,78.3723959 343.331491,78.3554688 C342.180443,78.330078 341.158481,78.1565771 340.265573,77.8349609 C339.372665,77.5133447 338.619417,77.0499705 338.005807,76.4448242 C337.392197,75.839678 336.926707,75.1033572 336.609323,74.2358398 C336.291938,73.3683225 336.133249,72.3759821 336.133249,71.2587891 Z M345.476999,69.2275391 C345.502389,68.9143865 345.52778,68.577964 345.55317,68.2182617 C345.578561,67.8585594 345.576445,67.5073259 345.546823,67.1645508 C345.5172,66.8217756 345.443145,66.5022801 345.324655,66.2060547 C345.206165,65.9098292 345.019969,65.6728525 344.766061,65.4951172 C344.613717,65.3850906 344.435984,65.3025719 344.232858,65.2475586 C344.029732,65.1925453 343.792755,65.1650391 343.52192,65.1650391 C343.031033,65.1650391 342.620555,65.2856433 342.290475,65.5268555 C341.960395,65.7680676 341.691681,66.0812155 341.484323,66.4663086 C341.276965,66.8514017 341.124623,67.2851538 341.027292,67.7675781 C340.92996,68.2500024 340.864369,68.7366512 340.830514,69.2275391 L345.476999,69.2275391 Z M358.040829,76.2226562 L360.249814,75.6767578 L360.249814,60.7851562 L358.28204,60.4804688 L358.28204,58.2841797 L361.138486,58.2841797 C362.348778,58.2841797 363.451143,58.2545576 364.445615,58.1953125 C365.440086,58.1360674 366.263157,58.1064453 366.914853,58.1064453 C367.998192,58.1064453 369.007459,58.1995433 369.942685,58.3857422 C370.877911,58.571941 371.688287,58.8723938 372.373837,59.2871094 C373.059388,59.701825 373.598933,60.2350228 373.99249,60.8867188 C374.386046,61.5384147 374.582822,62.3297479 374.582822,63.2607422 C374.582822,64.7672601 374.23582,66.0135042 373.541806,66.9995117 C372.847792,67.9855193 371.76447,68.7281876 370.291806,69.2275391 C370.638813,69.4137379 370.966772,69.6866844 371.275693,70.0463867 C371.584614,70.406089 371.878719,70.8038715 372.158017,71.2397461 C372.437315,71.6756207 372.70603,72.1305315 372.964169,72.6044922 C373.222309,73.0784529 373.476212,73.5249002 373.725888,73.9438477 C373.975564,74.3627951 374.22312,74.7351872 374.468564,75.0610352 C374.714008,75.3868831 374.967911,75.6175123 375.230283,75.7529297 L376.880673,76.2226562 L376.880673,78 L371.510556,78 C371.298966,78 371.093728,77.8836275 370.894833,77.6508789 C370.695939,77.4181303 370.497048,77.1092142 370.298154,76.7241211 C370.099259,76.339028 369.898252,75.9010441 369.695126,75.4101562 C369.492,74.9192684 369.288877,74.4178085 369.085751,73.9057617 C368.882625,73.3937149 368.673155,72.8943709 368.457333,72.4077148 C368.241512,71.9210588 368.01723,71.4851907 367.784482,71.1000977 C367.551733,70.7150046 367.310525,70.4039725 367.060849,70.1669922 C366.811173,69.9300118 366.550922,69.8115234 366.280087,69.8115234 C366.009253,69.819987 365.74477,69.8221029 365.48663,69.8178711 C365.228491,69.8136393 364.980935,69.8157552 364.743954,69.8242188 L364.743954,75.7402344 L367.168759,76.2226562 L367.168759,78 L358.040829,78 L358.040829,76.2226562 Z M364.743954,67.7294922 C364.938617,67.7633465 365.148087,67.7887369 365.372372,67.8056641 C365.596657,67.8225912 365.825171,67.8331706 366.057919,67.8374023 C366.290668,67.8416341 366.521297,67.8374024 366.749814,67.824707 C366.978331,67.8120117 367.194149,67.7929689 367.397275,67.7675781 C367.685037,67.7252602 367.996069,67.6406256 368.33038,67.5136719 C368.664692,67.3867181 368.971492,67.1730158 369.25079,66.8725586 C369.530089,66.5721014 369.762834,66.1700872 369.949033,65.6665039 C370.135231,65.1629207 370.228329,64.5175821 370.228329,63.7304688 C370.228329,63.3157531 370.162738,62.896812 370.031552,62.4736328 C369.900367,62.0504536 369.680317,61.669598 369.371396,61.3310547 C369.062475,60.9925113 368.656229,60.717449 368.152646,60.5058594 C367.649063,60.2942698 367.024883,60.1884766 366.280087,60.1884766 L365.880185,60.1884766 C365.732072,60.1884766 365.586078,60.1948242 365.442197,60.2075195 C365.298316,60.2202149 365.165016,60.2371418 365.042294,60.2583008 C364.919572,60.2794597 364.820127,60.306966 364.743954,60.3408203 L364.743954,67.7294922 Z M377.164053,71.2587891 C377.164053,70.1754503 377.341786,69.1556037 377.697257,68.1992188 C378.052727,67.2428338 378.564766,66.4091832 379.233389,65.6982422 C379.902013,64.9873011 380.718736,64.4244812 381.683585,64.0097656 C382.648433,63.59505 383.740219,63.3876953 384.958975,63.3876953 C385.983069,63.3876953 386.863269,63.5188789 387.5996,63.78125 C388.335932,64.0436211 388.941069,64.4096656 389.41503,64.8793945 C389.888991,65.3491234 390.244456,65.9098275 390.481436,66.5615234 C390.718417,67.2132194 390.8496,67.9241498 390.874991,68.6943359 C390.891918,69.2275417 390.879223,69.7014953 390.836905,70.1162109 C390.794587,70.5309266 390.748038,70.9160138 390.697257,71.2714844 L381.848624,71.2714844 C381.967114,72.7695387 382.354317,73.8994103 383.010245,74.6611328 C383.666173,75.4228554 384.620427,75.8037109 385.873038,75.8037109 C386.490879,75.8037109 387.148913,75.7381191 387.847159,75.6069336 C388.545405,75.475748 389.237292,75.257814 389.922843,74.953125 L390.595694,76.5400391 C390.274078,76.8108737 389.882643,77.0605457 389.421378,77.2890625 C388.960112,77.5175793 388.458653,77.7122388 387.916983,77.8730469 C387.375314,78.033855 386.801915,78.158691 386.196768,78.2475586 C385.591622,78.3364262 384.980137,78.3723959 384.362296,78.3554688 C383.211248,78.330078 382.189286,78.1565771 381.296378,77.8349609 C380.40347,77.5133447 379.650222,77.0499705 379.036612,76.4448242 C378.423002,75.839678 377.957512,75.1033572 377.640128,74.2358398 C377.322743,73.3683225 377.164053,72.3759821 377.164053,71.2587891 Z M386.507803,69.2275391 C386.533194,68.9143865 386.558585,68.577964 386.583975,68.2182617 C386.609366,67.8585594 386.60725,67.5073259 386.577628,67.1645508 C386.548005,66.8217756 386.47395,66.5022801 386.35546,66.2060547 C386.23697,65.9098292 386.050773,65.6728525 385.796866,65.4951172 C385.644521,65.3850906 385.466789,65.3025719 385.263663,65.2475586 C385.060537,65.1925453 384.82356,65.1650391 384.552725,65.1650391 C384.061837,65.1650391 383.65136,65.2856433 383.32128,65.5268555 C382.9912,65.7680676 382.722485,66.0812155 382.515128,66.4663086 C382.30777,66.8514017 382.155428,67.2851538 382.058096,67.7675781 C381.960765,68.2500024 381.895173,68.7366512 381.861319,69.2275391 L386.507803,69.2275391 Z M392.808762,76.2734375 L394.395676,75.9560547 L394.395676,67.6025391 L392.669113,66.3837891 L392.669113,64.7841797 L397.379074,63.3876953 L398.331223,63.6289062 L398.331223,65.5078125 C398.661303,65.1861963 399.033695,64.894207 399.44841,64.6318359 C399.863126,64.3694648 400.30111,64.1472991 400.762375,63.965332 C401.22364,63.783365 401.69971,63.6416021 402.190598,63.5400391 C402.681486,63.4384761 403.168134,63.3876953 403.650559,63.3876953 C404.463063,63.3876953 405.135908,63.516763 405.669113,63.7749023 C406.202319,64.0330417 406.627608,64.4075496 406.944992,64.8984375 C407.262377,65.3893254 407.486658,65.988115 407.617844,66.6948242 C407.749029,67.4015335 407.814621,68.2076778 407.814621,69.1132812 L407.814621,75.9433594 L409.60466,76.2734375 L409.60466,78 L401.505051,78 L401.505051,76.2734375 L403.320481,75.9179688 L403.320481,69.6845703 C403.320481,69.0074836 403.288743,68.4510113 403.225266,68.0151367 C403.161789,67.5792621 403.041185,67.2364921 402.863449,66.9868164 C402.685714,66.7371407 402.433926,66.5636398 402.108078,66.4663086 C401.78223,66.3689774 401.35271,66.3203125 400.819504,66.3203125 C400.743332,66.3203125 400.618496,66.3351235 400.444992,66.3647461 C400.271489,66.3943686 400.087409,66.4345701 399.892746,66.4853516 C399.698084,66.5361331 399.507656,66.5974931 399.321457,66.6694336 C399.135258,66.7413741 398.99138,66.819661 398.889817,66.9042969 L398.889817,75.9306641 L400.45134,76.2734375 L400.45134,78 L392.808762,78 L392.808762,76.2734375 Z M410.725931,71.2587891 C410.725931,70.1754503 410.903664,69.1556037 411.259134,68.1992188 C411.614605,67.2428338 412.126644,66.4091832 412.795267,65.6982422 C413.46389,64.9873011 414.280614,64.4244812 415.245462,64.0097656 C416.210311,63.59505 417.302097,63.3876953 418.520853,63.3876953 C419.544947,63.3876953 420.425146,63.5188789 421.161478,63.78125 C421.89781,64.0436211 422.502947,64.4096656 422.976908,64.8793945 C423.450868,65.3491234 423.806334,65.9098275 424.043314,66.5615234 C424.280294,67.2132194 424.411478,67.9241498 424.436869,68.6943359 C424.453796,69.2275417 424.441101,69.7014953 424.398783,70.1162109 C424.356465,70.5309266 424.309916,70.9160138 424.259134,71.2714844 L415.410501,71.2714844 C415.528992,72.7695387 415.916195,73.8994103 416.572123,74.6611328 C417.22805,75.4228554 418.182305,75.8037109 419.434916,75.8037109 C420.052757,75.8037109 420.710791,75.7381191 421.409037,75.6069336 C422.107282,75.475748 422.79917,75.257814 423.48472,74.953125 L424.157572,76.5400391 C423.835956,76.8108737 423.444521,77.0605457 422.983255,77.2890625 C422.52199,77.5175793 422.02053,77.7122388 421.478861,77.8730469 C420.937191,78.033855 420.363792,78.158691 419.758646,78.2475586 C419.1535,78.3364262 418.542015,78.3723959 417.924173,78.3554688 C416.773126,78.330078 415.751163,78.1565771 414.858255,77.8349609 C413.965347,77.5133447 413.2121,77.0499705 412.59849,76.4448242 C411.98488,75.839678 411.51939,75.1033572 411.202005,74.2358398 C410.884621,73.3683225 410.725931,72.3759821 410.725931,71.2587891 Z M420.069681,69.2275391 C420.095072,68.9143865 420.120462,68.577964 420.145853,68.2182617 C420.171244,67.8585594 420.169128,67.5073259 420.139505,67.1645508 C420.109883,66.8217756 420.035828,66.5022801 419.917337,66.2060547 C419.798847,65.9098292 419.612651,65.6728525 419.358744,65.4951172 C419.206399,65.3850906 419.028667,65.3025719 418.825541,65.2475586 C418.622415,65.1925453 418.385438,65.1650391 418.114603,65.1650391 C417.623715,65.1650391 417.213238,65.2856433 416.883158,65.5268555 C416.553078,65.7680676 416.284363,66.0812155 416.077005,66.4663086 C415.869648,66.8514017 415.717305,67.2851538 415.619974,67.7675781 C415.522643,68.2500024 415.457051,68.7366512 415.423197,69.2275391 L420.069681,69.2275391 Z M426.649936,66.4091797 L425.17728,66.0664062 L425.17728,63.7939453 L432.388218,63.7939453 L432.388218,66.0664062 L431.144077,66.4091797 L432.591343,72.2998047 L433.022983,74.3056641 L433.314976,72.6806641 L435.727085,63.7939453 L439.421421,63.7939453 L441.693882,72.6806641 L442.087436,74.4707031 L442.455601,72.6806641 L443.83939,66.4472656 L442.150913,66.0664062 L442.150913,63.7939453 L448.485874,63.7939453 L448.485874,66.0537109 L446.70853,66.4853516 L443.445835,78.0634766 L439.205601,78.0634766 L437.250522,71.5634766 L436.564976,68.8339844 L436.082554,71.5634766 L434.330601,78.0634766 L430.255405,78.0634766 L426.649936,66.4091797 Z M449.1882,72.9980469 C449.30669,72.507159 449.535203,72.0670592 449.873746,71.6777344 C450.21229,71.2884095 450.618536,70.9498712 451.092496,70.6621094 C451.566457,70.3743475 452.08696,70.1310231 452.65402,69.9321289 C453.22108,69.7332347 453.792363,69.5703131 454.367887,69.4433594 C454.943411,69.3164056 455.499883,69.2254235 456.037321,69.1704102 C456.574758,69.1153969 457.055059,69.0878906 457.478239,69.0878906 C457.478239,68.4108039 457.418994,67.8606792 457.300504,67.4375 C457.182014,67.0143208 457.006397,66.6821301 456.773649,66.440918 C456.5409,66.1997058 456.257374,66.0346684 455.923063,65.9458008 C455.588751,65.8569331 455.20578,65.8125 454.774137,65.8125 C454.224004,65.8125 453.714081,65.8569331 453.244352,65.9458008 C452.774623,66.0346684 452.355682,66.1383458 451.987516,66.2568359 C451.61935,66.3753261 451.314666,66.4959304 451.073453,66.6186523 C450.832241,66.7413743 450.665088,66.8365882 450.571989,66.9042969 L449.708707,64.9492188 C449.844125,64.8391922 450.085333,64.6953134 450.43234,64.5175781 C450.779347,64.3398429 451.225794,64.166342 451.771696,63.9970703 C452.317597,63.8277986 452.956588,63.6839199 453.688688,63.5654297 C454.420788,63.4469395 455.235396,63.3876953 456.132535,63.3876953 C456.987357,63.3876953 457.772343,63.4659823 458.487516,63.6225586 C459.202689,63.7791349 459.818405,64.0541973 460.334684,64.4477539 C460.850963,64.8413106 461.252977,65.3745084 461.540739,66.0473633 C461.8285,66.7202182 461.972379,67.5729115 461.972379,68.6054688 L461.972379,76.2734375 L463.635465,76.2734375 L463.635465,77.6318359 C463.415412,77.7841804 463.167856,77.9069006 462.892789,78 C462.617723,78.0930994 462.332081,78.1650388 462.035856,78.2158203 C461.73963,78.2666018 461.445525,78.3025715 461.153532,78.3237305 C460.861538,78.3448894 460.592823,78.3554688 460.347379,78.3554688 C460.186571,78.3554688 459.979216,78.3385418 459.725309,78.3046875 C459.471401,78.2708332 459.223845,78.2010096 458.982633,78.0952148 C458.741421,77.98942 458.53195,77.8413095 458.354215,77.6508789 C458.17648,77.4604483 458.07915,77.2128921 458.062223,76.9082031 C457.622117,77.3229187 457.101614,77.6678046 456.5007,77.9428711 C455.899785,78.2179376 455.193086,78.3554688 454.380582,78.3554688 C453.271853,78.3554688 452.34722,78.2052424 451.606657,77.9047852 C450.866093,77.6043279 450.288462,77.2065454 449.873746,76.7114258 C449.459031,76.2163061 449.198779,75.6450228 449.092985,74.9975586 C448.98719,74.3500944 449.018928,73.6835972 449.1882,72.9980469 Z M453.580778,73.7470703 C453.580778,74.568038 453.813523,75.16048 454.27902,75.5244141 C454.744517,75.8883482 455.425825,76.0068366 456.322965,75.8798828 C456.551482,75.8460285 456.758837,75.7846684 456.945035,75.6958008 C457.131234,75.6069331 457.304735,75.5032558 457.465543,75.3847656 C457.465543,74.6568974 457.467659,73.931156 457.471891,73.2075195 C457.476123,72.4838831 457.478239,71.7581417 457.478239,71.0302734 C457.215867,71.0302734 456.936573,71.0450845 456.640348,71.074707 C456.344123,71.1043296 456.052133,71.1572262 455.764371,71.2333984 C455.47661,71.3095707 455.201547,71.4153639 454.939176,71.5507812 C454.676805,71.6861986 454.44406,71.8533519 454.240934,72.0522461 C454.037808,72.2511403 453.877002,72.490233 453.758512,72.7695312 C453.640022,73.0488295 453.580778,73.3746726 453.580778,73.7470703 Z M464.198142,76.2734375 L465.696189,75.9560547 L465.696189,60.4296875 L463.982322,59.7060547 L463.982322,57.9287109 L469.454002,57.3066406 L470.19033,57.5351562 L470.19033,75.8925781 L472.412009,76.2734375 L472.412009,78 L464.198142,78 L464.198142,76.2734375 Z M479.745372,76.2226562 L481.954356,75.6767578 L481.954356,60.7851562 L479.986583,60.4804688 L479.986583,58.2841797 L482.843028,58.2841797 C484.05332,58.2841797 485.155686,58.2545576 486.150157,58.1953125 C487.144628,58.1360674 487.967699,58.1064453 488.619395,58.1064453 C489.702734,58.1064453 490.712001,58.1995433 491.647227,58.3857422 C492.582453,58.571941 493.392829,58.8723938 494.078379,59.2871094 C494.76393,59.701825 495.303475,60.2350228 495.697032,60.8867188 C496.090588,61.5384147 496.287364,62.3297479 496.287364,63.2607422 C496.287364,64.7672601 495.940362,66.0135042 495.246348,66.9995117 C494.552334,67.9855193 493.469012,68.7281876 491.996348,69.2275391 C492.343355,69.4137379 492.671314,69.6866844 492.980235,70.0463867 C493.289156,70.406089 493.583261,70.8038715 493.862559,71.2397461 C494.141857,71.6756207 494.410572,72.1305315 494.668711,72.6044922 C494.926851,73.0784529 495.180754,73.5249002 495.43043,73.9438477 C495.680106,74.3627951 495.927662,74.7351872 496.173106,75.0610352 C496.41855,75.3868831 496.672454,75.6175123 496.934825,75.7529297 L498.585215,76.2226562 L498.585215,78 L493.215098,78 C493.003509,78 492.79827,77.8836275 492.599375,77.6508789 C492.400481,77.4181303 492.20159,77.1092142 492.002696,76.7241211 C491.803802,76.339028 491.602794,75.9010441 491.399668,75.4101562 C491.196542,74.9192684 490.993419,74.4178085 490.790293,73.9057617 C490.587167,73.3937149 490.377697,72.8943709 490.161875,72.4077148 C489.946054,71.9210588 489.721772,71.4851907 489.489024,71.1000977 C489.256275,70.7150046 489.015067,70.4039725 488.765391,70.1669922 C488.515715,69.9300118 488.255464,69.8115234 487.984629,69.8115234 C487.713795,69.819987 487.449312,69.8221029 487.191172,69.8178711 C486.933033,69.8136393 486.685477,69.8157552 486.448497,69.8242188 L486.448497,75.7402344 L488.873301,76.2226562 L488.873301,78 L479.745372,78 L479.745372,76.2226562 Z M486.448497,67.7294922 C486.643159,67.7633465 486.85263,67.7887369 487.076915,67.8056641 C487.3012,67.8225912 487.529713,67.8331706 487.762461,67.8374023 C487.99521,67.8416341 488.225839,67.8374024 488.454356,67.824707 C488.682873,67.8120117 488.898691,67.7929689 489.101817,67.7675781 C489.389579,67.7252602 489.700611,67.6406256 490.034922,67.5136719 C490.369234,67.3867181 490.676034,67.1730158 490.955333,66.8725586 C491.234631,66.5721014 491.467376,66.1700872 491.653575,65.6665039 C491.839774,65.1629207 491.932872,64.5175821 491.932872,63.7304688 C491.932872,63.3157531 491.86728,62.896812 491.736094,62.4736328 C491.604909,62.0504536 491.384859,61.669598 491.075938,61.3310547 C490.767017,60.9925113 490.360771,60.717449 489.857188,60.5058594 C489.353605,60.2942698 488.729425,60.1884766 487.984629,60.1884766 L487.584727,60.1884766 C487.436614,60.1884766 487.29062,60.1948242 487.146739,60.2075195 C487.002858,60.2202149 486.869558,60.2371418 486.746836,60.2583008 C486.624114,60.2794597 486.524669,60.306966 486.448497,60.3408203 L486.448497,67.7294922 Z M498.995549,72.9980469 C499.114039,72.507159 499.342552,72.0670592 499.681096,71.6777344 C500.019639,71.2884095 500.425885,70.9498712 500.899846,70.6621094 C501.373806,70.3743475 501.894309,70.1310231 502.461369,69.9321289 C503.028429,69.7332347 503.599713,69.5703131 504.175236,69.4433594 C504.75076,69.3164056 505.307232,69.2254235 505.84467,69.1704102 C506.382107,69.1153969 506.862409,69.0878906 507.285588,69.0878906 C507.285588,68.4108039 507.226344,67.8606792 507.107853,67.4375 C506.989363,67.0143208 506.813747,66.6821301 506.580998,66.440918 C506.348249,66.1997058 506.064724,66.0346684 505.730412,65.9458008 C505.3961,65.8569331 505.013129,65.8125 504.581486,65.8125 C504.031353,65.8125 503.52143,65.8569331 503.051701,65.9458008 C502.581972,66.0346684 502.163031,66.1383458 501.794865,66.2568359 C501.426699,66.3753261 501.122015,66.4959304 500.880803,66.6186523 C500.63959,66.7413743 500.472437,66.8365882 500.379338,66.9042969 L499.516057,64.9492188 C499.651474,64.8391922 499.892682,64.6953134 500.239689,64.5175781 C500.586696,64.3398429 501.033144,64.166342 501.579045,63.9970703 C502.124946,63.8277986 502.763937,63.6839199 503.496037,63.5654297 C504.228137,63.4469395 505.042745,63.3876953 505.939885,63.3876953 C506.794707,63.3876953 507.579692,63.4659823 508.294865,63.6225586 C509.010038,63.7791349 509.625754,64.0541973 510.142033,64.4477539 C510.658312,64.8413106 511.060326,65.3745084 511.348088,66.0473633 C511.63585,66.7202182 511.779728,67.5729115 511.779728,68.6054688 L511.779728,76.2734375 L513.442814,76.2734375 L513.442814,77.6318359 C513.222761,77.7841804 512.975205,77.9069006 512.700139,78 C512.425072,78.0930994 512.13943,78.1650388 511.843205,78.2158203 C511.54698,78.2666018 511.252874,78.3025715 510.960881,78.3237305 C510.668887,78.3448894 510.400172,78.3554688 510.154728,78.3554688 C509.99392,78.3554688 509.786566,78.3385418 509.532658,78.3046875 C509.278751,78.2708332 509.031194,78.2010096 508.789982,78.0952148 C508.54877,77.98942 508.3393,77.8413095 508.161564,77.6508789 C507.983829,77.4604483 507.886499,77.2128921 507.869572,76.9082031 C507.429466,77.3229187 506.908963,77.6678046 506.308049,77.9428711 C505.707134,78.2179376 505.000436,78.3554688 504.187932,78.3554688 C503.079202,78.3554688 502.154569,78.2052424 501.414006,77.9047852 C500.673442,77.6043279 500.095811,77.2065454 499.681096,76.7114258 C499.26638,76.2163061 499.006129,75.6450228 498.900334,74.9975586 C498.794539,74.3500944 498.826277,73.6835972 498.995549,72.9980469 Z M503.388127,73.7470703 C503.388127,74.568038 503.620872,75.16048 504.086369,75.5244141 C504.551866,75.8883482 505.233174,76.0068366 506.130314,75.8798828 C506.358831,75.8460285 506.566186,75.7846684 506.752385,75.6958008 C506.938584,75.6069331 507.112084,75.5032558 507.272892,75.3847656 C507.272892,74.6568974 507.275008,73.931156 507.27924,73.2075195 C507.283472,72.4838831 507.285588,71.7581417 507.285588,71.0302734 C507.023217,71.0302734 506.743923,71.0450845 506.447697,71.074707 C506.151472,71.1043296 505.859482,71.1572262 505.571721,71.2333984 C505.283959,71.3095707 505.008896,71.4153639 504.746525,71.5507812 C504.484154,71.6861986 504.251409,71.8533519 504.048283,72.0522461 C503.845157,72.2511403 503.684351,72.490233 503.565861,72.7695312 C503.447371,73.0488295 503.388127,73.3746726 503.388127,73.7470703 Z M515.414671,66.0664062 L513.484984,66.0664062 L513.484984,64.6318359 C513.950481,64.5556637 514.382117,64.4456387 514.779906,64.3017578 C515.177694,64.1578769 515.520464,63.9589856 515.808226,63.7050781 C516.079061,63.4596342 516.349891,63.0766628 516.620726,62.5561523 C516.891561,62.0356419 517.166623,61.3183639 517.445921,60.4042969 L519.578734,60.4042969 L519.578734,63.7939453 L523.920531,63.7939453 L523.920531,66.0664062 L519.781859,66.0664062 L519.781859,70.7001953 C519.781859,71.8343156 519.807249,72.7335579 519.858031,73.3979492 C519.908812,74.0623406 519.993447,74.5680321 520.111937,74.9150391 C520.230427,75.262046 520.389117,75.4863276 520.588011,75.5878906 C520.786905,75.6894536 521.038693,75.7402344 521.343382,75.7402344 C521.512654,75.7402344 521.703082,75.7296551 521.914671,75.7084961 C522.126261,75.6873371 522.333615,75.657715 522.536741,75.6196289 C522.739868,75.5815428 522.930295,75.5349938 523.108031,75.4799805 C523.285766,75.4249672 523.433876,75.3636071 523.552366,75.2958984 L524.212523,76.7304688 C524.009397,76.9420583 523.73645,77.1430655 523.393675,77.3334961 C523.0509,77.5239267 522.653117,77.69108 522.200316,77.8349609 C521.747514,77.9788419 521.256633,78.0930985 520.727659,78.1777344 C520.198685,78.2623702 519.650677,78.3046875 519.083616,78.3046875 C518.347285,78.3046875 517.742148,78.2115895 517.268187,78.0253906 C516.794226,77.8391918 516.419718,77.555666 516.144652,77.1748047 C515.869585,76.7939434 515.679157,76.3094105 515.573363,75.7211914 C515.467568,75.1329723 515.414671,74.4326212 515.414671,73.6201172 L515.414671,66.0664062 Z M525.384575,71.2587891 C525.384575,70.1754503 525.562307,69.1556037 525.917778,68.1992188 C526.273249,67.2428338 526.785288,66.4091832 527.453911,65.6982422 C528.122534,64.9873011 528.939258,64.4244812 529.904106,64.0097656 C530.868955,63.59505 531.960741,63.3876953 533.179497,63.3876953 C534.20359,63.3876953 535.08379,63.5188789 535.820122,63.78125 C536.556454,64.0436211 537.161591,64.4096656 537.635551,64.8793945 C538.109512,65.3491234 538.464977,65.9098275 538.701958,66.5615234 C538.938938,67.2132194 539.070122,67.9241498 539.095512,68.6943359 C539.11244,69.2275417 539.099744,69.7014953 539.057426,70.1162109 C539.015109,70.5309266 538.96856,70.9160138 538.917778,71.2714844 L530.069145,71.2714844 C530.187635,72.7695387 530.574839,73.8994103 531.230766,74.6611328 C531.886694,75.4228554 532.840949,75.8037109 534.093559,75.8037109 C534.711401,75.8037109 535.369435,75.7381191 536.06768,75.6069336 C536.765926,75.475748 537.457814,75.257814 538.143364,74.953125 L538.816216,76.5400391 C538.494599,76.8108737 538.103164,77.0605457 537.641899,77.2890625 C537.180634,77.5175793 536.679174,77.7122388 536.137505,77.8730469 C535.595835,78.033855 535.022436,78.158691 534.41729,78.2475586 C533.812143,78.3364262 533.200659,78.3723959 532.582817,78.3554688 C531.43177,78.330078 530.409807,78.1565771 529.516899,77.8349609 C528.623991,77.5133447 527.870743,77.0499705 527.257133,76.4448242 C526.643524,75.839678 526.178034,75.1033572 525.860649,74.2358398 C525.543265,73.3683225 525.384575,72.3759821 525.384575,71.2587891 Z M534.728325,69.2275391 C534.753716,68.9143865 534.779106,68.577964 534.804497,68.2182617 C534.829888,67.8585594 534.827772,67.5073259 534.798149,67.1645508 C534.768527,66.8217756 534.694471,66.5022801 534.575981,66.2060547 C534.457491,65.9098292 534.271295,65.6728525 534.017387,65.4951172 C533.865043,65.3850906 533.68731,65.3025719 533.484184,65.2475586 C533.281058,65.1925453 533.044081,65.1650391 532.773247,65.1650391 C532.282359,65.1650391 531.871881,65.2856433 531.541801,65.5268555 C531.211722,65.7680676 530.943007,66.0812155 530.735649,66.4663086 C530.528291,66.8514017 530.375949,67.2851538 530.278618,67.7675781 C530.181287,68.2500024 530.115695,68.7366512 530.081841,69.2275391 L534.728325,69.2275391 Z M541.067369,73.8232422 L543.162096,73.8232422 L543.9619,75.2070312 C544.063463,75.3170578 544.186184,75.4482414 544.330065,75.6005859 C544.473945,75.7529304 544.643215,75.8989251 544.837877,76.0385742 C545.032539,76.1782234 545.254705,76.3009435 545.504381,76.4067383 C545.754057,76.5125331 546.035467,76.5738931 546.348619,76.5908203 C547.110342,76.6331382 547.687973,76.5061864 548.081529,76.2099609 C548.475086,75.9137355 548.66763,75.5117213 548.659166,75.0039062 C548.650703,74.7753895 548.555489,74.5574555 548.373522,74.3500977 C548.191555,74.1427398 547.94823,73.9396169 547.643541,73.7407227 C547.338852,73.5418284 546.989734,73.3471689 546.596178,73.1567383 C546.202621,72.9663076 545.790028,72.773764 545.358385,72.5791016 C544.75747,72.2998033 544.181955,72.0014664 543.631822,71.684082 C543.081689,71.3666976 542.599272,71.0048848 542.184557,70.5986328 C541.769841,70.1923808 541.439766,69.7332382 541.194322,69.2211914 C540.948878,68.7091446 540.83039,68.1230502 540.838854,67.4628906 C540.847317,66.9550756 540.946763,66.5043965 541.137193,66.1108398 C541.327624,65.7172832 541.581528,65.3723973 541.898912,65.0761719 C542.216297,64.7799464 542.580225,64.5260427 542.990709,64.3144531 C543.401193,64.1028635 543.830713,63.9314785 544.279283,63.800293 C544.727853,63.6691074 545.178532,63.5696618 545.631334,63.5019531 C546.084136,63.4342445 546.513656,63.3961589 546.919908,63.3876953 C547.402333,63.3792317 547.888981,63.3940428 548.379869,63.4321289 C548.870757,63.470215 549.338363,63.5252275 549.782701,63.597168 C550.227039,63.6691084 550.637517,63.7495113 551.014147,63.8383789 C551.390776,63.9272465 551.710272,64.0224604 551.972643,64.1240234 L551.972643,67.5898438 L549.738268,67.5898438 L549.02733,66.015625 C548.807277,65.7532539 548.53433,65.5205088 548.208483,65.3173828 C547.882635,65.1142568 547.529285,65.0126953 547.148424,65.0126953 C546.911444,65.0126953 546.680814,65.033854 546.456529,65.0761719 C546.232244,65.1184898 546.033353,65.1883133 545.85985,65.2856445 C545.686346,65.3829757 545.546699,65.5056959 545.440904,65.6538086 C545.33511,65.8019213 545.282213,65.977538 545.282213,66.1806641 C545.282213,66.4599623 545.339341,66.7180978 545.4536,66.9550781 C545.567858,67.1920585 545.726548,67.4142242 545.929674,67.621582 C546.1328,67.8289398 546.376124,68.0214835 546.659654,68.1992188 C546.943184,68.376954 547.254216,68.5419914 547.59276,68.6943359 C547.999012,68.8805348 548.411605,69.0667308 548.830553,69.2529297 C549.2495,69.4391285 549.657862,69.6380198 550.05565,69.8496094 C550.453439,70.061199 550.827947,70.2897123 551.179186,70.5351562 C551.530424,70.7806002 551.837225,71.0598943 552.099596,71.3730469 C552.361967,71.6861995 552.569322,72.0353171 552.721666,72.4204102 C552.874011,72.8055032 552.950182,73.2434871 552.950182,73.734375 C552.950182,74.5722698 552.768217,75.2810843 552.404283,75.8608398 C552.040349,76.4405953 551.549469,76.9124331 550.931627,77.2763672 C550.313785,77.6403013 549.594392,77.9026685 548.773424,78.0634766 C547.952456,78.2242847 547.084952,78.3046875 546.170885,78.3046875 C545.764633,78.3046875 545.335112,78.2835289 544.882311,78.2412109 C544.429509,78.198893 543.976714,78.1311854 543.523912,78.0380859 C543.07111,77.9449865 542.633127,77.8264981 542.209947,77.6826172 C541.786768,77.5387363 541.405913,77.3652354 541.067369,77.1621094 L541.067369,73.8232422 Z" transform="translate(-31 -57)"/>
</svg>
