<svg width="66" height="49" viewBox="0 0 66 49" xmlns="http://www.w3.org/2000/svg"><title>closedQuote</title><path d="M65.625 12.52c0 4.922-1.067 9.383-3.202 13.385-2.134 4.002-4.713 7.396-7.737 10.183-3.2 3.024-6.506 5.558-9.915 7.604-3.41 2.045-6.27 3.63-8.58 4.758l-2.67-5.603a380.87 380.87 0 0 0 7.56-4.136c2.37-1.33 4.51-2.83 6.41-4.49a27.594 27.594 0 0 0 4.98-5.51c1.43-2.07 2.55-4.59 3.38-7.56h-3.83c-3.73 0-6.41-.92-8.05-2.75-1.63-1.83-2.44-3.88-2.44-6.13 0-2.843 1.1-5.56 3.29-8.135C47.01 1.538 50.01.25 53.8.25c4.03 0 7.01 1.125 8.94 3.378 1.924 2.253 2.89 5.217 2.89 8.893zm-32.905 0c0 4.922-1.067 9.383-3.2 13.385-2.136 4.002-4.715 7.396-7.738 10.183-3.202 3.024-6.507 5.558-9.916 7.604-3.41 2.045-6.27 3.63-8.582 4.758L.616 42.847a386.585 386.585 0 0 0 7.56-4.136c2.37-1.33 4.505-2.83 6.402-4.49a27.594 27.594 0 0 0 4.98-5.51c1.423-2.07 2.55-4.59 3.38-7.56h-3.824c-3.735 0-6.418-.92-8.05-2.75-1.63-1.83-2.444-3.88-2.444-6.13 0-2.843 1.097-5.56 3.29-8.135C14.104 1.538 17.098.25 20.892.25c4.032 0 7.01 1.125 8.938 3.378 1.927 2.253 2.89 5.217 2.89 8.893z" fill="#FFF" fill-rule="evenodd"/></svg>