<svg width="150" height="41" viewBox="0 0 150 41" xmlns="http://www.w3.org/2000/svg"><title>headerLogo</title><g fill="none" fill-rule="evenodd"><path d="M59.156 40.535V31.53h-1.8v9.005h1.8zm7.39 0V35.93c0-1.27-.645-2.08-2.002-2.08-.99 0-1.75.514-2.142 1v-.837h-1.61v6.522h1.61v-4.402c.28-.378.76-.756 1.394-.756.685 0 1.128.31 1.128 1.215v3.943h1.623zm3.792.162c1.698 0 2.662-.877 2.662-2.08 0-2.632-3.64-1.822-3.64-2.78 0-.366.382-.636.965-.636.748 0 1.445.36 1.813.76l.646-1.21a3.753 3.753 0 0 0-2.46-.89c-1.622 0-2.51.96-2.51 2.05 0 2.57 3.626 1.69 3.626 2.76 0 .41-.33.69-1.026.69-.76 0-1.66-.443-2.117-.902l-.697 1.24c.642.634 1.67 1.01 2.734 1.01zm9.583-.162v-6.522h-1.61v4.416c-.27.37-.77.74-1.39.74-.68 0-1.13-.3-1.13-1.2v-3.96h-1.61v4.63c0 1.27.64 2.05 1.98 2.05 1 0 1.74-.5 2.16-.99v.82h1.61zm3.21 0v-4.307c.27-.42.98-.743 1.51-.743a2 2 0 0 1 .45.04V33.85c-.76 0-1.51.475-1.95 1.04v-.876h-1.61v6.522h1.61zm8.25 0v-4.213c0-1.877-1.28-2.47-2.68-2.47-.96 0-1.92.31-2.67 1.025l.64 1.202c.507-.5 1.115-.77 1.76-.77.81 0 1.345.43 1.345 1.09v.82c-.41-.52-1.12-.8-1.94-.8-.98 0-2.12.56-2.12 2.1 0 1.46 1.14 2.16 2.118 2.16.8 0 1.52-.31 1.94-.85v.69h1.62zm-2.91-1c-.63 0-1.15-.35-1.15-.97 0-.622.52-.987 1.16-.987.52 0 1.03.203 1.296.58v.81c-.266.38-.774.568-1.293.568zm10.26 1V35.93c0-1.27-.64-2.08-2-2.08a2.79 2.79 0 0 0-2.14 1v-.837h-1.61v6.522h1.61v-4.402c.28-.378.76-.756 1.4-.756.684 0 1.13.31 1.13 1.215v3.943h1.62zm4.44.162c1.26 0 2.02-.594 2.43-1.188l-1.054-1.06c-.29.44-.736.71-1.294.71-.976 0-1.66-.77-1.66-1.91s.684-1.89 1.66-1.89c.558 0 1 .243 1.293.702l1.05-1.056c-.404-.594-1.165-1.175-2.42-1.175-1.876 0-3.245 1.42-3.245 3.417 0 2.01 1.37 3.43 3.246 3.43zm6.36 0c.95 0 1.913-.31 2.52-.904l-.72-1.135c-.395.405-1.105.635-1.625.635-1.04 0-1.65-.662-1.763-1.458h4.55v-.406c0-2.12-1.23-3.58-3.066-3.58-1.85 0-3.17 1.52-3.17 3.41 0 2.09 1.408 3.43 3.27 3.43zm1.42-4.05h-3.02c.064-.65.495-1.392 1.496-1.392 1.066 0 1.47.77 1.52 1.39zm11.32 3.888v-1.688h-3.576V31.53h-1.812v9.005h5.39zm4.056.162c.95 0 1.913-.31 2.52-.904l-.722-1.135c-.39.405-1.1.635-1.62.635-1.04 0-1.648-.662-1.76-1.458h4.55v-.406c0-2.12-1.23-3.58-3.07-3.58-1.85 0-3.17 1.52-3.17 3.41 0 2.09 1.41 3.43 3.27 3.43zm1.42-4.05h-3.02c.064-.65.495-1.392 1.496-1.392 1.065 0 1.47.77 1.52 1.39zm8.01 3.888v-4.213c0-1.877-1.28-2.47-2.687-2.47-.966 0-1.93.31-2.677 1.025l.633 1.202c.505-.5 1.113-.77 1.76-.77.81 0 1.34.43 1.34 1.09v.82c-.406-.52-1.116-.8-1.94-.8-.976 0-2.12.56-2.12 2.1 0 1.46 1.14 2.16 2.12 2.16.8 0 1.52-.31 1.94-.85v.69h1.623zm-2.915-1c-.633 0-1.153-.35-1.153-.97 0-.622.52-.987 1.156-.987.52 0 1.027.203 1.294.58v.81c-.266.38-.773.568-1.292.568zm10.33 1V31.53h-1.62v3.32c-.482-.675-1.17-1-1.89-1-1.56 0-2.712 1.297-2.712 3.417 0 2.188 1.18 3.43 2.713 3.43.747 0 1.406-.35 1.89-1v.838h1.62zm-3.002-1.364c-.925 0-1.56-.76-1.56-1.9 0-1.12.635-1.89 1.56-1.89.532 0 1.116.31 1.382.75v2.31c-.27.43-.85.74-1.385.74zm6.808 1.53c1.7 0 2.663-.87 2.663-2.08 0-2.63-3.64-1.82-3.64-2.78 0-.36.38-.63.964-.63.75 0 1.447.36 1.815.76l.646-1.21a3.753 3.753 0 0 0-2.46-.89c-1.624 0-2.51.96-2.51 2.05 0 2.567 3.624 1.69 3.624 2.756 0 .406-.33.69-1.027.69-.76 0-1.66-.446-2.12-.905l-.7 1.24c.65.637 1.677 1.015 2.74 1.015zM69.68 26.56c7.08 0 12.358-4.98 12.358-12.095 0-7.12-5.276-12.1-12.357-12.1-7.08 0-12.39 4.98-12.39 12.1 0 7.12 5.31 12.1 12.397 12.1zm0-5.33c-3.82 0-6.317-2.98-6.317-6.765 0-3.823 2.5-6.77 6.318-6.77 3.82 0 6.29 2.947 6.29 6.77 0 3.787-2.47 6.768-6.29 6.768zm36.9 4.91V2.75h-6.005v12.87L91.198 2.75h-6.144v23.39h5.97V12.603l9.79 13.537h5.762zm19.335 0v-5.26h-9.302V2.75h-5.97v23.39h15.274zm15.344 0v-9.43L150 2.748h-6.77l-4.963 8.627-5.033-8.627H126.5l8.782 13.958v9.434h5.97z" fill="#FAFAFA"/><path stroke="#000" fill="#F7F7F7" d="M4.134 17.717H41.34v21.85H4.133z"/><path stroke="#000" fill="#FFF" d="M22.736 5.906l18.012 10.888-18.012 15.12-18.012-15.12z"/><path stroke="#000" fill="#FFF" d="M22.736 23.622l16.83 15.945H5.906z"/><path d="M23.03.59l11.222 6.904V3.986h3.1v5.416l8.12 4.996v2.728L22.736 3.453 0 17.126v-2.728L23.03.59zM35.803 3.1a1.55 1.55 0 1 0 0-3.1 1.55 1.55 0 0 0 0 3.1z" fill="#FFF"/><path d="M18.307 11.81h3.796v3.938h-3.796V11.81zm5.062 0h3.79v3.938h-3.79V11.81zm0 4.922h3.79v3.937h-3.79v-3.94zm-5.07 0h3.8v3.937h-3.8v-3.94z" fill="#502E8C"/></g></svg>