<svg width="32" height="32" viewBox="0 0 32 32" xmlns="http://www.w3.org/2000/svg"><title>icon_competitor_country</title><g fill="none" fill-rule="evenodd"><path d="M25.333 2.667H6.667C5.187 2.667 4 3.867 4 5.333V24a2.666 2.666 0 0 0 2.667 2.667H12l4 4 4-4h5.333C26.8 26.667 28 25.467 28 24V5.333c0-1.466-1.2-2.666-2.667-2.666z" stroke="#0074BA" stroke-width=".6" fill="#FFF" fill-rule="nonzero"/><path d="M0 0h32v32H0z"/><path d="M21.168 17.241c-.059.548-.104 1.085-.182 1.618a.505.505 0 0 1-.236.311c-1.846 1.013-3.795 1.375-5.859.844a4.641 4.641 0 0 1-1.23-.526c-2.439-1.481-3.235-4.076-2.249-6.869.913-2.585 2.866-4.054 5.57-4.519 1.325-.228 2.617-.035 3.903.284.388.096.564.253.517.695-.092.876-.113 1.76-.183 2.638-.01.132-.164.372-.203.363-.19-.046-.368-.155-.543-.253-.026-.015-.018-.087-.028-.133-.372-1.7-1.726-2.055-3.04-1.849-1.882.294-3.237 1.76-3.538 3.67-.12.766-.11 1.507.14 2.242.627 1.849 2.624 3.07 4.724 2.423.805-.247 1.577-.604 2.437-.939" fill="#005D3D"/></g></svg>