<svg width="18" height="21" viewBox="0 0 18 21" xmlns="http://www.w3.org/2000/svg"><title>icon_competitor</title><g fill="none" fill-rule="evenodd"><path d="M16 0H2a2 2 0 0 0-2 2v14a2 2 0 0 0 2 2h4l3 3 3-3h4c1.1 0 2-.9 2-2V2c0-1.1-.9-2-2-2zM9 3.3A2.7 2.7 0 0 1 11.7 6 2.7 2.7 0 0 1 9 8.7 2.7 2.7 0 0 1 6.3 6 2.7 2.7 0 0 1 9 3.3zM15 14H3v-.9c0-2 4-3.1 6-3.1s6 1.1 6 3.1v.9z" fill="#00B8E4"/><path d="M9 3.3A2.7 2.7 0 0 1 11.7 6 2.7 2.7 0 0 1 9 8.7 2.7 2.7 0 0 1 6.3 6 2.7 2.7 0 0 1 9 3.3zM15 14H3v-.9c0-2 4-3.1 6-3.1s6 1.1 6 3.1v.9z" fill="#FFF"/><path d="M-3-2h24v24H-3V-2z"/></g></svg>