<svg width="32" height="32" viewBox="0 0 32 32" xmlns="http://www.w3.org/2000/svg"><title>icon_competitor_fbfs</title><g fill="none" fill-rule="evenodd"><path d="M25.333 2.667H6.667C5.187 2.667 4 3.867 4 5.333V24a2.666 2.666 0 0 0 2.667 2.667H12l4 4 4-4h5.333C26.8 26.667 28 25.467 28 24V5.333c0-1.466-1.2-2.666-2.667-2.666z" stroke="#0074BA" stroke-width=".6" fill="#FFF" fill-rule="nonzero"/><path d="M0 0h32v32H0z"/><path d="M11.024 18.717h-2.9l1.925-7.715h6.892l-.832 3.471h-2.21c-1.422-.012-1.987.87-2.236 1.705l-.639 2.539m9.04-.002c.919 0 1.664-.797 1.664-1.788 0-.99-.745-1.794-1.664-1.794l-.025-.019h-3.49l-.875 3.599 4.39.002m1.043-4.256c.888 0 1.602-.774 1.602-1.73 0-.955-.714-1.729-1.602-1.729l-.012.002H17.53l-.826 3.471h4.377l.025-.014" fill="#221F20"/><path d="M15.954 15.12l-.553 2.236c-.205.76-1 1.36-1.695 1.36l-2.08-.003.577-2.31c.2-.662.67-1.289 1.485-1.289l2.266.006" fill="#EE3123"/><path d="M22.324 18.186c.08 0 .155-.006.155-.116 0-.088-.068-.104-.143-.104H22.2v.22h.124zm-.124.402h-.1v-.714h.255c.155 0 .23.062.23.202 0 .129-.075.184-.168.198l.186.314h-.111l-.174-.31H22.2v.31zm.124.158c.26 0 .466-.218.466-.516 0-.294-.205-.516-.466-.516-.26 0-.472.222-.472.516 0 .298.211.516.472.516zm-.584-.516c0-.356.267-.618.584-.618.31 0 .577.262.577.618 0 .358-.267.62-.577.62-.317 0-.584-.262-.584-.62z" fill="#221F20"/></g></svg>