<svg width="24" height="29" viewBox="0 0 24 29" xmlns="http://www.w3.org/2000/svg"><title>icon_competitor_allstate</title><g fill="none" fill-rule="evenodd"><path d="M21.333.667H2.667C1.187.667 0 1.867 0 3.333V22a2.666 2.666 0 0 0 2.667 2.667H8l4 4 4-4h5.333C22.8 24.667 24 23.467 24 22V3.333C24 1.867 22.8.667 21.333.667z" stroke="#0074BA" stroke-width=".6" fill="#FFF"/><path d="M28-2v32H-4V-2h32z"/><g fill="#0074BA"><path d="M11.885 6C7.047 6 3.11 8.894 3.11 12.453c0 3.557 3.937 6.677 8.775 6.677 4.838 0 8.772-3.12 8.772-6.677 0-3.56-3.934-6.453-8.772-6.453m0 12.69c-4.188 0-7.596-2.912-7.596-6.23 0-3.32 3.4-6.02 7.59-6.02 4.19 0 7.59 2.7 7.59 6.02 0 3.318-3.41 6.23-7.6 6.23"/><path d="M10.21 15.23l.152.148.304.165.287.15.037.02.21.116.358.18h.065l.458-.03c.27-.007.58 0 .78.09.23.112.15.316.15.316s.24-.16.19-.353c-.02-.164-.22-.38-.89-.417-.21-.01-.52.02-.52.02h-.03c0-.004-.3-.19-.3-.19l-.12-.07a68.43 68.43 0 0 1-.415-.21l-.253-.098c0-.008-.225-.31-.225-.31l-.08-.117-.24-.333-.103-.147-.14-.207a.584.584 0 0 0 .12-.387c-.014.03-.03.035-.12.11-.096.077-.377.2-.566.247l-.084.023.996 1.268zm1.103-.484l.045.056c.02.016.303.125.303.125.19.075.45.19.57.262l.33.18c.03.01.36-.02.57 0 .27.02.49.12.6.27.15.2-.03.42-.03.42.04-.02.348-.21.327-.51-.02-.29-.28-.56-1.237-.55l-.265-.15-.076-.05-.43-.21-.346-.118c0-.013-.08-.15-.08-.15-.115-.195-.27-.39-.405-.56l-.04-.05s-.236-.314-.264-.354c.075-.154.01-.38.01-.38s-.04.077-.103.157a1.46 1.46 0 0 1-.36.28l-.066.04.87 1.15.094.125zm.392-2.06a.534.534 0 0 0-.05-.367l-.05.11c-.043.1-.158.22-.337.33l-.053.03.704.97.04.06.13.172c.02.016.29.167.29.167l.1.057.32.186.29.188.02.007.43.027a.96.96 0 0 1 .49.17c.274.19.127.475.127.475s.366-.334.126-.697c-.09-.124-.216-.245-.58-.285l-.448-.06c0-.005-.24-.16-.24-.16l-.318-.19-.085-.048-.26-.11-.67-1.05zM8.782 6.904l.095.094.354.314c0 .002.21.186.21.186.15.14.19.21.18.237 0 .027-.03.04-.06.055a.305.305 0 0 1-.07.024l-.01.13.09-.003c.466-.01.906.3 1.19.56.495.46.867 1.2.95 1.89l.387 1.95.148.3.03.06.06.13c.057.13.14.24.15.25l.2.158.28.277.083.087.13.13c.01.007.405.056.405.056.686.11.656.48.656.48s.405-.61-.567-.82c0 0-.31-.058-.317-.058a2.5 2.5 0 0 0-.106-.153l-.035-.04a48.81 48.81 0 0 0-.3-.286l-.133-.123-.12-.314-.172-.403a4.27 4.27 0 0 1-.11-.595l-.03-.2-.127-.814.03-.16a3.95 3.95 0 0 1 .35-1.01c.215-.43.657-.72.66-.72.33-.198.815-.306 1.07-.354.1-.01.13-.063.15-.12l.01-.033-.03-.006c-.143-.025-.31-.072-.32-.097a.065.065 0 0 1-.007-.03c0-.03.012-.066.05-.117l.21-.193.12-.12.58-.543-.48-.156-.53.53c-.35.368-.743.778-.924.85-.444.18-.898.6-1.078 1 0 0-.08.2-.12.31a2.993 2.993 0 0 0-.533-.958 2.33 2.33 0 0 0-.94-.66 29.564 29.564 0 0 0-1.26-1.09l-.444.14zm1.815 9.824c-.625.308-.97.042-.818-.283.2.133.51.23.81.283zm-1.072-.46c-.426.113-.583-.177-.483-.412.08.09.382.352.483.413zM5.7 8.892c.03.023.115.082.115.082.012.007.54.432.618.495l-.23.61c-.2.48-.4.97-.41 1.36l.002.06.174.87.01.062c.09.454.2.972.25 1.345.01.107.04.17.08.195.26.265.68.8 1.2 1.818l.03.057c.05.14.11.234.18.28.09.056.27.06.39 0a1.42 1.42 0 0 0 .56-.684l.16.205c-.443.743.34 1.02.62.913-.162.45.43.815.99.57.073.296.31.38.54.42.226.048.535.07 1.038.028.757-.06 1.446-.284 1.722-.423a2.878 2.878 0 0 0 1.09-.91l.06-.075c.06.105.124.204.2.28.185.176.36.256.502.23.1-.02.18-.08.232-.19.26-.607.824-1.353 1.27-1.85 0-.004.04-.08.04-.08.098-.357.444-1.236.628-1.71l.13-.34.026-.085a5.54 5.54 0 0 0 .017-.4c0-.61-.093-1.2-.266-1.69-.084-.25-.17-.4-.25-.55l-.095-.17c.124-.18.492-.42.79-.613l.03-.01-.363-.385-.25.17c-.263.172-.53.243-.694.18a7.512 7.512 0 0 1-.24-.13.56.56 0 0 0-.05-.026c-.01 0-.077-.01-.077-.01l-.08.017-.045.01.072.084c.152.18.232.33.344.538l.067.12.062.146c.132.32.252.664.33.998.15.61.22 1.11.225 1.53a.914.914 0 0 1-.004.05l-.203.56c-.21.58-.475 1.3-.535 1.6l-.012.038c-.564.574-.97 1.248-1.14 1.65-.023.055-.042.06-.05.063-.025.003-.092-.056-.13-.087-.14-.126-.225-.383-.214-.657a1.07 1.07 0 0 1 .41-.82c.04-.03.023-.08.014-.115-.07-.38.04-.967.282-1.13l.064-.046-.062-.045c-.693-.52-1.032-1.484-1.06-2.203V11l-.11.043a.67.67 0 0 0-.05.07c-.03.14-.04.284-.04.42 0 .37.072.694.1.81a2.538 2.538 0 0 0 .61 1.11c-.13.16-.187.54-.187.836 0 .09.008.16.02.23a1.21 1.21 0 0 0-.433.86l.01.26a3.485 3.485 0 0 0-.157.19l-.03.04c-.31.41-.526.7-1.04.953-.56.285-1.65.48-2.36.41-.26-.026-.23-.25-.23-.263 0-.03.01-.064.033-.094l.066-.07c.67.072 1.303-.007 1.57-.143.01-.01.09-.124.09-.124l.03-.055-.063.014c-.57.14-1.7-.04-2.296-.29-.663-.273-.866-.53-1.41-1.226l-.15-.193a1.18 1.18 0 0 0-.156-.56 1.005 1.005 0 0 0-.245-.28c.04-.116.062-.28.062-.45 0-.234-.043-.47-.13-.6.406-.306.61-.62.605-.98a1.687 1.687 0 0 0-.1-.432l-.158-.068.014.098c.06.61-.526 1.007-.914 1.27l-.115.076.077.045c.303.185.307.805.24 1.15l-.005.02.016.03.02.01.147.115c.306.4.28 1.02-.056 1.38-.07.07-.106.08-.126.078-.05-.01-.09-.125-.1-.163a8.55 8.55 0 0 1-.095-.19c-.27-.537-.49-.986-1.008-1.58l-.004-.06a19.75 19.75 0 0 0-.35-1.92l-.066-.306-.01-.08c.037-.59.227-1.06.45-1.6l.133-.335.112-.26.02-.04c.13-.18.304-.35.52-.51l.092-.07-.126-.05s-.24.03-.48.146l-.04.02c-.176.08-.38.142-.533.084l-.422-.25-.35.36z"/></g></g></svg>