<svg width="32" height="32" viewBox="0 0 32 32" xmlns="http://www.w3.org/2000/svg" xmlns:xlink="http://www.w3.org/1999/xlink"><title>icon_competitor_american</title><defs><path d="M21.333.667H2.667C1.187.667 0 1.867 0 3.333V22a2.666 2.666 0 0 0 2.667 2.667H8l4 4 4-4h5.333C22.8 24.667 24 23.467 24 22V3.333C24 1.867 22.8.667 21.333.667z" id="a"/></defs><g fill="none" fill-rule="evenodd"><g transform="translate(4 2)"><mask id="b" fill="#fff"><use xlink:href="#a"/></mask><use stroke="#0074BA" stroke-width=".6" fill="#FFF" fill-rule="nonzero" xlink:href="#a"/><path fill="#DD0031" mask="url(#b)" d="M35 7.132H20.765L11.197 5 1 7.47 1.26 9l9.937-2.407 9.434 2.101H35z"/><path mask="url(#b)" d="M-4-2h32v32H-4z"/></g><path d="M12.513 12l2.527 8h-2.054l-.5-1.587h-2.084L9.9 20H8l2.527-8h1.986zm-.508 4.711l-.563-1.779-.56 1.78h1.123zM5 21h23v3H5zm15.212-1H18v-8h5.28v1.7h-3.068v1.333h2.438v1.702h-2.438z" fill="#003DA6"/></g></svg>