<svg width="26" height="29" viewBox="0 0 26 29" xmlns="http://www.w3.org/2000/svg"><title>icon_competitor_independent</title><g transform="translate(-3 -2)" fill="none" fill-rule="evenodd"><path d="M25.333 2.667H6.667C5.187 2.667 4 3.867 4 5.333V24a2.666 2.666 0 0 0 2.667 2.667H12l4 4 4-4h5.333C26.8 26.667 28 25.467 28 24V5.333c0-1.466-1.2-2.666-2.667-2.666z" stroke="#0074BA" stroke-width=".6" fill="#FFF"/><path d="M0 0h32v32H0z"/><path d="M17 23c4.194 0 8-3.806 8-8 0-5.194-3.806-9-8-9-5.194 0-9 3.806-9 9 0 4.194 3.806 8 9 8z" stroke="#FF3D3D" stroke-width="1.2"/><path d="M16.824 20C19.538 20 22 17.538 22 14.824 22 11.462 19.538 9 16.824 9 13.462 9 11 11.462 11 14.824 11 17.538 13.462 20 16.824 20z" stroke="#FF3D3D" stroke-width="1.2"/><circle fill="#FF3D3D" cx="16.5" cy="14.5" r="3.5"/></g></svg>