<svg width="66" height="49" viewBox="0 0 66 49" xmlns="http://www.w3.org/2000/svg"><title>“</title><path d="M65.13 5.882a123.966 123.966 0 0 0-7.782 4.314c-2.4 1.452-4.46 2.89-6.18 4.313-2.017 1.71-3.677 3.55-4.98 5.51-1.305 1.95-2.432 4.47-3.38 7.56h3.824c3.735 0 6.418.92 8.048 2.75s2.446 3.88 2.446 6.13c0 2.843-1.097 5.56-3.29 8.134-2.194 2.58-5.188 3.87-8.983 3.87-4.03 0-7.01-1.13-8.938-3.38-1.926-2.255-2.89-5.22-2.89-8.895 0-4.803 1.038-9.16 3.113-13.074a42.513 42.513 0 0 1 7.826-10.495c3.083-2.963 6.3-5.424 9.65-7.38 3.35-1.95 6.298-3.61 8.848-4.97l2.668 5.6zm-32.905 0a123.966 123.966 0 0 0-7.782 4.314c-2.4 1.452-4.46 2.89-6.18 4.313-2.016 1.71-3.676 3.55-4.98 5.51-1.305 1.95-2.43 4.47-3.38 7.56h3.824c3.735 0 6.418.92 8.048 2.75s2.446 3.88 2.446 6.13c0 2.843-1.09 5.56-3.29 8.134-2.19 2.58-5.18 3.87-8.98 3.87-4.03 0-7.01-1.13-8.93-3.38-1.93-2.25-2.9-5.21-2.9-8.89 0-4.8 1.04-9.16 3.12-13.07a42.513 42.513 0 0 1 7.828-10.49c3.083-2.96 6.3-5.424 9.65-7.38 3.35-1.957 6.3-3.617 8.85-4.98L32.23 5.88z" fill="#FFF" fill-rule="evenodd"/></svg>