<svg xmlns="http://www.w3.org/2000/svg" viewBox="0 0 338.51 55.88"><defs><style>.cls-1,.cls-2{fill:#001b54}.cls-2{fill-rule:evenodd}</style></defs><title>genericLogo</title><g id="Layer_2" data-name="Layer 2"><g id="Layer_1-2" data-name="Layer 1"><path class="cls-1" d="M85.35 42.52a7.37 7.37 0 0 1-2.7.46v1q2.47-.15 7.59-.15 4.59 0 7.59.15V43a2.74 2.74 0 0 1-1.66-.79 6.3 6.3 0 0 1-1.49-2.4L82.56 8.49q-.76.07-1.73.07t-1.73-.07L67.69 37.74q-1.81 4.83-4.3 5.25v1q1.52-.15 3.81-.15 2.84 0 6.2.15V43a6.43 6.43 0 0 1-3.32-.81 2.87 2.87 0 0 1-1.08-2.6A16.53 16.53 0 0 1 70.35 34l1.32-3.44h10.89l3 8.2a7.63 7.63 0 0 1 .61 2.37 1.39 1.39 0 0 1-.82 1.39zM72.06 29.58l5.18-13.5 5 13.5z"/><path class="cls-2" d="M99.49 47a2.22 2.22 0 0 0-1 2 2.82 2.82 0 0 0 1.22 2.22 9.37 9.37 0 0 0 3.7 1.55 27.77 27.77 0 0 0 6.14.57 18.69 18.69 0 0 0 8-1.54 11.64 11.64 0 0 0 4.88-3.94 8.81 8.81 0 0 0 1.61-5 4.57 4.57 0 0 0-1.87-4.09 8.56 8.56 0 0 0-4.87-1.26h-11.57q-2 0-2-1.66a2.13 2.13 0 0 1 .7-1.56 10.78 10.78 0 0 1 2.14-1.51 17.77 17.77 0 0 0 4.32.49 16.44 16.44 0 0 0 5.57-.87 8.13 8.13 0 0 0 3.8-2.65 7.05 7.05 0 0 0 1.38-4.44 6.93 6.93 0 0 0-1.68-4.82 9.11 9.11 0 0 0-4.66-2.62v-1.54a6.9 6.9 0 0 1 .76-2.56 4.51 4.51 0 0 0 1.32 2.1 3.61 3.61 0 0 0 2.37.71 3.76 3.76 0 0 0 2.48-.82 2.59 2.59 0 0 0 1-2.09 2.71 2.71 0 0 0-1-2.21 4 4 0 0 0-2.63-.84 4.32 4.32 0 0 0-3.32 1.26 5.72 5.72 0 0 0-1.42 3.33 9.25 9.25 0 0 0-.19 2.52 18.94 18.94 0 0 0-3.71-.34 13.68 13.68 0 0 0-7.8 2 6.7 6.7 0 0 0-2.94 5.94 7 7 0 0 0 1.44 4.53 8.51 8.51 0 0 0 4 2.67 21.32 21.32 0 0 0-3.73 2.19 6.84 6.84 0 0 0-2 2.22 5.57 5.57 0 0 0-.6 2.6 3.82 3.82 0 0 0 1.67 3.69 7.63 7.63 0 0 0 3.83 1H106a12.37 12.37 0 0 1-3.25 1.42A14.52 14.52 0 0 0 99.49 47zm8.9-27.1a2.74 2.74 0 0 1 5 0 12.65 12.65 0 0 1 .84 5.44 12.64 12.64 0 0 1-.84 5.44 2.74 2.74 0 0 1-5 0 12.48 12.48 0 0 1-.85-5.44 12.49 12.49 0 0 1 .85-5.4zm-2.67 26.22a5.22 5.22 0 0 1 1.28-1.89h8.57a3.72 3.72 0 0 1 2.27.51 1.92 1.92 0 0 1 .64 1.59 5.43 5.43 0 0 1-1 3.3 6.55 6.55 0 0 1-2.78 2.16 9.52 9.52 0 0 1-3.77.74 6.85 6.85 0 0 1-4-1.11 3.66 3.66 0 0 1-1.57-3.19 5.75 5.75 0 0 1 .35-2.07zm42.41-17.59q0-11.08-9.4-11.08a12.73 12.73 0 0 0-6.37 1.55 10.74 10.74 0 0 0-4.36 4.69 16.94 16.94 0 0 0-1.56 7.65 17 17 0 0 0 1.45 7.43 9.91 9.91 0 0 0 4.11 4.46 12.11 12.11 0 0 0 6 1.46 9.56 9.56 0 0 0 4.65-1.11 10.36 10.36 0 0 0 3.35-2.87 12.46 12.46 0 0 0 2-3.82l-.88-.29q-2.49 4-6.62 4a5.5 5.5 0 0 1-3.16-1 7.12 7.12 0 0 1-2.4-3.2 14.16 14.16 0 0 1-.93-5.5q0-1.61.07-2.34zm-14.13-1a17.3 17.3 0 0 1 1.45-6.87q1.18-2.21 3-2.21t2.55 2.64a19.58 19.58 0 0 1 .79 6.49zm19.62 13.99a1.91 1.91 0 0 1-1 1.1 4.65 4.65 0 0 1-1.89.32v1q5.37-.2 6.91-.2t6.2.2v-1a3.34 3.34 0 0 1-1.59-.32 1.87 1.87 0 0 1-.86-1.1 7 7 0 0 1-.27-2.17V25.44a6.55 6.55 0 0 1 .66-2.94 5.24 5.24 0 0 1 1.79-2.09 4.42 4.42 0 0 1 2.5-.76 2.66 2.66 0 0 1 2.43 1 5.82 5.82 0 0 1 .67 3.1v15.6a7.28 7.28 0 0 1-.26 2.17 1.82 1.82 0 0 1-.84 1.1 3.41 3.41 0 0 1-1.61.32v1q5-.2 6.52-.2t6.59.2v-1a4.55 4.55 0 0 1-1.88-.32 2 2 0 0 1-1-1.1 5.93 5.93 0 0 1-.32-2.17V25.9a17.93 17.93 0 0 0-.37-4.05 5.76 5.76 0 0 0-1.2-2.47 5.21 5.21 0 0 0-2.14-1.44 9.77 9.77 0 0 0-3.36-.49q-5.93 0-8.2 4.64V17.6a32.36 32.36 0 0 1-7.3.68c-1 0-2 0-3.1-.15v1.05a2.8 2.8 0 0 1 2.49 1 6.1 6.1 0 0 1 .71 3.36v15.81a6.19 6.19 0 0 1-.28 2.17zm42.95-20.19a3.86 3.86 0 0 0-1 2.61 3.56 3.56 0 0 0 1 2.69 4.3 4.3 0 0 0 5.64-.11 3.91 3.91 0 0 0 1.11-2.89 5.15 5.15 0 0 0-.72-2.67 6 6 0 0 0-2-2 9.83 9.83 0 0 0-2.76-1.09 14.59 14.59 0 0 0-3.49-.4A12.83 12.83 0 0 0 188 19a11 11 0 0 0-4.39 4.66A16.18 16.18 0 0 0 182 31.2a16.66 16.66 0 0 0 1.53 7.54 10.23 10.23 0 0 0 4.15 4.49 12 12 0 0 0 6 1.47 9.52 9.52 0 0 0 4.74-1.14 9.89 9.89 0 0 0 3.3-2.93 13.55 13.55 0 0 0 1.9-3.84l-.83-.29a8.27 8.27 0 0 1-3.12 3.16 7.5 7.5 0 0 1-3.44.89 6 6 0 0 1-3.3-1 6.65 6.65 0 0 1-2.42-3.2 15.72 15.72 0 0 1-.93-5.91 23.23 23.23 0 0 1 .73-6.12 9.83 9.83 0 0 1 2.16-4.2 4.56 4.56 0 0 1 3.45-1.53 4.73 4.73 0 0 1 1.8.33 2.66 2.66 0 0 1 1.21.87 4.74 4.74 0 0 0-2.36 1.54zm16.62 29.73a3.13 3.13 0 0 0 .67-1.92 2.8 2.8 0 0 0-1-2.32 4.22 4.22 0 0 0-2.76-.82 4.35 4.35 0 0 0-2.91.93 3.06 3.06 0 0 0-1.1 2.47 3.22 3.22 0 0 0 .82 2.25A4.82 4.82 0 0 0 209 53a7.9 7.9 0 0 0 2.55.43 6.6 6.6 0 0 0 4.37-1.25 8.37 8.37 0 0 0 2.2-3.56L227 23.43a9.67 9.67 0 0 1 1.58-3.05 3.73 3.73 0 0 1 1.89-1.25v-1a38.17 38.17 0 0 1-3.86.15q-2.51 0-4.86-.15v1a4.09 4.09 0 0 1 2.73 1.11 3.94 3.94 0 0 1 1 2.89 13 13 0 0 1-.81 4l-3.42 9.62-6.1-14.75a3.83 3.83 0 0 1-.34-1.42 1.07 1.07 0 0 1 .43-1 2.31 2.31 0 0 1 1-.37 15.19 15.19 0 0 1 1.68-.07v-1q-4 .29-7 .29-3.57 0-6.86-.29v1.05a2.7 2.7 0 0 1 1.55.54 5.62 5.62 0 0 1 1.63 2.27l10.62 24.1-.8 2.39q-1.44 4-4.57 4a9.66 9.66 0 0 1-1.15 0 4 4 0 0 0 1.85-1.43zm23.43-9.63a1.87 1.87 0 0 1-1.12 1.17 8.9 8.9 0 0 1-2.63.39v1q4.91-.14 14.5-.15 8.06 0 11.45.15-.34-3.56-.34-6.4 0-2.54.15-4.1h-1.15a24.34 24.34 0 0 1-1.11 5.66A5.06 5.06 0 0 1 254 42a10.22 10.22 0 0 1-4.75.88h-3.66a8.44 8.44 0 0 1-2.62-.29 1.79 1.79 0 0 1-1.12-1.14 8.68 8.68 0 0 1-.31-2.72V13.89a8.82 8.82 0 0 1 .31-2.73A1.87 1.87 0 0 1 243 10a8.88 8.88 0 0 1 2.62-.39v-1q-2.29.15-6.35.15-4.33 0-6.4-.15v1a8.9 8.9 0 0 1 2.63.39 1.87 1.87 0 0 1 1.12 1.17 8.81 8.81 0 0 1 .31 2.73v24.8a8.82 8.82 0 0 1-.31 2.73zM268 43.27a12.67 12.67 0 0 0 11.7 0 9.88 9.88 0 0 0 4-4.45 17.48 17.48 0 0 0 1.48-7.67 17.56 17.56 0 0 0-1.48-7.68 10 10 0 0 0-4-4.48A12.58 12.58 0 0 0 268 19a9.92 9.92 0 0 0-4 4.48 17.5 17.5 0 0 0-1.48 7.68 17.42 17.42 0 0 0 1.48 7.65 9.85 9.85 0 0 0 4 4.46zm1.1-21.64a5.2 5.2 0 0 1 9.5 0q1.75 3.07 1.75 9.52t-1.75 9.48a5.21 5.21 0 0 1-9.5 0q-1.75-3.06-1.75-9.48t1.77-9.52zm19.42 27.17a3 3 0 0 0 1.42 2.5 10 10 0 0 0 3.72 1.56 22.14 22.14 0 0 0 4.92.52 17.34 17.34 0 0 0 7.73-1.56A11.6 11.6 0 0 0 311 47.9a8.64 8.64 0 0 0 1.55-4.76 4 4 0 0 0-1.62-3.54 7.42 7.42 0 0 0-4.24-1.1H295a3.12 3.12 0 0 1-1.83-.42 1.45 1.45 0 0 1-.56-1.24 2.59 2.59 0 0 1 1.09-2 18.21 18.21 0 0 1 3.11-2 13.65 13.65 0 0 0 3.69.46 12.49 12.49 0 0 0 4.79-.85 7.12 7.12 0 0 0 3.27-2.62 7.74 7.74 0 0 0 1.2-4.43 7.71 7.71 0 0 0-1.27-4.55 7.24 7.24 0 0 0-3.54-2.63 12.48 12.48 0 0 1 .51-2.07 5.91 5.91 0 0 1 1.34-2.44 5.68 5.68 0 0 0 .83 2.38 2.11 2.11 0 0 0 1.83.77 2.34 2.34 0 0 0 2.39-2.39 2.63 2.63 0 0 0-.69-1.88 2.56 2.56 0 0 0-1.94-.73 4.21 4.21 0 0 0-3.42 1.66A10.12 10.12 0 0 0 304 18a13.22 13.22 0 0 0-3.54-.44 10.62 10.62 0 0 0-6.7 2 7 7 0 0 0-2.53 5.92 7.77 7.77 0 0 0 1.22 4.49 7.17 7.17 0 0 0 3.42 2.64 15.06 15.06 0 0 0-4.87 3.03 4.75 4.75 0 0 0-1.42 3.25 3.07 3.07 0 0 0 1.55 3 7.39 7.39 0 0 0 3.45.8h.17a17.21 17.21 0 0 0-4.48 2.8 4.51 4.51 0 0 0-1.75 3.31zm8.55-28.8a4.41 4.41 0 0 1 6.79 0q1.14 1.6 1.14 5.43t-1.16 5.42a4.41 4.41 0 0 1-6.79 0q-1.16-1.6-1.16-5.41t1.18-5.44zm-3.56 24.89a6.35 6.35 0 0 1 2.5-2.22h9.3a6.94 6.94 0 0 1 2.32.31 2.05 2.05 0 0 1 1.16.9 3.24 3.24 0 0 1 .33 1.58 5.75 5.75 0 0 1-1.37 3.87 8.34 8.34 0 0 1-3.49 2.39 12.32 12.32 0 0 1-4.35.79 11.89 11.89 0 0 1-3.47-.51 6.49 6.49 0 0 1-2.76-1.59 3.64 3.64 0 0 1-1.08-2.69 5.2 5.2 0 0 1 .91-2.8zM333 19a12.58 12.58 0 0 0-11.7 0 9.92 9.92 0 0 0-4 4.48 17.5 17.5 0 0 0-1.48 7.68 17.42 17.42 0 0 0 1.48 7.67 9.85 9.85 0 0 0 4 4.45 12.67 12.67 0 0 0 11.7 0 9.88 9.88 0 0 0 4-4.45 17.48 17.48 0 0 0 1.48-7.67 17.56 17.56 0 0 0-1.48-7.69 10 10 0 0 0-4-4.47zm-1.1 21.64a5.21 5.21 0 0 1-9.5 0q-1.75-3.06-1.75-9.48t1.75-9.52a5.2 5.2 0 0 1 9.5 0q1.75 3.07 1.75 9.52t-1.74 9.47z"/><path class="cls-1" d="M4.49 43.11C9.65 48.6 16 52.39 22.69 55.67a2.87 2.87 0 0 0 2.19 0 67.81 67.81 0 0 0 16.18-10.49c4.39-3.92 6.87-8.52 6.65-14.72-.33-9.33-.09-18.69-.09-28 0-2.46 0-2.46-2.47-2.46H2C.58 0 0 .34 0 1.91c.09 10.14.18 20.28 0 30.42a14.74 14.74 0 0 0 4.49 10.78zM3.42 5.33c0-1.34.39-1.78 1.72-1.78q18.53.06 37.05 0c1.45 0 2 .39 1.93 2-.13 3.51 0 7 0 10.54V18a13.64 13.64 0 0 1-1.47-.65A11.32 11.32 0 0 0 33 16a12.14 12.14 0 0 1-3.49.32c-3.39-.05-6.72.17-9.46 2.47A16.67 16.67 0 0 0 18 21.37l7 .76a2.15 2.15 0 0 1 .65.19C30.4 24.55 32.45 28 29 33c-3.22 4.61-7.7 7.79-12.28 10.83-3.64 2.42-3.71 2.37-7-.57a44.18 44.18 0 0 1-3.45-3.5A10.93 10.93 0 0 1 3.41 32c.1-8.88.06-17.78.01-26.67z"/><path class="cls-2" d="M18.83 39.08c.42.25 1.24.42 1.53.19 1.92-1.53 3.74-3.18 5.88-5a42.39 42.39 0 0 1-20.5-22.09l-.44.21a2.19 2.19 0 0 0-.18.61c0 4.3 0 8.61.05 12.91a3.31 3.31 0 0 0 .7 1.84 47.19 47.19 0 0 0 12.96 11.33zm-6.31 4.48a1.33 1.33 0 0 0 1.21.26C15.22 42.95 16.65 42 18 41L5.23 30.2c-.14 2.43-.58 4.85 1 6.77 1.93 2.34 4.15 4.44 6.29 6.59z"/></g></g></svg>