<?xml version="1.0" encoding="utf-8"?>
<!-- Generator: Adobe Illustrator 23.0.6, SVG Export Plug-In . SVG Version: 6.00 Build 0)  -->
<svg version="1.1" id="Layer_1" xmlns="http://www.w3.org/2000/svg" xmlns:xlink="http://www.w3.org/1999/xlink" x="0px" y="0px"
	 viewBox="0 0 338.5 55.9" style="enable-background:new 0 0 338.5 55.9;" xml:space="preserve">
<style type="text/css">
	.st0{fill:#FFFFFF;}
	.st1{fill-rule:evenodd;clip-rule:evenodd;fill:#FFFFFF;}
</style>
<title>genericLogo</title>
<g>
	<g id="Layer_1-2">
		<path class="st0" d="M85.3,42.5c-0.9,0.3-1.8,0.5-2.7,0.5v1c1.6-0.1,4.2-0.2,7.6-0.2c3.1,0,5.6,0.1,7.6,0.2v-1
			c-0.6-0.1-1.2-0.3-1.7-0.8c-0.7-0.7-1.2-1.5-1.5-2.4L82.6,8.5c-0.5,0-1.1,0.1-1.7,0.1s-1.2,0-1.7-0.1L67.7,37.7
			c-1.2,3.2-2.6,5-4.3,5.2v1c1-0.1,2.3-0.2,3.8-0.2c1.9,0,4,0,6.2,0.2v-1c-1.2,0-2.3-0.2-3.3-0.8c-0.8-0.6-1.2-1.6-1.1-2.6
			c0.1-1.9,0.6-3.8,1.3-5.6l1.3-3.4h10.9l3,8.2c0.3,0.8,0.5,1.6,0.6,2.4C86.2,41.7,85.9,42.3,85.3,42.5z M72.1,29.6l5.2-13.5l5,13.5
			H72.1z"/>
		<path class="st1" d="M99.5,47c-0.7,0.4-1.1,1.2-1,2c0,0.9,0.5,1.7,1.2,2.2c1.1,0.8,2.4,1.3,3.7,1.5c2,0.4,4.1,0.6,6.1,0.6
			c2.7,0.1,5.5-0.4,8-1.5c2-0.8,3.6-2.2,4.9-3.9c1-1.5,1.6-3.2,1.6-5c0.1-1.6-0.6-3.1-1.9-4.1c-1.5-0.9-3.2-1.3-4.9-1.3h-11.6
			c-1.3,0-2-0.6-2-1.7c0-0.6,0.3-1.2,0.7-1.6c0.6-0.6,1.4-1.1,2.1-1.5c1.4,0.3,2.9,0.5,4.3,0.5c1.9,0,3.8-0.3,5.6-0.9
			c1.5-0.5,2.8-1.4,3.8-2.6c0.9-1.3,1.4-2.8,1.4-4.4c0.1-1.8-0.5-3.5-1.7-4.8c-1.3-1.3-2.9-2.2-4.7-2.6v-1.5
			c0.1-0.9,0.3-1.8,0.8-2.6c0.2,0.8,0.7,1.5,1.3,2.1c0.7,0.5,1.5,0.8,2.4,0.7c0.9,0,1.8-0.3,2.5-0.8c0.6-0.5,1-1.3,1-2.1
			c0-0.9-0.3-1.7-1-2.2c-0.7-0.6-1.7-0.9-2.6-0.8c-1.2-0.1-2.4,0.4-3.3,1.3c-0.8,0.9-1.3,2.1-1.4,3.3c-0.2,0.8-0.2,1.7-0.2,2.5
			c-1.2-0.2-2.5-0.3-3.7-0.3c-2.7-0.1-5.5,0.6-7.8,2c-2,1.3-3.1,3.6-2.9,5.9c-0.1,1.6,0.4,3.2,1.4,4.5c1,1.3,2.4,2.2,4,2.7
			c-1.3,0.6-2.6,1.3-3.7,2.2c-0.8,0.6-1.5,1.3-2,2.2c-0.4,0.8-0.6,1.7-0.6,2.6c-0.2,1.4,0.5,2.9,1.7,3.7c1.2,0.7,2.5,1,3.8,1h1.2
			c-1,0.6-2.1,1.1-3.2,1.4C101.6,46,100.5,46.4,99.5,47z M108.4,19.9c0.6-1.4,2.2-2,3.6-1.4c0.6,0.3,1.1,0.8,1.4,1.4
			c0.7,1.7,1,3.6,0.8,5.4c0.1,1.9-0.2,3.7-0.8,5.4c-0.6,1.4-2.2,2-3.6,1.4c-0.6-0.3-1.1-0.8-1.4-1.4c-0.7-1.7-1-3.6-0.8-5.4
			C107.4,23.5,107.7,21.7,108.4,19.9L108.4,19.9z M105.7,46.1c0.3-0.7,0.7-1.4,1.3-1.9h8.6c0.8-0.1,1.6,0.1,2.3,0.5
			c0.5,0.4,0.7,1,0.6,1.6c0,1.2-0.3,2.3-1,3.3c-0.7,1-1.7,1.7-2.8,2.2c-1.2,0.5-2.5,0.8-3.8,0.7c-1.4,0.1-2.8-0.3-4-1.1
			c-1-0.7-1.6-1.9-1.6-3.2C105.3,47.5,105.5,46.8,105.7,46.1L105.7,46.1z M148.1,28.5c0-7.4-3.1-11.1-9.4-11.1
			c-2.2,0-4.4,0.5-6.4,1.5c-1.9,1.1-3.4,2.7-4.4,4.7c-1.1,2.4-1.6,5-1.6,7.6c-0.1,2.6,0.4,5.1,1.4,7.4c0.9,1.9,2.3,3.4,4.1,4.5
			c1.8,1,3.9,1.5,6,1.5c1.6,0,3.2-0.4,4.6-1.1c1.3-0.7,2.5-1.7,3.4-2.9c0.9-1.1,1.6-2.4,2-3.8l-0.9-0.3c-1.7,2.7-3.9,4-6.6,4
			c-1.1,0-2.2-0.3-3.2-1c-1.1-0.8-1.9-1.9-2.4-3.2c-0.7-1.8-1-3.6-0.9-5.5c0-1.1,0-1.9,0.1-2.3L148.1,28.5z M134,27.5
			c0-2.4,0.5-4.7,1.4-6.9c0.8-1.5,1.8-2.2,3-2.2c1.2,0,2.1,0.9,2.6,2.6c0.6,2.1,0.9,4.3,0.8,6.5L134,27.5z M153.6,41.5
			c-0.2,0.5-0.5,0.9-1,1.1c-0.6,0.2-1.2,0.3-1.9,0.3v1c3.6-0.1,5.9-0.2,6.9-0.2s3.1,0.1,6.2,0.2v-1c-0.5,0-1.1-0.1-1.6-0.3
			c-0.4-0.2-0.7-0.6-0.9-1.1c-0.2-0.7-0.3-1.4-0.3-2.2V25.4c0-1,0.2-2,0.7-2.9c0.4-0.8,1-1.6,1.8-2.1c0.7-0.5,1.6-0.8,2.5-0.8
			c0.9-0.1,1.9,0.3,2.4,1c0.5,1,0.7,2,0.7,3.1v15.6c0,0.7-0.1,1.5-0.3,2.2c-0.1,0.5-0.4,0.9-0.8,1.1c-0.5,0.2-1.1,0.3-1.6,0.3v1
			c3.3-0.1,5.5-0.2,6.5-0.2s3.2,0.1,6.6,0.2v-1c-0.6,0-1.3-0.1-1.9-0.3c-0.5-0.2-0.8-0.6-1-1.1c-0.2-0.7-0.3-1.4-0.3-2.2V25.9
			c0-1.4-0.1-2.7-0.4-4.1c-0.2-0.9-0.6-1.8-1.2-2.5c-0.6-0.7-1.3-1.1-2.1-1.4c-1.1-0.4-2.2-0.5-3.4-0.5c-4,0-6.7,1.5-8.2,4.6v-4.5
			c-2.4,0.5-4.8,0.7-7.3,0.7c-1,0-2,0-3.1-0.1v1c0.9-0.1,1.9,0.3,2.5,1c0.6,1,0.8,2.2,0.7,3.4v15.8
			C153.9,40.1,153.8,40.8,153.6,41.5z M196.6,21.3c-0.6,0.7-1,1.6-1,2.6c-0.1,1,0.3,2,1,2.7c1.6,1.4,4.1,1.3,5.6-0.1
			c0.8-0.8,1.2-1.8,1.1-2.9c0-0.9-0.2-1.9-0.7-2.7c-0.5-0.8-1.2-1.5-2-2c-0.9-0.5-1.8-0.9-2.8-1.1c-1.1-0.3-2.3-0.4-3.5-0.4
			c-2.2,0-4.4,0.5-6.3,1.5c-1.9,1.1-3.4,2.7-4.4,4.7c-1.1,2.3-1.7,4.9-1.6,7.5c-0.1,2.6,0.4,5.2,1.5,7.5c0.9,1.9,2.3,3.5,4.1,4.5
			c1.8,1,3.9,1.5,6,1.5c1.7,0,3.3-0.4,4.7-1.1c1.3-0.7,2.4-1.7,3.3-2.9c0.8-1.2,1.5-2.5,1.9-3.8l-0.8-0.3c-0.7,1.3-1.8,2.4-3.1,3.2
			c-1.1,0.6-2.2,0.9-3.4,0.9c-1.2,0-2.3-0.4-3.3-1c-1.1-0.8-2-1.9-2.4-3.2c-0.7-1.9-1-3.9-0.9-5.9c0-2.1,0.2-4.1,0.7-6.1
			c0.4-1.6,1.1-3,2.2-4.2c0.9-1,2.1-1.5,3.4-1.5c0.6,0,1.2,0.1,1.8,0.3c0.5,0.2,0.9,0.5,1.2,0.9C198,20.1,197.2,20.6,196.6,21.3
			L196.6,21.3z M213.2,51.1c0.4-0.5,0.7-1.2,0.7-1.9c0.1-0.9-0.3-1.7-1-2.3c-0.8-0.6-1.8-0.9-2.8-0.8c-1.1-0.1-2.1,0.3-2.9,0.9
			c-0.7,0.6-1.1,1.5-1.1,2.5c0,0.8,0.3,1.6,0.8,2.2c0.6,0.6,1.3,1.1,2.1,1.3c0.8,0.3,1.7,0.4,2.6,0.4c1.6,0.1,3.1-0.3,4.4-1.2
			c1-1,1.8-2.2,2.2-3.6l8.9-25.2c0.3-1.1,0.9-2.1,1.6-3c0.5-0.6,1.1-1,1.9-1.2v-1c-1.3,0.1-2.6,0.2-3.9,0.1c-1.7,0-3.3,0-4.9-0.1v1
			c1,0,2,0.4,2.7,1.1c0.7,0.8,1.1,1.8,1,2.9c-0.1,1.4-0.3,2.7-0.8,4l-3.4,9.6L215.1,22c-0.2-0.4-0.3-0.9-0.3-1.4
			c0-0.4,0.1-0.8,0.4-1c0.3-0.2,0.6-0.3,1-0.4c0.6-0.1,1.1-0.1,1.7-0.1v-1c-2.7,0.2-5,0.3-7,0.3c-2.4,0-4.7-0.1-6.9-0.3v1
			c0.6,0,1.1,0.2,1.6,0.5c0.7,0.6,1.3,1.4,1.6,2.3l10.6,24.1l-0.8,2.4c-1,2.7-2.5,4-4.6,4c-0.4,0-0.8,0-1.1,0
			C212.1,52.2,212.7,51.7,213.2,51.1z M236.6,41.4c-0.2,0.5-0.6,1-1.1,1.2c-0.9,0.3-1.7,0.4-2.6,0.4v1c3.3-0.1,8.1-0.1,14.5-0.2
			c5.4,0,9.2,0.1,11.5,0.2c-0.2-2.4-0.3-4.5-0.3-6.4c0-1.7,0-3.1,0.1-4.1h-1.1c-0.1,1.9-0.5,3.8-1.1,5.7c-0.4,1.2-1.2,2.2-2.4,2.9
			c-1.5,0.7-3.1,1-4.8,0.9h-3.7c-0.9,0-1.8-0.1-2.6-0.3c-0.5-0.2-0.9-0.6-1.1-1.1c-0.2-0.9-0.4-1.8-0.3-2.7V13.9
			c0-0.9,0.1-1.8,0.3-2.7c0.2-0.5,0.6-1,1.1-1.2c0.8-0.3,1.7-0.4,2.6-0.4v-1c-1.5,0.1-3.6,0.1-6.4,0.1c-2.9,0-5-0.1-6.4-0.1v1
			c0.9,0,1.8,0.1,2.6,0.4c0.5,0.2,0.9,0.6,1.1,1.2c0.2,0.9,0.4,1.8,0.3,2.7v24.8C237,39.6,236.9,40.5,236.6,41.4z M268,43.3
			c3.7,1.9,8,1.9,11.7,0c1.8-1,3.2-2.6,4-4.5c1.1-2.4,1.6-5,1.5-7.7c0.1-2.6-0.4-5.3-1.5-7.7c-0.8-1.9-2.2-3.4-4-4.5
			c-3.7-1.9-8-1.9-11.7,0c-1.8,1-3.2,2.6-4,4.5c-1.1,2.4-1.6,5-1.5,7.7c-0.1,2.6,0.4,5.2,1.5,7.7C264.8,40.7,266.2,42.2,268,43.3z
			 M269.1,21.6c1.2-2.6,4.2-3.8,6.9-2.6c1.2,0.5,2.1,1.5,2.6,2.6c1.2,2,1.8,5.2,1.8,9.5s-0.6,7.5-1.8,9.5c-1.2,2.6-4.3,3.8-6.9,2.6
			c-1.2-0.5-2.1-1.5-2.6-2.6c-1.2-2-1.8-5.2-1.8-9.5S267.9,23.7,269.1,21.6L269.1,21.6z M288.5,48.8c0,1,0.6,2,1.4,2.5
			c1.1,0.8,2.4,1.3,3.7,1.6c1.6,0.4,3.3,0.5,4.9,0.5c2.7,0.1,5.3-0.5,7.7-1.6c1.9-0.9,3.5-2.2,4.7-3.9c1-1.4,1.5-3.1,1.5-4.8
			c0.1-1.4-0.5-2.7-1.6-3.5c-1.3-0.8-2.7-1.2-4.2-1.1H295c-0.6,0.1-1.3-0.1-1.8-0.4c-0.4-0.3-0.6-0.8-0.6-1.2c0-0.8,0.4-1.5,1.1-2
			c1-0.8,2-1.4,3.1-2c1.2,0.3,2.4,0.5,3.7,0.5c1.6,0,3.3-0.3,4.8-0.8c1.3-0.5,2.5-1.4,3.3-2.6c0.8-1.3,1.3-2.9,1.2-4.4
			c0.1-1.6-0.4-3.2-1.3-4.5c-0.9-1.2-2.1-2.1-3.5-2.6c0.1-0.7,0.3-1.4,0.5-2.1c0.2-0.9,0.7-1.7,1.3-2.4c0.1,0.8,0.4,1.7,0.8,2.4
			c0.4,0.5,1.1,0.8,1.8,0.8c1.3,0,2.4-1,2.4-2.3c0,0,0-0.1,0-0.1c0-0.7-0.2-1.4-0.7-1.9c-0.5-0.5-1.2-0.8-1.9-0.7
			c-1.3,0-2.6,0.6-3.4,1.7c-1,1.3-1.6,2.9-1.8,4.5c-1.2-0.3-2.3-0.5-3.5-0.4c-2.4-0.1-4.8,0.6-6.7,2c-1.8,1.4-2.7,3.7-2.5,5.9
			c-0.1,1.6,0.4,3.2,1.2,4.5c0.8,1.2,2,2.1,3.4,2.6c-1.8,0.7-3.5,1.7-4.9,3c-0.9,0.9-1.4,2-1.4,3.2c-0.1,1.2,0.5,2.4,1.5,3
			c1.1,0.5,2.3,0.8,3.5,0.8h0.2c-1.6,0.7-3.1,1.6-4.5,2.8C289.2,46.3,288.6,47.5,288.5,48.8L288.5,48.8z M297.1,20
			c1.6-1.9,4.3-2.1,6.2-0.6c0.2,0.2,0.4,0.4,0.6,0.6c0.8,1.1,1.1,2.9,1.1,5.4s-0.4,4.4-1.2,5.4c-1.6,1.9-4.3,2.1-6.2,0.6
			c-0.2-0.2-0.4-0.4-0.6-0.6c-0.8-1.1-1.2-2.9-1.2-5.4S296.3,21.1,297.1,20z M293.5,44.9c0.6-1,1.5-1.7,2.5-2.2h9.3
			c0.8,0,1.6,0.1,2.3,0.3c0.5,0.1,0.9,0.5,1.2,0.9c0.2,0.5,0.4,1,0.3,1.6c0,1.4-0.5,2.8-1.4,3.9c-0.9,1.1-2.1,1.9-3.5,2.4
			c-1.4,0.5-2.9,0.8-4.4,0.8c-1.2,0-2.3-0.2-3.5-0.5c-1-0.3-2-0.8-2.8-1.6c-0.7-0.7-1.1-1.7-1.1-2.7
			C292.6,46.7,292.9,45.7,293.5,44.9L293.5,44.9z M333,19c-3.7-1.9-8-1.9-11.7,0c-1.8,1-3.2,2.6-4,4.5c-1.1,2.4-1.6,5-1.5,7.7
			c-0.1,2.6,0.4,5.3,1.5,7.7c0.8,1.9,2.2,3.4,4,4.5c3.7,1.9,8,1.9,11.7,0c1.8-1,3.2-2.6,4-4.5c1.1-2.4,1.6-5,1.5-7.7
			c0.1-2.6-0.4-5.3-1.5-7.7C336.2,21.6,334.8,20,333,19z M331.9,40.6c-1.2,2.6-4.3,3.8-6.9,2.6c-1.2-0.5-2.1-1.5-2.6-2.6
			c-1.2-2-1.8-5.2-1.8-9.5s0.6-7.5,1.8-9.5c1.2-2.6,4.2-3.8,6.9-2.6c1.2,0.5,2.1,1.5,2.6,2.6c1.2,2,1.8,5.2,1.8,9.5
			S333.1,38.6,331.9,40.6L331.9,40.6z"/>
		<path class="st0" d="M4.5,43.1c5.2,5.5,11.5,9.3,18.2,12.6c0.7,0.3,1.5,0.3,2.2,0c5.9-2.7,11.3-6.2,16.2-10.5
			c4.4-3.9,6.9-8.5,6.7-14.7c-0.3-9.3-0.1-18.7-0.1-28c0-2.5,0-2.5-2.5-2.5H2C0.6,0,0,0.3,0,1.9c0.1,10.1,0.2,20.3,0,30.4
			C-0.1,36.4,1.6,40.3,4.5,43.1z M3.4,5.3c0-1.3,0.4-1.8,1.7-1.8c12.4,0,24.7,0,37,0c1.5,0,2,0.4,1.9,2c-0.1,3.5,0,7,0,10.5V18
			c-0.5-0.2-1-0.4-1.5-0.6C39.8,15.5,36.3,15,33,16c-1.1,0.3-2.3,0.4-3.5,0.3c-3.4,0-6.7,0.2-9.5,2.5c-0.8,0.8-1.5,1.7-2,2.6l7,0.8
			c0.2,0,0.4,0.1,0.6,0.2C30.4,24.5,32.5,28,29,33c-3.2,4.6-7.7,7.8-12.3,10.8c-3.6,2.4-3.7,2.4-7-0.6c-1.2-1.1-2.4-2.3-3.4-3.5
			c-1.9-2.1-3-4.9-2.9-7.8C3.5,23.1,3.5,14.2,3.4,5.3z"/>
		<path class="st1" d="M18.8,39.1c0.4,0.2,1.2,0.4,1.5,0.2c1.9-1.5,3.7-3.2,5.9-5C16.9,29.7,9.6,21.8,5.7,12.2l-0.4,0.2
			c-0.1,0.2-0.2,0.4-0.2,0.6c0,4.3,0,8.6,0.1,12.9c0,0.7,0.3,1.3,0.7,1.8C9.5,32.3,13.9,36.1,18.8,39.1z M12.5,43.6
			c0.3,0.3,0.8,0.4,1.2,0.3C15.2,43,16.6,42,18,41L5.2,30.2c-0.1,2.4-0.6,4.8,1,6.8C8.2,39.3,10.4,41.4,12.5,43.6z"/>
	</g>
</g>
</svg>
