<svg xmlns="http://www.w3.org/2000/svg" width="305" height="88" viewBox="0 0 305 88">
  <g fill="none" fill-rule="evenodd">
    <polyline fill="#FFF" points="114.887 77.495 114.887 83 112.975 83 112.975 77.495 108 69.409 109.915 69 113.944 75.777 117.874 69.142 120 69.142 114.887 77.495"/>
    <path fill="#FFF" d="M123.468601 84C120.879942 84 119 82.1723392 119 79.0265591 119 75.8483179 120.879942 74 123.468601 74 126.077196 74 128 75.8483179 128 79.0265591 128 82.1723392 126.077196 84 123.468601 84M123.468601 75.5079677C121.71226 75.5079677 120.838077 77.0139681 120.838077 79.0265591 120.838077 80.9919339 121.753129 82.5156404 123.468601 82.5156404 125.259829 82.5156404 126.162919 81.0263624 126.162919 79.0265591 126.162919 77.050364 125.220955 75.5079677 123.468601 75.5079677M136.537321 83.8061081L136.306107 82.3835644C135.383262 83.2575849 134.207087 84 132.836894 84 130.959035 84 130 82.901949 130 81.1308017L130 74 131.824579 74 131.824579 80.6827406C131.824579 81.684348 132.26288 82.3644766 133.334506 82.3644766 134.295552 82.3644766 135.287761 81.7195097 136.167379 80.7842074L136.167379 74 138 74 138 83.8061081 136.537321 83.8061081"/>
    <polyline fill="#FFF" points="141.148 75 140 74.74 140.663 70 143 70 141.148 75"/>
    <path fill="#FFF" d="M145.667886 78.2123734L145.667886 84 144 84 144 74.2125739 145.331383 74.2125739 145.613021 76.2089642C146.240307 75.0869347 147.270849 74.0882382 148.733906 74L149 75.7497243C147.523226 75.8289381 146.262253 76.9148701 145.667886 78.2123734M159 79.2114893L152.721591 79.2114893C152.779356 81.4267165 153.803977 82.4743262 155.433712 82.4743262 156.761364 82.4743262 157.723485 81.9234704 158.729167 81.1178438L158.983902 82.7212276C157.982008 83.5288216 156.809659 84 155.286932 84 152.88447 84 151 82.4949833 151 78.9832776 151 75.9024198 152.742424 74 155.076705 74 157.75947 74 159 76.1670273 159 78.8209719 159 78.9213063 159 79.0875467 159 79.2114893M155.053977 75.3977966C153.977273 75.3977966 153.082386 76.1994885 152.806818 77.8441865L157.258523 77.8441865C157.050189 76.2988393 156.390152 75.3977966 155.053977 75.3977966M167.018982 72.3223694C166.464193 72.3223694 166 71.7941051 166 71.1621814 166 70.5322512 166.464193 70 167.018982 70 167.551337 70 168 70.5322512 168 71.1621814 168 71.7941051 167.551337 72.3223694 167.018982 72.3223694zM166.213115 84L167.78516 84 167.78516 74.2719635 166.213115 74.2719635 166.213115 84zM176.153074 84L176.153074 77.3239747C176.153074 76.3232728 175.739523 75.6404292 174.669511 75.6404292 173.699875 75.6404292 172.713174 76.2861727 171.825847 77.2327284L171.825847 84 170 84 170 74.2125739 171.452447 74.2125739 171.680301 75.6163642C172.615809 74.7971523 173.750063 74 175.164366 74 177.00527 74 178 75.1109997 178 76.8847889L178 84 176.153074 84M193.708256 74.0674945L194 75.7292915 192.067453 75.9215486C192.332299 76.3899196 192.458514 76.9257852 192.458514 77.4708546 192.458514 79.6132944 190.633561 80.9038714 188.592386 80.9038714 188.32754 80.9038714 188.056487 80.8854638 187.812332 80.8455807 187.531968 81.0327246 187.313677 81.2689554 187.313677 81.4653031 187.313677 81.8119795 187.673702 81.8845873 189.464515 82.1985391L190.161804 82.3233017C192.313677 82.7149744 193.651355 83.3796932 193.651355 84.9197955 193.651355 87.0151936 191.349472 88 188.717567 88 186.08773 88 184 87.1910884 184 85.4341855 184 84.3962016 184.713842 83.6179693 186.133251 82.8530314 185.674943 82.5390796 185.494931 82.1770636 185.494931 81.8119795 185.494931 81.3282688 185.877716 80.8455807 186.556383 80.4467495 185.433892 79.8965668 184.681771 78.8452885 184.681771 77.4708546 184.681771 75.3202337 186.502586 74 188.539623 74 189.569005 74 190.451479 74.3016801 191.153942 74.8447042L193.708256 74.0674945zM185.780468 85.2879474C185.780468 86.082542 186.83054 86.6644266 188.806538 86.6644266 190.768053 86.6644266 191.87606 85.9997078 191.87606 85.1529584 191.87606 84.5465303 191.410511 84.1344047 189.956963 83.8910153L188.755845 83.679328C188.207532 83.5688824 187.908545 83.5105917 187.51438 83.4257122 186.324643 84.0014609 185.780468 84.5864134 185.780468 85.2879474zM188.539623 75.3652301C187.281606 75.3652301 186.502586 76.3316289 186.502586 77.530168 186.502586 78.6929145 187.302297 79.5815924 188.539623 79.5815924 189.848334 79.5815924 190.633561 78.6520088 190.633561 77.4534697 190.633561 76.2641344 189.801779 75.3652301 188.539623 75.3652301zM199.462629 84C196.887499 84 195 82.1723392 195 79.0265591 195 75.8483179 196.887499 74 199.462629 74 202.077622 74 204 75.8483179 204 79.0265591 204 82.1723392 202.077622 84 199.462629 84M199.462629 75.5079677C197.712656 75.5079677 196.848632 77.0139681 196.848632 79.0265591 196.848632 80.9919339 197.756505 82.5156404 199.462629 82.5156404 201.275385 82.5156404 202.160337 81.0263624 202.160337 79.0265591 202.160337 77.050364 201.233529 75.5079677 199.462629 75.5079677M209.469076 84C206.876413 84 205 82.1723392 205 79.0265591 205 75.8483179 206.876413 74 209.469076 74 212.092662 74 214 75.8483179 214 79.0265591 214 82.1723392 212.092662 84 209.469076 84M209.469076 75.5079677C207.709377 75.5079677 206.832521 77.0139681 206.832521 79.0265591 206.832521 80.9919339 207.748282 82.5156404 209.469076 82.5156404 211.268677 82.5156404 212.163489 81.0263624 212.163489 79.0265591 212.163489 77.050364 211.222789 75.5079677 209.469076 75.5079677M223.511387 83.8065874L223.275362 82.3875601C222.49793 83.2824693 221.467909 84 219.97619 84 217.801242 84 216 82.466729 216 79.1917424 216 75.6161144 218.120083 73.9004543 220.578675 73.9004543 221.572464 73.9004543 222.47619 74.0808391 223.119048 74.3283672L223.119048 69.2775922 225 69 225 83.8065874 223.511387 83.8065874M223.119048 75.9889097C222.329193 75.5960716 221.729814 75.4277125 220.637681 75.4277125 219.052795 75.4277125 217.903727 76.6954169 217.903727 79.1215927 217.903727 81.2731828 218.906832 82.3875601 220.254658 82.3875601 221.42236 82.3875601 222.311594 81.7061064 223.119048 80.6698958L223.119048 75.9889097M237.166373 84L237.166373 77.2406091C237.166373 76.2274112 236.73712 75.5360406 235.67052 75.5360406 234.712491 75.5360406 233.71425 76.1898477 232.82659 77.1482234L232.82659 84 231 84 231 69.2812183 232.82659 69 232.82659 75.3888325C233.638854 74.6822335 234.76577 73.8751269 236.170143 73.8751269 238.017844 73.8751269 239 75 239 76.7959391L239 84 237.166373 84M247.524865 83.8101515L247.322435 82.5156404C246.541776 83.3104466 245.478517 84 243.864086 84 242.10134 84 241 82.9661617 241 81.3411371 241 78.9419634 243.099461 77.9887861 247.180133 77.5618729L247.180133 77.1713555C247.180133 75.9545544 246.436553 75.5246901 245.311161 75.5246901 244.120631 75.5246901 242.992233 75.9024198 241.919955 76.3617942L241.68245 74.8125123C242.847927 74.3462522 243.947263 74 245.478517 74 247.85156 74 249 74.9492426 249 77.0828251L249 83.8101515 247.524865 83.8101515M247.180133 78.9419634C243.568458 79.2803463 242.809846 80.2443439 242.809846 81.2349006 242.809846 82.0060988 243.348992 82.5156404 244.259927 82.5156404 245.330202 82.5156404 246.348365 81.9883927 247.180133 81.1807987L247.180133 78.9419634M258.158483 84L258.158483 77.3239747C258.158483 76.3232728 257.730504 75.6404292 256.656536 75.6404292 255.696094 75.6404292 254.702499 76.2861727 253.819415 77.2327284L253.819415 84 252 84 252 74.2125739 253.456737 74.2125739 253.674746 75.6163642C254.61409 74.7971523 255.760392 74 257.17192 74 259.017456 74 260 75.1109997 260 76.8847889L260 84 258.158483 84M269.502587 83.8065874L269.256295 82.3875601C268.506037 83.2824693 267.460849 84 265.987237 84 263.798551 84 262 82.466729 262 79.1917424 262 75.6161144 264.118317 73.9004543 266.57813 73.9004543 267.567437 73.9004543 268.479131 74.0808391 269.114522 74.3283672L269.114522 69.2775922 271 69 271 83.8065874 269.502587 83.8065874M269.114522 75.9889097C268.335288 75.5960716 267.715419 75.4277125 266.648499 75.4277125 265.041394 75.4277125 263.906175 76.6954169 263.906175 79.1215927 263.906175 81.2731828 264.900655 82.3875601 266.2594 82.3875601 267.419455 82.3875601 268.319765 81.7061064 269.114522 80.6698958L269.114522 75.9889097M275.364165 84C274.148749 84 272.788506 83.5662011 272 83.1107614L272.240433 81.4149125C273.12265 82.0297069 274.241515 82.5156404 275.503313 82.5156404 276.679919 82.5156404 277.382285 82.0464293 277.382285 81.2585088 277.382285 80.3614007 276.854091 80.0446587 275.198513 79.6167618 273.022312 79.071808 272.148614 78.3724179 272.148614 76.6647649 272.148614 75.124336 273.381068 74 275.405815 74 276.550237 74 277.584855 74.2400157 278.451927 74.661027L278.164165 76.3381861C277.356728 75.8483179 276.335362 75.5079677 275.364165 75.5079677 274.316295 75.5079677 273.776741 75.934881 273.776741 76.6283691 273.776741 77.2608696 274.241515 77.6179422 275.681271 78.0104269 277.984314 78.6124336 279 79.2970687 279 81.1375172 279 82.8795987 277.737255 84 275.364165 84"/>
    <polygon fill="#FFF" points="282 83 284 83 284 81 282 81"/>
    <path fill="#FFF" d="M301.497502 59C299.435974 59 298 57.5949297 298 55.5092631 298 53.4304221 299.463954 52 301.497502 52 303.567024 52 305 53.414821 305 55.5092631 305 57.5842039 303.532049 59 301.497502 59zM301.497502 52.4075777C299.83369 52.4075777 298.506638 53.5230534 298.506638 55.5092631 298.506638 57.4759716 299.83369 58.5894971 301.497502 58.5894971 303.1803 58.5894971 304.504354 57.4759716 304.504354 55.5092631 304.504354 53.5230534 303.164311 52.4075777 301.497502 52.4075777zM302.531763 57.3716395L301.348608 55.7179273 300.962884 55.7179273 300.962884 57.3121605 300.278373 57.3121605 300.278373 53.4479733 301.480514 53.4479733C302.313919 53.4479733 302.87152 53.8497005 302.87152 54.5731996 302.87152 55.1289873 302.562741 55.4897618 302.068094 55.6428472L303.212277 57.2214793 302.531763 57.3716395zM301.480514 54.048614L300.962884 54.048614 300.962884 55.1894414 301.453533 55.1894414C301.899215 55.1894414 302.178016 55.0110043 302.178016 54.6200028 302.178016 54.2416771 301.932191 54.048614 301.480514 54.048614zM115.811583 16L89 58.9950502 98.1148664 58.9950502C98.1148664 58.9950502 104.726445 48.2905885 104.956723 47.9243024L120.341721 47.9243024 120.348669 59 129 58.9980201 129 16 115.811583 16M120.328817 40.3095128L109.752872 40.3095128C110.413931 39.2601529 120.328817 23.1891058 120.328817 23.1891058L120.328817 40.3095128"/>
    <polygon fill="#FFF" points="135 59 143 59 143 16 135 16"/>
    <polygon fill="#FFF" points="150 59 158 59 158 16 150 16"/>
    <path fill="#FFF" d="M176.72565 39.0228217C172.175776 37.8270817 171.224924 37.1536076 171.344397 35.2455966 171.443136 33.5146586 172.841274 32.5198666 175.177429 32.5198666 178.067507 32.5198666 181.602348 33.5445023 184.640534 35.2615133L185.116454 35.5370706 186.271696 28.3278132 185.997202 28.2004798C182.879038 26.7659898 179.14672 26 175.177429 26 171.358221 26 168.110709 27.1887764 166.013501 29.3405114 164.352719 31.0555328 163.502579 33.2778981 163.545037 35.7449822 163.69117 42.4080988 166.840931 44.29124 174.307542 46.2241208 179.241509 47.4536837 180.244693 48.1808766 180.207172 50.5514659 180.1815 52.6823103 178.917646 53.4851074 175.562509 53.4851074 172.049391 53.4851074 168.092936 52.1849143 164.658808 49.9227573L164.159191 49.5875124 163 56.8256188 163.249809 56.9629001C165.922662 58.4451401 170.494258 60 175.309739 60 179.977111 60 183.425062 58.8848382 185.557816 56.7132073 187.221561 55.0111183 188.038129 52.7051905 187.998633 49.8461583 187.890021 42.6945989 184.304823 40.9935046 176.72565 39.0228217M208.914108 52.1189253L208.481927 52.2359413C207.904366 52.3959631 207.177471 52.4799745 206.181575 52.4799745 203.700242 52.4799745 202.543144 51.3428195 202.543144 48.8934855 202.543144 48.8934855 202.543144 34.267491 202.543144 33.5143883 203.232458 33.5143883 208.688622 33.5143883 208.688622 33.5143883L208.800376 26.4444242C208.800376 26.4444242 203.236414 26.4444242 202.543144 26.4444242 202.543144 25.7173251 202.543144 16 202.543144 16L194.304999 16C194.304999 16 194.304999 25.7173251 194.304999 26.4444242 193.647332 26.4444242 190 26.4444242 190 26.4444242L190 33.5143883C190 33.5143883 193.647332 33.5143883 194.304999 33.5143883 194.304999 34.267491 194.304999 50.1756603 194.304999 50.1756603 194.304999 56.7715598 197.710033 60 204.73273 60 207.000445 60 208.388963 59.7369641 209.62419 59.4659272L210 59.3909169 208.914108 52.1189253M227.669857 26C222.412734 26 218.445697 27.2695368 215.287831 28.5004227L214.988507 28.6153846 216.07605 35.5210307 216.546986 35.3119189C220.336425 33.6489346 223.539189 32.8739324 226.660138 32.8739324 229.992609 32.8739324 231.560068 34.2425744 231.560068 37.1869881 231.560068 37.1869881 231.560068 37.6854869 231.560068 38.0353281 219.076272 39.3098202 213 43.5376454 213 50.9665666 213 56.4569913 216.579912 60 222.13137 60 225.975685 60 229.168471 58.6045996 232.108828 55.7652374 232.26747 56.7146646 232.697498 59.3667182 232.697498 59.3667182L240 59.3667182 240 36.9640015C240 29.491474 236.084845 26 227.669857 26M224.748457 53.4481593C222.67115 53.4481593 221.384058 52.1825866 221.384058 50.1519223 221.384058 46.5306206 224.898119 44.1620078 231.560068 43.2760078L231.560068 50.3659894C229.491741 52.3698954 227.145043 53.4481593 224.748457 53.4481593M260.918892 52.1189253L260.489614 52.2359413C259.917903 52.3959631 259.18002 52.4799745 258.20178 52.4799745 255.709199 52.4799745 254.53907 51.3428195 254.53907 48.8934855 254.53907 48.8934855 254.53907 34.267491 254.53907 33.5143883 255.238378 33.5143883 260.698318 33.5143883 260.698318 33.5143883L260.812067 26.4444242C260.812067 26.4444242 255.238378 26.4444242 254.53907 26.4444242 254.53907 25.7173251 254.53907 16 254.53907 16L246.283877 16C246.283877 16 246.283877 25.7173251 246.283877 26.4444242 245.653808 26.4444242 242 26.4444242 242 26.4444242L242 33.5143883C242 33.5143883 245.653808 33.5143883 246.283877 33.5143883 246.283877 34.267491 246.283877 50.1756603 246.283877 50.1756603 246.283877 56.7715598 249.713155 60 256.74184 60 259.001978 60 260.456973 59.7259626 261.634026 59.4659272L262 59.3909169 260.918892 52.1189253M290.437021 49.5989413C286.686464 52.2004448 283.618906 53.3242943 280.149468 53.3242943 275.649592 53.3242943 272.854244 50.2728546 272.375155 44.9657875 273.22247 44.9657875 291.914873 44.9657875 291.914873 44.9657875L292 42.7299811C292 31.6510449 287.400148 26.0129675 278.316258 26.0000838 274.326157 25.9881912 271.055679 27.2418682 268.589953 29.7125532 265.588716 32.6995747 264 37.3466032 264 43.112526 264 53.540343 269.888641 60 279.327889 60 283.937639 60 288.118782 58.7146095 291.762435 56.2042825L291.970304 56.0645446 290.953724 49.228289 290.437021 49.5989413M272.492947 39.4337523C272.870082 34.7421266 274.906211 32.0494466 278.128186 32.0494466 282.460777 32.0494466 283.611977 35.9630989 283.782232 39.4337523L272.492947 39.4337523"/>
    <g fill="#FFF">
      <path d="M44.5034906,0 C19.9663824,0 0,15.206766 0,33.9089261 C0,52.6020774 19.9663824,69 44.5034906,69 C69.0445881,69 89,52.6020774 89,33.9089261 C89,15.206766 69.0445881,0 44.5034906,0 M44.5054853,66.6827499 C23.2615336,66.6827499 5.97694954,51.3848955 5.97694954,33.9489649 C5.97694954,16.5040256 23.2615336,2.31524814 44.5054853,2.31524814 C65.7554208,2.31524814 83.0330237,16.5040256 83.0330237,33.9489649 C83.0330237,51.3848955 65.7554208,66.6827499 44.5054853,66.6827499"/>
      <path d="M35.812213,48.498254 L36.5746746,49.2792414 C36.5746746,49.2812439 38.1135148,50.1433337 38.1135148,50.1433337 L39.5648757,50.9413426 L39.7517633,51.0454742 L40.8204024,51.6472349 L42.6246627,52.6404906 C42.7320237,52.6735324 42.9507219,52.6735324 42.9507219,52.6735324 L45.2699172,52.5273476 C46.6029822,52.5013147 48.1537515,52.5273476 49.1975385,53.0039501 C50.3417278,53.5977007 49.9530414,54.6710576 49.9530414,54.6710576 C49.9530414,54.6710576 51.1379882,53.8199817 50.9143195,52.8036969 C50.7970178,51.9476147 49.7760947,50.8161843 46.3952189,50.6179337 C45.328568,50.5538527 43.732071,50.7060451 43.732071,50.7060451 C43.732071,50.7060451 43.5948876,50.7060451 43.5859408,50.7060451 C43.5859408,50.6800122 42.0699645,49.6977705 42.0699645,49.6977705 L41.4327574,49.334311 C41.3452781,49.2942603 39.3352426,48.2249085 39.3352426,48.2249085 C39.3352426,48.2249085 38.0608284,47.7212718 38.0568521,47.7172667 C38.0568521,47.6782174 36.915645,46.0741896 36.915645,46.0741896 L36.496142,45.4784364 C36.4911716,45.4764339 35.2823669,43.7122036 35.2823669,43.7122036 L34.7634556,42.9442327 C34.7306509,42.9031808 34.0626272,41.8618644 34.0626272,41.8618644 C34.1173018,41.8768834 34.7545089,40.8956429 34.6819408,39.8483189 C34.5944615,39.9894974 34.5268639,40.0265442 34.0556686,40.4330581 C33.5745325,40.8275569 32.1510059,41.4693682 31.1986746,41.7206859 L30.7712189,41.8358315 L35.812213,48.498254 Z M41.3850414,45.955039 L41.6146746,46.2504124 C41.7111006,46.3325162 43.1455621,46.908244 43.1455621,46.908244 C44.1028639,47.3027427 45.4160473,47.9075072 46.0224379,48.2839832 L47.6477633,49.2441971 C47.7730178,49.2992667 49.4450651,49.1731072 50.5425325,49.2612186 C51.9183432,49.3693553 52.9879763,49.892016 53.5436686,50.7060451 C54.2951953,51.775397 53.379645,52.9198438 53.379645,52.9198438 C53.5814438,52.8207184 55.1342012,51.8264615 55.0268402,50.238454 C54.9214675,48.7125249 53.6172308,47.2867224 48.7671006,47.3467984 C48.7671006,47.3357845 47.4310533,46.5527946 47.4310533,46.5527946 L47.0403787,46.3235048 L44.8911716,45.2120997 C44.8911716,45.2120997 43.1455621,44.6123415 43.1326391,44.6123415 L43.1326391,44.610339 C43.1326391,44.546258 42.7230769,43.8333568 42.7230769,43.8333568 C42.1554556,42.802053 41.3671479,41.7817632 40.6862012,40.8796227 L40.4764497,40.6242999 C40.4764497,40.6242999 39.2855385,38.9682063 39.1453728,38.7589418 C39.5211361,37.9399063 39.2040237,36.7604152 39.2040237,36.7604152 C39.2040237,36.7604152 39.0022249,37.154914 38.6741775,37.5764469 C38.3431479,37.9999823 37.4633846,38.7038721 36.8480473,39.0392962 L36.5219882,39.2525658 L40.9208047,45.3002111 L41.3850414,45.955039 Z M43.3672426,35.128352 C43.6336568,34.1561229 43.1217041,33.1989128 43.1217041,33.1989128 L42.8632426,33.8186964 C42.6435503,34.3563761 42.0620118,34.9691508 41.1573964,35.5588963 L40.8899882,35.7060824 L44.4478107,40.8275569 C44.4478107,40.8315619 44.6585562,41.1629809 44.6585562,41.1629809 L45.3355266,42.0871492 C45.4289704,42.1742593 46.8246627,42.9712669 46.8246627,42.9712669 L47.3525207,43.2706454 L48.9569704,44.2348643 L50.4262249,45.2211111 L50.5335858,45.2521504 L52.7255385,45.3923276 C54.0407101,45.5054706 54.8121183,45.9990946 55.2127337,46.2814516 C56.5974911,47.2847199 55.8559053,48.7916249 55.8559053,48.7916249 C55.8559053,48.7916249 57.7068876,47.0334022 56.4911243,45.1259909 C56.0358343,44.4681593 55.407574,43.8333568 53.5645444,43.6190859 C53.5645444,43.6190859 51.304,43.306691 51.3000237,43.306691 C51.3000237,43.2906707 50.0852544,42.4616226 50.0852544,42.4616226 L48.4927337,41.4693682 L48.0831716,41.2220556 L46.7739645,40.6503328 L43.3672426,35.128352 Z M28.588213,4.73392782 C28.7045207,4.84907339 29.0703432,5.22554932 29.0703432,5.22855312 L30.8606864,6.8796404 C30.8606864,6.89065432 31.8865799,7.85487328 31.8865799,7.85487328 C32.644071,8.58479603 32.8210178,8.9602707 32.7991479,9.10345171 C32.7663432,9.24463019 32.6261775,9.31271626 32.4909822,9.38981372 C32.3567811,9.46691119 32.1450414,9.51797575 32.1450414,9.51797575 L32.0595503,10.2018403 L32.4820355,10.1838175 C34.8439763,10.1267453 37.0697278,11.7367807 38.5101538,13.1065123 C41.0102722,15.5055451 42.8940592,19.3944615 43.3165444,23.0270537 L45.2699172,33.2599901 L46.0025562,34.8369837 L46.1457041,35.1573887 L46.4667929,35.825233 C46.744142,36.4940785 47.1725917,37.0848254 47.2093728,37.1218722 C47.2580828,37.1679304 48.2213491,37.9399063 48.2213491,37.9399063 L49.6319527,39.3917417 L50.0524497,39.8433126 L50.7254438,40.5231721 C50.7811124,40.5632227 52.7643077,40.820548 52.7643077,40.820548 C56.2276923,41.4032847 56.079574,43.3377302 56.079574,43.3377302 C56.079574,43.3377302 58.1383195,40.1547063 53.224568,39.0362924 C53.224568,39.0362924 51.6728047,38.7389164 51.6409941,38.7389164 C51.6409941,38.7389164 51.6409941,38.7389164 51.6409941,38.7319076 C51.6409941,38.6968633 51.0853018,37.9399063 51.0853018,37.9399063 C51.0196923,37.8698177 50.9013964,37.7326443 50.9013964,37.7326443 C50.8705799,37.693595 49.4013254,36.239757 49.4013254,36.239757 L48.7273373,35.5939406 C48.7273373,35.5779204 48.112,33.9328407 48.112,33.9328407 L47.2421775,31.8111585 C47.0214911,31.1583332 46.876355,30.1150142 46.6775385,28.6771966 C46.6666036,28.6221269 46.528426,27.6378827 46.528426,27.6378827 L45.8822722,23.34846 C45.8912189,23.2773702 46.0274083,22.5063955 46.0274083,22.5063955 C46.3077396,20.8983627 46.9081657,19.1211159 47.8058225,17.2086982 C48.8853964,14.9188034 51.1181065,13.4058908 51.1469349,13.3968794 C52.8090414,12.3565642 55.2544852,11.7848415 56.5636923,11.5335238 C57.0627219,11.485463 57.2217751,11.1870858 57.3102485,10.8877073 L57.3698935,10.7174922 L57.2038817,10.6894567 C56.4791953,10.5522833 55.6451598,10.3069732 55.576568,10.1728036 C55.563645,10.1467707 55.5507219,10.0896985 55.5507219,10.0406365 C55.5507219,9.91047193 55.6451598,9.71021878 55.8191243,9.44087828 C55.828071,9.44087828 56.8887574,8.40857325 56.8887574,8.40857325 L57.508071,7.7867872 C57.508071,7.7867872 60.1095858,5.25658856 60.4515503,4.92116452 L58.0379172,4.10112784 C57.7198107,4.43154555 55.3678107,6.88865179 55.3678107,6.88865179 C53.6013254,8.79906691 51.604213,10.9577959 50.6886627,11.3412807 C48.4440237,12.2634465 46.1457041,14.4712376 45.2391006,16.5889147 C45.2391006,16.5979261 44.8404734,17.6362387 44.6257515,18.205959 C43.9467929,16.2334654 43.0978462,14.5993996 41.9347692,13.1766009 C40.6643314,11.6416605 39.1145562,10.4972137 37.1850414,9.71021878 C36.1412544,8.70594919 32.7027219,5.53894551 30.8388166,4 L28.588213,4.73392782 Z M37.767574,56.3762133 C34.6063905,57.99526 32.8627692,56.5924867 33.6292071,54.887331 C34.6580828,55.584212 36.2525917,56.0938563 37.767574,56.3762133 Z M32.3458462,53.9591576 C30.1916686,54.551907 29.3964024,53.0259779 29.9043787,51.7894147 C30.3139408,52.2650159 31.8358817,53.6417564 32.3458462,53.9591576 Z M13,15.17713 C13.1640237,15.2942781 13.5894911,15.6026679 13.5894911,15.6026679 C13.648142,15.6427186 16.3172544,17.8725375 16.7138935,18.205959 C16.648284,18.3751729 15.5488284,21.4450538 15.5488284,21.4450538 C14.5398343,24.0012853 13.5298462,26.5755397 13.4702012,28.6041042 L13.4880947,28.9305168 C13.4970414,28.9795788 14.3638817,33.5313331 14.3638817,33.5313331 L14.4344615,33.8717635 C14.9225562,36.2617849 15.4702959,38.9842266 15.7019172,40.9437037 C15.7546036,41.4954011 15.8858225,41.8288227 16.1005444,41.9609897 C17.4186982,43.3417353 19.5738698,46.1492845 22.1743905,51.5040539 C22.2509349,51.6462337 22.2887101,51.7293387 22.3304615,51.790416 C22.5750059,52.5273476 22.8911243,53.0209716 23.2678817,53.2622767 C23.7450414,53.5576501 24.6466746,53.5776754 25.2361657,53.2622767 C26.5692308,52.3841666 27.5106272,51.1516084 28.0871953,49.6647287 C28.2929704,49.9120413 28.8446864,50.637959 28.9321657,50.7410894 C26.6944852,54.6470272 30.6539172,56.0988626 32.0595503,55.5401563 C31.2463905,57.9071486 34.2465325,59.8125574 37.0756923,58.5439537 C37.4415148,60.0788941 38.6483314,60.5294637 39.8024615,60.7517447 C40.947645,60.9840384 42.508355,61.1071941 45.052213,60.8779042 C48.880426,60.560503 52.359716,59.3850169 53.7564024,58.6540929 C56.7108166,57.1391778 58.3222249,55.2057335 59.2685917,53.855026 C59.2864852,53.824988 59.4544852,53.6127197 59.5707929,53.4605273 C59.8809467,54.0192336 60.208,54.5418943 60.5807811,54.9424006 C61.5261538,55.866569 62.4098935,56.2840968 63.1306036,56.1489259 C63.6435503,56.0538057 64.0461538,55.7344019 64.3155503,55.1436551 C65.6257515,51.9606311 68.4916923,48.0396743 70.7353373,45.4123529 C70.7353373,45.4043428 70.9500592,44.9938238 70.9500592,44.9938238 C71.440142,43.1274644 73.1857515,38.5066228 74.1152189,36.0104672 L74.776284,34.2151976 C74.776284,34.2061862 74.907503,33.7826508 74.907503,33.7826508 C74.9532308,33.0687483 74.9770888,32.351842 74.9770888,31.6459496 C74.9770888,28.4348902 74.5128521,25.3640081 73.6370651,22.7667246 C73.2115976,21.4520626 72.7742012,20.6560563 72.3676213,19.8810766 L71.8914556,19.0099754 C72.5286627,18.0527653 74.3905799,16.7911704 75.8817041,15.7748856 C75.8817041,15.7748856 75.9671953,15.7248224 76,15.7088021 L74.1688994,13.6902503 C74.055574,13.7673477 72.8875266,14.5813768 72.8875266,14.5813768 C71.5584379,15.4945312 70.2104615,15.8649996 69.3784142,15.5305768 C69.2531598,15.4815148 68.1477396,14.8527199 68.1477396,14.8527199 C68.0841183,14.8066616 67.8892781,14.7145452 67.8892781,14.7145452 C67.8495148,14.7075363 67.5145089,14.6604768 67.5145089,14.6604768 C67.4667929,14.6654831 67.0989822,14.7425806 67.0989822,14.7425806 L66.8604024,14.8026566 L67.2371598,15.241211 C68.0165207,16.1743907 68.4191243,16.9764046 68.9847574,18.0637792 C69.0016568,18.0888109 69.3217515,18.699583 69.3217515,18.699583 C69.3217515,18.7015855 69.6438343,19.4575412 69.6438343,19.4575412 C70.323787,21.1386665 70.9331598,22.9399436 71.3158817,24.6961638 C72.064426,27.8741814 72.4461538,30.494494 72.4660355,32.7333243 C72.4660355,32.7643635 72.4302485,32.9866445 72.4302485,32.9866445 C72.4252781,32.999661 71.392426,35.9333697 71.392426,35.9333697 C70.3257751,38.9752152 68.9847574,42.7640049 68.6845444,44.3229757 L68.619929,44.5082099 C65.7549822,47.515011 63.7220828,51.0604932 62.8612071,53.1801729 C62.7240237,53.4605273 62.6295858,53.4985754 62.5947929,53.504583 C62.4625799,53.5286134 62.1255858,53.218221 61.9466509,53.0550146 C61.227929,52.4021893 60.796497,51.0474767 60.8511716,49.6096591 C60.9217515,47.8514364 61.672284,46.2884605 62.9248284,45.3002111 C63.1306036,45.1430124 63.052071,44.8546479 63.0063432,44.689439 C62.6574201,42.6869074 63.2190769,39.6230341 64.4447811,38.755938 L64.7618935,38.522643 L64.4517396,38.2863443 C60.9436213,35.5498849 59.2268402,30.4814775 59.0807101,26.6986954 L59.0628166,26.2050713 L58.5170651,26.4383663 C58.456426,26.4894308 58.2506509,26.8108371 58.2506509,26.8108371 C58.1094911,27.5457662 58.0508402,28.2957143 58.0508402,29.0166257 C58.0508402,30.9600825 58.4236213,32.6562268 58.5717396,33.2599901 C59.0628166,35.346628 60.0867219,37.2810735 61.5867929,39.0162671 C61.5867929,39.0162671 61.6195976,39.0563177 61.6514083,39.0963683 C60.9982959,39.9234139 60.7090178,41.931953 60.7090178,43.4849163 C60.7090178,43.9615188 60.7308876,44.3690339 60.7895385,44.704458 C59.1483077,46.1292592 58.6950059,47.940549 58.6025562,49.2281768 C58.6025562,49.2281768 58.6572308,50.5939033 58.6572308,50.6129274 C58.6413254,50.5778831 57.8579882,51.6302134 57.8579882,51.6302134 L57.7068876,51.854497 C56.1461775,54.0192336 55.0556686,55.5271399 52.4452071,56.8748436 C49.6061065,58.360722 44.1048521,59.3850169 40.5331124,59.0315701 C39.219929,58.8823815 39.3620828,57.6968828 39.3620828,57.6378081 C39.3620828,57.4766044 39.4227219,57.3043866 39.5390296,57.1481892 C39.5390296,57.1481892 39.8024615,56.8618272 39.8809941,56.7757183 C43.2598817,57.1612056 46.4807101,56.7486841 47.8207337,56.0347816 C47.8754083,55.9817145 48.2929231,55.3639335 48.2929231,55.3639335 L48.4529704,55.0745677 L48.1269112,55.1496627 C45.2520237,55.8775829 39.5430059,54.9213741 36.5239763,53.6307425 C33.1649704,52.1819109 32.140071,50.8161843 29.3964024,47.1685731 L28.6299645,46.1542908 C28.6080947,45.1370048 28.3327337,44.0976909 27.8416568,43.2185796 C27.3843787,42.3955391 26.776,41.8768834 26.596071,41.7337024 C26.8018462,41.1229303 26.9221302,40.266848 26.9221302,39.3677113 C26.9221302,38.1411608 26.7004497,36.9015937 26.2739882,36.2157267 C28.3148402,34.6056913 29.3506746,32.9576078 29.3218462,31.0612104 C29.3049467,30.1610724 28.8138698,28.7943447 28.8138698,28.7943447 L28.0295385,28.4278814 L28.0832189,28.9465371 C28.3983432,32.1535914 25.4310059,34.2352229 23.4647101,35.617971 C23.4647101,35.6249798 22.8911243,36.0154735 22.8911243,36.0154735 L23.2678817,36.2527735 C24.8087101,37.2209975 24.8285917,40.4791164 24.4806627,42.3074277 L24.4627692,42.4135619 L24.544284,42.5657543 L24.6317633,42.6118125 C24.6188402,42.60981 25.372355,43.2135732 25.372355,43.2135732 C26.9221302,45.3112251 26.7978698,48.5573287 25.0910296,50.4697464 C24.748071,50.8332059 24.5621775,50.8782628 24.4647574,50.8642451 C24.2112663,50.8121793 24.0074793,50.2144236 23.9528047,50.0151717 C23.9378935,49.9911413 23.4736568,49.0139059 23.4736568,49.0139059 C22.1306509,46.2023516 21.0073373,43.8423681 18.3978698,40.7013974 C18.3978698,40.6973923 18.3302722,40.4500797 18.3302722,40.4500797 C17.824284,36.3408849 17.1910533,33.2980382 16.5717396,30.3623269 L16.2347456,28.7673105 C16.2347456,28.7593003 16.1929941,28.3527864 16.1929941,28.3527864 C16.3768994,25.231841 17.3381775,22.7797411 18.460497,19.9411526 L19.1414438,18.1679109 L19.7050888,16.8091932 C19.7160237,16.8091932 19.8054911,16.6109426 19.8054911,16.6109426 C20.464568,15.6597401 21.3512899,14.7606034 22.4288757,13.9315553 L22.9100118,13.5670946 L22.2847337,13.3047629 C22.2847337,13.3047629 21.0649941,13.4389326 19.8472426,14.0456996 L19.6285444,14.1498313 C18.7348639,14.5733667 17.704,14.8987781 16.9306036,14.5923907 C16.9306036,14.5923907 14.8768284,13.35783 14.7714556,13.3007579 L13,15.17713 Z"/>
    </g>
  </g>
</svg>
