<svg xmlns="http://www.w3.org/2000/svg" width="195" height="58" viewBox="0 0 195 58">
  <g fill="#FFF" fill-rule="evenodd">
    <path d="M4.002,0.2364 C5.848,0.2364 7.395,1.6944 7.395,3.6014 C7.395,5.5444 5.848,7.0004 4.002,7.0004 C2.15,7.0004 0.597,5.5444 0.597,3.6014 C0.597,1.6944 2.15,0.2364 4.002,0.2364 L4.002,0.2364 Z M4.002,6.5024 C5.567,6.5024 6.776,5.2544 6.776,3.6014 C6.776,1.9824 5.567,0.7344 4.002,0.7344 C2.42,0.7344 1.209,1.9824 1.209,3.6014 C1.209,5.2544 2.42,6.5024 4.002,6.5024 L4.002,6.5024 Z M2.684,1.6414 L4.213,1.6414 C5.151,1.6414 5.593,2.0074 5.593,2.7674 C5.593,3.4844 5.141,3.7814 4.554,3.8434 L5.687,5.5884 L5.023,5.5884 L3.949,3.8904 L3.299,3.8904 L3.299,5.5884 L2.684,5.5884 L2.684,1.6414 Z M3.299,3.3924 L3.94,3.3924 C4.481,3.3924 4.981,3.3654 4.981,2.7424 C4.981,2.2164 4.528,2.1354 4.111,2.1354 L3.299,2.1354 L3.299,3.3924 Z" transform="translate(187 50.373)"/>
    <polygon points="188.313 13.249 109.472 13.249 56.475 0 .001 15.354 1.44 20.718 56.475 5.756 108.731 18.819 188.313 18.819"/>
    <polygon points="45.889 27.771 40.792 27.771 40.792 30.056 44.843 30.056 44.843 32.977 40.792 32.977 40.792 35.663 45.868 35.663 45.868 38.581 37.118 38.581 37.118 24.852 45.889 24.852"/>
    <polygon points="62.489 38.582 66.163 38.582 66.163 24.852 62.489 24.852"/>
    <polygon points="157.83 38.582 161.502 38.582 161.502 24.852 157.83 24.852"/>
    <polygon points="119.608 38.581 115.934 38.581 115.934 24.852 124.705 24.852 124.705 27.771 119.608 27.771 119.608 30.057 123.659 30.057 123.659 32.977 119.608 32.977"/>
    <polygon points="165.186 38.581 173.936 38.581 173.936 35.098 168.86 35.098 168.86 24.852 165.186 24.852"/>
    <polygon points="102.533 24.852 102.533 32.306 98.843 24.852 94.718 24.852 94.718 38.581 98.296 38.581 98.296 31.127 101.986 38.581 106.113 38.581 106.113 24.852"/>
    <path d="M12.7413 24.8515L17.3773 38.5815 13.6083 38.5815 12.6903 35.8575 8.8673 35.8575 7.9463 38.5815 4.4603 38.5815 9.0963 24.8515 12.7413 24.8515zM11.8083 32.9375L10.7763 29.8835 9.7493 32.9375 11.8083 32.9375zM88.3838 24.8515L93.0218 38.5815 89.2508 38.5815 88.3318 35.8575 84.5108 35.8575 83.5908 38.5815 80.1048 38.5815 84.7398 24.8515 88.3838 24.8515zM87.4488 32.9375L86.4198 29.8835 85.3928 32.9375 87.4488 32.9375zM133.2764 24.8515L137.9134 38.5815 134.1454 38.5815 133.2254 35.8575 129.4044 35.8575 128.4834 38.5815 124.9974 38.5815 129.6334 24.8515 133.2764 24.8515zM132.3454 32.9375L131.3134 29.8835 130.2854 32.9375 132.3454 32.9375zM54.3663 34.0722L56.0593 38.5822 59.5963 38.5822 57.4963 32.9922C58.9043 32.2162 59.5963 31.0782 59.5963 29.1852 59.5963 27.7762 59.1283 26.4942 58.1393 25.7362 57.2543 25.0212 56.1083 24.8512 55.0673 24.8512L49.0073 24.8512 49.0073 38.5822 52.6813 38.5822 52.6813 34.0722 54.3663 34.0722zM52.6813 30.6802L52.6813 27.9242 54.1813 27.9242C54.5273 27.9242 54.9113 27.9242 55.2233 28.1102 55.5873 28.3442 55.7963 28.8062 55.7963 29.2912 55.7963 30.5332 54.8423 30.6802 54.0443 30.6802L52.6813 30.6802z"/>
    <polygon points="181.567 24.852 178.916 29.886 176.269 24.852 172.661 24.852 177.08 33.246 177.08 38.581 180.755 38.581 180.755 33.246 185.172 24.852"/>
    <polygon points="30.355 38.581 30.355 32.381 27.927 38.581 25.274 38.581 22.843 32.381 22.843 38.581 19.282 38.581 19.282 24.852 23.372 24.852 26.599 33.09 29.828 24.852 33.919 24.852 33.919 38.581"/>
    <polygon points="150.589 38.581 150.589 32.379 148.157 38.581 145.506 38.581 143.075 32.379 143.075 38.581 139.513 38.581 139.513 24.852 143.604 24.852 146.832 33.089 150.059 24.852 154.151 24.852 154.151 38.581"/>
    <path d="M77.4122 28.7256C76.8742 28.1836 76.1892 27.8576 75.4592 27.8576 73.7632 27.8576 72.3292 29.6236 72.3292 31.7166 72.3292 33.8086 73.7632 35.5756 75.4592 35.5756 76.1932 35.5756 76.8772 35.2466 77.4172 34.7036L79.3382 37.0456C78.2162 38.2306 76.7262 38.9606 75.0842 38.9606 71.6072 38.9606 68.7902 35.7176 68.7902 31.7166 68.7902 27.7166 71.6072 24.4726 75.0842 24.4726 76.7262 24.4726 78.2162 25.2016 79.3382 26.3886L77.4122 28.7256zM4.46 57.373L185.092 57.373 185.092 41.339 4.46 41.339 4.46 57.373zM92.44 50.848L94.159 53.699 97.783 53.699 95.653 50.165C97.079 49.674 97.783 48.954 97.783 47.757 97.783 46.865 97.308 46.055 96.305 45.574 95.406 45.123 94.244 45.011 93.188 45.011L86.325 45.011 86.325 53.699 90 53.699 90 50.848 92.44 50.848zM92.148 48.701C92.96 48.701 93.929 48.609 93.929 47.821 93.929 47.518 93.716 47.225 93.348 47.078 93.028 46.959 92.643 46.959 92.289 46.959L90 46.959 90 48.701 92.148 48.701zM19.281 53.699L22.953 53.699 22.953 45.011 19.281 45.011 19.281 53.699zM110.057 47.64L110.031 47.64 108.933 50.583 111.157 50.583 110.057 47.64zM103.806 53.699L107.729 53.699 108.123 52.701 111.97 52.701 112.361 53.699 116.285 53.699 112.309 45.011 107.783 45.011 103.806 53.699zM148.979 50.316C148.677 51.362 147.983 51.812 146.82 51.812 145.472 51.812 144.543 51.119 144.543 49.355 144.543 47.59 145.501 46.896 147.004 46.896 148.429 46.896 148.872 47.798 148.979 48.418L153.138 48.418C152.654 44.975 149.227 44.707 147.004 44.707 144.766 44.707 140.62 44.853 140.62 49.355 140.62 53.855 144.766 54.002 147.004 54.002 149.252 54.002 150.667 53.65 151.567 53.018 152.484 52.385 152.901 51.459 153.138 50.316L148.979 50.316zM159.856 53.699L170.271 53.699 170.271 51.582 163.545 51.582 163.545 50.413 169.827 50.413 169.827 48.297 163.545 48.297 163.545 47.129 170.271 47.129 170.271 45.011 159.856 45.011 159.856 53.699zM30.863 53.699L34.393 53.699 34.393 49.395 34.422 49.395 38.345 53.699 42.387 53.699 42.387 45.011 38.855 45.011 38.855 49.266 38.816 49.266 35.077 45.011 30.863 45.011 30.863 53.699zM122.658 53.699L126.189 53.699 126.189 49.395 126.217 49.395 130.14 53.699 134.182 53.699 134.182 45.011 130.649 45.011 130.649 49.266 130.611 49.266 126.872 45.011 122.658 45.011 122.658 53.699zM67.377 50.401C67.377 53.164 69.544 54.002 73.34 54.002 77.132 54.002 79.299 53.164 79.299 50.401L79.299 45.011 75.612 45.011 75.612 50.269C75.612 51.387 74.542 51.739 73.34 51.739 72.136 51.739 71.065 51.387 71.065 50.269L71.065 45.011 67.377 45.011 67.377 50.401zM56.025 50.595C56.523 50.672 56.693 50.924 56.693 51.181 56.693 51.594 56.379 51.885 55.228 51.885 54.651 51.885 54.246 51.824 53.971 51.703 53.711 51.569 53.592 51.374 53.58 51.082L49.132 51.082C49.146 53.637 52.245 54.002 55.085 54.002 59.231 54.002 61.088 53.006 61.088 50.889 61.088 49.416 59.937 48.613 58.079 48.357L53.67 47.748C53.305 47.701 53.188 47.541 53.188 47.299 53.188 46.934 53.566 46.677 54.665 46.677 55.071 46.677 55.489 46.727 55.815 46.861 56.156 46.982 56.379 47.201 56.379 47.553L60.669 47.553C60.538 45.717 58.824 44.707 54.665 44.707 51.63 44.707 49.261 45.316 49.261 47.566 49.261 48.783 50.009 49.758 51.814 50.011L56.025 50.595z"/>
  </g>
</svg>
