<svg xmlns="http://www.w3.org/2000/svg" width="430" height="121" viewBox="0 0 430 121">
  <g fill="none" fill-rule="evenodd">
    <path fill="#005039" d="M215.211,120.698 C62.518,120.698 0.472,93.896 0.472,60.835 C0.472,27.775 62.518,0.976 215.211,0.976 C367.9,0.976 429.397,27.775 429.397,60.835 C429.397,93.896 367.9,120.698 215.211,120.698 Z"/>
    <path fill="#FFFFFE" d="M373.676,94.439 C418.697,81.597 425.42,63.522 425.42,53.892 C425.42,53.639 425.377,53.384 425.367,53.131 C425.691,54.665 425.867,56.214 425.867,57.771 C425.867,67.125 419.236,84.714 374.84,97.378 C336.533,108.302 281.053,114.075 214.392,114.075 C146.806,114.075 93.455,108.657 55.82,97.966 C31.353,91.015 15.295,81.542 8.718,70.339 C16.423,80.343 31.631,88.634 54.13,95.023 C91.864,105.741 145.304,111.173 212.966,111.173 C279.705,111.173 335.277,105.386 373.676,94.439"/>
    <path fill="#FFFFFE" d="M95.554 74.659C90.765 78.048 84.214 79.419 80.032 79.419 64.45 79.419 56.768 67.447 57.917 55.179 59.092 42.629 69.028 30.508 85.909 30.508 91.824 30.508 96.117 31.661 97.714 32.311 97.253 37.216 96.89 41.905 96.811 46.597L95.44 46.597C94.845 40.608 90.455 37.432 84.393 37.432 76.17 37.432 69.219 43.852 68.209 54.674 67.445 62.825 73.362 72.062 82.885 72.062 86.922 72.062 92.872 70.181 97.069 66.94L95.554 74.659M134.757 60.781C133.229 68.06 128.057 73.673 121.321 72.882 111.877 71.77 110.842 59.954 112.481 52.142 113.604 46.8 117.7 39.21 125.889 40.174 135.793 41.34 136.383 53.038 134.757 60.781zM145.117 59.126C147.612 47.244 141.76 35.473 128.291 33.888 116.141 32.46 104.895 40.578 102.234 53.26 99.669 65.479 105.317 77.567 118.457 79.112 130.276 80.503 142.161 73.212 145.117 59.126zM155.227 38.92C155.405 37.037 154.681 36.163 152.402 36.097L152.522 34.82 169.188 34.82 169.069 36.097C166.167 36.231 165.377 36.769 165.132 39.39L162.798 64.323C162.087 71.92 165.106 73.399 170.55 73.399 175.995 73.399 179.303 71.784 180.005 64.323L182.337 39.39C182.581 36.769 181.895 36.231 179.016 36.097L179.137 34.82 195.802 34.82 195.684 36.097C193.393 36.163 192.504 37.037 192.327 38.92L190.08 62.916C188.919 75.347 182.093 79.312 169.998 79.312 157.902 79.312 151.817 75.347 152.894 63.854L155.227 38.92M204.559 38.92C204.735 37.037 204.01 36.163 201.732 36.097L201.85 34.82 215.832 34.82 231.687 63.585 231.82 63.585 234.043 39.861C234.371 36.365 232.176 36.097 230.363 36.097L230.484 34.82 243.525 34.82 243.404 36.097C241.111 36.163 240.223 37.037 240.049 38.92L236.365 78.239 229.244 78.239 210.097 44.364 209.964 44.364 207.263 73.198C206.938 76.69 209.128 76.958 210.945 76.958L210.826 78.239 197.789 78.239 197.906 76.958C200.197 76.896 201.085 76.021 201.262 74.136L204.559 38.92M268.926 72.862C268.629 76.087 270.897 76.958 272.982 76.958L272.857 78.239 254.039 78.239 254.162 76.958C256.244 76.958 258.678 76.087 258.979 72.862L261.949 41.136 255.229 41.136C251.736 41.136 250.029 43.556 248.904 48.395L247.627 48.395 249.262 35.222 285.691 35.222 284.863 48.395 283.586 48.395C283.367 43.556 282.115 41.136 278.619 41.136L271.897 41.136 268.926 72.862M300.645 72.927C300.418 75.347 300.807 76.222 304.633 76.958L304.516 78.239 287.105 78.239 287.227 76.958C289.895 76.485 290.471 75.347 290.768 72.189L293.846 39.323C294.02 37.441 293.295 36.566 291.014 36.499L291.137 35.222 314.996 35.222C322.723 35.222 328.295 38.85 327.565 46.648 327.08 51.891 324.418 56.593 314.984 59.013L324.525 74.136C325.695 76.021 326.82 76.896 328.58 76.757L328.443 78.239 314.594 78.239C314.594 78.239 306.828 63.585 302.965 57.466L302.975 57.334C312.908 56.057 316.863 54.713 317.434 48.665 317.935 43.288 314.102 41.136 308.053 41.136L303.621 41.136 300.645 72.927M330.363 34.82L347.711 34.82 347.588 36.097C346.035 36.163 344.873 36.432 344.738 37.846 344.687 38.382 344.832 38.988 345.406 40.734L350.305 55.182 350.44 55.182 357.385 42.01C358.359 40.198 358.719 39.255 358.812 38.247 358.949 36.769 357.873 36.097 356.191 36.097L356.31 34.82 370.426 34.82 370.309 36.097C368.822 36.097 367.641 36.566 366.828 38.045L352.719 63.113 351.685 74.136C351.512 76.021 352.574 76.896 354.85 76.958L354.732 78.239 337.928 78.239 338.045 76.958C340.338 76.896 341.565 76.021 341.742 74.136L342.787 62.979 333.607 38.247C332.85 36.298 331.861 36.097 330.246 36.097L330.363 34.82M361.709 76.312C361.709 74.735 362.898 73.547 364.418 73.547 365.926 73.547 367.112 74.735 367.112 76.312 367.112 77.912 365.926 79.092 364.418 79.092 362.898 79.092 361.709 77.912 361.709 76.312zM364.418 79.646C366.233 79.646 367.785 78.239 367.785 76.312 367.785 74.401 366.233 72.993 364.418 72.993 362.589 72.993 361.039 74.401 361.039 76.312 361.039 78.239 362.589 79.646 364.418 79.646zM363.717 76.575L364.385 76.575 365.396 78.239 366.049 78.239 364.959 76.55C365.519 76.479 365.952 76.178 365.952 75.492 365.952 74.735 365.501 74.401 364.598 74.401L363.137 74.401 363.137 78.239 363.717 78.239 363.717 76.575zM363.717 76.083L363.717 74.894 364.51 74.894C364.91 74.894 365.346 74.981 365.346 75.457 365.346 76.048 364.903 76.083 364.411 76.083L363.717 76.083z"/>
  </g>
</svg>
