<svg xmlns="http://www.w3.org/2000/svg" xmlns:xlink="http://www.w3.org/1999/xlink" width="209" height="30" viewBox="0 0 209 30">
  <defs>
    <polygon id="fbfs-a" points="8.503 9.767 .247 9.767 .247 .401 8.503 .401"/>
    <polygon id="fbfs-c" points="8.337 9.767 .056 9.767 .056 .401 8.337 .401"/>
    <polygon id="fbfs-e" points="6.291 .371 6.291 9.721 .175 9.721 .175 .371 6.291 .371"/>
  </defs>
  <g fill="none" fill-rule="evenodd">
    <path fill="#231F20" d="M12.2597722 28.9384884L.505444482 28.9384884 8.30834415.00662790698 36.2472405.00662790698 32.8752806 13.0245349 23.9127455 13.0245349C18.1495181 12.9784884 15.858906 16.2875581 14.8516518 19.4173256L12.2597722 28.9384884M48.9092853 28.9310233C52.6335395 28.9310233 55.655302 25.942186 55.655302 22.2270698 55.655302 18.5112558 52.6335395 15.4993953 48.9092853 15.4993953L48.8093288 15.4282326 34.6616365 15.4282326 31.1128304 28.9233488 48.9092853 28.9310233M53.1374462 12.9699767C56.7372789 12.9699767 59.6332221 10.0669535 59.6332221 6.48509302 59.6332221 2.90253488 56.7372789.000209302326 53.1374462.000209302326L53.0885164.00648837209 38.6388575.00648837209 35.2920615 13.025093 53.0381886 13.025093 53.1374462 12.9699767"/>
    <path fill="#ED3124" d="M32.2467428,15.4517442 L30.0057595,23.8343023 C29.1753515,26.6836047 25.9529769,28.9384884 23.1339234,28.9384884 L14.7019268,28.9238372 L17.0414686,20.260814 C17.8474117,17.7784884 19.7598666,15.4280233 23.0584318,15.4280233 L32.2467428,15.4517442"/>
    <path fill="#231F20" d="M58.072013,26.9476744 C58.3991435,26.9476744 58.700411,26.9253488 58.700411,26.5116279 C58.700411,26.1830233 58.4250064,26.1216279 58.1223408,26.1216279 L57.5680365,26.1216279 L57.5680365,26.9476744 L58.072013,26.9476744 Z M57.5680365,28.4546512 L57.1654144,28.4546512 L57.1654144,25.7783721 L58.1992304,25.7783721 C58.8262304,25.7783721 59.129595,26.0113953 59.129595,26.5346512 C59.129595,27.0188372 58.8262304,27.2232558 58.4487722,27.2762791 L59.2043876,28.4546512 L58.7528358,28.4546512 L58.0461502,27.2923256 L57.5680365,27.2923256 L57.5680365,28.4546512 Z M58.072013,29.0483721 C59.129595,29.0483721 59.960003,28.2286047 59.960003,27.1123256 C59.960003,26.0113953 59.129595,25.1769767 58.072013,25.1769767 C57.0144311,25.1769767 56.1595582,26.0113953 56.1595582,27.1123256 C56.1595582,28.2286047 57.0144311,29.0483721 58.072013,29.0483721 L58.072013,29.0483721 Z M55.7059094,27.1123256 C55.7059094,25.7783721 56.7886552,24.7946512 58.072013,24.7946512 C59.330207,24.7946512 60.4122538,25.7783721 60.4122538,27.1123256 C60.4122538,28.4546512 59.330207,29.4376744 58.072013,29.4376744 C56.7886552,29.4376744 55.7059094,28.4546512 55.7059094,27.1123256 L55.7059094,27.1123256 Z"/>
    <g fill="#231F20" transform="translate(64.308)">
      <path d="M0 10.5986512L0 10.309814C.628397993 10.2484186 1.00725418 10.1305116 1.15683946 9.96725581 1.30922074 9.80260465 1.38401338 9.38190698 1.38401338 8.69469767L1.38401338 1.84213953C1.38401338 1.2812093 1.30922074.912837209 1.13237458.734232558.956926421.562604651.579468227.460744186 0 .414697674L0 .124465116 8.45646154.124465116 8.5067893 2.3967907 8.05453846 2.3967907C7.95458194 1.67051163 7.75257191 1.21004651 7.45130435 1.014 7.15003679.820046512 6.56917057.72655814 5.68773579.72655814L3.49847826.72655814C3.29576923.72655814 3.17134783.764930233 3.09585619.836093023 3.04622742.905860465 3.02036455 1.0467907 3.02036455 1.2567907L3.02036455 4.79190698 5.31097659 4.79190698C5.99110033 4.79190698 6.41748829 4.69074419 6.59503344 4.48772093 6.79564548 4.29376744 6.92146488 3.87934884 7.04728428 3.27027907L7.42544147 3.27027907 7.42544147 6.93027907 7.04728428 6.93027907C6.92146488 6.32260465 6.7711806 5.91655814 6.59503344 5.71353488 6.39372241 5.51818605 5.96523746 5.41702326 5.31097659 5.41702326L3.02036455 5.41702326 3.02036455 8.88306977C3.02036455 9.46772093 3.09585619 9.834 3.27270234 9.99865116 3.4488495 10.1612093 3.85007358 10.2637674 4.45400669 10.309814L4.45400669 10.5986512 0 10.5986512M11.5283421 10.3486047C11.2256766 10.3262791 10.9999007 10.2872093 10.8740813 10.232093 10.6979341 10.1462791 10.5965796 9.98232558 10.5965796 9.75488372 10.5965796 9.63906977 10.6483054 9.4827907 10.6979341 9.28744186 10.7741247 9.0927907 10.9740378 8.54651163 11.352195 7.66465116L14.901001 7.66465116 15.4553054 8.96790698C15.530797 9.1555814 15.6055896 9.32790698 15.6566164 9.49883721 15.6824793 9.66348837 15.7069441 9.77930233 15.7069441 9.85046512 15.7069441 10.0451163 15.6566164 10.17 15.530797 10.2251163 15.4308405 10.2718605 15.1785027 10.317907 14.7751816 10.3486047L14.7751816 10.5983721 18.2240311 10.5983721 18.2240311 10.3486047C17.9220645 10.3095349 17.6962886 10.2251163 17.5432084 10.1002326 17.418787 9.98232558 17.2419408 9.66348837 17.0161649 9.1555814L13.6169441 1.45953488 13.3646064 1.45953488 10.522486 8.11744186C10.0947 9.11581395 9.79203445 9.73325581 9.6144893 9.95232558 9.43834214 10.1776744 9.18600435 10.3095349 8.83510803 10.3486047L8.83510803 10.5983721 11.5283421 10.5983721 11.5283421 10.3486047zM13.1388304 3.37116279L14.701088 7.11 11.5779709 7.11 13.1388304 3.37116279 13.1388304 3.37116279zM22.3767702 10.5986512L22.3767702 10.3488837C21.8748906 10.309814 21.5470612 10.2170233 21.3946799 10.0844651 21.2185328 9.95190698 21.1430411 9.63097674 21.1430411 9.12446512L21.1430411 6.45516279 21.9245194 6.42376744 25.144797 10.5986512 27.3368505 10.5986512 27.3368505 10.3488837C27.0845127 10.3258605 26.8566398 10.2637674 26.6811916 10.1702791 26.5057435 10.0691163 26.3288973 9.91213953 26.1527502 9.70213953L23.3581615 6.26818605C24.1137769 6.15097674 24.71771 5.90818605 25.144797 5.55027907 25.5991448 5.18260465 25.8256197 4.66702326 25.8256197 3.98888372 25.8256197 2.98144186 25.3216431 2.29493023 24.316486 1.92097674 23.8125094 1.71725581 23.1582485 1.61609302 22.3767702 1.61609302L18.6014893 1.61609302 18.6014893 1.87353488C19.1054659 1.91260465 19.4074324 2.00609302 19.5577167 2.154 19.709399 2.30260465 19.7848906 2.61516279 19.7848906 3.09097674L19.7848906 8.96748837C19.7848906 9.53051163 19.709399 9.8884186 19.5828806 10.0453953 19.4570612 10.2009767 19.1299308 10.3021395 18.6014893 10.3488837L18.6014893 10.5986512 22.3767702 10.5986512zM21.1430411 2.6067907C21.1430411 2.40516279 21.1947669 2.2712093 21.2947234 2.21748837 21.371613 2.16167442 21.597389 2.13934884 21.998613 2.13934884 22.5543154 2.13934884 23.0317301 2.21748837 23.3581615 2.36539535 24.0138204 2.65353488 24.3402518 3.19283721 24.3402518 3.98051163 24.3402518 4.79190698 23.9620946 5.35493023 23.258205 5.65074419 22.8304191 5.81469767 22.1251314 5.91655814 21.1430411 5.95562791L21.1430411 2.6067907 21.1430411 2.6067907zM27.6629324 10.5986512L27.6629324 10.3488837C28.2430997 10.2944651 28.593996 10.1702791 28.7470763 9.97423256 28.9225244 9.77260465 28.9966181 9.31911628 28.9966181 8.60190698L28.9966181 3.09097674C28.9966181 2.59981395 28.9225244 2.27818605 28.7701431 2.13027907 28.6198589 1.98237209 28.2668656 1.89725581 27.7132602 1.87353488L27.7132602 1.61609302 30.4064943 1.61609302 33.5533773 8.46097674 36.5485779 1.61609302 39.2676749 1.61609302 39.2676749 1.87353488C38.7636983 1.90353488 38.4365679 1.9984186 38.2862836 2.14702326 38.1353003 2.29493023 38.0605077 2.6067907 38.0605077 3.09097674L38.0605077 9.12446512C38.0605077 9.62469767 38.1353003 9.93655814 38.2862836 10.0767907 38.4365679 10.2170233 38.7636983 10.309814 39.2676749 10.3488837L39.2676749 10.5986512 35.4399692 10.5986512 35.4399692 10.3488837C35.9942736 10.309814 36.3486649 10.2086512 36.4730863 10.0607442 36.5982067 9.90376744 36.6736983 9.54586047 36.6736983 8.96748837L36.6736983 2.87330233 33.2010829 10.5986512 32.9983739 10.5986512 29.6012502 3.19283721 29.6012502 8.60190698C29.6012502 9.34283721 29.7026047 9.82632558 29.9290796 10.0523721 30.053501 10.2009767 30.3820294 10.3021395 30.8601431 10.3488837L30.8601431 10.5986512 27.6629324 10.5986512M48.5564318 4.83195349L48.5564318 1.25706977C48.5564318 1.00869767 48.6067595.851023256 48.6822512.795906977 48.7563448.741488372 48.9576559.711488372 49.2861843.711488372 50.1655221.711488372 50.8218799.805674419 51.2496659.983581395 52.0297462 1.3107907 52.4065054 1.94288372 52.4065054 2.88823256 52.4065054 3.69265116 52.0793749 4.24590698 51.3992512 4.55148837 51.0483548 4.71474419 50.594007 4.80055814 50.0662645 4.80893023L48.5564318 4.83195349zM50.594007 10.5989302C51.4754418 10.5989302 52.2310572 10.4754419 52.8349903 10.2319535 53.9673649 9.77288372 54.5461341 8.92172093 54.5461341 7.67986047 54.5461341 6.94660465 54.2944953 6.36893023 53.7674518 5.96288372 53.2634753 5.55683721 52.6329803 5.25962791 51.9032278 5.088 52.5078599 4.93939535 52.9349468 4.76148837 53.2376124 4.53474419 53.7674518 4.1524186 54.0190906 3.58311628 54.0190906 2.83311628 54.0190906 1.8424186 53.6402344 1.14055814 52.9104819.734511628 52.1548666.328465116 51.1476124.124744186 49.8642545.124744186L45.4333147.124744186 45.4333147.414976744C46.0631107.444976744 46.4901977.546837209 46.6670438.711488372 46.8690538.883116279 46.9445455 1.25706977 46.9445455 1.8424186L46.9445455 8.88334884C46.9445455 9.47567442 46.8690538 9.85032558 46.6670438 10.0135814 46.4901977 10.1775349 46.0631107 10.2717209 45.4333147 10.310093L45.4333147 10.5989302 50.594007 10.5989302zM48.8080706 9.90404651C48.6305254 9.82590698 48.5564318 9.64660465 48.5564318 9.37381395L48.5564318 5.43195349C48.7060171 5.44102326 48.8080706 5.44102326 48.8590973 5.44102326L49.336512 5.44102326C50.3186023 5.44102326 51.1231475 5.60427907 51.7781074 5.93148837 52.4065054 6.25311628 52.7350338 6.8607907 52.7350338 7.74334884 52.7350338 8.63218605 52.4575321 9.24055814 51.9032278 9.55381395 51.3754853 9.86567442 50.6953615 10.0219535 49.8642545 10.0219535 49.3106492 10.0219535 48.9576559 9.98218605 48.8080706 9.90404651L48.8080706 9.90404651zM55.9307067 1.61609302L59.7821783 1.61609302 59.7821783 1.87353488C59.2523388 1.90353488 58.9273054 1.99074419 58.7749241 2.13027907 58.5994759 2.2712093 58.5225863 2.59144186 58.5225863 3.09097674L58.5225863 7.43051163C58.5225863 8.14074419 58.6246398 8.69469767 58.8252518 9.09306977 59.1775462 9.81934884 59.8835328 10.1772558 60.890787 10.1772558 61.9965997 10.1772558 62.7522151 9.81097674 63.1296732 9.07004651 63.3323823 8.64725581 63.4309408 8.00818605 63.4309408 7.14306977L63.4309408 3.61423256C63.4309408 2.87330233 63.3561482 2.41213953 63.179302 2.22516279 63.0038538 2.03748837 62.6753254 1.92097674 62.1741448 1.87353488L62.1741448 1.61609302 65.3196298 1.61609302 65.3196298 1.87353488C64.7918873 1.92795349 64.438894 2.05353488 64.2879107 2.24818605 64.1117635 2.45051163 64.0362719 2.90330233 64.0362719 3.61423256L64.0362719 7.14306977C64.0362719 8.07865116 63.8852886 8.81190698 63.607787 9.33446512 63.0807435 10.3021395 62.0727903 10.7870233 60.5874224 10.7870233 59.1034525 10.7870233 58.1213622 10.309814 57.5915227 9.35818605 57.2888572 8.84330233 57.1392719 8.17144186 57.1392719 7.32934884L57.1392719 3.09097674C57.1392719 2.59981395 57.0630813 2.27818605 56.912098 2.13934884 56.7618137 1.9984186 56.4346833 1.91260465 55.9307067 1.87353488L55.9307067 1.61609302M69.474396 10.5986512L69.474396 10.3488837C68.9704194 10.309814 68.64259 10.2170233 68.4923057 10.0844651 68.3392254 9.95190698 68.2644328 9.63097674 68.2644328 9.12446512L68.2644328 6.45516279 69.0200482 6.42376744 72.2424227 10.5986512 74.4323793 10.5986512 74.4323793 10.3488837C74.1800415 10.3258605 73.9542656 10.2637674 73.7767204 10.1702791 73.6012722 10.0691163 73.4244261 9.91213953 73.2482789 9.70213953L70.4557873 6.26818605C71.2093057 6.15097674 71.8132388 5.90818605 72.2424227 5.55027907 72.6946736 5.18260465 72.9211485 4.66702326 72.9211485 3.98888372 72.9211485 2.98144186 72.4192689 2.29493023 71.4378776 1.92097674 70.9080381 1.71725581 70.2537773 1.61609302 69.474396 1.61609302L65.6970181 1.61609302 65.6970181 1.87353488C66.2009946 1.91260465 66.5036602 2.00609302 66.6539445 2.154 66.8049278 2.30260465 66.8804194 2.61516279 66.8804194 3.09097674L66.8804194 8.96748837C66.8804194 9.53051163 66.8049278 9.8884186 66.6784094 10.0453953 66.55259 10.2009767 66.2268575 10.3021395 65.6970181 10.3488837L65.6970181 10.5986512 69.474396 10.5986512zM68.2644328 2.6067907C68.2644328 2.40516279 68.2902957 2.2712093 68.3902522 2.21748837 68.4671418 2.16167442 68.6929177 2.13934884 69.0955398 2.13934884 69.6498441 2.13934884 70.1279579 2.21748837 70.4557873 2.36539535 71.1093492 2.65353488 71.4378776 3.19283721 71.4378776 3.98051163 71.4378776 4.79190698 71.0834863 5.35493023 70.3537338 5.65074419 69.9259478 5.81469767 69.2227572 5.91655814 68.2644328 5.95562791L68.2644328 2.6067907 68.2644328 2.6067907zM74.7585311 10.5986512L74.7585311 10.3488837C75.2625077 10.3021395 75.5903371 10.2086512 75.7399224 10.0844651 75.8923037 9.9595814 75.9670963 9.63934884 75.9670963 9.12446512L75.9670963 3.09097674C75.9670963 2.6067907 75.8923037 2.29493023 75.7399224 2.14702326 75.5903371 1.9984186 75.2876716 1.90353488 74.7585311 1.87353488L74.7585311 1.61609302 81.9840595 1.61609302 82.0336883 3.56748837 81.7065579 3.56748837C81.5793405 2.9667907 81.4038923 2.5767907 81.1781164 2.40516279 80.9523405 2.22516279 80.422501 2.13934884 79.6417217 2.13934884L77.7795946 2.13934884C77.6034475 2.13934884 77.4776281 2.17074419 77.4266013 2.23283721 77.3776716 2.29493023 77.3511097 2.41981395 77.3511097 2.59144186L77.3511097 5.62004651 79.4411097 5.62004651C80.0212769 5.62004651 80.3966381 5.53283721 80.5483204 5.36190698 80.7251666 5.19027907 80.849588 4.83865116 80.9264776 4.31539535L81.254307 4.31539535 81.254307 7.45353488 80.9264776 7.45353488C80.8265211 6.93027907 80.7000027 6.57934884 80.5483204 6.4167907 80.3966381 6.24446512 80.0212769 6.15865116 79.4411097 6.15865116L77.3511097 6.15865116 77.3511097 9.51516279C77.3511097 9.78795349 77.4266013 9.94353488 77.6034475 9.99865116 77.7795946 10.0453953 78.2835712 10.0691163 79.1384441 10.0691163 80.0709057 10.0691163 80.7510294 9.96725581 81.1781164 9.76423256 81.6052033 9.56818605 82.0085244 9.07772093 82.3601197 8.30539535L82.7382769 8.30539535 82.1091799 10.5986512 74.7585311 10.5986512M85.8090391 10.3486047C85.5063736 10.3262791 85.2805977 10.2872093 85.1554773 10.232093 84.9793301 10.1462791 84.8786746 9.98232558 84.8786746 9.75488372 84.8786746 9.63906977 84.9297013 9.4827907 84.9793301 9.28744186 85.0541227 9.0927907 85.2805977 8.54651163 85.633591 7.66465116L89.181698 7.66465116 89.7360023 8.96790698C89.8380559 9.1555814 89.8869856 9.32790698 89.9373134 9.49883721 89.9876411 9.66348837 89.9876411 9.77930233 89.9876411 9.85046512 89.9876411 10.0451163 89.9373134 10.17 89.8380559 10.2251163 89.7108385 10.2718605 89.4591997 10.317907 89.0565776 10.3486047L89.0565776 10.5983721 92.5054271 10.5983721 92.5054271 10.3486047C92.2027615 10.3095349 91.9769856 10.2251163 91.8246043 10.1002326 91.6987849 9.98232558 91.5233368 9.66348837 91.2975609 9.1555814L87.8983401 1.45953488 87.6460023 1.45953488 84.8024839 8.11744186C84.375397 9.11581395 84.0727314 9.73325581 83.8972833 9.95232558 83.745601 10.1776744 83.4674003 10.3095349 83.115805 10.3486047L83.115805 10.5983721 85.8090391 10.5983721 85.8090391 10.3486047zM87.4202264 3.37116279L88.981086 7.11 85.8607649 7.11 87.4202264 3.37116279 87.4202264 3.37116279zM92.9327936 1.61609302L96.7828672 1.61609302 96.7828672 1.87353488C96.2551247 1.90353488 95.9286933 1.99074419 95.77771 2.13027907 95.6008639 2.2712093 95.5253722 2.59144186 95.5253722 3.09097674L95.5253722 7.43051163C95.5253722 8.14074419 95.6260278 8.69469767 95.8273388 9.09306977 96.1803321 9.81934884 96.8856197 10.1772558 97.8914759 10.1772558 98.9979876 10.1772558 99.753603 9.81097674 100.132459 9.07004651 100.33377 8.64725581 100.434426 8.00818605 100.434426 7.14306977L100.434426 3.61423256C100.434426 2.87330233 100.358934 2.41213953 100.182787 2.22516279 100.005941 2.03748837 99.6550445 1.92097674 99.1748338 1.87353488L99.1748338 1.61609302 102.322416 1.61609302 102.322416 1.87353488C101.793974 1.92795349 101.44168 2.05353488 101.289998 2.24818605 101.114549 2.45051163 101.038359 2.90330233 101.038359 3.61423256L101.038359 7.14306977C101.038359 8.07865116 100.885978 8.81190698 100.610573 9.33446512 100.082131 10.3021395 99.0748773 10.7870233 97.5895094 10.7870233 96.1041415 10.7870233 95.1220512 10.309814 94.5936097 9.35818605 94.2923421 8.84330233 94.1406599 8.17144186 94.1406599 7.32934884L94.1406599 3.09097674C94.1406599 2.59981395 94.0665662 2.27818605 93.9141849 2.13934884 93.7645997 1.9984186 93.4367702 1.91260465 92.9327936 1.87353488L92.9327936 1.61609302"/>
    </g>
    <g transform="translate(64.308 18.14)">
      <path fill="#231F20" d="M.642377926 11.2963256L.642377926 11.0074884C1.27217391 10.946093 1.64963211 10.828186 1.80061538 10.6649302 1.95159866 10.5002791 2.0263913 10.0795814 2.0263913 9.39237209L2.0263913 2.53981395C2.0263913 1.97888372 1.95159866 1.61051163 1.77475251 1.43190698 1.59790635 1.26027907 1.22044816 1.1584186.642377926 1.11237209L.642377926.822139535 9.07437458.822139535 9.15056522 3.09446512 8.69831438 3.09446512C8.59556187 2.36818605 8.39564883 1.90772093 8.09228428 1.71167442 7.78961873 1.51772093 7.18708361 1.42423256 6.30634783 1.42423256L4.14085619 1.42423256C3.93954515 1.42423256 3.78995987 1.46260465 3.73823411 1.53376744 3.68720736 1.60353488 3.6368796 1.74446512 3.6368796 1.95446512L3.6368796 5.4895814 5.95335452 5.4895814C6.60761538 5.4895814 7.05986622 5.3884186 7.23671237 5.18539535 7.41425753 4.99144186 7.56384281 4.57702326 7.6903612 3.96795349L8.0678194 3.96795349 8.0678194 7.62795349 7.6903612 7.62795349C7.56384281 7.02027907 7.41425753 6.61423256 7.23671237 6.4112093 7.03610033 6.21586047 6.60761538 6.11469767 5.95335452 6.11469767L3.6368796 6.11469767 3.6368796 9.58074419C3.6368796 10.1653953 3.73823411 10.5316744 3.91438127 10.6963256 4.09122742 10.8588837 4.4938495 10.9614419 5.07261873 11.0074884L5.07261873 11.2963256.642377926 11.2963256M9.50132174 11.2963256L9.50132174 11.0465581C10.0556261 11.0074884 10.4100174 10.9300465 10.5596027 10.7974884 10.7350508 10.671907 10.8112415 10.3516744 10.8112415 9.82213953L10.8112415 3.78865116C10.8112415 3.28911628 10.7350508 2.96888372 10.5596027 2.82097674 10.4100174 2.68004651 10.0556261 2.59493023 9.50132174 2.5712093L9.50132174 2.31376744 13.5303385 2.31376744 13.5303385 2.5712093C12.9760341 2.59493023 12.5992749 2.68004651 12.4461946 2.82097674 12.2707465 2.96888372 12.1966528 3.28911628 12.1966528 3.78865116L12.1966528 9.82213953C12.1966528 10.3516744 12.2707465 10.671907 12.4461946 10.7974884 12.5992749 10.9300465 12.9760341 11.0074884 13.5303385 11.0465581L13.5303385 11.2963256 9.50132174 11.2963256M13.9574254 11.2963256L13.9574254 11.0465581C14.5117298 10.9921395 14.8640241 10.8679535 15.0408702 10.671907 15.1911545 10.4702791 15.2673452 10.0167907 15.2673452 9.2995814L15.2673452 3.3212093 15.0898 3.10283721C14.889887 2.8684186 14.7123418 2.71981395 14.5879204 2.66539535 14.4355391 2.61027907 14.2342281 2.5795814 13.9574254 2.5712093L13.9574254 2.31376744 16.2739003 2.31376744 21.5100843 8.84609302 21.5100843 4.31190698C21.5100843 3.56190698 21.4087298 3.0784186 21.1822548 2.85167442 21.0319706 2.71144186 20.728606 2.61027907 20.2267264 2.5712093L20.2267264 2.31376744 23.4211411 2.31376744 23.4211411 2.5712093C22.8940977 2.61865116 22.5411043 2.7512093 22.3649572 2.94586047 22.2139739 3.14818605 22.1140174 3.60097674 22.1140174 4.31190698L22.1140174 11.4526047 21.8875425 11.4526047 15.8712783 4.01539535 15.8712783 9.2995814C15.8712783 10.0405116 15.9719338 10.524 16.1977097 10.7500465 16.349392 10.8986512 16.6513585 10.999814 17.1546361 11.0465581L17.1546361 11.2963256 13.9574254 11.2963256M26.5181856 11.0462791C26.1896572 11.0239535 25.9638813 10.9848837 25.8646237 10.9297674 25.6626137 10.8439535 25.5871221 10.68 25.5871221 10.4525581 25.5871221 10.3367442 25.6129849 10.1804651 25.6884766 9.98511628 25.7381054 9.79046512 25.9638813 9.24418605 26.3168746 8.36232558L29.8670786 8.36232558 30.4451488 9.6655814C30.5220385 9.85325581 30.5709682 10.0255814 30.620597 10.1965116 30.6709247 10.3611628 30.6974866 10.4769767 30.6974866 10.5481395 30.6974866 10.7427907 30.620597 10.8676744 30.5220385 10.9227907 30.3948211 10.9695349 30.1431823 11.0155814 29.7405602 11.0462791L29.7405602 11.2960465 33.2145736 11.2960465 33.2145736 11.0462791C32.8860452 11.0072093 32.6602692 10.9227907 32.5344498 10.797907 32.3827676 10.68 32.2073194 10.3611628 31.9808445 9.85325581L28.6074866 2.1572093 28.3299849 2.1572093 25.5109314 8.81511628C25.0831455 9.81348837 24.7811789 10.4309302 24.6057308 10.65 24.4288846 10.8753488 24.1534799 11.0072093 23.8249515 11.0462791L23.8249515 11.2960465 26.5181856 11.2960465 26.5181856 11.0462791zM28.104209 4.06883721L29.6895334 7.80767442 26.5440485 7.80767442 28.104209 4.06883721 28.104209 4.06883721zM33.5914726 11.2963256L33.5914726 11.0465581C34.1457769 10.9921395 34.4980712 10.8679535 34.6742184 10.671907 34.8252017 10.4702791 34.9006933 10.0167907 34.9006933 9.2995814L34.9006933 3.3212093 34.7238472 3.10283721C34.5239341 2.8684186 34.34569 2.71981395 34.2198706 2.66539535 34.0695863 2.61027907 33.8682753 2.5795814 33.5914726 2.5712093L33.5914726 2.31376744 35.9079475 2.31376744 41.1441314 8.84609302 41.1441314 4.31190698C41.1441314 3.56190698 41.0420779 3.0784186 40.816302 2.85167442 40.6632217 2.71144186 40.3381883 2.61027907 39.8607736 2.5712093L39.8607736 2.31376744 43.0321214 2.31376744 43.0321214 2.5712093C42.5281448 2.61865116 42.1744525 2.7512093 41.9990043 2.94586047 41.8235562 3.14818605 41.7473656 3.60097674 41.7473656 4.31190698L41.7473656 11.4526047 41.5215896 11.4526047 35.5053254 4.01539535 35.5053254 9.2995814C35.5053254 10.0405116 35.6052819 10.524 35.8317569 10.7500465 35.9575763 10.8986512 36.2847067 10.999814 36.7628204 11.0465581L36.7628204 11.2963256 33.5914726 11.2963256"/>
      <g transform="translate(43.338 1.756)">
        <mask id="fbfs-b" fill="#fff">
          <use xlink:href="#fbfs-a"/>
        </mask>
        <path fill="#231F20" d="M4.92988361,0.401302326 C5.43106421,0.401302326 5.93434181,0.472465116 6.46348227,0.620372093 C6.96745886,0.76827907 7.27012441,0.83944186 7.32185017,0.83944186 C7.44557258,0.83944186 7.57069298,0.807348837 7.69721137,0.736883721 C7.79926488,0.658744186 7.87475652,0.549209302 7.92438528,0.401302326 L8.20118796,0.401302326 L8.32630836,3.45432558 L8.0257398,3.45432558 C7.84889365,2.84455814 7.59655585,2.36106977 7.32185017,1.9864186 C6.76684682,1.29153488 6.01123144,0.939906977 5.05570301,0.939906977 C4.12463946,0.939906977 3.34246221,1.31595349 2.7378301,2.06386047 C2.13529498,2.81316279 1.83262943,3.85130233 1.83262943,5.16223256 C1.83262943,6.38037209 2.13529498,7.34037209 2.78885686,8.06595349 C3.41865284,8.78455814 4.22319799,9.15083721 5.17872642,9.15083721 C5.88541204,9.15083721 6.54037191,8.9792093 7.14290702,8.64362791 C7.47143545,8.45734884 7.84889365,8.16781395 8.25151572,7.78548837 L8.50315452,8.03455814 C8.20118796,8.4175814 7.82303077,8.7447907 7.39454582,9.03362791 C6.61516455,9.52548837 5.8106194,9.7675814 4.90402074,9.7675814 C3.44451572,9.7675814 2.28627826,9.29944186 1.43140535,8.36176744 C0.64992709,7.50362791 0.247305017,6.42711628 0.247305017,5.1392093 C0.247305017,3.82060465 0.675789967,2.71269767 1.5048,1.8147907 C2.38693378,0.870139535 3.51791037,0.401302326 4.92988361,0.401302326" mask="url(#fbfs-b)"/>
      </g>
      <path fill="#231F20" d="M52.5203719 11.2963256L52.5203719 11.0465581C53.0746763 11.0074884 53.4514355 10.9300465 53.6024187 10.7974884 53.7799639 10.671907 53.8540575 10.3516744 53.8540575 9.82213953L53.8540575 3.78865116C53.8540575 3.28911628 53.7799639 2.96888372 53.6024187 2.82097674 53.4514355 2.68004651 53.0746763 2.59493023 52.5203719 2.5712093L52.5203719 2.31376744 56.5472916 2.31376744 56.5472916 2.5712093C55.9950843 2.59493023 55.640693 2.68004651 55.4652448 2.82097674 55.3156595 2.96888372 55.2394689 3.28911628 55.2394689 3.78865116L55.2394689 9.82213953C55.2394689 10.3516744 55.3156595 10.671907 55.4652448 10.7974884 55.640693 10.9300465 55.9950843 11.0074884 56.5472916 11.0465581L56.5472916 11.2963256 52.5203719 11.2963256M59.7205268 11.0462791C59.4178612 11.0239535 59.1906873 10.9848837 59.0900318 10.9297674 58.8887207 10.8439535 58.8139281 10.68 58.8139281 10.4525581 58.8139281 10.3367442 58.837694 10.1804651 58.9145836 9.98511628 58.9649114 9.79046512 59.1906873 9.24418605 59.5436806 8.36232558L63.0924866 8.36232558 63.6705569 9.6655814C63.7467475 9.85325581 63.7970753 10.0255814 63.848102 10.1965116 63.8991288 10.3611628 63.9228946 10.4769767 63.9228946 10.5481395 63.9228946 10.7427907 63.848102 10.8676744 63.7467475 10.9227907 63.6216271 10.9695349 63.3699883 11.0155814 62.9673662 11.0462791L62.9673662 11.2960465 66.4155167 11.2960465 66.4155167 11.0462791C66.1142492 11.0072093 65.8856773 10.9227907 65.735393 10.797907 65.6109716 10.68 65.4341254 10.3611628 65.2062525 9.85325581L61.8084298 2.1572093 61.556791 2.1572093 58.7132726 8.81511628C58.2840886 9.81348837 58.0093829 10.4309302 57.8325368 10.65 57.6549916 10.8753488 57.378189 11.0072093 57.0265936 11.0462791L57.0265936 11.2960465 59.7205268 11.2960465 59.7205268 11.0462791zM61.3310151 4.06883721L62.8918746 7.80767442 59.7694565 7.80767442 61.3310151 4.06883721 61.3310151 4.06883721zM66.7938137 11.2963256L66.7938137 11.0465581C67.2963923 10.999814 67.6235227 10.9063256 67.775205 10.7821395 67.9247903 10.6572558 68.0016799 10.3370233 68.0016799 9.82213953L68.0016799 3.78865116C68.0016799 3.30446512 67.9247903 2.99260465 67.775205 2.84469767 67.6235227 2.69609302 67.2963923 2.6012093 66.7938137 2.5712093L66.7938137 2.31376744 70.6438873 2.31376744 70.6438873 2.5712093C70.1399107 2.59493023 69.8127803 2.68004651 69.6359341 2.81330233 69.460486 2.95423256 69.3842953 3.24306977 69.3842953 3.69516279L69.3842953 10.2128372C69.3842953 10.3684186 69.4101582 10.4856279 69.460486 10.5714419 69.5115127 10.6572558 69.6128672 10.7109767 69.7890144 10.7346977 69.8882719 10.7430698 70.0147903 10.7500465 70.1147468 10.7584186 70.2419642 10.7667907 70.4432753 10.7667907 70.7452418 10.7667907 71.953108 10.7667907 72.7835161 10.6649302 73.2127 10.4702791 73.639787 10.2658605 74.041011 9.75934884 74.4457301 8.93888372L74.7707635 8.93888372 74.1179007 11.2963256 66.7938137 11.2963256M81.1649054 8.11318605L81.5192967 8.11318605C81.7954003 8.82202326 82.1232298 9.39272093 82.4748251 9.81411628 83.1046211 10.5480698 83.8840023 10.9150465 84.8164639 10.9150465 85.3197415 10.9150465 85.7719923 10.7580698 86.1242866 10.4378372 86.5017448 10.1176047 86.678591 9.67318605 86.678591 9.10388372 86.678591 8.58202326 86.5017448 8.1362093 86.1242866 7.75318605 85.8978117 7.5117907 85.3693702 7.15248837 84.587892 6.66062791L83.2304405 5.82551163C82.8271194 5.56806977 82.500688 5.30225581 82.273514 5.03783721 81.8212632 4.539 81.5933903 3.99202326 81.5933903 3.39132558 81.5933903 2.5862093 81.8457281 1.92411628 82.3986344 1.39248837 82.9270759.862255814 83.6316645.597139535 84.5144973.597139535 84.8653936.597139535 85.2938786.682953488 85.7978552.862255814 86.3255977 1.04086047 86.6030993 1.12737209 86.678591 1.12737209 86.879902 1.12737209 87.0050224 1.08062791 87.081213.987837209 87.1574037.900627907 87.2084304.768767442 87.2573602.597139535L87.5851896.597139535 87.9374839 3.96830233 87.5586278 3.96830233C87.306989 2.95388372 86.879902 2.24434884 86.3018318 1.83830233 85.7461294 1.43923256 85.1687582 1.23760465 84.6137548 1.23760465 84.1859689 1.23760465 83.8085107 1.36946512 83.4813803 1.61923256 83.1542498 1.87737209 83.0032666 2.22760465 83.0032666 2.68039535 83.0032666 3.09481395 83.128387 3.43806977 83.3800258 3.72690698 83.6065007 4.02272093 84.0105207 4.32690698 84.5144973 4.64713953L85.9243736 5.50667442C86.8030124 6.04388372 87.4083435 6.53574419 87.7613368 6.98086047 88.1129321 7.43434884 88.2883803 7.97155814 88.2883803 8.589 88.2883803 9.41504651 87.9878117 10.1106279 87.3573167 10.6722558 86.7282197 11.226907 85.9243736 11.5080698 84.9415843 11.5080698 84.4634706 11.5080698 83.9343301 11.413186 83.4058886 11.226907 82.8760492 11.0399302 82.5754806 10.9464419 82.500688 10.9464419 82.2993769 10.9464419 82.1721595 11.0001628 82.1232298 11.1173721 82.0477381 11.2345814 81.9967114 11.351093 81.9967114 11.4843488L81.6430191 11.4843488 81.1649054 8.11318605M89.4729699 11.2963256L89.4729699 11.0465581C89.9769465 10.999814 90.3026789 10.9063256 90.4543612 10.7821395 90.6053445 10.6572558 90.6808361 10.3370233 90.6808361 9.82213953L90.6808361 3.78865116C90.6808361 3.30446512 90.6053445 2.99260465 90.4543612 2.84469767 90.3026789 2.69609302 89.9769465 2.6012093 89.4729699 2.5712093L89.4729699 2.31376744 96.6964013 2.31376744 96.7467291 4.26516279 96.3937358 4.26516279C96.2951773 3.66446512 96.1183311 3.27446512 95.8904582 3.10283721 95.6381204 2.92283721 95.1369398 2.83702326 94.3316957 2.83702326L92.4926355 2.83702326C92.2920234 2.83702326 92.166204 2.8684186 92.1396421 2.93051163 92.0907124 2.99260465 92.0655485 3.11748837 92.0655485 3.28911628L92.0655485 6.31772093 94.1548495 6.31772093C94.7329197 6.31772093 95.1110769 6.23051163 95.2613612 6.0595814 95.4123445 5.88795349 95.5395619 5.53632558 95.6381204 5.01306977L95.9666488 5.01306977 95.9666488 8.1512093 95.6381204 8.1512093C95.5395619 7.62795349 95.4123445 7.27702326 95.2613612 7.11446512 95.085214 6.94213953 94.7329197 6.85632558 94.1548495 6.85632558L92.0655485 6.85632558 92.0655485 10.2128372C92.0655485 10.4856279 92.1396421 10.6412093 92.3164883 10.6963256 92.4926355 10.7430698 92.995913 10.7667907 93.8514849 10.7667907 94.7587826 10.7667907 95.4382074 10.6649302 95.8904582 10.461907 96.3189431 10.2658605 96.7222642 9.77539535 97.0745585 9.00306977L97.4520167 9.00306977 96.8229197 11.2963256 89.4729699 11.2963256M101.554568 11.2963256L101.554568 11.0465581C101.050591 11.0074884 100.723461 10.9146977 100.547314 10.7821395 100.397728 10.6495814 100.320839 10.3286512 100.320839 9.82213953L100.320839 7.15283721 101.076454 7.12144186 104.323993 11.2963256 106.513949 11.2963256 106.513949 11.0465581C106.235748 11.0235349 106.035835 10.9614419 105.859688 10.8679535 105.683541 10.7667907 105.505996 10.609814 105.330548 10.399814L102.535959 6.96586047C103.290177 6.84865116 103.896906 6.60586047 104.323993 6.24795349 104.776243 5.88027907 104.976856 5.36469767 104.976856 4.68655814 104.976856 3.67911628 104.499441 2.99260465 103.491488 2.61865116 102.98821 2.41493023 102.334648 2.31376744 101.554568 2.31376744L97.778588 2.31376744 97.778588 2.5712093C98.2818656 2.61027907 98.5838321 2.70376744 98.7362134 2.85167442 98.8864977 3.00027907 98.9626883 3.31283721 98.9626883 3.78865116L98.9626883 9.66516279C98.9626883 10.228186 98.8864977 10.586093 98.7599793 10.7430698 98.6341599 10.8986512 98.3077284 10.999814 97.778588 11.0465581L97.778588 11.2963256 101.554568 11.2963256zM100.320839 3.30446512C100.320839 3.10283721 100.371866 2.96888372 100.448056 2.91516279 100.547314 2.85934884 100.775187 2.83702326 101.177809 2.83702326 101.730715 2.83702326 102.185063 2.91516279 102.535959 3.06306977 103.190919 3.3512093 103.518049 3.89051163 103.518049 4.67818605 103.518049 5.4895814 103.14129 6.05260465 102.435304 6.3484186 102.00612 6.51237209 101.302929 6.61423256 100.320839 6.65330233L100.320839 3.30446512 100.320839 3.30446512zM105.834524 2.31376744L109.458822 2.31376744 109.458822 2.5712093C109.106528 2.5712093 108.877956 2.59493023 108.754932 2.634 108.527759 2.70376744 108.426404 2.85167442 108.426404 3.06306977 108.426404 3.1795814 108.450869 3.32748837 108.553621 3.53051163 108.628414 3.72655814 108.754932 4.06283721 108.980708 4.53027907L111.093076 9.25213953 113.033491 4.1395814C113.107585 3.91493023 113.184474 3.72655814 113.233404 3.57097674 113.259267 3.41330233 113.28513 3.28911628 113.28513 3.19562791 113.28513 2.93051163 113.184474 2.7512093 112.957999 2.66539535 112.831481 2.61027907 112.605006 2.5795814 112.303738 2.5712093L112.303738 2.31376744 115.071066 2.31376744 115.071066 2.54818605C114.794264 2.58655814 114.568488 2.66539535 114.443367 2.78260465 114.240658 2.95423256 114.014882 3.29748837 113.812872 3.81934884L110.818371 11.4526047 110.615662 11.4526047 107.269565 3.99167442C106.966899 3.36027907 106.739725 2.96888372 106.59014 2.81330233 106.413294 2.65702326 106.161655 2.5712093 105.834524 2.54818605L105.834524 2.31376744M115.651233 11.2963256L115.651233 11.0465581C116.204839 11.0074884 116.556434 10.9300465 116.708815 10.7974884 116.884963 10.671907 116.960454 10.3516744 116.960454 9.82213953L116.960454 3.78865116C116.960454 3.28911628 116.884963 2.96888372 116.708815 2.82097674 116.556434 2.68004651 116.204839 2.59493023 115.651233 2.5712093L115.651233 2.31376744 119.677454 2.31376744 119.677454 2.5712093C119.123849 2.59493023 118.74709 2.68004651 118.596106 2.82097674 118.419959 2.96888372 118.345167 3.28911628 118.345167 3.78865116L118.345167 9.82213953C118.345167 10.3516744 118.419959 10.671907 118.596106 10.7974884 118.74709 10.9300465 119.123849 11.0074884 119.677454 11.0465581L119.677454 11.2963256 115.651233 11.2963256"/>
      <g transform="translate(120.227 1.756)">
        <mask id="fbfs-d" fill="#fff">
          <use xlink:href="#fbfs-c"/>
        </mask>
        <path fill="#231F20" d="M4.76261371,0.401302326 C5.24072742,0.401302326 5.74400502,0.472465116 6.27174749,0.620372093 C6.77572408,0.76827907 7.07769064,0.83944186 7.12801839,0.83944186 C7.2531388,0.83944186 7.37965719,0.807348837 7.50547659,0.736883721 C7.60543311,0.658744186 7.70818562,0.549209302 7.73125251,0.401302326 L8.03531605,0.401302326 L8.15973746,3.45432558 L7.83330602,3.45432558 C7.65785786,2.84455814 7.42998495,2.36106977 7.12801839,1.9864186 C6.57371405,1.29153488 5.82019565,0.939906977 4.88773411,0.939906977 C3.93080769,0.939906977 3.15002843,1.31595349 2.54749331,2.06386047 C1.9428612,2.81316279 1.64089465,3.85130233 1.64089465,5.16223256 C1.64089465,6.38037209 1.96732609,7.34037209 2.59712207,8.06595349 C3.22691806,8.78455814 4.0328612,9.15083721 5.01425251,9.15083721 C5.71884114,9.15083721 6.34723913,8.9792093 6.95257023,8.64362791 C7.27970067,8.45734884 7.65785786,8.16781395 8.08494482,7.78548837 L8.33658361,8.03455814 C8.03531605,8.4175814 7.65785786,8.7447907 7.20420903,9.03362791 C6.44859365,9.52548837 5.61748662,9.7675814 4.73675084,9.7675814 C3.27724582,9.7675814 2.11900836,9.29944186 1.23757358,8.36176744 C0.457493311,7.50362791 0.0562692308,6.42711628 0.0562692308,5.1392093 C0.0562692308,3.82060465 0.483356187,2.71269767 1.31376421,1.8147907 C2.1945,0.870139535 3.35273746,0.401302326 4.76261371,0.401302326" mask="url(#fbfs-d)"/>
      </g>
      <path fill="#231F20" d="M129.16906,11.2963256 L129.16906,11.0465581 C129.670939,10.999814 129.99807,10.9063256 130.150451,10.7821395 C130.300036,10.6572558 130.376926,10.3370233 130.376926,9.82213953 L130.376926,3.78865116 C130.376926,3.30446512 130.300036,2.99260465 130.150451,2.84469767 C129.99807,2.69609302 129.670939,2.6012093 129.16906,2.5712093 L129.16906,2.31376744 L136.391792,2.31376744 L136.44212,4.26516279 L136.089826,4.26516279 C135.990568,3.66446512 135.813023,3.27446512 135.586548,3.10283721 C135.33421,2.92283721 134.830933,2.83702326 134.026388,2.83702326 L132.189424,2.83702326 C131.986715,2.83702326 131.862294,2.8684186 131.811267,2.93051163 C131.785404,2.99260465 131.759541,3.11748837 131.759541,3.28911628 L131.759541,6.31772093 L133.848842,6.31772093 C134.428311,6.31772093 134.781304,6.23051163 134.956752,6.0595814 C135.108434,5.88795349 135.234953,5.53632558 135.33421,5.01306977 L135.66204,5.01306977 L135.66204,8.1512093 L135.33421,8.1512093 C135.234953,7.62795349 135.108434,7.27702326 134.956752,7.11446512 C134.781304,6.94213953 134.428311,6.85632558 133.848842,6.85632558 L131.759541,6.85632558 L131.759541,10.2128372 C131.759541,10.4856279 131.835732,10.6412093 132.011879,10.6963256 C132.189424,10.7430698 132.690605,10.7667907 133.548274,10.7667907 C134.453475,10.7667907 135.1322,10.6649302 135.586548,10.461907 C136.015033,10.2658605 136.416257,9.77539535 136.770648,9.00306977 L137.147408,9.00306977 L136.51901,11.2963256 L129.16906,11.2963256"/>
      <g transform="translate(137.702 1.756)">
        <mask id="fbfs-f" fill="#fff">
          <use xlink:href="#fbfs-e"/>
        </mask>
        <path fill="#231F20" d="M0.174819064,6.80846512 L0.501949498,6.80846512 C0.729123411,7.41893023 1.00522709,7.9024186 1.30719365,8.27009302 C1.83703311,8.90148837 2.51715686,9.21334884 3.32030401,9.21334884 C3.74808997,9.21334884 4.12624716,9.08148837 4.45477559,8.80730233 C4.75604314,8.52683721 4.90772542,8.14381395 4.90772542,7.65962791 C4.90772542,7.21451163 4.75604314,6.83288372 4.42891271,6.50567442 C4.22899967,6.29427907 3.80051472,5.9824186 3.11969197,5.56869767 L1.96285251,4.85009302 C1.6084612,4.62334884 1.33305652,4.40497674 1.13034749,4.17823256 C0.729123411,3.75055814 0.553675251,3.27404651 0.553675251,2.75916279 C0.553675251,2.08032558 0.779451171,1.50962791 1.2331,1.04986047 C1.68465184,0.597767442 2.28858495,0.371023256 3.04420033,0.371023256 C3.34616689,0.371023256 3.72502308,0.449162791 4.15211003,0.597767442 C4.60436087,0.753348837 4.85599967,0.823813953 4.90772542,0.823813953 C5.08317358,0.823813953 5.18452809,0.784046512 5.25932074,0.706604651 C5.30964849,0.627767442 5.35997625,0.518930233 5.41030401,0.371023256 L5.68850468,0.371023256 L5.98907324,3.25730233 L5.66264181,3.25730233 C5.43616689,2.38381395 5.08317358,1.78381395 4.60436087,1.43986047 C4.10178227,1.08893023 3.62296957,0.916604651 3.14485585,0.916604651 C2.76669866,0.916604651 2.44026722,1.02683721 2.16346455,1.24451163 C1.88596288,1.4635814 1.76154147,1.76776744 1.76154147,2.15916279 C1.76154147,2.50939535 1.860799,2.8052093 2.08867191,3.05567442 C2.28858495,3.30613953 2.61571538,3.57055814 3.07076221,3.84334884 L4.25206656,4.57730233 C5.00768194,5.03846512 5.53542441,5.45916279 5.83808997,5.84148837 C6.14145452,6.23288372 6.2910398,6.69265116 6.2910398,7.2235814 C6.2910398,7.93381395 6.01493612,8.52683721 5.48579565,9.00265116 C4.95875217,9.47846512 4.25206656,9.72055814 3.42235753,9.72055814 C2.99527057,9.72055814 2.56678562,9.63544186 2.1117388,9.47846512 C1.63432408,9.32288372 1.38268528,9.24404651 1.30719365,9.24404651 C1.15621037,9.24404651 1.05555485,9.2907907 1.00522709,9.38497674 C0.929036455,9.48753488 0.904571572,9.588 0.878708696,9.69683721 L0.577441137,9.69683721 L0.174819064,6.80846512" mask="url(#fbfs-f)"/>
      </g>
    </g>
  </g>
</svg>
