<svg xmlns="http://www.w3.org/2000/svg" width="209" height="30" viewBox="0 0 209 30">
  <g fill="#FFF" fill-rule="evenodd">
    <path d="M12.2597722 28.9384884L.505444482 28.9384884 8.30834415.00662790698 36.2472405.00662790698 32.8752806 13.0245349 23.9127455 13.0245349C18.1495181 12.9784884 15.858906 16.2875581 14.8516518 19.4173256L12.2597722 28.9384884M48.9092853 28.9310233C52.6335395 28.9310233 55.655302 25.942186 55.655302 22.2270698 55.655302 18.5112558 52.6335395 15.4993953 48.9092853 15.4993953L48.8093288 15.4282326 34.6616365 15.4282326 31.1128304 28.9233488 48.9092853 28.9310233M53.1374462 12.9699767C56.7372789 12.9699767 59.6332221 10.0669535 59.6332221 6.48509302 59.6332221 2.90253488 56.7372789.000209302326 53.1374462.000209302326L53.0885164.00648837209 38.6388575.00648837209 35.2920615 13.025093 53.0381886 13.025093 53.1374462 12.9699767"/>
    <path d="M32.2467428 15.4517442L30.0057595 23.8343023C29.1753515 26.6836047 25.9529769 28.9384884 23.1339234 28.9384884L14.7019268 28.9238372 17.0414686 20.260814C17.8474117 17.7784884 19.7598666 15.4280233 23.0584318 15.4280233L32.2467428 15.4517442M58.072013 26.9476744C58.3991435 26.9476744 58.700411 26.9253488 58.700411 26.5116279 58.700411 26.1830233 58.4250064 26.1216279 58.1223408 26.1216279L57.5680365 26.1216279 57.5680365 26.9476744 58.072013 26.9476744zM57.5680365 28.4546512L57.1654144 28.4546512 57.1654144 25.7783721 58.1992304 25.7783721C58.8262304 25.7783721 59.129595 26.0113953 59.129595 26.5346512 59.129595 27.0188372 58.8262304 27.2232558 58.4487722 27.2762791L59.2043876 28.4546512 58.7528358 28.4546512 58.0461502 27.2923256 57.5680365 27.2923256 57.5680365 28.4546512zM58.072013 29.0483721C59.129595 29.0483721 59.960003 28.2286047 59.960003 27.1123256 59.960003 26.0113953 59.129595 25.1769767 58.072013 25.1769767 57.0144311 25.1769767 56.1595582 26.0113953 56.1595582 27.1123256 56.1595582 28.2286047 57.0144311 29.0483721 58.072013 29.0483721L58.072013 29.0483721zM55.7059094 27.1123256C55.7059094 25.7783721 56.7886552 24.7946512 58.072013 24.7946512 59.330207 24.7946512 60.4122538 25.7783721 60.4122538 27.1123256 60.4122538 28.4546512 59.330207 29.4376744 58.072013 29.4376744 56.7886552 29.4376744 55.7059094 28.4546512 55.7059094 27.1123256L55.7059094 27.1123256zM64.3076923 10.5986512L64.3076923 10.309814C64.9360903 10.2484186 65.3149465 10.1305116 65.4645318 9.96725581 65.616913 9.80260465 65.6917057 9.38190698 65.6917057 8.69469767L65.6917057 1.84213953C65.6917057 1.2812093 65.616913.912837209 65.4400669.734232558 65.2646187.562604651 64.8871605.460744186 64.3076923.414697674L64.3076923.124465116 72.7641538.124465116 72.8144816 2.3967907 72.3622308 2.3967907C72.2622742 1.67051163 72.0602642 1.21004651 71.7589967 1.014 71.4577291.820046512 70.8768629.72655814 69.9954281.72655814L67.8061706.72655814C67.6034615.72655814 67.4790401.764930233 67.4035485.836093023 67.3539197.905860465 67.3280569 1.0467907 67.3280569 1.2567907L67.3280569 4.79190698 69.6186689 4.79190698C70.2987926 4.79190698 70.7251806 4.69074419 70.9027258 4.48772093 71.1033378 4.29376744 71.2291572 3.87934884 71.3549766 3.27027907L71.7331338 3.27027907 71.7331338 6.93027907 71.3549766 6.93027907C71.2291572 6.32260465 71.0788729 5.91655814 70.9027258 5.71353488 70.7014147 5.51818605 70.2729298 5.41702326 69.6186689 5.41702326L67.3280569 5.41702326 67.3280569 8.88306977C67.3280569 9.46772093 67.4035485 9.834 67.5803946 9.99865116 67.7565418 10.1612093 68.1577659 10.2637674 68.761699 10.309814L68.761699 10.5986512 64.3076923 10.5986512M75.8360344 10.3486047C75.5333689 10.3262791 75.307593 10.2872093 75.1817736 10.232093 75.0056264 10.1462791 74.9042719 9.98232558 74.9042719 9.75488372 74.9042719 9.63906977 74.9559977 9.4827907 75.0056264 9.28744186 75.0818171 9.0927907 75.2817301 8.54651163 75.6598873 7.66465116L79.2086933 7.66465116 79.7629977 8.96790698C79.8384893 9.1555814 79.9132819 9.32790698 79.9643087 9.49883721 79.9901716 9.66348837 80.0146365 9.77930233 80.0146365 9.85046512 80.0146365 10.0451163 79.9643087 10.17 79.8384893 10.2251163 79.7385328 10.2718605 79.486195 10.317907 79.0828739 10.3486047L79.0828739 10.5983721 82.5317234 10.5983721 82.5317234 10.3486047C82.2297569 10.3095349 82.0039809 10.2251163 81.8509007 10.1002326 81.7264793 9.98232558 81.5496331 9.66348837 81.3238572 9.1555814L77.9246365 1.45953488 77.6722987 1.45953488 74.8301783 8.11744186C74.4023923 9.11581395 74.0997268 9.73325581 73.9221816 9.95232558 73.7460344 10.1776744 73.4936967 10.3095349 73.1428003 10.3486047L73.1428003 10.5983721 75.8360344 10.5983721 75.8360344 10.3486047zM77.4465227 3.37116279L79.0087803 7.11 75.8856632 7.11 77.4465227 3.37116279 77.4465227 3.37116279zM86.6844625 10.5986512L86.6844625 10.3488837C86.1825829 10.309814 85.8547535 10.2170233 85.7023722 10.0844651 85.5262251 9.95190698 85.4507334 9.63097674 85.4507334 9.12446512L85.4507334 6.45516279 86.2322117 6.42376744 89.4524893 10.5986512 91.6445428 10.5986512 91.6445428 10.3488837C91.392205 10.3258605 91.1643321 10.2637674 90.9888839 10.1702791 90.8134358 10.0691163 90.6365896 9.91213953 90.4604425 9.70213953L87.6658538 6.26818605C88.4214692 6.15097674 89.0254023 5.90818605 89.4524893 5.55027907 89.9068371 5.18260465 90.133312 4.66702326 90.133312 3.98888372 90.133312 2.98144186 89.6293355 2.29493023 88.6241783 1.92097674 88.1202017 1.71725581 87.4659408 1.61609302 86.6844625 1.61609302L82.9091816 1.61609302 82.9091816 1.87353488C83.4131582 1.91260465 83.7151247 2.00609302 83.865409 2.154 84.0170913 2.30260465 84.0925829 2.61516279 84.0925829 3.09097674L84.0925829 8.96748837C84.0925829 9.53051163 84.0170913 9.8884186 83.8905729 10.0453953 83.7647535 10.2009767 83.4376231 10.3021395 82.9091816 10.3488837L82.9091816 10.5986512 86.6844625 10.5986512zM85.4507334 2.6067907C85.4507334 2.40516279 85.5024592 2.2712093 85.6024157 2.21748837 85.6793054 2.16167442 85.9050813 2.13934884 86.3063054 2.13934884 86.8620077 2.13934884 87.3394224 2.21748837 87.6658538 2.36539535 88.3215127 2.65353488 88.6479441 3.19283721 88.6479441 3.98051163 88.6479441 4.79190698 88.269787 5.35493023 87.5658973 5.65074419 87.1381114 5.81469767 86.4328237 5.91655814 85.4507334 5.95562791L85.4507334 2.6067907 85.4507334 2.6067907zM91.9706247 10.5986512L91.9706247 10.3488837C92.550792 10.2944651 92.9016883 10.1702791 93.0547686 9.97423256 93.2302167 9.77260465 93.3043104 9.31911628 93.3043104 8.60190698L93.3043104 3.09097674C93.3043104 2.59981395 93.2302167 2.27818605 93.0778355 2.13027907 92.9275512 1.98237209 92.5745579 1.89725581 92.0209525 1.87353488L92.0209525 1.61609302 94.7141866 1.61609302 97.8610696 8.46097674 100.85627 1.61609302 103.575367 1.61609302 103.575367 1.87353488C103.071391 1.90353488 102.74426 1.9984186 102.593976 2.14702326 102.442993 2.29493023 102.3682 2.6067907 102.3682 3.09097674L102.3682 9.12446512C102.3682 9.62469767 102.442993 9.93655814 102.593976 10.0767907 102.74426 10.2170233 103.071391 10.309814 103.575367 10.3488837L103.575367 10.5986512 99.7476615 10.5986512 99.7476615 10.3488837C100.301966 10.309814 100.656357 10.2086512 100.780779 10.0607442 100.905899 9.90376744 100.981391 9.54586047 100.981391 8.96748837L100.981391 2.87330233 97.5087753 10.5986512 97.3060662 10.5986512 93.9089425 3.19283721 93.9089425 8.60190698C93.9089425 9.34283721 94.010297 9.82632558 94.2367719 10.0523721 94.3611933 10.2009767 94.6897217 10.3021395 95.1678355 10.3488837L95.1678355 10.5986512 91.9706247 10.5986512M112.864124 4.83195349L112.864124 1.25706977C112.864124 1.00869767 112.914452.851023256 112.989943.795906977 113.064037.741488372 113.265348.711488372 113.593877.711488372 114.473214.711488372 115.129572.805674419 115.557358.983581395 116.337438 1.3107907 116.714198 1.94288372 116.714198 2.88823256 116.714198 3.69265116 116.387067 4.24590698 115.706943 4.55148837 115.356047 4.71474419 114.901699 4.80055814 114.373957 4.80893023L112.864124 4.83195349zM114.901699 10.5989302C115.783134 10.5989302 116.538749 10.4754419 117.142683 10.2319535 118.275057 9.77288372 118.853826 8.92172093 118.853826 7.67986047 118.853826 6.94660465 118.602188 6.36893023 118.075144 5.96288372 117.571168 5.55683721 116.940673 5.25962791 116.21092 5.088 116.815552 4.93939535 117.242639 4.76148837 117.545305 4.53474419 118.075144 4.1524186 118.326783 3.58311628 118.326783 2.83311628 118.326783 1.8424186 117.947927 1.14055814 117.218174.734511628 116.462559.328465116 115.455305.124744186 114.171947.124744186L109.741007.124744186 109.741007.414976744C110.370803.444976744 110.79789.546837209 110.974736.711488372 111.176746.883116279 111.252238 1.25706977 111.252238 1.8424186L111.252238 8.88334884C111.252238 9.47567442 111.176746 9.85032558 110.974736 10.0135814 110.79789 10.1775349 110.370803 10.2717209 109.741007 10.310093L109.741007 10.5989302 114.901699 10.5989302zM113.115763 9.90404651C112.938218 9.82590698 112.864124 9.64660465 112.864124 9.37381395L112.864124 5.43195349C113.013709 5.44102326 113.115763 5.44102326 113.16679 5.44102326L113.644204 5.44102326C114.626295 5.44102326 115.43084 5.60427907 116.0858 5.93148837 116.714198 6.25311628 117.042726 6.8607907 117.042726 7.74334884 117.042726 8.63218605 116.765224 9.24055814 116.21092 9.55381395 115.683178 9.86567442 115.003054 10.0219535 114.171947 10.0219535 113.618341 10.0219535 113.265348 9.98218605 113.115763 9.90404651L113.115763 9.90404651zM120.238399 1.61609302L124.089871 1.61609302 124.089871 1.87353488C123.560031 1.90353488 123.234998 1.99074419 123.082616 2.13027907 122.907168 2.2712093 122.830279 2.59144186 122.830279 3.09097674L122.830279 7.43051163C122.830279 8.14074419 122.932332 8.69469767 123.132944 9.09306977 123.485238 9.81934884 124.191225 10.1772558 125.198479 10.1772558 126.304292 10.1772558 127.059907 9.81097674 127.437366 9.07004651 127.640075 8.64725581 127.738633 8.00818605 127.738633 7.14306977L127.738633 3.61423256C127.738633 2.87330233 127.66384 2.41213953 127.486994 2.22516279 127.311546 2.03748837 126.983018 1.92097674 126.481837 1.87353488L126.481837 1.61609302 129.627322 1.61609302 129.627322 1.87353488C129.09958 1.92795349 128.746586 2.05353488 128.595603 2.24818605 128.419456 2.45051163 128.343964 2.90330233 128.343964 3.61423256L128.343964 7.14306977C128.343964 8.07865116 128.192981 8.81190698 127.915479 9.33446512 127.388436 10.3021395 126.380483 10.7870233 124.895115 10.7870233 123.411145 10.7870233 122.429055 10.309814 121.899215 9.35818605 121.596549 8.84330233 121.446964 8.17144186 121.446964 7.32934884L121.446964 3.09097674C121.446964 2.59981395 121.370774 2.27818605 121.21979 2.13934884 121.069506 1.9984186 120.742376 1.91260465 120.238399 1.87353488L120.238399 1.61609302M133.782088 10.5986512L133.782088 10.3488837C133.278112 10.309814 132.950282 10.2170233 132.799998 10.0844651 132.646918 9.95190698 132.572125 9.63097674 132.572125 9.12446512L132.572125 6.45516279 133.32774 6.42376744 136.550115 10.5986512 138.740072 10.5986512 138.740072 10.3488837C138.487734 10.3258605 138.261958 10.2637674 138.084413 10.1702791 137.908965 10.0691163 137.732118 9.91213953 137.555971 9.70213953L134.76348 6.26818605C135.516998 6.15097674 136.120931 5.90818605 136.550115 5.55027907 137.002366 5.18260465 137.228841 4.66702326 137.228841 3.98888372 137.228841 2.98144186 136.726961 2.29493023 135.74557 1.92097674 135.21573 1.71725581 134.56147 1.61609302 133.782088 1.61609302L130.00471 1.61609302 130.00471 1.87353488C130.508687 1.91260465 130.811353 2.00609302 130.961637 2.154 131.11262 2.30260465 131.188112 2.61516279 131.188112 3.09097674L131.188112 8.96748837C131.188112 9.53051163 131.11262 9.8884186 130.986102 10.0453953 130.860282 10.2009767 130.53455 10.3021395 130.00471 10.3488837L130.00471 10.5986512 133.782088 10.5986512zM132.572125 2.6067907C132.572125 2.40516279 132.597988 2.2712093 132.697944 2.21748837 132.774834 2.16167442 133.00061 2.13934884 133.403232 2.13934884 133.957536 2.13934884 134.43565 2.21748837 134.76348 2.36539535 135.417041 2.65353488 135.74557 3.19283721 135.74557 3.98051163 135.74557 4.79190698 135.391179 5.35493023 134.661426 5.65074419 134.23364 5.81469767 133.530449 5.91655814 132.572125 5.95562791L132.572125 2.6067907 132.572125 2.6067907zM139.066223 10.5986512L139.066223 10.3488837C139.5702 10.3021395 139.898029 10.2086512 140.047615 10.0844651 140.199996 9.9595814 140.274789 9.63934884 140.274789 9.12446512L140.274789 3.09097674C140.274789 2.6067907 140.199996 2.29493023 140.047615 2.14702326 139.898029 1.9984186 139.595364 1.90353488 139.066223 1.87353488L139.066223 1.61609302 146.291752 1.61609302 146.341381 3.56748837 146.01425 3.56748837C145.887033 2.9667907 145.711585 2.5767907 145.485809 2.40516279 145.260033 2.22516279 144.730193 2.13934884 143.949414 2.13934884L142.087287 2.13934884C141.91114 2.13934884 141.78532 2.17074419 141.734294 2.23283721 141.685364 2.29493023 141.658802 2.41981395 141.658802 2.59144186L141.658802 5.62004651 143.748802 5.62004651C144.328969 5.62004651 144.70433 5.53283721 144.856013 5.36190698 145.032859 5.19027907 145.15728 4.83865116 145.23417 4.31539535L145.561999 4.31539535 145.561999 7.45353488 145.23417 7.45353488C145.134213 6.93027907 145.007695 6.57934884 144.856013 6.4167907 144.70433 6.24446512 144.328969 6.15865116 143.748802 6.15865116L141.658802 6.15865116 141.658802 9.51516279C141.658802 9.78795349 141.734294 9.94353488 141.91114 9.99865116 142.087287 10.0453953 142.591264 10.0691163 143.446136 10.0691163 144.378598 10.0691163 145.058722 9.96725581 145.485809 9.76423256 145.912896 9.56818605 146.316217 9.07772093 146.667812 8.30539535L147.045969 8.30539535 146.416872 10.5986512 139.066223 10.5986512M150.116731 10.3486047C149.814066 10.3262791 149.58829 10.2872093 149.46317 10.232093 149.287022 10.1462791 149.186367 9.98232558 149.186367 9.75488372 149.186367 9.63906977 149.237394 9.4827907 149.287022 9.28744186 149.361815 9.0927907 149.58829 8.54651163 149.941283 7.66465116L153.48939 7.66465116 154.043695 8.96790698C154.145748 9.1555814 154.194678 9.32790698 154.245006 9.49883721 154.295333 9.66348837 154.295333 9.77930233 154.295333 9.85046512 154.295333 10.0451163 154.245006 10.17 154.145748 10.2251163 154.018531 10.2718605 153.766892 10.317907 153.36427 10.3486047L153.36427 10.5983721 156.813119 10.5983721 156.813119 10.3486047C156.510454 10.3095349 156.284678 10.2251163 156.132297 10.1002326 156.006477 9.98232558 155.831029 9.66348837 155.605253 9.1555814L152.206032 1.45953488 151.953695 1.45953488 149.110176 8.11744186C148.683089 9.11581395 148.380424 9.73325581 148.204976 9.95232558 148.053293 10.1776744 147.775093 10.3095349 147.423497 10.3486047L147.423497 10.5983721 150.116731 10.5983721 150.116731 10.3486047zM151.727919 3.37116279L153.288778 7.11 150.168457 7.11 151.727919 3.37116279 151.727919 3.37116279zM157.240486 1.61609302L161.09056 1.61609302 161.09056 1.87353488C160.562817 1.90353488 160.236386 1.99074419 160.085402 2.13027907 159.908556 2.2712093 159.833065 2.59144186 159.833065 3.09097674L159.833065 7.43051163C159.833065 8.14074419 159.93372 8.69469767 160.135031 9.09306977 160.488024 9.81934884 161.193312 10.1772558 162.199168 10.1772558 163.30568 10.1772558 164.061295 9.81097674 164.440152 9.07004651 164.641463 8.64725581 164.742118 8.00818605 164.742118 7.14306977L164.742118 3.61423256C164.742118 2.87330233 164.666626 2.41213953 164.490479 2.22516279 164.313633 2.03748837 163.962737 1.92097674 163.482526 1.87353488L163.482526 1.61609302 166.630108 1.61609302 166.630108 1.87353488C166.101667 1.92795349 165.749372 2.05353488 165.59769 2.24818605 165.422242 2.45051163 165.346051 2.90330233 165.346051 3.61423256L165.346051 7.14306977C165.346051 8.07865116 165.19367 8.81190698 164.918265 9.33446512 164.389824 10.3021395 163.38257 10.7870233 161.897202 10.7870233 160.411834 10.7870233 159.429743 10.309814 158.901302 9.35818605 158.600034 8.84330233 158.448352 8.17144186 158.448352 7.32934884L158.448352 3.09097674C158.448352 2.59981395 158.374259 2.27818605 158.221877 2.13934884 158.072292 1.9984186 157.744463 1.91260465 157.240486 1.87353488L157.240486 1.61609302M64.9500702 29.4358605L64.9500702 29.1470233C65.5798662 29.0856279 65.9573244 28.9677209 66.1083077 28.8044651 66.259291 28.639814 66.3340836 28.2191163 66.3340836 27.531907L66.3340836 20.6793488C66.3340836 20.1184186 66.259291 19.7500465 66.0824448 19.5714419 65.9055987 19.399814 65.5281405 19.2979535 64.9500702 19.251907L64.9500702 18.9616744 73.3820669 18.9616744 73.4582575 21.234 73.0060067 21.234C72.9032542 20.5077209 72.7033411 20.0472558 72.3999766 19.8512093 72.097311 19.6572558 71.4947759 19.5637674 70.6140401 19.5637674L68.4485485 19.5637674C68.2472375 19.5637674 68.0976522 19.6021395 68.0459264 19.6733023 67.9948997 19.7430698 67.9445719 19.884 67.9445719 20.094L67.9445719 23.6291163 70.2610468 23.6291163C70.9153077 23.6291163 71.3675585 23.5279535 71.5444047 23.3249302 71.7219498 23.1309767 71.8715351 22.7165581 71.9980535 22.1074884L72.3755117 22.1074884 72.3755117 25.7674884 71.9980535 25.7674884C71.8715351 25.159814 71.7219498 24.7537674 71.5444047 24.5507442 71.3437926 24.3553953 70.9153077 24.2542326 70.2610468 24.2542326L67.9445719 24.2542326 67.9445719 27.7202791C67.9445719 28.3049302 68.0459264 28.6712093 68.2220736 28.8358605 68.3989197 28.9984186 68.8015418 29.1009767 69.380311 29.1470233L69.380311 29.4358605 64.9500702 29.4358605M73.809014 29.4358605L73.809014 29.186093C74.3633184 29.1470233 74.7177097 29.0695814 74.867295 28.9370233 75.0427431 28.8114419 75.1189338 28.4912093 75.1189338 27.9616744L75.1189338 21.928186C75.1189338 21.4286512 75.0427431 21.1084186 74.867295 20.9605116 74.7177097 20.8195814 74.3633184 20.7344651 73.809014 20.7107442L73.809014 20.4533023 77.8380308 20.4533023 77.8380308 20.7107442C77.2837264 20.7344651 76.9069672 20.8195814 76.753887 20.9605116 76.5784388 21.1084186 76.5043452 21.4286512 76.5043452 21.928186L76.5043452 27.9616744C76.5043452 28.4912093 76.5784388 28.8114419 76.753887 28.9370233 76.9069672 29.0695814 77.2837264 29.1470233 77.8380308 29.186093L77.8380308 29.4358605 73.809014 29.4358605M78.2651177 29.4358605L78.2651177 29.186093C78.8194221 29.1316744 79.1717164 29.0074884 79.3485625 28.8114419 79.4988468 28.609814 79.5750375 28.1563256 79.5750375 27.4391163L79.5750375 21.4607442 79.3974923 21.2423721C79.1975793 21.0079535 79.0200341 20.8593488 78.8956127 20.8049302 78.7432314 20.749814 78.5419204 20.7191163 78.2651177 20.7107442L78.2651177 20.4533023 80.5815926 20.4533023 85.8177766 26.9856279 85.8177766 22.4514419C85.8177766 21.7014419 85.7164221 21.2179535 85.4899472 20.9912093 85.3396629 20.8509767 85.0362983 20.749814 84.5344187 20.7107442L84.5344187 20.4533023 87.7288334 20.4533023 87.7288334 20.7107442C87.20179 20.758186 86.8487967 20.8907442 86.6726495 21.0853953 86.5216662 21.2877209 86.4217097 21.7405116 86.4217097 22.4514419L86.4217097 29.5921395 86.1952348 29.5921395 80.1789706 22.1549302 80.1789706 27.4391163C80.1789706 28.1800465 80.2796261 28.6635349 80.505402 28.8895814 80.6570843 29.038186 80.9590508 29.1393488 81.4623284 29.186093L81.4623284 29.4358605 78.2651177 29.4358605M90.8258779 29.185814C90.4973495 29.1634884 90.2715736 29.1244186 90.1723161 29.0693023 89.970306 28.9834884 89.8948144 28.8195349 89.8948144 28.592093 89.8948144 28.4762791 89.9206773 28.32 89.9961689 28.1246512 90.0457977 27.93 90.2715736 27.3837209 90.6245669 26.5018605L94.1747709 26.5018605 94.7528411 27.8051163C94.8297308 27.9927907 94.8786605 28.1651163 94.9282893 28.3360465 94.9786171 28.5006977 95.0051789 28.6165116 95.0051789 28.6876744 95.0051789 28.8823256 94.9282893 29.0072093 94.8297308 29.0623256 94.7025134 29.1090698 94.4508746 29.1551163 94.0482525 29.185814L94.0482525 29.4355814 97.5222659 29.4355814 97.5222659 29.185814C97.1937375 29.1467442 96.9679615 29.0623256 96.8421421 28.9374419 96.6904599 28.8195349 96.5150117 28.5006977 96.2885368 27.9927907L92.9151789 20.2967442 92.6376773 20.2967442 89.8186237 26.9546512C89.3908378 27.9530233 89.0888712 28.5704651 88.9134231 28.7895349 88.7365769 29.0148837 88.4611722 29.1467442 88.1326438 29.185814L88.1326438 29.4355814 90.8258779 29.4355814 90.8258779 29.185814zM92.4119013 22.2083721L93.9972258 25.9472093 90.8517408 25.9472093 92.4119013 22.2083721 92.4119013 22.2083721zM97.8991649 29.4358605L97.8991649 29.186093C98.4534692 29.1316744 98.8057635 29.0074884 98.9819107 28.8114419 99.132894 28.609814 99.2083856 28.1563256 99.2083856 27.4391163L99.2083856 21.4607442 99.0315395 21.2423721C98.8316264 21.0079535 98.6533823 20.8593488 98.5275629 20.8049302 98.3772786 20.749814 98.1759676 20.7191163 97.8991649 20.7107442L97.8991649 20.4533023 100.21564 20.4533023 105.451824 26.9856279 105.451824 22.4514419C105.451824 21.7014419 105.34977 21.2179535 105.123994 20.9912093 104.970914 20.8509767 104.645881 20.749814 104.168466 20.7107442L104.168466 20.4533023 107.339814 20.4533023 107.339814 20.7107442C106.835837 20.758186 106.482145 20.8907442 106.306697 21.0853953 106.131248 21.2877209 106.055058 21.7405116 106.055058 22.4514419L106.055058 29.5921395 105.829282 29.5921395 99.8130177 22.1549302 99.8130177 27.4391163C99.8130177 28.1800465 99.9129742 28.6635349 100.139449 28.8895814 100.265269 29.038186 100.592399 29.1393488 101.070513 29.186093L101.070513 29.4358605 97.8991649 29.4358605M112.575369 20.2966047C113.076549 20.2966047 113.579827 20.3677674 114.108967 20.5156744 114.612944 20.6635814 114.915609 20.7347442 114.967335 20.7347442 115.091058 20.7347442 115.216178 20.7026512 115.342696 20.632186 115.44475 20.5540465 115.520241 20.4445116 115.56987 20.2966047L115.846673 20.2966047 115.971793 23.3496279 115.671225 23.3496279C115.494379 22.7398605 115.242041 22.2563721 114.967335 21.8817209 114.412332 21.1868372 113.656716 20.8352093 112.701188 20.8352093 111.770124 20.8352093 110.987947 21.2112558 110.383315 21.9591628 109.78078 22.7084651 109.478114 23.7466047 109.478114 25.0575349 109.478114 26.2756744 109.78078 27.2356744 110.434342 27.9612558 111.064138 28.6798605 111.868683 29.0461395 112.824211 29.0461395 113.530897 29.0461395 114.185857 28.8745116 114.788392 28.5389302 115.11692 28.3526512 115.494379 28.0631163 115.897001 27.6807907L116.148639 27.9298605C115.846673 28.3128837 115.468516 28.640093 115.040031 28.9289302 114.260649 29.4207907 113.456104 29.6628837 112.549506 29.6628837 111.090001 29.6628837 109.931763 29.1947442 109.07689 28.2570698 108.295412 27.3989302 107.89279 26.3224186 107.89279 25.0345116 107.89279 23.715907 108.321275 22.608 109.150285 21.710093 110.032419 20.7654419 111.163395 20.2966047 112.575369 20.2966047M116.828064 29.4358605L116.828064 29.186093C117.382369 29.1470233 117.759128 29.0695814 117.910111 28.9370233 118.087656 28.8114419 118.16175 28.4912093 118.16175 27.9616744L118.16175 21.928186C118.16175 21.4286512 118.087656 21.1084186 117.910111 20.9605116 117.759128 20.8195814 117.382369 20.7344651 116.828064 20.7107442L116.828064 20.4533023 120.854984 20.4533023 120.854984 20.7107442C120.302777 20.7344651 119.948385 20.8195814 119.772937 20.9605116 119.623352 21.1084186 119.547161 21.4286512 119.547161 21.928186L119.547161 27.9616744C119.547161 28.4912093 119.623352 28.8114419 119.772937 28.9370233 119.948385 29.0695814 120.302777 29.1470233 120.854984 29.186093L120.854984 29.4358605 116.828064 29.4358605M124.028219 29.185814C123.725554 29.1634884 123.49838 29.1244186 123.397724 29.0693023 123.196413 28.9834884 123.12162 28.8195349 123.12162 28.592093 123.12162 28.4762791 123.145386 28.32 123.222276 28.1246512 123.272604 27.93 123.49838 27.3837209 123.851373 26.5018605L127.400179 26.5018605 127.978249 27.8051163C128.05444 27.9927907 128.104768 28.1651163 128.155794 28.3360465 128.206821 28.5006977 128.230587 28.6165116 128.230587 28.6876744 128.230587 28.8823256 128.155794 29.0072093 128.05444 29.0623256 127.929319 29.1090698 127.677681 29.1551163 127.275059 29.185814L127.275059 29.4355814 130.723209 29.4355814 130.723209 29.185814C130.421941 29.1467442 130.19337 29.0623256 130.043085 28.9374419 129.918664 28.8195349 129.741818 28.5006977 129.513945 27.9927907L126.116122 20.2967442 125.864483 20.2967442 123.020965 26.9546512C122.591781 27.9530233 122.317075 28.5704651 122.140229 28.7895349 121.962684 29.0148837 121.685881 29.1467442 121.334286 29.185814L121.334286 29.4355814 124.028219 29.4355814 124.028219 29.185814zM125.638707 22.2083721L127.199567 25.9472093 124.077149 25.9472093 125.638707 22.2083721 125.638707 22.2083721zM131.101506 29.4358605L131.101506 29.186093C131.604085 29.1393488 131.931215 29.0458605 132.082897 28.9216744 132.232483 28.7967907 132.309372 28.4765581 132.309372 27.9616744L132.309372 21.928186C132.309372 21.444 132.232483 21.1321395 132.082897 20.9842326 131.931215 20.8356279 131.604085 20.7407442 131.101506 20.7107442L131.101506 20.4533023 134.95158 20.4533023 134.95158 20.7107442C134.447603 20.7344651 134.120473 20.8195814 133.943626 20.9528372 133.768178 21.0937674 133.691988 21.3826047 133.691988 21.8346977L133.691988 28.3523721C133.691988 28.5079535 133.717851 28.6251628 133.768178 28.7109767 133.819205 28.7967907 133.92056 28.8505116 134.096707 28.8742326 134.195964 28.8826047 134.322483 28.8895814 134.422439 28.8979535 134.549657 28.9063256 134.750968 28.9063256 135.052934 28.9063256 136.2608 28.9063256 137.091208 28.8044651 137.520392 28.609814 137.947479 28.4053953 138.348703 27.8988837 138.753422 27.0784186L139.078456 27.0784186 138.425593 29.4358605 131.101506 29.4358605M145.472598 26.2527209L145.826989 26.2527209C146.103093 26.9615581 146.430922 27.5322558 146.782517 27.9536512 147.412313 28.6876047 148.191695 29.0545814 149.124156 29.0545814 149.627434 29.0545814 150.079685 28.8976047 150.431979 28.5773721 150.809437 28.2571395 150.986283 27.8127209 150.986283 27.2434186 150.986283 26.7215581 150.809437 26.2757442 150.431979 25.8927209 150.205504 25.6513256 149.677063 25.2920233 148.895584 24.8001628L147.538133 23.9650465C147.134812 23.7076047 146.80838 23.4417907 146.581206 23.1773721 146.128956 22.6785349 145.901083 22.1315581 145.901083 21.5308605 145.901083 20.7257442 146.15342 20.0636512 146.706327 19.5320233 147.234768 19.0017907 147.939357 18.7366744 148.82219 18.7366744 149.173086 18.7366744 149.601571 18.8224884 150.105547 19.0017907 150.63329 19.1803953 150.910792 19.266907 150.986283 19.266907 151.187594 19.266907 151.312715 19.2201628 151.388905 19.1273721 151.465096 19.0401628 151.516123 18.9083023 151.565053 18.7366744L151.892882 18.7366744 152.245176 22.1078372 151.86632 22.1078372C151.614681 21.0934186 151.187594 20.3838837 150.609524 19.9778372 150.053822 19.5787674 149.476451 19.3771395 148.921447 19.3771395 148.493661 19.3771395 148.116203 19.509 147.789073 19.7587674 147.461942 20.016907 147.310959 20.3671395 147.310959 20.8199302 147.310959 21.2343488 147.436079 21.5776047 147.687718 21.8664419 147.914193 22.1622558 148.318213 22.4664419 148.82219 22.7866744L150.232066 23.6462093C151.110705 24.1834186 151.716036 24.6752791 152.069029 25.1203953 152.420624 25.5738837 152.596073 26.111093 152.596073 26.7285349 152.596073 27.5545814 152.295504 28.2501628 151.665009 28.8117907 151.035912 29.3664419 150.232066 29.6476047 149.249277 29.6476047 148.771163 29.6476047 148.242022 29.5527209 147.713581 29.3664419 147.183741 29.1794651 146.883173 29.0859767 146.80838 29.0859767 146.607069 29.0859767 146.479852 29.1396977 146.430922 29.256907 146.35543 29.3741163 146.304404 29.4906279 146.304404 29.6238837L145.950711 29.6238837 145.472598 26.2527209M153.780662 29.4358605L153.780662 29.186093C154.284639 29.1393488 154.610371 29.0458605 154.762054 28.9216744 154.913037 28.7967907 154.988528 28.4765581 154.988528 27.9616744L154.988528 21.928186C154.988528 21.444 154.913037 21.1321395 154.762054 20.9842326 154.610371 20.8356279 154.284639 20.7407442 153.780662 20.7107442L153.780662 20.4533023 161.004094 20.4533023 161.054421 22.4046977 160.701428 22.4046977C160.60287 21.804 160.426023 21.414 160.198151 21.2423721 159.945813 21.0623721 159.444632 20.9765581 158.639388 20.9765581L156.800328 20.9765581C156.599716 20.9765581 156.473896 21.0079535 156.447334 21.0700465 156.398405 21.1321395 156.373241 21.2570233 156.373241 21.4286512L156.373241 24.4572558 158.462542 24.4572558C159.040612 24.4572558 159.418769 24.3700465 159.569054 24.1991163 159.720037 24.0274884 159.847254 23.6758605 159.945813 23.1526047L160.274341 23.1526047 160.274341 26.2907442 159.945813 26.2907442C159.847254 25.7674884 159.720037 25.4165581 159.569054 25.254 159.392906 25.0816744 159.040612 24.9958605 158.462542 24.9958605L156.373241 24.9958605 156.373241 28.3523721C156.373241 28.6251628 156.447334 28.7807442 156.624181 28.8358605 156.800328 28.8826047 157.303605 28.9063256 158.159177 28.9063256 159.066475 28.9063256 159.7459 28.8044651 160.198151 28.6014419 160.626635 28.4053953 161.029957 27.9149302 161.382251 27.1426047L161.759709 27.1426047 161.130612 29.4358605 153.780662 29.4358605M165.86226 29.4358605L165.86226 29.186093C165.358284 29.1470233 165.031153 29.0542326 164.855006 28.9216744 164.705421 28.7891163 164.628531 28.468186 164.628531 27.9616744L164.628531 25.2923721 165.384146 25.2609767 168.631685 29.4358605 170.821641 29.4358605 170.821641 29.186093C170.543441 29.1630698 170.343528 29.1009767 170.167381 29.0074884 169.991233 28.9063256 169.813688 28.7493488 169.63824 28.5393488L166.843652 25.1053953C167.597869 24.988186 168.204598 24.7453953 168.631685 24.3874884 169.083936 24.019814 169.284548 23.5042326 169.284548 22.826093 169.284548 21.8186512 168.807133 21.1321395 167.79918 20.758186 167.295902 20.5544651 166.64234 20.4533023 165.86226 20.4533023L162.08628 20.4533023 162.08628 20.7107442C162.589558 20.749814 162.891524 20.8433023 163.043906 20.9912093 163.19419 21.139814 163.270381 21.4523721 163.270381 21.928186L163.270381 27.8046977C163.270381 28.3677209 163.19419 28.7256279 163.067672 28.8826047 162.941852 29.038186 162.615421 29.1393488 162.08628 29.186093L162.08628 29.4358605 165.86226 29.4358605zM164.628531 21.444C164.628531 21.2423721 164.679558 21.1084186 164.755748 21.0546977 164.855006 20.9988837 165.082879 20.9765581 165.485501 20.9765581 166.038407 20.9765581 166.492755 21.0546977 166.843652 21.2026047 167.498611 21.4907442 167.825742 22.0300465 167.825742 22.8177209 167.825742 23.6291163 167.448983 24.1921395 166.742996 24.4879535 166.313812 24.651907 165.610621 24.7537674 164.628531 24.7928372L164.628531 21.444 164.628531 21.444zM170.142217 20.4533023L173.766514 20.4533023 173.766514 20.7107442C173.41422 20.7107442 173.185648 20.7344651 173.062625 20.7735349 172.835451 20.8433023 172.734096 20.9912093 172.734096 21.2026047 172.734096 21.3191163 172.758561 21.4670233 172.861314 21.6700465 172.936106 21.866093 173.062625 22.2023721 173.288401 22.669814L175.400769 27.3916744 177.341183 22.2791163C177.415277 22.0544651 177.492167 21.866093 177.541096 21.7105116 177.566959 21.5528372 177.592822 21.4286512 177.592822 21.3351628 177.592822 21.0700465 177.492167 20.8907442 177.265692 20.8049302 177.139173 20.749814 176.912698 20.7191163 176.611431 20.7107442L176.611431 20.4533023 179.378759 20.4533023 179.378759 20.6877209C179.101956 20.726093 178.87618 20.8049302 178.75106 20.9221395 178.548351 21.0937674 178.322575 21.4370233 178.120565 21.9588837L175.126063 29.5921395 174.923354 29.5921395 171.577257 22.1312093C171.274591 21.499814 171.047417 21.1084186 170.897832 20.9528372 170.720986 20.7965581 170.469347 20.7107442 170.142217 20.6877209L170.142217 20.4533023M179.958926 29.4358605L179.958926 29.186093C180.512531 29.1470233 180.864126 29.0695814 181.016508 28.9370233 181.192655 28.8114419 181.268146 28.4912093 181.268146 27.9616744L181.268146 21.928186C181.268146 21.4286512 181.192655 21.1084186 181.016508 20.9605116 180.864126 20.8195814 180.512531 20.7344651 179.958926 20.7107442L179.958926 20.4533023 183.985146 20.4533023 183.985146 20.7107442C183.431541 20.7344651 183.054782 20.8195814 182.903799 20.9605116 182.727652 21.1084186 182.652859 21.4286512 182.652859 21.928186L182.652859 27.9616744C182.652859 28.4912093 182.727652 28.8114419 182.903799 28.9370233 183.054782 29.0695814 183.431541 29.1470233 183.985146 29.186093L183.985146 29.4358605 179.958926 29.4358605M189.297731 20.2966047C189.775844 20.2966047 190.279122 20.3677674 190.806865 20.5156744 191.310841 20.6635814 191.612808 20.7347442 191.663135 20.7347442 191.788256 20.7347442 191.914774 20.7026512 192.040594 20.632186 192.14055 20.5540465 192.243303 20.4445116 192.26637 20.2966047L192.570433 20.2966047 192.694855 23.3496279 192.368423 23.3496279C192.192975 22.7398605 191.965102 22.2563721 191.663135 21.8817209 191.108831 21.1868372 190.355313 20.8352093 189.422851 20.8352093 188.465925 20.8352093 187.685145 21.2112558 187.08261 21.9591628 186.477978 22.7084651 186.176012 23.7466047 186.176012 25.0575349 186.176012 26.2756744 186.502443 27.2356744 187.132239 27.9612558 187.762035 28.6798605 188.567978 29.0461395 189.54937 29.0461395 190.253958 29.0461395 190.882356 28.8745116 191.487687 28.5389302 191.814818 28.3526512 192.192975 28.0631163 192.620062 27.6807907L192.871701 27.9298605C192.570433 28.3128837 192.192975 28.640093 191.739326 28.9289302 190.983711 29.4207907 190.152604 29.6628837 189.271868 29.6628837 187.812363 29.6628837 186.654125 29.1947442 185.772691 28.2570698 184.99261 27.3989302 184.591386 26.3224186 184.591386 25.0345116 184.591386 23.715907 185.018473 22.608 185.848881 21.710093 186.729617 20.7654419 187.887855 20.2966047 189.297731 20.2966047M193.476752 29.4358605L193.476752 29.186093C193.978632 29.1393488 194.305762 29.0458605 194.458143 28.9216744 194.607729 28.7967907 194.684618 28.4765581 194.684618 27.9616744L194.684618 21.928186C194.684618 21.444 194.607729 21.1321395 194.458143 20.9842326 194.305762 20.8356279 193.978632 20.7407442 193.476752 20.7107442L193.476752 20.4533023 200.699485 20.4533023 200.749812 22.4046977 200.397518 22.4046977C200.298261 21.804 200.120715 21.414 199.89424 21.2423721 199.641903 21.0623721 199.138625 20.9765581 198.33408 20.9765581L196.497117 20.9765581C196.294408 20.9765581 196.169986 21.0079535 196.11896 21.0700465 196.093097 21.1321395 196.067234 21.2570233 196.067234 21.4286512L196.067234 24.4572558 198.156535 24.4572558C198.736003 24.4572558 199.088996 24.3700465 199.264444 24.1991163 199.416127 24.0274884 199.542645 23.6758605 199.641903 23.1526047L199.969732 23.1526047 199.969732 26.2907442 199.641903 26.2907442C199.542645 25.7674884 199.416127 25.4165581 199.264444 25.254 199.088996 25.0816744 198.736003 24.9958605 198.156535 24.9958605L196.067234 24.9958605 196.067234 28.3523721C196.067234 28.6251628 196.143424 28.7807442 196.319572 28.8358605 196.497117 28.8826047 196.998297 28.9063256 197.855966 28.9063256 198.761167 28.9063256 199.439893 28.8044651 199.89424 28.6014419 200.322725 28.4053953 200.723949 27.9149302 201.078341 27.1426047L201.4551 27.1426047 200.826702 29.4358605 193.476752 29.4358605M202.184853 26.7037674L202.511983 26.7037674C202.739157 27.3142326 203.015261 27.7977209 203.317227 28.1653953 203.847067 28.7967907 204.52719 29.1086512 205.330337 29.1086512 205.758123 29.1086512 206.136281 28.9767907 206.464809 28.7026047 206.766077 28.4221395 206.917759 28.0391163 206.917759 27.5549302 206.917759 27.109814 206.766077 26.728186 206.438946 26.4009767 206.239033 26.1895814 205.810548 25.8777209 205.129725 25.464L203.972886 24.7453953C203.618495 24.5186512 203.34309 24.3002791 203.140381 24.0735349 202.739157 23.6458605 202.563709 23.1693488 202.563709 22.6544651 202.563709 21.9756279 202.789485 21.4049302 203.243133 20.9451628 203.694685 20.4930698 204.298618 20.2663256 205.054234 20.2663256 205.3562 20.2663256 205.735057 20.3444651 206.162143 20.4930698 206.614394 20.6486512 206.866033 20.7191163 206.917759 20.7191163 207.093207 20.7191163 207.194562 20.6793488 207.269354 20.601907 207.319682 20.5230698 207.37001 20.4142326 207.420337 20.2663256L207.698538 20.2663256 207.999107 23.1526047 207.672675 23.1526047C207.4462 22.2791163 207.093207 21.6791163 206.614394 21.3351628 206.111816 20.9842326 205.633003 20.811907 205.154889 20.811907 204.776732 20.811907 204.450301 20.9221395 204.173498 21.139814 203.895996 21.3588837 203.771575 21.6630698 203.771575 22.0544651 203.771575 22.4046977 203.870832 22.7005116 204.098705 22.9509767 204.298618 23.2014419 204.625749 23.4658605 205.080796 23.7386512L206.2621 24.4726047C207.017715 24.9337674 207.545458 25.3544651 207.848123 25.7367907 208.151488 26.128186 208.301073 26.5879535 208.301073 27.1188837 208.301073 27.8291163 208.02497 28.4221395 207.495829 28.8979535 206.968786 29.3737674 206.2621 29.6158605 205.432391 29.6158605 205.005304 29.6158605 204.576819 29.5307442 204.121772 29.3737674 203.644358 29.218186 203.392719 29.1393488 203.317227 29.1393488 203.166244 29.1393488 203.065588 29.186093 203.015261 29.2802791 202.93907 29.3828372 202.914605 29.4833023 202.888742 29.5921395L202.587475 29.5921395 202.184853 26.7037674"/>
  </g>
</svg>
