<?xml version="1.0" encoding="utf-8"?>
<!-- Generator: Adobe Illustrator 25.3.1, SVG Export Plug-In . SVG Version: 6.00 Build 0)  -->
<svg version="1.1" id="Layer_1" xmlns="http://www.w3.org/2000/svg" xmlns:xlink="http://www.w3.org/1999/xlink" x="0px" y="0px"
	 viewBox="0 0 64 16.33" style="enable-background:new 0 0 64 16.33;" xml:space="preserve">
<style type="text/css">
	.st0{fill:#231F20;}
	.st1{fill:#FFFFFF;}
</style>
<path class="st0" d="M22.49,4.42l-0.98-2.39l-0.98,2.39H22.49z M20.78,0.08h1.5l3.16,7.44h-1.7l-0.68-1.66h-3.12l-0.68,1.66h-1.66
	L20.78,0.08z"/>
<g>
	<path class="st0" d="M25.78,3.84V3.82c0-2.1,1.64-3.82,3.87-3.82c1.33,0,2.13,0.36,2.9,1.01l-1.02,1.23
		C30.96,1.78,30.45,1.5,29.6,1.5c-1.18,0-2.12,1.04-2.12,2.3v0.02c0,1.35,0.93,2.34,2.24,2.34c0.59,0,1.12-0.15,1.53-0.44V4.67
		h-1.64v-1.4h3.21v3.21c-0.76,0.64-1.8,1.17-3.15,1.17C27.36,7.64,25.78,6.03,25.78,3.84"/>
</g>
<polygon class="st0" points="34.38,0.13 39.95,0.13 39.95,1.58 35.99,1.58 35.99,3.07 39.47,3.07 39.47,4.52 35.99,4.52 35.99,6.07 
	40,6.07 40,7.52 34.38,7.52 "/>
<polygon class="st0" points="41.45,0.13 42.95,0.13 46.41,4.68 46.41,0.13 48.01,0.13 48.01,7.52 46.63,7.52 43.05,2.82 43.05,7.52 
	41.45,7.52 "/>
<g>
	<path class="st0" d="M49.46,3.84V3.82c0-2.1,1.58-3.82,3.85-3.82c1.39,0,2.23,0.46,2.91,1.14l-1.03,1.19
		C54.61,1.82,54.03,1.5,53.3,1.5c-1.24,0-2.14,1.03-2.14,2.3v0.02c0,1.27,0.88,2.32,2.14,2.32c0.84,0,1.36-0.34,1.94-0.87l1.03,1.04
		c-0.76,0.81-1.6,1.32-3.03,1.32C51.07,7.64,49.46,5.96,49.46,3.84"/>
</g>
<polygon class="st0" points="59.54,4.6 56.7,0.13 58.6,0.13 60.36,3.09 62.16,0.13 64,0.13 61.17,4.57 61.17,7.51 59.54,7.51 "/>
<polygon class="st0" points="18.25,8.82 19.87,8.82 19.87,14.73 23.55,14.73 23.55,16.2 18.25,16.2 "/>
<g>
	<path class="st0" d="M34.15,12.53v-0.02c0-1.27-0.93-2.32-2.24-2.32c-1.31,0-2.22,1.03-2.22,2.3v0.02c0,1.27,0.93,2.32,2.24,2.32
		C33.24,14.83,34.15,13.8,34.15,12.53 M28,12.53v-0.02c0-2.1,1.66-3.82,3.93-3.82c2.28,0,3.91,1.7,3.91,3.8v0.02
		c0,2.1-1.66,3.82-3.94,3.82C29.63,16.33,28,14.63,28,12.53"/>
	<path class="st0" d="M40.93,12.53v-0.02c0-2.1,1.64-3.82,3.87-3.82c1.33,0,2.13,0.36,2.9,1.01l-1.02,1.23
		c-0.57-0.47-1.08-0.75-1.93-0.75c-1.18,0-2.12,1.04-2.12,2.3v0.02c0,1.35,0.93,2.34,2.24,2.34c0.59,0,1.12-0.15,1.53-0.44v-1.06
		h-1.64v-1.4h3.21v3.21c-0.76,0.64-1.8,1.17-3.15,1.17C42.51,16.33,40.93,14.72,40.93,12.53"/>
	<path class="st0" d="M59.32,12.53v-0.02c0-1.27-0.93-2.32-2.24-2.32c-1.31,0-2.22,1.03-2.22,2.3v0.02c0,1.27,0.93,2.32,2.24,2.32
		C58.41,14.83,59.32,13.8,59.32,12.53 M53.17,12.53v-0.02c0-2.1,1.66-3.82,3.93-3.82c2.28,0,3.91,1.7,3.91,3.8v0.02
		c0,2.1-1.66,3.82-3.94,3.82C54.81,16.33,53.17,14.63,53.17,12.53"/>
	<path class="st0" d="M8.29,16.33L8.29,16.33c-4.53,0-8.21-3.67-8.21-8.21c0-4.53,3.67-8.21,8.21-8.21c4.53,0,8.21,3.67,8.21,8.21
		C16.49,12.66,12.82,16.33,8.29,16.33"/>
</g>
<polygon class="st1" points="8.24,3.97 9.17,6.84 12.19,6.84 9.74,8.61 10.68,11.49 8.24,9.71 5.79,11.49 6.73,8.61 4.28,6.84 
	7.3,6.84 "/>
</svg>
