<svg xmlns="http://www.w3.org/2000/svg" width="339" height="56" viewBox="0 0 339 56">
  <g fill="#FFF" fill-rule="evenodd" transform="translate(-1)">
    <path fill-rule="nonzero" d="M86.35,42.52 C85.4866475,42.8406884 84.5708362,42.9967155 83.65,42.98 L83.65,43.98 C85.2966667,43.88 87.8266667,43.83 91.24,43.83 C94.3,43.83 96.83,43.88 98.83,43.98 L98.83,43 C98.2022005,42.9356924 97.6158444,42.6566434 97.17,42.21 C96.498065,41.5331017 95.9885919,40.7124738 95.68,39.81 L83.56,8.49 C83.0533333,8.53666667 82.4766667,8.56 81.83,8.56 C81.1833333,8.56 80.6066667,8.53666667 80.1,8.49 L68.69,37.74 C67.4833333,40.96 66.05,42.71 64.39,42.99 L64.39,43.99 C65.4033333,43.89 66.6733333,43.84 68.2,43.84 C70.0933333,43.84 72.16,43.89 74.4,43.99 L74.4,43 C73.2405298,43.0344089 72.0933451,42.7545235 71.08,42.19 C70.2904418,41.5715688 69.8809847,40.5858387 70,39.59 C70.1199317,37.6621015 70.5768447,35.7701433 71.35,34 L72.67,30.56 L83.56,30.56 L86.56,38.76 C86.8895263,39.5120333 87.0955085,40.3123249 87.17,41.13 C87.221166,41.720816 86.8918614,42.2790275 86.35,42.52 Z M73.06,29.58 L78.24,16.08 L83.24,29.58 L73.06,29.58 Z"/>
    <path d="M100.49,47 C99.8207446,47.4378689 99.4387419,48.2018743 99.49,49 C99.522722,49.8912897 99.9751518,50.7145635 100.71,51.22 C101.816975,51.9977154 103.079232,52.5264989 104.41,52.77 C106.42916,53.1873493 108.488519,53.3785276 110.55,53.34 C113.297465,53.4211759 116.029017,52.8953522 118.55,51.8 C120.506524,50.9579098 122.194471,49.5950998 123.43,47.86 C124.462602,46.3958184 125.024239,44.6516043 125.04,42.86 C125.17702,41.2630721 124.467429,39.7110794 123.17,38.77 C121.709497,37.871731 120.01289,37.4327729 118.3,37.51 L106.73,37.51 C105.396667,37.51 104.73,36.9566667 104.73,35.85 C104.735218,35.2550575 104.989033,34.6894139 105.43,34.29 C106.07931,33.7015598 106.797946,33.1944849 107.57,32.78 C108.984516,33.1195406 110.435372,33.2841053 111.89,33.27 C113.782911,33.302878 115.667277,33.0085515 117.46,32.4 C118.956864,31.9038937 120.277143,30.9831731 121.26,29.75 C122.208841,28.4686316 122.69531,26.9034695 122.64,25.31 C122.713655,23.5481031 122.112861,21.8243973 120.96,20.49 C119.703636,19.1702912 118.080395,18.2576531 116.3,17.87 L116.3,16.33 C116.384213,15.4353182 116.64238,14.5657016 117.06,13.77 C117.295076,14.5796148 117.752372,15.3071321 118.38,15.87 C119.061709,16.3784373 119.901031,16.6298799 120.75,16.58 C121.648096,16.6118159 122.527888,16.3209171 123.23,15.76 C123.873728,15.2595755 124.244226,14.4852349 124.23,13.67 C124.263373,12.8169446 123.892825,11.998034 123.23,11.46 C122.480811,10.8767382 121.548576,10.5789903 120.6,10.62 C119.363889,10.5447183 118.154911,11.0035473 117.28,11.88 C116.458633,12.8069932 115.960334,13.9755392 115.86,15.21 C115.681678,16.0373521 115.617748,16.8852634 115.67,17.73 C114.447512,17.4950187 113.204835,17.3811346 111.96,17.39 C109.218231,17.259033 106.500469,17.9558951 104.16,19.39 C102.200722,20.7126921 101.083473,22.9699901 101.22,25.33 C101.156928,26.9617389 101.666315,28.5641838 102.66,29.86 C103.708887,31.1160776 105.097686,32.043101 106.66,32.53 C105.345639,33.1316628 104.095876,33.8654381 102.93,34.72 C102.107871,35.3035611 101.42491,36.0616476 100.93,36.94 C100.522298,37.7452529 100.31639,38.6375211 100.33,39.54 C100.135102,40.9881678 100.783402,42.4206395 102,43.23 C103.166465,43.8944589 104.487592,44.2394006 105.83,44.23 L107,44.23 C105.990499,44.8569867 104.895918,45.3352345 103.75,45.65 C102.612494,45.9658017 101.517746,46.4191482 100.49,47 Z M109.39,19.9 C109.831777,18.9151465 110.810601,18.2814277 111.89,18.2814277 C112.969399,18.2814277 113.948223,18.9151465 114.39,19.9 C115.065912,21.6296934 115.3527,23.4869915 115.23,25.34 C115.35303,27.1930229 115.06623,29.0503922 114.39,30.78 C113.948223,31.7648535 112.969399,32.3985723 111.89,32.3985723 C110.810601,32.3985723 109.831777,31.7648535 109.39,30.78 C108.705203,29.0525609 108.414803,27.1940007 108.54,25.34 C108.421123,23.4993181 108.711408,21.6551544 109.39,19.94 L109.39,19.9 Z M106.72,46.12 C107.002009,45.4032841 107.439125,44.7578542 108,44.23 L116.57,44.23 C117.361733,44.1529217 118.157324,44.3316669 118.84,44.74 C119.291186,45.1400878 119.528194,45.7289039 119.48,46.33 C119.514061,47.5094324 119.16302,48.6678648 118.48,49.63 C117.767817,50.5902084 116.806422,51.3371918 115.7,51.79 C114.506682,52.2903118 113.223898,52.5421051 111.93,52.53 C110.513951,52.5826367 109.116428,52.194824 107.93,51.42 C106.890653,50.6993524 106.297016,49.4931742 106.36,48.23 C106.348648,47.5243681 106.467292,46.8226748 106.71,46.16 L106.72,46.12 Z M149.13,28.53 C149.13,21.1433333 145.996667,17.45 139.73,17.45 C137.507759,17.401678 135.311598,17.9360659 133.36,19 C131.463578,20.0836193 129.942622,21.7196925 129,23.69 C127.891446,26.0837507 127.357259,28.7033185 127.44,31.34 C127.358746,33.8941699 127.854366,36.433796 128.89,38.77 C129.760232,40.6496579 131.197564,42.2093911 133,43.23 C134.840233,44.226973 136.907439,44.7299931 139,44.69 C140.618992,44.7197778 142.219019,44.3378358 143.65,43.58 C144.959754,42.8749215 146.102318,41.896068 147,40.71 C147.883599,39.5625721 148.560398,38.2698867 149,36.89 L148.12,36.6 C146.46,39.2666667 144.253333,40.6 141.5,40.6 C140.368898,40.5995315 139.265447,40.2503379 138.34,39.6 C137.250655,38.7845838 136.417783,37.674088 135.94,36.4 C135.26839,34.6464649 134.952258,32.7768619 135.01,30.9 C135.01,29.8266667 135.033333,29.0466667 135.08,28.56 L149.13,28.53 Z M135,27.53 C135.008659,25.1649604 135.502154,22.8268124 136.45,20.66 C137.236667,19.1866667 138.236667,18.45 139.45,18.45 C140.663333,18.45 141.513333,19.33 142,21.09 C142.625201,23.1937694 142.892257,25.3876803 142.79,27.58 L135,27.53 Z M154.62,41.52 C154.448893,42.0066654 154.088204,42.4034231 153.62,42.62 C153.019062,42.8567727 152.375387,42.9657547 151.73,42.94 L151.73,43.94 C155.31,43.8066667 157.613333,43.74 158.64,43.74 C159.666667,43.74 161.733333,43.8066667 164.84,43.94 L164.84,42.94 C164.291758,42.9655902 163.745658,42.8556833 163.25,42.62 C162.832061,42.3781239 162.52389,41.9839512 162.39,41.52 C162.186877,40.8152775 162.095765,40.0830113 162.12,39.35 L162.12,25.44 C162.108535,24.4220261 162.334514,23.4153929 162.78,22.5 C163.17982,21.6563077 163.797796,20.9347601 164.57,20.41 C165.307697,19.9105064 166.179118,19.6455946 167.07,19.65 C167.999595,19.5320527 168.922678,19.9119223 169.5,20.65 C170.006011,21.601382 170.237957,22.6745669 170.17,23.75 L170.17,39.35 C170.193021,40.0822955 170.105367,40.8138708 169.91,41.52 C169.785785,41.9829791 169.483934,42.3782606 169.07,42.62 C168.567396,42.8561717 168.014717,42.9660209 167.46,42.94 L167.46,43.94 C170.793333,43.8066667 172.966667,43.74 173.98,43.74 C174.993333,43.74 177.19,43.8066667 180.57,43.94 L180.57,42.94 C179.927765,42.9673326 179.287026,42.8582708 178.69,42.62 C178.227714,42.3954383 177.869618,42.0015326 177.69,41.52 C177.449319,40.8228595 177.340797,40.0869391 177.37,39.35 L177.37,25.9 C177.400664,24.5403365 177.276533,23.1815986 177,21.85 C176.804981,20.9419631 176.393282,20.0945488 175.8,19.38 C175.218641,18.7282168 174.482755,18.2330418 173.66,17.94 C172.577186,17.5818001 171.440015,17.4159627 170.3,17.45 C166.346667,17.45 163.613333,18.9966667 162.1,22.09 L162.1,17.6 C159.700284,18.1024774 157.251236,18.3306079 154.8,18.28 C153.8,18.28 152.8,18.28 151.7,18.13 L151.7,19.18 C152.646073,19.0680266 153.584168,19.4447716 154.19,20.18 C154.743559,21.2088941 154.989993,22.3751172 154.9,23.54 L154.9,39.35 C154.93626,40.0842211 154.841446,40.8190313 154.62,41.52 Z M197.57,21.33 C196.922329,22.044533 196.565588,22.9756267 196.57,23.94 C196.51114,24.9372575 196.874003,25.9133585 197.57,26.63 C199.214735,28.0039212 201.620089,27.9570082 203.21,26.52 C203.961855,25.7504119 204.363372,24.7050215 204.32,23.63 C204.327907,22.691003 204.07893,21.7677151 203.6,20.96 C203.102239,20.143479 202.416521,19.4577608 201.6,18.96 C200.740457,18.459097 199.809856,18.0915771 198.84,17.87 C197.697022,17.5965937 196.525198,17.4622872 195.35,17.47 C193.136785,17.4236421 190.949227,17.9507228 189,19 C187.107003,20.0837166 185.578937,21.7057639 184.61,23.66 C183.473608,26.0068833 182.921261,28.5936522 183,31.2 C182.914732,33.7982823 183.438702,36.3804639 184.53,38.74 C185.423277,40.6247241 186.8713,42.1913795 188.68,43.23 C190.517445,44.2352123 192.585987,44.742005 194.68,44.7 C196.332166,44.7378551 197.96573,44.3449727 199.42,43.56 C200.726641,42.8443484 201.854722,41.8427498 202.72,40.63 C203.552966,39.4588592 204.194315,38.1626602 204.62,36.79 L203.79,36.5 C203.057541,37.8180796 201.978642,38.9108101 200.67,39.66 C199.611177,40.2279326 198.431403,40.533165 197.23,40.55 C196.055849,40.5467398 194.908458,40.1990457 193.93,39.55 C192.81313,38.7579094 191.96799,37.6403689 191.51,36.35 C190.82453,34.4576979 190.508814,32.4513699 190.58,30.44 C190.550426,28.3766313 190.795919,26.3185209 191.31,24.32 C191.677985,22.7652688 192.419382,21.3236628 193.47,20.12 C194.345086,19.1357068 195.603011,18.5778444 196.92,18.59 C197.535761,18.5817769 198.147203,18.6938745 198.72,18.92 C199.197992,19.0887812 199.617804,19.3906295 199.93,19.79 C199.005403,20.0522119 198.182354,20.589286 197.57,21.33 Z M214.19,51.06 C214.620805,50.5124098 214.856589,49.8367329 214.86,49.14 C214.91431,48.25169 214.543092,47.390464 213.86,46.82 C213.064576,46.2315634 212.087681,45.9413263 211.1,46 C210.049465,45.9479885 209.015663,46.2783787 208.19,46.93 C207.459736,47.5378971 207.053296,48.4505381 207.09,49.4 C207.063903,50.2275296 207.357566,51.0333125 207.91,51.65 C208.476514,52.2751541 209.197192,52.7406637 210,53 C210.820611,53.282425 211.682151,53.4277043 212.55,53.43 C214.108721,53.5438821 215.657278,53.1009308 216.92,52.18 C217.94295,51.1987651 218.699945,49.9738103 219.12,48.62 L228,23.43 C228.340431,22.3271898 228.875538,21.2942299 229.58,20.38 C230.065133,19.777423 230.725619,19.3405934 231.47,19.13 L231.47,18.13 C230.18669,18.2451169 228.898374,18.295181 227.61,18.28 C225.936667,18.28 224.316667,18.23 222.75,18.13 L222.75,19.13 C223.766316,19.1479063 224.739548,19.5436161 225.48,20.24 C226.188843,21.0294036 226.549367,22.0713196 226.48,23.13 C226.422281,24.4976634 226.148913,25.8476284 225.67,27.13 L222.25,36.75 L216.15,22 C215.946654,21.5528496 215.831224,21.070757 215.81,20.58 C215.760405,20.1932151 215.925155,19.8100754 216.24,19.58 C216.539919,19.3803712 216.882374,19.2536627 217.24,19.21 C217.798278,19.1556662 218.359137,19.1322971 218.92,19.14 L218.92,18.14 C216.253333,18.3333333 213.92,18.43 211.92,18.43 C209.54,18.43 207.253333,18.3333333 205.06,18.14 L205.06,19.19 C205.620186,19.2047885 206.16189,19.3935114 206.61,19.73 C207.335798,20.3373531 207.896464,21.1181592 208.24,22 L218.86,46.1 L218.06,48.49 C217.1,51.1566667 215.576667,52.49 213.49,52.49 C213.107007,52.5128377 212.722993,52.5128377 212.34,52.49 C213.085332,52.2082361 213.729528,51.71029 214.19,51.06 Z M237.62,41.43 C237.443691,41.9698326 237.031623,42.4002967 236.5,42.6 C235.647806,42.8609517 234.761249,42.9924183 233.87,42.99 L233.87,43.99 C237.143333,43.8966667 241.976667,43.8466667 248.37,43.84 C253.743333,43.84 257.56,43.89 259.82,43.99 C259.593333,41.6166667 259.48,39.4833333 259.48,37.59 C259.48,35.8966667 259.53,34.53 259.63,33.49 L258.48,33.49 C258.335638,35.4139924 257.963023,37.3139959 257.37,39.15 C256.968921,40.3655735 256.122046,41.3839674 255,42 C253.50974,42.6687034 251.880906,42.9704662 250.25,42.88 L246.59,42.88 C245.706868,42.9211525 244.822754,42.8232926 243.97,42.59 C243.438339,42.4069981 243.023564,41.9848162 242.85,41.45 C242.603439,40.5654392 242.498805,39.6473566 242.54,38.73 L242.54,13.89 C242.50009,12.9693935 242.604692,12.0482192 242.85,11.16 C243.035267,10.6175036 243.459128,10.1899572 244,10 C244.848923,9.73974268 245.73208,9.60828044 246.62,9.61 L246.62,8.61 C245.093333,8.71 242.976667,8.76 240.27,8.76 C237.383333,8.76 235.25,8.71 233.87,8.61 L233.87,9.61 C234.761249,9.60758167 235.647806,9.73904829 236.5,10 C237.031623,10.1997033 237.443691,10.6301674 237.62,11.17 C237.86547,12.0581877 237.970075,12.9793877 237.93,13.9 L237.93,38.7 C237.96991,39.6206065 237.865308,40.5417808 237.62,41.43 Z M269,43.27 C272.66651,45.1785173 277.03349,45.1785173 280.7,43.27 C282.461247,42.235776 283.858683,40.6811276 284.7,38.82 C285.765594,36.4077086 286.27156,33.7855755 286.18,31.15 C286.270308,28.5112905 285.764428,25.8861824 284.7,23.47 C283.857193,21.6020928 282.460868,20.0382096 280.7,18.99 C277.035632,17.0691974 272.661079,17.0729364 269,19 C267.235783,20.044143 265.838389,21.609225 265,23.48 C263.933586,25.8955616 263.427617,28.5211285 263.52,31.16 C263.429391,33.789038 263.935381,36.4044572 265,38.81 C265.837916,40.675921 267.235932,42.2347086 269,43.27 Z M270.1,21.63 C270.935563,19.7543365 272.796642,18.5460104 274.85,18.5460104 C276.903358,18.5460104 278.764437,19.7543365 279.6,21.63 C280.766667,23.6766667 281.35,26.85 281.35,31.15 C281.35,35.45 280.766667,38.61 279.6,40.63 C278.758106,42.4982811 276.899209,43.6995328 274.85,43.6995328 C272.800791,43.6995328 270.941894,42.4982811 270.1,40.63 C268.933333,38.59 268.35,35.43 268.35,31.15 C268.35,26.87 268.94,23.6966667 270.12,21.63 L270.1,21.63 Z M289.52,48.8 C289.537176,49.8206493 290.072162,50.7625264 290.94,51.3 C292.061157,52.0672969 293.326905,52.5980945 294.66,52.86 C296.275422,53.2166016 297.925723,53.3910236 299.58,53.38 C302.242281,53.4605824 304.887342,52.9267797 307.31,51.82 C309.195676,50.9561298 310.815239,49.6024655 312,47.9 C312.975074,46.5010564 313.514382,44.8448589 313.55,43.14 C313.659394,41.7590935 313.046537,40.4198872 311.93,39.6 C310.659567,38.8150048 309.181826,38.4316286 307.69,38.5 L296,38.5 C295.361345,38.5512201 294.722406,38.4045782 294.17,38.08 C293.78896,37.7853381 293.579119,37.3206906 293.61,36.84 C293.644958,36.0407722 294.047288,35.3025517 294.7,34.84 C295.666122,34.0695388 296.708159,33.3994185 297.81,32.84 C299.013258,33.1609394 300.254775,33.3157085 301.5,33.3 C303.136946,33.3333604 304.764479,33.0445497 306.29,32.45 C307.618123,31.9244312 308.757471,31.0115584 309.56,29.83 C310.398685,28.5086183 310.817084,26.9640281 310.76,25.4 C310.823171,23.7878102 310.378982,22.1964243 309.49,20.85 C308.612206,19.6265375 307.374784,18.7072095 305.95,18.22 C306.060646,17.5167163 306.231269,16.8241902 306.46,16.15 C306.706014,15.2415732 307.165424,14.4050359 307.8,13.71 C307.894927,14.5554831 308.178577,15.3688409 308.63,16.09 C309.073598,16.6355494 309.759806,16.9242816 310.46,16.86 C311.097993,16.8737844 311.713941,16.6264106 312.165176,16.1751758 C312.616411,15.7239411 312.863784,15.1079934 312.85,14.47 C312.876925,13.776861 312.628925,13.1011517 312.16,12.59 C311.645171,12.0840419 310.940664,11.8189441 310.22,11.86 C308.88085,11.8378278 307.611052,12.4541628 306.8,13.52 C305.847348,14.8462419 305.229774,16.3833158 305,18 C303.845298,17.6940722 302.65446,17.5460583 301.46,17.56 C299.064936,17.4512714 296.703551,18.1561624 294.76,19.56 C293.005418,21.0054479 292.062023,23.2129177 292.23,25.48 C292.168487,27.0661487 292.594247,28.6330863 293.45,29.97 C294.291448,31.1807024 295.485679,32.1025647 296.87,32.61 C295.067549,33.298693 293.414237,34.3273453 292,35.64 C291.124805,36.4993607 290.615965,37.6639603 290.58,38.89 C290.450917,40.1098591 291.060383,41.2894693 292.13,41.89 C293.198159,42.4323577 294.382156,42.7069078 295.58,42.69 L295.75,42.69 C294.121458,43.387197 292.610325,44.3316557 291.27,45.49 C290.234602,46.2876332 289.596153,47.4952132 289.52,48.8 Z M298.07,20 C298.907818,18.9894219 300.15229,18.4046181 301.465,18.4046181 C302.77771,18.4046181 304.022182,18.9894219 304.86,20 C305.62,21.0666667 306,22.8766667 306,25.43 C306,27.9833333 305.613333,29.79 304.84,30.85 C304.002182,31.8605781 302.75771,32.4453819 301.445,32.4453819 C300.13229,32.4453819 298.887818,31.8605781 298.05,30.85 C297.276667,29.7833333 296.89,27.98 296.89,25.44 C296.89,22.9 297.283333,21.0866667 298.07,20 Z M294.51,44.89 C295.130061,43.9399634 295.993318,43.173391 297.01,42.67 L306.31,42.67 C307.095307,42.6412384 307.879795,42.7460622 308.63,42.98 C309.114519,43.1264989 309.527707,43.4470758 309.79,43.88 C310.031526,44.3703952 310.145049,44.9139278 310.12,45.46 C310.155091,46.8746303 309.667309,48.2525244 308.75,49.33 C307.811382,50.4133434 306.609389,51.2364848 305.26,51.72 C303.869499,52.2434809 302.395774,52.5111229 300.91,52.51 C299.734482,52.5124678 298.565096,52.3405984 297.44,52 C296.402205,51.7074976 295.453637,51.1610402 294.68,50.41 C293.963099,49.7015297 293.572046,48.7275198 293.6,47.72 C293.627263,46.7184909 293.943264,45.7461801 294.51,44.92 L294.51,44.89 Z M334,19 C330.337277,17.0760677 325.962723,17.0760677 322.3,19 C320.535783,20.044143 319.138389,21.609225 318.3,23.48 C317.233586,25.8955616 316.727617,28.5211285 316.82,31.16 C316.72635,33.7957383 317.232406,36.4183349 318.3,38.83 C319.139641,40.6922209 320.537488,42.2473259 322.3,43.28 C325.96651,45.1885173 330.33349,45.1885173 334,43.28 C335.761247,42.245776 337.158683,40.6911276 338,38.83 C339.065594,36.4177086 339.57156,33.7955755 339.48,31.16 C339.57182,28.5179403 339.065908,25.889246 338,23.47 C337.15549,21.6057892 335.75933,20.0455799 334,19 Z M332.9,40.64 C332.058106,42.5082811 330.199209,43.7095328 328.15,43.7095328 C326.100791,43.7095328 324.241894,42.5082811 323.4,40.64 C322.233333,38.6 321.65,35.44 321.65,31.16 C321.65,26.88 322.233333,23.7066667 323.4,21.64 C324.235563,19.7643365 326.096642,18.5560104 328.15,18.5560104 C330.203358,18.5560104 332.064437,19.7643365 332.9,21.64 C334.066667,23.6866667 334.65,26.86 334.65,31.16 C334.65,35.46 334.07,38.6166667 332.91,40.63 L332.9,40.64 Z"/>
    <path fill-rule="nonzero" d="M5.49,43.11 C10.65,48.6 17,52.39 23.69,55.67 C24.3913043,55.9594675 25.1786957,55.9594675 25.88,55.67 C31.7455037,52.9619463 37.1939115,49.4295731 42.06,45.18 C46.45,41.26 48.93,36.66 48.71,30.46 C48.38,21.13 48.62,11.77 48.62,2.46 C48.62,-7.10542736e-15 48.62,-7.10542736e-15 46.15,-7.10542736e-15 L3,-7.10542736e-15 C1.58,-8.8817842e-16 1,0.34 1,1.91 C1.09,12.05 1.18,22.19 1,32.33 C0.948738866,36.3882404 2.57305749,40.2880522 5.49,43.11 Z M4.42,5.33 C4.42,3.99 4.81,3.55 6.14,3.55 C18.4933333,3.59 30.8433333,3.59 43.19,3.55 C44.64,3.55 45.19,3.94 45.12,5.55 C44.99,9.06 45.12,12.55 45.12,16.09 L45.12,18 C44.6176492,17.8124168 44.1267972,17.5953735 43.65,17.35 C40.8015103,15.4677743 37.2556586,14.9717225 34,16 C32.8582677,16.2749077 31.6826875,16.3826973 30.51,16.32 C27.12,16.27 23.79,16.49 21.05,18.79 C20.2831338,19.5801837 19.5964463,20.4444051 19,21.37 L26,22.13 C26.2253432,22.1585989 26.4447306,22.2227276 26.65,22.32 C31.4,24.55 33.45,28 30,33 C26.78,37.61 22.3,40.79 17.72,43.83 C14.08,46.25 14.01,46.2 10.72,43.26 C9.50595134,42.1582487 8.35416982,40.9897747 7.27,39.76 C5.33708144,37.6477702 4.31015309,34.8614191 4.41,32 C4.51,23.12 4.47,14.22 4.42,5.33 Z"/>
    <path d="M19.83,39.08 C20.25,39.33 21.07,39.5 21.36,39.27 C23.28,37.74 25.1,36.09 27.24,34.27 C17.9315521,29.6662789 10.6368545,21.8057974 6.74,12.18 L6.3,12.39 C6.21063709,12.5834913 6.14999779,12.7889911 6.12,13 C6.12,17.3 6.12,21.61 6.17,25.91 C6.21131886,26.580133 6.45545267,27.2218561 6.87,27.75 C10.4587972,32.2893256 14.8518751,36.129879 19.83,39.08 Z M13.52,43.56 C13.8559855,43.8404774 14.3084553,43.9377023 14.73,43.82 C16.22,42.95 17.65,42 19,41 L6.23,30.2 C6.09,32.63 5.65,35.05 7.23,36.97 C9.16,39.31 11.38,41.41 13.52,43.56 Z"/>
  </g>
</svg>
