<svg width="119" height="115" viewBox="0 0 119 115" xmlns="http://www.w3.org/2000/svg"><title>houseImg</title><g fill="#E4F6F9" fill-rule="evenodd"><path d="M115.516 64.406h-55.59a5.18 5.18 0 0 1-4.653-2.85L32.593 16.61a2.56 2.56 0 0 1 .113-2.507 2.612 2.612 0 0 1 2.212-1.22h39c1.437 0 2.602 1.153 2.602 2.575 0 1.422-1.165 2.576-2.603 2.576H39.125l20.8 41.22h51.385L89.79 16.61a2.567 2.567 0 0 1 1.165-3.458 2.616 2.616 0 0 1 3.49 1.154l23.398 46.372c.4.8.36 1.747-.114 2.507a2.61 2.61 0 0 1-2.22 1.22"/><path d="M89.875 44.37c-1.382 0-2.503-1.17-2.503-2.61V5.22h-10.01v36.54c0 1.44-1.12 2.61-2.502 2.61-1.38 0-2.502-1.17-2.502-2.61V2.61c0-1.44 1.12-2.61 2.502-2.61h15.015c1.38 0 2.502 1.17 2.502 2.61v39.15c0 1.44-1.12 2.61-2.502 2.61M13.383 64.406h-7.35A5.155 5.155 0 0 1 1.428 61.6a5.127 5.127 0 0 1 .41-5.363L32.48 13.95a2.59 2.59 0 0 1 3.608-.582 2.572 2.572 0 0 1 .584 3.597l-30.64 42.29h6.035l25.59-35.01a2.59 2.59 0 0 1 3.61-.564 2.572 2.572 0 0 1 .566 3.6L15.47 63.35a2.586 2.586 0 0 1-2.087 1.06"/><path d="M13.73 111.638c-1.58 0-2.86-1.155-2.86-2.577V62.69c0-1.423 1.28-2.578 2.86-2.578 1.578 0 2.86 1.155 2.86 2.577v46.37c0 1.42-1.282 2.57-2.86 2.57m51.478 0c-1.58 0-2.86-1.16-2.86-2.58V62.69c0-1.423 1.28-2.578 2.86-2.578 1.58 0 2.86 1.155 2.86 2.577v46.37c0 1.42-1.28 2.57-2.86 2.57m41.47 0c-1.58 0-2.86-1.16-2.86-2.58V62.69c0-1.423 1.28-2.578 2.86-2.578 1.577 0 2.86 1.155 2.86 2.577v46.37c0 1.42-1.283 2.57-2.86 2.57"/><path d="M112.662 114.5H6.314c-1.432 0-2.594-1.282-2.594-2.862s1.162-2.863 2.594-2.863h106.348c1.432 0 2.594 1.282 2.594 2.862s-1.162 2.863-2.594 2.863"/><path d="M42.567 114.5a2.624 2.624 0 0 1-2.622-2.624v-39.36h-5.243v39.36a2.624 2.624 0 0 1-2.62 2.624 2.624 2.624 0 0 1-2.623-2.624V69.893a2.624 2.624 0 0 1 2.62-2.624h10.48a2.624 2.624 0 0 1 2.62 2.62v41.98a2.624 2.624 0 0 1-2.63 2.62M94.01 91.6H80.734a2.658 2.658 0 0 1-2.656-2.658v-13.29a2.658 2.658 0 0 1 2.656-2.658H94.01a2.658 2.658 0 0 1 2.657 2.658v13.29A2.658 2.658 0 0 1 94.01 91.6zm-10.62-5.316h7.966V78.31H83.39v7.974z"/></g></svg>