<svg width="83" height="42" viewBox="0 0 83 42" xmlns="http://www.w3.org/2000/svg" xmlns:xlink="http://www.w3.org/1999/xlink"><title>Group Copy 6 + Rectangle 128 + Rectangle 128 Copy 3 Copy + HomeQuote + Triangle 2 Copy</title><defs><path d="M26.864 13.315l3.704 3.704-2.494 2.49-3.73-3.73a8.427 8.427 0 0 1-4.534 1.32 8.462 8.462 0 0 1-8.463-8.46c0-4.67 3.79-8.46 8.463-8.46a8.462 8.462 0 0 1 7.053 13.13zm-6.937.964a5.523 5.523 0 0 0 5.525-5.53c0-3.05-2.474-5.52-5.525-5.52a5.523 5.523 0 0 0-5.524 5.52 5.52 5.52 0 0 0 5.524 5.52z" id="a"/></defs><g fill="none" fill-rule="evenodd"><text font-family="Proxima Nova" font-size="10" font-weight="bold" fill="#00B5DF" transform="translate(-1 .5)"><tspan x=".683" y="40">Foundation Matrix</tspan></text><path d="M29.325 17.185V10.93H25.45v16.983h3.875V21.36h8.048v-4.175h-8.048zm8.647-6.256h3.876v16.98h-3.876V10.93z" fill="#00B5DF"/><g transform="translate(25.386 10.797)"><use fill="#7E63B4" xlink:href="#a"/><use xlink:href="#a"/></g><path d="M37.838 9.737h4.308L33.798.5l-8.35 9.237h4.31l4.04-4.47 4.04 4.47z" fill="#00B5DF"/></g></svg>