<svg width="581" height="338" viewBox="0 0 581 338" xmlns="http://www.w3.org/2000/svg" xmlns:xlink="http://www.w3.org/1999/xlink"><title>hqMatrix</title><defs><linearGradient x1="50%" y1="100%" x2="50%" y2="95.361%" id="c"><stop offset="0%"/><stop stop-opacity="0" offset="100%"/></linearGradient><filter x="-50%" y="-50%" width="200%" height="200%" filterUnits="objectBoundingBox" id="a"><feOffset dy="2" in="SourceAlpha" result="shadowOffsetOuter1"/><feGaussianBlur stdDeviation="1" in="shadowOffsetOuter1" result="shadowBlurOuter1"/><feColorMatrix values="0 0 0 0 0 0 0 0 0 0 0 0 0 0 0 0 0 0 0.35 0" in="shadowBlurOuter1" result="shadowMatrixOuter1"/><feMerge><feMergeNode in="shadowMatrixOuter1"/><feMergeNode in="SourceGraphic"/></feMerge></filter><path id="b" d="M68.318 0h431.73c8.892 0 16.36 7.477 16.36 16.37v288.295c0 8.892-.054 16.37-9.088 16.37H61.956c-9.15 0-9.998-7.478-9.998-16.37V16.37c0-8.893 7.47-16.37 16.36-16.37z"/><path id="d" d="M69.066 23.43H499.3v267.845H69.067z"/><path id="e" d="M69.066 23.43H499.3v267.845H69.067z"/><linearGradient x1="50%" y1="99.741%" x2="50%" y2="0%" id="f"><stop stop-color="#D0D0D0" offset="0%"/><stop stop-color="#E7E7E7" offset="100%"/></linearGradient><filter x="-50%" y="-50%" width="200%" height="200%" filterUnits="objectBoundingBox" id="g"><feOffset dy="2" in="SourceAlpha" result="shadowOffsetOuter1"/><feGaussianBlur stdDeviation="4" in="shadowOffsetOuter1" result="shadowBlurOuter1"/><feColorMatrix values="0 0 0 0 0 0 0 0 0 0 0 0 0 0 0 0 0 0 0.203948709 0" in="shadowBlurOuter1" result="shadowMatrixOuter1"/><feMerge><feMergeNode in="shadowMatrixOuter1"/><feMergeNode in="SourceGraphic"/></feMerge></filter><linearGradient x1="100%" y1="59.021%" x2="0%" y2="59.021%" id="j"><stop offset="0%"/><stop stop-color="#FFF" stop-opacity=".5" offset="49.649%"/><stop offset="100%"/></linearGradient><filter x="-50%" y="-50%" width="200%" height="200%" filterUnits="objectBoundingBox" id="h"><feOffset dy="1" in="SourceAlpha" result="shadowOffsetInner1"/><feGaussianBlur in="shadowOffsetInner1" result="shadowBlurInner1"/><feComposite in="shadowBlurInner1" in2="SourceAlpha" operator="arithmetic" k2="-1" k3="1" result="shadowInnerInner1"/><feColorMatrix values="0 0 0 0 1 0 0 0 0 1 0 0 0 0 1 0 0 0 0.210000008 0" in="shadowInnerInner1" result="shadowMatrixInner1"/><feMerge><feMergeNode in="SourceGraphic"/><feMergeNode in="shadowMatrixInner1"/></feMerge></filter><path id="i" d="M.634 315.336H569v1.9H.634z"/><linearGradient x1="50%" y1="2.057%" x2="50%" y2="100%" id="l"><stop offset="0%"/><stop stop-color="#9A9A9A" offset="100%"/></linearGradient><linearGradient x1="50%" y1="50%" x2="50%" y2="0%" id="m"><stop stop-opacity="0" offset="0%"/><stop offset="100%"/></linearGradient><linearGradient x1="50%" y1="20.793%" x2="50%" y2="100%" id="n"><stop stop-color="#FFF" stop-opacity="-.064" offset="0%"/><stop stop-color="#FFF" stop-opacity="0" offset="0%"/><stop stop-color="#FFF" offset="100%"/></linearGradient><path id="k" d="M284.5 319.768c-20.633 0-49.1-.492-54.492-1.477v-2.95h108.984v2.96c-5.392.99-33.86 1.48-54.492 1.48z"/></defs><g transform="translate(6)" fill="none" fill-rule="evenodd"><g filter="url(#a)"><use stroke-opacity=".25" stroke="#FFF" stroke-width="2.378" fill="#EFEFEF" xlink:href="#b"/><use fill-opacity=".1" fill="url(#c)" xlink:href="#b"/></g><use fill="#FCFCFC" xlink:href="#d"/><use stroke="#000" stroke-width=".793" xlink:href="#e"/><path d="M569 317.236s-18.767 9.128-65.476 8.61c-.207.518-157.324 2.154-218.252 2.154-61.84 0-218.956-1.636-219.163-2.153-46.71.517-65.48-8.61-65.48-8.61H569z" fill="url(#f)" filter="url(#g)"/><g filter="url(#h)"><use fill="#F3F3F3" xlink:href="#i"/><use fill-opacity=".02" fill="url(#j)" xlink:href="#i"/></g><use fill="#FAFAFA" xlink:href="#k"/><use fill-opacity=".03" fill="url(#l)" xlink:href="#k"/><use fill-opacity=".04" fill="url(#m)" xlink:href="#k"/><use fill-opacity=".3" fill="url(#n)" xlink:href="#k"/></g></svg>