<svg width="208" height="149" viewBox="0 0 208 149" xmlns="http://www.w3.org/2000/svg"><title>quotesComplete</title><g transform="translate(0 7)" fill="none" fill-rule="evenodd"><circle stroke-opacity=".297" stroke="#73BB33" stroke-width="7" fill="#73BB33" cx="104" cy="56" r="56"/><path d="M92.56 71c-.452 0-.903-.175-1.244-.517l-8.8-8.824a1.766 1.766 0 0 1 0-2.5c.688-.69 1.8-.69 2.49 0l7.662 7.68 30.446-25.44a1.76 1.76 0 0 1 2.478.22 1.77 1.77 0 0 1-.225 2.49l-31.68 26.47a1.75 1.75 0 0 1-1.127.41" fill="#FFF"/><path d="M12.234 138v-11.34H9.43l-3.095 7.464-3.077-7.463H.453V138h1.99v-8.415L5.91 138h.85l3.485-8.415V138h1.99zm6.07.204c2.634 0 4.232-1.955 4.232-4.318 0-2.346-1.598-4.3-4.233-4.3-2.6 0-4.216 1.954-4.216 4.3 0 2.363 1.615 4.318 4.216 4.318zm0-1.58c-1.514 0-2.364-1.276-2.364-2.738 0-1.445.85-2.72 2.363-2.72 1.53 0 2.38 1.275 2.38 2.72 0 1.462-.85 2.737-2.38 2.737zm9.774 1.58c1.598 0 2.567-.68 3.145-1.462l-1.173-1.088c-.46.63-1.088.97-1.887.97-1.496 0-2.482-1.14-2.482-2.738s.99-2.72 2.49-2.72c.8 0 1.43.323 1.89.97l1.18-1.09c-.58-.78-1.546-1.46-3.144-1.46-2.5 0-4.25 1.818-4.25 4.3 0 2.5 1.75 4.318 4.25 4.318zM40.47 138l-3.484-4.488 3.417-3.723h-2.21l-3.62 3.96v-7.09h-1.786V138h1.785v-2.21l1.14-1.173L38.226 138h2.244zm7.668 0v-4.233h2.992c2.363 0 3.706-1.632 3.706-3.553 0-1.92-1.326-3.553-3.706-3.553h-4.98V138h1.988zm2.72-5.984h-2.72v-3.604h2.72c1.122 0 1.938.714 1.938 1.802s-.816 1.802-1.938 1.802zm7.36 5.984v-5.593c.358-.578 1.36-1.088 2.11-1.088.22 0 .407.01.56.05v-1.77c-1.07 0-2.057.61-2.67 1.39v-1.21h-1.784V138h1.785zm7.906.204c1.31 0 2.516-.408 3.332-1.19l-.816-1.173c-.578.58-1.53.91-2.33.91-1.546 0-2.48-1.02-2.617-2.26h6.34v-.42c0-2.58-1.58-4.47-4.045-4.47-2.43 0-4.165 1.92-4.165 4.3 0 2.6 1.836 4.32 4.3 4.32zm2.176-4.98h-4.624c.085-1.004.782-2.177 2.312-2.177 1.615 0 2.278 1.207 2.312 2.176zM83.65 138v-5.933c0-1.666-.85-2.482-2.362-2.482-1.224 0-2.312.765-2.788 1.513-.272-.9-1.02-1.513-2.244-1.513-1.24 0-2.33.816-2.67 1.326v-1.12h-1.784V138h1.785v-5.73c.374-.543 1.105-1.104 1.887-1.104.97 0 1.36.595 1.36 1.48V138h1.785v-5.746c.35-.527 1.1-1.088 1.9-1.088.95 0 1.34.595 1.34 1.48V138h1.78zm3.197-9.214a1.103 1.103 0 1 0 0-2.208c-.595 0-1.105.493-1.105 1.105 0 .613.51 1.106 1.105 1.106zm.9 9.214v-8.21h-1.784V138h1.785zm9.64 0v-8.21h-1.785v5.762c-.425.56-1.207 1.07-2.108 1.07-1.003 0-1.65-.39-1.65-1.665v-5.168H90.06v5.81c0 1.68.867 2.6 2.635 2.6a3.938 3.938 0 0 0 2.907-1.29V138h1.785zm14.16 0v-5.933c0-1.666-.85-2.482-2.362-2.482-1.224 0-2.312.765-2.788 1.513-.272-.9-1.02-1.513-2.244-1.513-1.24 0-2.33.816-2.67 1.326v-1.12H99.7V138h1.784v-5.73c.374-.543 1.105-1.104 1.887-1.104.97 0 1.36.595 1.36 1.48V138h1.79v-5.746c.36-.527 1.11-1.088 1.91-1.088.96 0 1.35.595 1.35 1.48V138h1.786zm5.118.204c2.21 0 3.417-1.105 3.417-2.55 0-3.264-4.964-2.176-4.964-3.638 0-.578.595-1.003 1.53-1.003 1.02 0 1.938.425 2.43.986l.75-1.26c-.75-.67-1.803-1.16-3.197-1.16-2.07 0-3.23 1.15-3.23 2.5 0 3.14 4.97 1.99 4.97 3.6 0 .64-.54 1.1-1.61 1.1s-2.21-.56-2.78-1.16l-.816 1.292c.85.83 2.125 1.273 3.52 1.273zm15.08 0c2.294 0 3.688-1.19 4.555-2.55l-1.7-.867a3.33 3.33 0 0 1-2.856 1.65c-2.244 0-3.91-1.718-3.91-4.098s1.666-4.1 3.91-4.1c1.224 0 2.312.71 2.856 1.65l1.7-.87c-.85-1.36-2.26-2.55-4.556-2.55-3.35 0-5.95 2.38-5.95 5.86s2.6 5.86 5.95 5.86zm9.808 0c2.635 0 4.233-1.955 4.233-4.318 0-2.346-1.598-4.3-4.233-4.3-2.6 0-4.216 1.954-4.216 4.3 0 2.363 1.615 4.318 4.216 4.318zm0-1.58c-1.513 0-2.363-1.276-2.363-2.738 0-1.445.85-2.72 2.363-2.72 1.53 0 2.38 1.275 2.38 2.72 0 1.462-.85 2.737-2.38 2.737zM159.437 138v-5.933c0-1.666-.85-2.482-2.363-2.482-1.224 0-2.312.765-2.788 1.513-.272-.9-1.02-1.513-2.244-1.513-1.24 0-2.33.816-2.67 1.326v-1.12h-1.784V138h1.785v-5.73c.374-.543 1.105-1.104 1.887-1.104.97 0 1.36.595 1.36 1.48V138h1.785v-5.746c.357-.527 1.105-1.088 1.904-1.088.95 0 1.34.595 1.34 1.48V138h1.78zm6.732.204c2.12 0 3.63-1.615 3.63-4.318 0-2.703-1.52-4.3-3.64-4.3a3.28 3.28 0 0 0-2.64 1.325v-1.12h-1.79v11.34h1.785v-4.26c.663.89 1.6 1.35 2.635 1.35zm-.53-1.58c-.84 0-1.72-.51-2.11-1.106v-3.247c.39-.61 1.27-1.1 2.11-1.1 1.41 0 2.31 1.14 2.31 2.72 0 1.6-.9 2.74-2.31 2.74zm7.72 1.376v-11.34h-1.79V138h1.78zm6.1.204c1.31 0 2.51-.408 3.33-1.19l-.82-1.173c-.58.58-1.53.91-2.33.91-1.55 0-2.49-1.02-2.62-2.26h6.34v-.42c0-2.58-1.58-4.47-4.05-4.47-2.43 0-4.166 1.92-4.166 4.3 0 2.6 1.836 4.32 4.3 4.32zm2.17-4.98H177c.085-1.004.782-2.177 2.312-2.177 1.614 0 2.277 1.207 2.31 2.176zm5.96 4.98c.83 0 1.36-.22 1.68-.527l-.425-1.343c-.137.153-.46.29-.8.29-.51 0-.78-.41-.78-.97v-4.3h1.664v-1.565h-1.668v-2.25h-1.785v2.24h-1.36v1.56h1.36v4.74c0 1.36.73 2.11 2.107 2.11zm6.75 0c1.31 0 2.513-.408 3.33-1.19l-.817-1.173c-.577.58-1.53.91-2.328.91-1.55 0-2.484-1.02-2.62-2.26h6.34v-.42c0-2.58-1.58-4.47-4.045-4.47-2.433 0-4.167 1.92-4.167 4.3 0 2.6 1.835 4.32 4.3 4.32zm2.173-4.98h-4.62c.084-1.004.78-2.177 2.31-2.177 1.614 0 2.277 1.207 2.31 2.176zM207.6 138v-11.34h-1.785v4.268c-.663-.867-1.615-1.343-2.635-1.343-2.125 0-3.655 1.666-3.655 4.318 0 2.703 1.547 4.3 3.655 4.3 1.054 0 2.006-.51 2.635-1.325V138h1.785zm-3.91-1.377c-1.41 0-2.312-1.14-2.312-2.72 0-1.598.9-2.737 2.312-2.737.85 0 1.717.493 2.125 1.105v3.27c-.408.61-1.275 1.09-2.125 1.09z" fill="#000"/></g></svg>