<svg xmlns="http://www.w3.org/2000/svg" xmlns:xlink="http://www.w3.org/1999/xlink" width="386" height="334"><defs><linearGradient id="b" x1="50%" x2="50%" y1="4.468%" y2="-3.262%"><stop offset="0%" stop-color="#FFF" stop-opacity=".5"/><stop offset="100%" stop-opacity=".5"/></linearGradient><rect id="a" width="375.748" height="285.482" rx="8"/><linearGradient id="c" x1="44.011%" x2="50%" y1="48.414%" y2="0%"><stop offset="0%" stop-color="#EBEBEB"/><stop offset="100%" stop-color="#FFF"/></linearGradient><rect id="d" width="382.179" height="285.482" rx="9.187"/><path id="e" d="M0 5.518A5.515 5.515 0 0 1 5.512 0h163.529a5.507 5.507 0 0 1 5.512 5.518v44.051H0V5.518z"/><radialGradient id="f" cx="77.009%" cy="-55.709%" r="100%" fx="77.009%" fy="-55.709%" gradientTransform="matrix(0 1 -1.16929 0 .119 -1.327)"><stop offset="0%" stop-color="#E6F5F9"/><stop offset="100%" stop-color="#C9E8F0"/></radialGradient><linearGradient id="g" x1="100%" x2="0%" y1="50%" y2="50%"><stop offset="0%" stop-color="#3B3B3B"/><stop offset="100%" stop-color="#4F4F4F"/></linearGradient><radialGradient id="h" r="60.968%" fx="50%" fy="50%" gradientTransform="matrix(0 1 -.97222 0 .986 0)"><stop offset="0%"/><stop offset="100%" stop-color="#424242"/></radialGradient><radialGradient id="i" cx="60.27%" r="269.996%" fx="60.27%" fy="50%" gradientTransform="matrix(.89023 .44082 -.4452 .84198 .289 -.187)"><stop offset="0%"/><stop offset="100%" stop-color="#D6D6D6"/></radialGradient></defs><g fill="none" fill-rule="evenodd" transform="translate(1)"><g transform="translate(4.585 37.636)"><use fill="#D4D4D4" xlink:href="#a"/><use fill="url(#b)" style="mix-blend-mode:screen" xlink:href="#a"/></g><g transform="translate(.91 43.144)"><rect width="68.902" height="7.344" x="305.927" y="282.728" fill="#0D0D0B" rx="1.837"/><rect width="68.902" height="7.344" x="7.35" y="282.728" fill="#0D0D0B" rx="1.837"/><rect width="376.667" height="269.877" x="2.756" y="15.605" rx="9.187"/><use fill="url(#c)" xlink:href="#d"/><rect width="384.016" height="287.319" x="-.919" y="-.919" stroke="#DCDCDC" stroke-width="1.837" rx="9.187"/></g><path fill="#4A4A4A" d="M78.081 47.733h229.675v2.754H78.081z"/><g transform="translate(105.642)"><use fill="#F9F9F9" xlink:href="#e"/><path stroke="#E7E7E7" stroke-width=".919" d="M.46 49.11h173.633V5.518a5.048 5.048 0 0 0-5.052-5.059H5.512A5.056 5.056 0 0 0 .46 5.518V49.11z"/><path fill="url(#f)" transform="translate(0 9.18)" d="M0 0h174.553v23.867H0z"/></g><path fill="#727272" d="M35.821 284.11a1.377 1.377 0 1 1 2.756 0v11.923c0 .764-.611 1.382-1.378 1.382a1.376 1.376 0 0 1-1.378-1.382V284.11zm38.586 0c0-.763.611-1.382 1.378-1.382.76 0 1.378.612 1.378 1.382v11.923c0 .764-.612 1.382-1.378 1.382a1.376 1.376 0 0 1-1.378-1.382V284.11zm-30.317 0c0-.763.611-1.382 1.378-1.382.76 0 1.378.612 1.378 1.382v11.923c0 .764-.612 1.382-1.378 1.382a1.376 1.376 0 0 1-1.378-1.382V284.11zm37.666 0a1.377 1.377 0 1 1 2.756 0v11.923c0 .764-.611 1.382-1.378 1.382a1.376 1.376 0 0 1-1.378-1.382V284.11zm-30.317 0a1.377 1.377 0 1 1 2.756 0v11.923c0 .764-.611 1.382-1.378 1.382a1.376 1.376 0 0 1-1.378-1.382V284.11zm37.667 0a1.377 1.377 0 1 1 2.756 0v11.923c0 .764-.612 1.382-1.378 1.382a1.376 1.376 0 0 1-1.378-1.382V284.11zm-30.317 0c0-.763.611-1.382 1.378-1.382.76 0 1.378.612 1.378 1.382v11.923c0 .764-.612 1.382-1.378 1.382a1.376 1.376 0 0 1-1.378-1.382V284.11zm38.585 0a1.377 1.377 0 1 1 2.756 0v11.923c0 .764-.611 1.382-1.378 1.382a1.376 1.376 0 0 1-1.378-1.382V284.11zm-68.902 0c0-.763.611-1.382 1.378-1.382.76 0 1.378.612 1.378 1.382v11.923c0 .764-.612 1.382-1.378 1.382a1.376 1.376 0 0 1-1.378-1.382V284.11zm37.666 0a1.377 1.377 0 1 1 2.756 0v11.923c0 .764-.611 1.382-1.378 1.382a1.376 1.376 0 0 1-1.378-1.382V284.11zm38.586 0c0-.763.611-1.382 1.378-1.382.76 0 1.378.612 1.378 1.382v11.923c0 .764-.612 1.382-1.378 1.382a1.376 1.376 0 0 1-1.378-1.382V284.11zm181.902 0a1.377 1.377 0 1 1 2.756 0v11.923c0 .764-.611 1.382-1.378 1.382a1.376 1.376 0 0 1-1.378-1.382V284.11zm38.586 0c0-.763.611-1.382 1.378-1.382.76 0 1.378.612 1.378 1.382v11.923c0 .764-.612 1.382-1.378 1.382a1.376 1.376 0 0 1-1.378-1.382V284.11zm-30.317 0c0-.763.611-1.382 1.378-1.382.76 0 1.378.612 1.378 1.382v11.923c0 .764-.612 1.382-1.378 1.382a1.376 1.376 0 0 1-1.378-1.382V284.11zm37.666 0a1.377 1.377 0 1 1 2.756 0v11.923c0 .764-.611 1.382-1.378 1.382a1.376 1.376 0 0 1-1.378-1.382V284.11zm-30.317 0a1.377 1.377 0 1 1 2.756 0v11.923c0 .764-.611 1.382-1.378 1.382a1.376 1.376 0 0 1-1.378-1.382V284.11zm37.667 0a1.377 1.377 0 1 1 2.756 0v11.923c0 .764-.612 1.382-1.378 1.382a1.376 1.376 0 0 1-1.378-1.382V284.11zm-30.317 0c0-.763.611-1.382 1.378-1.382.76 0 1.378.612 1.378 1.382v11.923c0 .764-.612 1.382-1.378 1.382a1.376 1.376 0 0 1-1.378-1.382V284.11zm38.585 0a1.377 1.377 0 1 1 2.756 0v11.923c0 .764-.611 1.382-1.378 1.382a1.376 1.376 0 0 1-1.378-1.382V284.11zm-68.902 0c0-.763.611-1.382 1.378-1.382.76 0 1.378.612 1.378 1.382v11.923c0 .764-.612 1.382-1.378 1.382a1.376 1.376 0 0 1-1.378-1.382V284.11zm37.666 0a1.377 1.377 0 1 1 2.756 0v11.923c0 .764-.611 1.382-1.378 1.382a1.376 1.376 0 0 1-1.378-1.382V284.11zm38.586 0c0-.763.611-1.382 1.378-1.382.76 0 1.378.612 1.378 1.382v11.923c0 .764-.612 1.382-1.378 1.382a1.376 1.376 0 0 1-1.378-1.382V284.11z"/><rect width="139.642" height="37.636" fill="url(#g)" rx="7.35" transform="translate(123.098 268.959)"/><g transform="translate(318 159)"><circle cx="1" cy="14" r="1" fill="#000"/><circle cx="3" cy="9" r="1" fill="#030402"/><circle cx="6" cy="5" r="1" fill="#030402"/><circle cx="9" cy="1" r="1" fill="#030402"/><ellipse cx="25" cy="19.5" fill="url(#h)" opacity=".8" rx="18" ry="17.5"/><ellipse cx="25" cy="19.5" fill="url(#i)" rx="15" ry="15.5"/><ellipse cx="26.5" cy="20" fill="#101010" rx="13.5" ry="14"/><rect width="19" height="3" x="9" y="13" fill="#434343" rx="1.5" transform="rotate(37 18.5 14.5)"/></g><path fill="#345056" d="M128.418 25.77l-.57-1.874h-2.87l-.57 1.873h-1.798l2.777-7.902h2.04l2.789 7.902h-1.798zm-.969-3.274a554.124 554.124 0 0 1-.89-2.88 8.13 8.13 0 0 1-.143-.527c-.119.46-.458 1.595-1.018 3.407h2.051zm6.524-1.146h3.122v4.08c-.506.165-.982.28-1.429.347a9.31 9.31 0 0 1-1.37.1c-1.188 0-2.095-.35-2.72-1.047-.627-.698-.94-1.7-.94-3.007 0-1.27.363-2.26 1.09-2.97.727-.711 1.734-1.067 3.022-1.067a5.85 5.85 0 0 1 2.337.485l-.555 1.335a3.96 3.96 0 0 0-1.792-.43c-.722 0-1.3.241-1.734.726-.434.484-.651 1.136-.651 1.954 0 .854.175 1.506.525 1.957.35.45.858.675 1.526.675.348 0 .701-.036 1.06-.108v-1.64h-1.49v-1.39zm9.528 4.42h-4.532V17.9h4.532v1.367h-2.864v1.728h2.665v1.367h-2.665v2.03h2.864v1.377zm8.624 0h-2.121l-3.424-5.954h-.048c.068 1.051.102 1.801.102 2.25v3.703h-1.491V17.9h2.105l3.418 5.895h.038a47.724 47.724 0 0 1-.081-2.17V17.9h1.502v7.87zm5.017 0h-1.669v-6.482h-2.137V17.9h5.943v1.39h-2.137v6.48zm4.543-7.87l.075.118c-.18.707-.495 1.566-.947 2.578h-1.179c.248-1.062.427-1.961.538-2.697h1.513zm5.84 5.684c0 .71-.255 1.27-.767 1.68-.51.408-1.222.613-2.134.613-.84 0-1.583-.158-2.228-.474v-1.55c.53.237.98.404 1.348.5a3.99 3.99 0 0 0 1.01.146c.365 0 .646-.07.842-.21.195-.14.293-.348.293-.625a.69.69 0 0 0-.13-.411 1.446 1.446 0 0 0-.379-.348c-.166-.11-.506-.288-1.02-.532-.48-.227-.841-.444-1.082-.652a2.445 2.445 0 0 1-.576-.726 2.074 2.074 0 0 1-.215-.97c0-.696.236-1.243.708-1.641.472-.399 1.124-.598 1.957-.598.409 0 .799.049 1.17.146.372.096.76.233 1.166.409l-.538 1.297a7.876 7.876 0 0 0-1.042-.36 3.353 3.353 0 0 0-.81-.103c-.316 0-.558.074-.727.22a.728.728 0 0 0-.253.577c0 .147.034.275.102.385.069.11.177.215.326.317.149.102.502.286 1.058.552.735.352 1.24.704 1.512 1.058.273.353.41.787.41 1.3zm7.623 2.185l-1.895-6.174h-.048c.068 1.256.102 2.094.102 2.514v3.66h-1.491V17.9h2.271l1.863 6.018h.032l1.976-6.018h2.271v7.87h-1.555v-3.725c0-.176.002-.378.008-.608.005-.23.03-.84.072-1.83h-.048l-2.03 6.163h-1.528zm14.206-3.946c0 1.303-.323 2.304-.97 3.004-.645.7-1.571 1.05-2.777 1.05-1.206 0-2.132-.35-2.778-1.05-.646-.7-.969-1.704-.969-3.014 0-1.31.324-2.31.972-3.001.648-.691 1.576-1.037 2.786-1.037s2.134.349 2.775 1.045c.64.696.96 1.697.96 3.003zm-5.744 0c0 .88.167 1.542.5 1.987.334.445.833.667 1.497.667 1.331 0 1.997-.884 1.997-2.654 0-1.772-.662-2.659-1.986-2.659-.664 0-1.165.224-1.502.67-.337.447-.506 1.11-.506 1.99zm10.718-2.648c-.629 0-1.115.236-1.46.708-.344.472-.516 1.13-.516 1.973 0 1.755.658 2.632 1.976 2.632.552 0 1.221-.138 2.007-.414v1.4c-.646.268-1.367.403-2.164.403-1.144 0-2.02-.347-2.627-1.042-.606-.694-.91-1.69-.91-2.99 0-.818.15-1.535.448-2.15a3.23 3.23 0 0 1 1.283-1.416c.558-.329 1.212-.493 1.963-.493.764 0 1.532.185 2.303.555l-.538 1.356a8.91 8.91 0 0 0-.888-.366 2.65 2.65 0 0 0-.877-.156zm10.012 6.594h-1.895l-2.062-3.316-.705.506v2.81h-1.669V17.9h1.67v3.602l.656-.926 2.132-2.676h1.851l-2.745 3.483 2.767 4.387zm5.523-4.166h.549c.513 0 .897-.102 1.152-.304.255-.203.382-.498.382-.886 0-.391-.107-.68-.32-.867-.214-.186-.548-.28-1.004-.28h-.76v2.337zm3.768-1.25c0 .848-.265 1.496-.794 1.944-.53.449-1.282.673-2.258.673h-.716v2.8h-1.669V17.9h2.514c.955 0 1.68.205 2.177.616.497.41.746 1.023.746 1.838zm3.154 1.04h.539c.527 0 .917-.088 1.168-.264.251-.176.377-.452.377-.829 0-.373-.129-.639-.385-.797-.257-.157-.654-.236-1.193-.236h-.506v2.126zm0 1.356v3.02h-1.668V17.9h2.293c1.07 0 1.86.195 2.374.584.513.39.77.98.77 1.774 0 .463-.128.875-.383 1.235-.254.361-.615.644-1.082.848a317.826 317.826 0 0 0 2.315 3.43h-1.852l-1.878-3.02h-.889zm10.142 3.02h-4.533V17.9h4.533v1.368h-2.864v1.728h2.665v1.367h-2.665v2.03h2.864v1.377zm4.974 0l-1.895-6.174h-.048c.068 1.256.102 2.094.102 2.514v3.66h-1.491V17.9h2.271l1.863 6.018h.032l1.976-6.018h2.271v7.87h-1.555v-3.725c0-.176.002-.378.008-.608.005-.23.03-.84.072-1.83h-.048l-2.03 6.163h-1.528zm7.062 0V17.9h1.67v7.87h-1.67zm10.056-7.87v5.093c0 .581-.13 1.09-.39 1.528a2.54 2.54 0 0 1-1.128 1.007c-.492.233-1.073.35-1.744.35-1.012 0-1.798-.26-2.358-.778-.56-.519-.84-1.228-.84-2.129V17.9h1.664v4.817c0 .607.122 1.052.366 1.335.244.284.647.425 1.21.425.546 0 .942-.142 1.188-.428.246-.285.368-.733.368-1.343V17.9h1.664zm5.259 7.87l-1.895-6.174h-.048c.068 1.256.102 2.094.102 2.514v3.66h-1.491V17.9h2.272l1.862 6.018h.032l1.976-6.018h2.272v7.87h-1.556v-3.725c0-.176.003-.378.008-.608.005-.23.03-.84.073-1.83h-.049l-2.03 6.163h-1.528zm11.708-2.185c0 .71-.256 1.27-.767 1.68-.511.408-1.223.613-2.134.613-.84 0-1.583-.158-2.229-.474v-1.55c.531.237.98.404 1.348.5a3.99 3.99 0 0 0 1.01.146c.366 0 .647-.07.842-.21.196-.14.294-.348.294-.625a.69.69 0 0 0-.13-.411 1.446 1.446 0 0 0-.38-.348c-.166-.11-.506-.288-1.02-.532-.48-.227-.84-.444-1.081-.652a2.445 2.445 0 0 1-.576-.726 2.074 2.074 0 0 1-.215-.97c0-.696.236-1.243.707-1.641.472-.399 1.125-.598 1.957-.598.41 0 .8.049 1.17.146.372.096.76.233 1.166.409l-.538 1.297a7.876 7.876 0 0 0-1.042-.36 3.353 3.353 0 0 0-.81-.103c-.315 0-.558.074-.726.22a.728.728 0 0 0-.253.577c0 .147.034.275.102.385.068.11.177.215.326.317.148.102.501.286 1.057.552.736.352 1.24.704 1.513 1.058.273.353.409.787.409 1.3z"/></g></svg>